<svg width="1274" height="458" xmlns="http://www.w3.org/2000/svg" xmlns:xlink="http://www.w3.org/1999/xlink" overflow="hidden"><defs><clipPath id="clip0"><rect x="574" y="171" width="1274" height="458"/></clipPath></defs><g clip-path="url(#clip0)" transform="translate(-574 -171)"><path d="M1294.23 523.285 1290.61 539.847C1291.48 539.91 1292.81 539.941 1294.61 539.941 1297.19 539.941 1299.24 539.462 1300.75 538.503 1302.26 537.545 1303.38 536.201 1304.11 534.472 1304.84 532.743 1305.2 530.972 1305.2 529.16 1305.2 525.243 1302.98 523.285 1298.54 523.285ZM1301.98 504.597C1300.52 504.597 1299.29 504.649 1298.29 504.753L1295.01 519.628 1299.89 519.628C1301.72 519.628 1303.32 519.217 1304.68 518.394 1306.05 517.571 1307.1 516.43 1307.83 514.972 1308.55 513.514 1308.92 511.837 1308.92 509.941 1308.92 508.149 1308.36 506.811 1307.23 505.925 1306.11 505.04 1304.36 504.597 1301.98 504.597ZM1286.26 500.941 1304.2 500.941C1307.87 500.941 1310.73 501.264 1312.78 501.91 1314.83 502.556 1316.31 503.514 1317.23 504.785 1318.15 506.056 1318.61 507.66 1318.61 509.597 1318.61 512.493 1317.81 514.878 1316.22 516.753 1314.62 518.628 1312.05 520.253 1308.51 521.628L1308.45 521.972C1310.41 522.764 1311.92 523.868 1313 525.285 1314.07 526.701 1314.61 528.337 1314.61 530.191 1314.61 532.733 1314 534.951 1312.78 536.847 1311.56 538.743 1309.62 540.342 1306.95 541.644 1304.28 542.946 1300.18 543.597 1294.64 543.597L1277.67 543.597 1278.11 541.535C1279.29 541.201 1280.17 540.618 1280.73 539.785 1281.29 538.951 1281.83 537.41 1282.33 535.16L1288.01 509.378C1288.28 508.149 1288.42 506.931 1288.42 505.722 1288.42 504.847 1288.22 504.207 1287.81 503.8 1287.4 503.394 1286.74 503.128 1285.83 503.003Z" fill="#CFDCE6" fill-rule="evenodd"/><text fill="#000000" fill-opacity="0" font-family="Arial,Arial_MSFontService,sans-serif" font-size="42.6562" x="1277.67" y="538.265">𝑩</text><path d="M771.442 195.012 801.786 195.012 799.567 205.075 795.567 205.075C795.463 203.096 795.275 201.71 795.005 200.918 794.734 200.127 794.317 199.554 793.755 199.2 793.192 198.846 792.4 198.668 791.38 198.668L783.536 198.668 780.223 213.668 784.567 213.668C785.4 213.668 786.103 213.533 786.676 213.262 787.249 212.991 787.781 212.538 788.27 211.903 788.76 211.267 789.244 210.387 789.723 209.262L793.161 209.262 790.161 221.95 786.942 221.95C786.942 220.741 786.869 219.814 786.723 219.168 786.577 218.523 786.307 218.054 785.911 217.762 785.515 217.471 784.838 217.325 783.88 217.325L779.442 217.325 775.755 234.012 782.786 234.012C783.702 234.012 784.416 233.95 784.926 233.825 785.437 233.7 785.906 233.502 786.333 233.231 786.76 232.96 787.255 232.528 787.817 231.934 788.38 231.34 788.937 230.59 789.489 229.684 790.041 228.778 790.609 227.689 791.192 226.418L795.442 226.418 792.567 237.668 762.848 237.668 763.286 235.606C764.473 235.273 765.348 234.689 765.911 233.856 766.473 233.023 767.005 231.481 767.505 229.231L773.192 203.45C773.463 202.221 773.598 201.002 773.598 199.793 773.598 198.918 773.395 198.278 772.989 197.872 772.583 197.465 771.921 197.2 771.005 197.075Z" fill="#CFDCE6" fill-rule="evenodd"/><text fill="#000000" fill-opacity="0" font-family="Arial,Arial_MSFontService,sans-serif" font-size="42.6562" x="762.848" y="232.336">𝑬</text><path d="M1597.27 188.397C1600.83 188.397 1604.33 188.907 1607.77 189.928L1605.77 199.053 1601.68 199.053C1601.61 197.199 1601.43 195.803 1601.11 194.866 1600.8 193.928 1600.31 193.225 1599.64 192.756 1598.98 192.287 1598.07 192.053 1596.93 192.053 1595.18 192.053 1593.45 192.741 1591.74 194.116 1590.03 195.491 1588.45 197.569 1587 200.35 1585.56 203.131 1584.39 206.418 1583.5 210.209 1582.62 214.001 1582.18 217.418 1582.18 220.459 1582.18 222.209 1582.34 223.657 1582.66 224.803 1582.98 225.949 1583.55 226.834 1584.35 227.459 1585.15 228.084 1586.26 228.397 1587.68 228.397 1589.84 228.397 1591.64 227.855 1593.07 226.772 1594.49 225.688 1595.78 223.824 1596.93 221.178L1601.02 221.178 1599.02 230.397C1597 230.98 1594.99 231.402 1592.99 231.662 1590.99 231.923 1588.84 232.053 1586.55 232.053 1582.11 232.053 1578.71 230.84 1576.33 228.412 1573.96 225.985 1572.77 222.491 1572.77 217.928 1572.77 216.199 1572.96 214.209 1573.33 211.959 1573.94 208.397 1574.94 205.105 1576.33 202.084 1577.73 199.063 1579.48 196.527 1581.6 194.475 1583.71 192.423 1586.09 190.897 1588.72 189.897 1591.36 188.897 1594.21 188.397 1597.27 188.397Z" fill="#CFDCE6" fill-rule="evenodd"/><text fill="#000000" fill-opacity="0" font-family="Arial,Arial_MSFontService,sans-serif" font-size="43.6562" x="1572.77" y="226.596">𝑪</text><path d="M575 358C575 344.193 586.417 333 600.5 333 614.583 333 626 344.193 626 358 626 371.807 614.583 383 600.5 383 586.417 383 575 371.807 575 358Z" fill="#03111A" fill-rule="evenodd"/><path d="M1796 353C1796 339.193 1807.42 328 1821.5 328 1835.58 328 1847 339.193 1847 353 1847 366.807 1835.58 378 1821.5 378 1807.42 378 1796 366.807 1796 353Z" fill="#03111A" fill-rule="evenodd"/><path d="M965 332 1105 332" stroke="#CFDCE6" stroke-width="8" stroke-miterlimit="8" fill="none" fill-rule="evenodd"/><path d="M0 0 146.861 0.000104987" stroke="#CFDCE6" stroke-width="8" stroke-miterlimit="8" fill="none" fill-rule="evenodd" transform="matrix(1.83697e-16 1 1 -1.83697e-16 1035 332)"/><path d="M1.63543-3.65039 101.547 41.1114 98.2762 48.4122-1.63543 3.65039ZM86.9853 19.8438 107.156 48.0076 72.7121 51.7029C70.5155 51.9385 68.5438 50.3489 68.3082 48.1524 68.0725 45.9558 69.6622 43.9841 71.8587 43.7485L99.4851 40.7847 96.6598 47.0909 80.4814 24.502C79.1951 22.706 79.6083 20.2073 81.4043 18.9209 83.2003 17.6346 85.699 18.0478 86.9853 19.8438Z" fill="#CFDCE6" transform="matrix(1.83697e-16 1 1 -1.83697e-16 950 225)"/><path d="M1113 225 1065 332.14" stroke="#CFDCE6" stroke-width="8" stroke-miterlimit="8" fill="none" fill-rule="evenodd"/><path d="M852 225 950 225" stroke="#CFDCE6" stroke-width="8" stroke-miterlimit="8" fill="none" fill-rule="evenodd"/><path d="M1159.26 583.725C1158.33 583.725 1157.41 583.964 1156.53 584.444 1155.64 584.923 1154.92 585.605 1154.36 586.49 1153.79 587.376 1153.51 588.371 1153.51 589.475L1153.51 600.069C1153.51 602.631 1153.96 604.522 1154.84 605.74 1155.73 606.959 1157.1 607.569 1158.95 607.569 1160.87 607.569 1162.33 606.563 1163.34 604.553 1164.35 602.542 1164.86 599.673 1164.86 595.944 1164.86 591.798 1164.4 588.725 1163.5 586.725 1162.59 584.725 1161.18 583.725 1159.26 583.725ZM1180.14 579.319 1192.29 579.319 1192.29 596.662C1192.29 598.933 1192.38 600.678 1192.54 601.897 1192.71 603.115 1193.1 604.089 1193.72 604.819 1194.33 605.548 1195.24 605.912 1196.45 605.912 1197.22 605.912 1198.03 605.673 1198.89 605.194 1199.74 604.714 1200.47 604.042 1201.06 603.178 1201.65 602.313 1201.95 601.391 1201.95 600.412L1201.95 588.35C1201.95 586.412 1201.89 585.042 1201.76 584.24 1201.64 583.438 1201.37 582.834 1200.97 582.428 1200.56 582.022 1199.85 581.673 1198.83 581.381L1198.83 579.319 1211.01 579.319 1211.01 601.194C1211.01 602.777 1211.04 603.933 1211.09 604.662 1211.14 605.391 1211.26 605.975 1211.45 606.412 1211.64 606.85 1211.94 607.209 1212.36 607.49 1212.77 607.772 1213.47 608.016 1214.45 608.225L1214.45 610.319 1205.95 610.6 1202.17 610.6 1202.45 606.1 1202.08 606.006C1200.14 607.798 1198.41 609.048 1196.89 609.756 1195.37 610.464 1193.84 610.819 1192.29 610.819 1189.17 610.819 1186.88 609.959 1185.44 608.24 1183.99 606.522 1183.26 603.704 1183.26 599.787L1183.26 588.35C1183.26 586.35 1183.21 584.985 1183.09 584.256 1182.98 583.527 1182.72 582.933 1182.31 582.475 1181.9 582.016 1181.18 581.652 1180.14 581.381ZM1089.01 579.069 1092.92 579.069 1092.92 601.287C1092.92 603.287 1092.98 604.657 1093.09 605.397 1093.21 606.136 1093.46 606.73 1093.86 607.178 1094.25 607.626 1094.98 607.985 1096.04 608.256L1096.04 610.319 1080.79 610.319 1080.79 608.256C1081.82 607.985 1082.52 607.631 1082.9 607.194 1083.29 606.756 1083.55 606.162 1083.69 605.412 1083.82 604.662 1083.89 603.298 1083.89 601.319L1083.89 586.787C1083.89 585.329 1083.79 584.292 1083.61 583.678 1083.42 583.063 1083.11 582.595 1082.69 582.272 1082.26 581.949 1081.5 581.673 1080.42 581.444L1080.42 579.319ZM1257.48 578.819C1259 578.819 1260.49 578.881 1261.95 579.006 1263.41 579.131 1265.29 579.402 1267.61 579.819L1267.61 587.1 1263.48 587.1C1263 585.766 1262.48 584.735 1261.9 584.006 1261.33 583.277 1260.7 582.772 1260.01 582.49 1259.33 582.209 1258.5 582.069 1257.54 582.069 1256.17 582.069 1255.08 582.381 1254.26 583.006 1253.45 583.631 1253.04 584.506 1253.04 585.631 1253.04 586.423 1253.19 587.1 1253.48 587.662 1253.77 588.225 1254.29 588.772 1255.04 589.303 1255.79 589.834 1257.24 590.548 1259.39 591.444 1262.49 592.735 1264.7 594.136 1266 595.647 1267.3 597.157 1267.95 598.975 1267.95 601.1 1267.95 604.225 1266.84 606.626 1264.61 608.303 1262.38 609.98 1259.22 610.819 1255.14 610.819 1251.7 610.819 1247.88 610.329 1243.67 609.35L1243.67 601.881 1247.86 601.881C1248.36 603.777 1249.15 605.199 1250.23 606.147 1251.32 607.095 1252.76 607.569 1254.58 607.569 1256.14 607.569 1257.32 607.214 1258.12 606.506 1258.93 605.798 1259.33 604.766 1259.33 603.412 1259.33 602.558 1259.14 601.829 1258.78 601.225 1258.41 600.621 1257.81 600.042 1256.97 599.49 1256.12 598.938 1254.68 598.214 1252.64 597.319 1249.72 596.048 1247.61 594.647 1246.29 593.115 1244.98 591.584 1244.33 589.86 1244.33 587.944 1244.33 586.069 1244.87 584.444 1245.95 583.069 1247.03 581.694 1248.58 580.641 1250.59 579.912 1252.6 579.183 1254.9 578.819 1257.48 578.819ZM1163.23 578.819C1166.94 578.819 1169.72 580.126 1171.58 582.74 1173.43 585.355 1174.36 589.266 1174.36 594.475 1174.36 599.912 1173.13 603.996 1170.69 606.725 1168.24 609.454 1164.62 610.819 1159.83 610.819 1157.68 610.819 1155.58 610.548 1153.51 610.006L1153.51 615.912C1153.51 617.475 1153.6 618.579 1153.76 619.225 1153.93 619.871 1154.23 620.381 1154.65 620.756 1155.08 621.131 1155.84 621.444 1156.92 621.694L1156.92 623.756 1141.36 623.756 1141.36 621.694C1142.34 621.402 1143.02 621.079 1143.4 620.725 1143.79 620.371 1144.07 619.876 1144.23 619.24 1144.4 618.605 1144.48 617.496 1144.48 615.912L1144.48 588.569C1144.48 586.964 1144.46 585.808 1144.42 585.1 1144.38 584.391 1144.26 583.803 1144.06 583.334 1143.86 582.865 1143.56 582.485 1143.14 582.194 1142.72 581.902 1142.01 581.652 1141.01 581.444L1141.01 579.319 1149.67 579.069 1153.51 579.069 1153.04 583.6 1153.42 583.694C1155.21 581.964 1156.88 580.72 1158.44 579.959 1159.99 579.199 1161.59 578.819 1163.23 578.819ZM1123.7 578.819C1125.41 578.819 1126.83 579.063 1127.95 579.553 1129.08 580.042 1129.99 580.756 1130.69 581.694 1131.38 582.631 1131.88 583.777 1132.19 585.131 1132.49 586.485 1132.64 588.058 1132.64 589.85L1132.64 601.287C1132.64 603.266 1132.7 604.631 1132.83 605.381 1132.95 606.131 1133.21 606.73 1133.61 607.178 1134 607.626 1134.73 607.985 1135.79 608.256L1135.79 610.319 1120.64 610.319 1120.64 608.256C1121.6 608.027 1122.26 607.688 1122.64 607.24 1123.01 606.792 1123.27 606.188 1123.4 605.428 1123.54 604.667 1123.61 603.298 1123.61 601.319L1123.61 592.975C1123.61 591.454 1123.57 590.136 1123.48 589.022 1123.4 587.907 1123.25 587.042 1123.04 586.428 1122.84 585.813 1122.58 585.313 1122.26 584.928 1121.95 584.542 1121.59 584.246 1121.17 584.037 1120.75 583.829 1120.17 583.725 1119.42 583.725 1118.63 583.725 1117.81 583.97 1116.95 584.459 1116.1 584.949 1115.38 585.626 1114.79 586.49 1114.21 587.355 1113.92 588.277 1113.92 589.256L1113.92 601.287C1113.92 603.266 1113.98 604.641 1114.11 605.412 1114.23 606.183 1114.49 606.792 1114.87 607.24 1115.26 607.688 1115.94 608.027 1116.92 608.256L1116.92 610.319 1101.83 610.319 1101.83 608.256C1102.83 607.985 1103.52 607.631 1103.9 607.194 1104.29 606.756 1104.55 606.162 1104.69 605.412 1104.82 604.662 1104.89 603.298 1104.89 601.319L1104.89 588.475C1104.89 586.933 1104.86 585.792 1104.81 585.053 1104.76 584.313 1104.63 583.72 1104.44 583.272 1104.24 582.824 1103.94 582.459 1103.53 582.178 1103.12 581.897 1102.42 581.652 1101.42 581.444L1101.42 579.319 1109.98 579.069 1113.92 579.069 1113.45 583.569 1113.83 583.662C1115.83 581.871 1117.58 580.615 1119.09 579.897 1120.6 579.178 1122.14 578.819 1123.7 578.819ZM1223.76 571.506 1231.23 571.506 1231.23 579.319 1240.14 579.319 1240.14 583.225 1231.23 583.225 1231.23 597.319C1231.23 599.673 1231.34 601.412 1231.56 602.537 1231.78 603.662 1232.15 604.49 1232.67 605.022 1233.19 605.553 1233.84 605.819 1234.61 605.819 1235.63 605.819 1236.5 605.641 1237.23 605.287 1237.96 604.933 1238.63 604.485 1239.23 603.944L1241.2 606.569C1239.37 608.131 1237.7 609.23 1236.2 609.865 1234.7 610.501 1233.12 610.819 1231.45 610.819 1228.35 610.819 1226.03 609.98 1224.5 608.303 1222.97 606.626 1222.2 604.089 1222.2 600.694L1222.2 583.225 1218.29 583.225 1218.29 581.069C1219.57 580.86 1220.5 580.548 1221.11 580.131 1221.71 579.714 1222.18 579.157 1222.51 578.459 1222.85 577.761 1223.11 576.85 1223.31 575.725 1223.51 574.6 1223.66 573.194 1223.76 571.506ZM1084.11 566.85 1092.67 566.85 1092.67 574.506 1084.11 574.506Z" fill="#CFDCE6" fill-rule="evenodd"/><text fill="#000000" fill-opacity="0" font-family="Arial,Arial_MSFontService,sans-serif" font-size="56.9062" x="1080.42" y="616.643">𝐢𝐧𝐩𝐮𝐭𝐬</text><path d="M1619.55 284.2C1618.61 284.2 1617.7 284.439 1616.82 284.918 1615.93 285.397 1615.21 286.08 1614.64 286.965 1614.08 287.851 1613.8 288.845 1613.8 289.95L1613.8 300.543C1613.8 303.106 1614.24 304.996 1615.13 306.215 1616.01 307.434 1617.38 308.043 1619.24 308.043 1621.15 308.043 1622.62 307.038 1623.63 305.028 1624.64 303.017 1625.14 300.147 1625.14 296.418 1625.14 292.272 1624.69 289.2 1623.78 287.2 1622.88 285.2 1621.47 284.2 1619.55 284.2ZM1516.64 282.543C1514.58 282.543 1513.09 283.528 1512.16 285.496 1511.23 287.465 1510.77 290.575 1510.77 294.825 1510.77 299.241 1511.26 302.548 1512.25 304.746 1513.24 306.944 1514.74 308.043 1516.74 308.043 1518.72 308.043 1520.18 307.08 1521.11 305.153 1522.05 303.226 1522.52 300.147 1522.52 295.918 1522.52 291.439 1522.02 288.09 1521.03 285.871 1520.04 283.653 1518.58 282.543 1516.64 282.543ZM1640.43 279.793 1652.58 279.793 1652.58 297.137C1652.58 299.408 1652.66 301.153 1652.83 302.371 1653 303.59 1653.39 304.564 1654 305.293 1654.62 306.022 1655.53 306.387 1656.74 306.387 1657.51 306.387 1658.32 306.147 1659.18 305.668 1660.03 305.189 1660.75 304.517 1661.35 303.653 1661.94 302.788 1662.24 301.866 1662.24 300.887L1662.24 288.825C1662.24 286.887 1662.18 285.517 1662.05 284.715 1661.93 283.913 1661.66 283.309 1661.25 282.903 1660.85 282.496 1660.13 282.147 1659.11 281.856L1659.11 279.793 1671.3 279.793 1671.3 301.668C1671.3 303.252 1671.33 304.408 1671.38 305.137 1671.43 305.866 1671.55 306.45 1671.74 306.887 1671.93 307.325 1672.23 307.684 1672.64 307.965 1673.06 308.246 1673.76 308.491 1674.74 308.7L1674.74 310.793 1666.24 311.075 1662.46 311.075 1662.74 306.575 1662.36 306.481C1660.43 308.272 1658.7 309.522 1657.18 310.231 1655.65 310.939 1654.12 311.293 1652.58 311.293 1649.46 311.293 1647.17 310.434 1645.72 308.715 1644.27 306.996 1643.55 304.179 1643.55 300.262L1643.55 288.825C1643.55 286.825 1643.49 285.46 1643.38 284.731 1643.26 284.002 1643 283.408 1642.6 282.95 1642.19 282.491 1641.47 282.127 1640.43 281.856ZM1537.43 279.793 1549.58 279.793 1549.58 297.137C1549.58 299.408 1549.66 301.153 1549.83 302.371 1550 303.59 1550.39 304.564 1551 305.293 1551.62 306.022 1552.53 306.387 1553.74 306.387 1554.51 306.387 1555.32 306.147 1556.18 305.668 1557.03 305.189 1557.75 304.517 1558.35 303.653 1558.94 302.788 1559.24 301.866 1559.24 300.887L1559.24 288.825C1559.24 286.887 1559.18 285.517 1559.05 284.715 1558.93 283.913 1558.66 283.309 1558.25 282.903 1557.85 282.496 1557.13 282.147 1556.11 281.856L1556.11 279.793 1568.3 279.793 1568.3 301.668C1568.3 303.252 1568.33 304.408 1568.38 305.137 1568.43 305.866 1568.55 306.45 1568.74 306.887 1568.93 307.325 1569.23 307.684 1569.64 307.965 1570.06 308.246 1570.76 308.491 1571.74 308.7L1571.74 310.793 1563.24 311.075 1559.46 311.075 1559.74 306.575 1559.36 306.481C1557.43 308.272 1555.7 309.522 1554.18 310.231 1552.65 310.939 1551.12 311.293 1549.58 311.293 1546.46 311.293 1544.17 310.434 1542.72 308.715 1541.27 306.996 1540.55 304.179 1540.55 300.262L1540.55 288.825C1540.55 286.825 1540.49 285.46 1540.38 284.731 1540.26 284.002 1540 283.408 1539.6 282.95 1539.19 282.491 1538.47 282.127 1537.43 281.856ZM1623.52 279.293C1627.23 279.293 1630.01 280.601 1631.86 283.215 1633.72 285.83 1634.64 289.741 1634.64 294.95 1634.64 300.387 1633.42 304.47 1630.97 307.2 1628.52 309.929 1624.9 311.293 1620.11 311.293 1617.97 311.293 1615.86 311.022 1613.8 310.481L1613.8 316.387C1613.8 317.95 1613.88 319.054 1614.05 319.7 1614.22 320.345 1614.51 320.856 1614.94 321.231 1615.37 321.606 1616.12 321.918 1617.21 322.168L1617.21 324.231 1601.64 324.231 1601.64 322.168C1602.62 321.877 1603.31 321.554 1603.69 321.2 1604.08 320.845 1604.35 320.351 1604.52 319.715 1604.69 319.08 1604.77 317.97 1604.77 316.387L1604.77 289.043C1604.77 287.439 1604.75 286.283 1604.71 285.575 1604.66 284.866 1604.54 284.278 1604.35 283.809 1604.15 283.34 1603.84 282.96 1603.43 282.668 1603.01 282.377 1602.3 282.127 1601.3 281.918L1601.3 279.793 1609.96 279.543 1613.8 279.543 1613.33 284.075 1613.71 284.168C1615.5 282.439 1617.17 281.194 1618.72 280.434 1620.27 279.673 1621.87 279.293 1623.52 279.293ZM1516.77 279.293C1521.81 279.293 1525.61 280.621 1528.18 283.278 1530.74 285.934 1532.02 289.825 1532.02 294.95 1532.02 300.241 1530.66 304.288 1527.96 307.09 1525.25 309.892 1521.35 311.293 1516.27 311.293 1511.37 311.293 1507.65 309.955 1505.1 307.278 1502.54 304.601 1501.27 300.679 1501.27 295.512 1501.27 291.845 1501.94 288.793 1503.28 286.356 1504.63 283.918 1506.46 282.132 1508.77 280.996 1511.08 279.861 1513.75 279.293 1516.77 279.293ZM1684.05 271.981 1691.52 271.981 1691.52 279.793 1700.43 279.793 1700.43 283.7 1691.52 283.7 1691.52 297.793C1691.52 300.147 1691.63 301.887 1691.85 303.012 1692.07 304.137 1692.44 304.965 1692.96 305.496 1693.48 306.028 1694.12 306.293 1694.89 306.293 1695.91 306.293 1696.79 306.116 1697.52 305.762 1698.25 305.408 1698.91 304.96 1699.52 304.418L1701.49 307.043C1699.65 308.606 1697.99 309.705 1696.49 310.34 1694.99 310.976 1693.4 311.293 1691.74 311.293 1688.63 311.293 1686.32 310.455 1684.78 308.778 1683.25 307.101 1682.49 304.564 1682.49 301.168L1682.49 283.7 1678.58 283.7 1678.58 281.543C1679.85 281.335 1680.79 281.022 1681.39 280.606 1682 280.189 1682.47 279.632 1682.8 278.934 1683.13 278.236 1683.4 277.325 1683.6 276.2 1683.79 275.075 1683.95 273.668 1684.05 271.981ZM1582.05 271.981 1589.52 271.981 1589.52 279.793 1598.43 279.793 1598.43 283.7 1589.52 283.7 1589.52 297.793C1589.52 300.147 1589.63 301.887 1589.85 303.012 1590.07 304.137 1590.44 304.965 1590.96 305.496 1591.48 306.028 1592.12 306.293 1592.89 306.293 1593.91 306.293 1594.79 306.116 1595.52 305.762 1596.25 305.408 1596.91 304.96 1597.52 304.418L1599.49 307.043C1597.65 308.606 1595.99 309.705 1594.49 310.34 1592.99 310.976 1591.4 311.293 1589.74 311.293 1586.63 311.293 1584.32 310.455 1582.78 308.778 1581.25 307.101 1580.49 304.564 1580.49 301.168L1580.49 283.7 1576.58 283.7 1576.58 281.543C1577.85 281.335 1578.79 281.022 1579.39 280.606 1580 280.189 1580.47 279.632 1580.8 278.934 1581.13 278.236 1581.4 277.325 1581.6 276.2 1581.79 275.075 1581.95 273.668 1582.05 271.981Z" fill="#CFDCE6" fill-rule="evenodd"/><text fill="#000000" fill-opacity="0" font-family="Arial,Arial_MSFontService,sans-serif" font-size="52.25" x="1501.27" y="317.7">𝐨𝐮𝐭𝐩𝐮𝐭</text><path d="M1226 337 1366 337" stroke="#CFDCE6" stroke-width="8" stroke-miterlimit="8" fill="none" fill-rule="evenodd"/><path d="M0 0 146.861 0.000104987" stroke="#CFDCE6" stroke-width="8" stroke-miterlimit="8" fill="none" fill-rule="evenodd" transform="matrix(1.83697e-16 1 1 -1.83697e-16 1296 337)"/><path d="M1.63543-3.65039 101.547 41.1114 98.2762 48.4122-1.63543 3.65039ZM86.9853 19.8438 107.156 48.0076 72.7121 51.7029C70.5155 51.9385 68.5438 50.3489 68.3082 48.1524 68.0725 45.9558 69.6622 43.9841 71.8587 43.7485L99.4851 40.7847 96.6598 47.0909 80.4814 24.502C79.1951 22.706 79.6083 20.2073 81.4043 18.9209 83.2003 17.6346 85.699 18.0478 86.9853 19.8438Z" fill="#CFDCE6" transform="matrix(1.83697e-16 1 1 -1.83697e-16 1211 230)"/><path d="M1374 230 1326 337.14" stroke="#CFDCE6" stroke-width="8" stroke-miterlimit="8" fill="none" fill-rule="evenodd"/><path d="M1113 230 1211 230" stroke="#CFDCE6" stroke-width="8" stroke-miterlimit="8" fill="none" fill-rule="evenodd"/><path d="M1374 231 1472 231" stroke="#CFDCE6" stroke-width="8" stroke-miterlimit="8" fill="none" fill-rule="evenodd"/><path d="M1039.07 508.503 1029.42 526.722 1039.6 526.722 1039.48 519.222C1039.44 516.555 1039.42 514.347 1039.42 512.597 1039.42 511.264 1039.43 509.899 1039.45 508.503ZM1038.63 500.722 1047.63 500.722 1048.98 534.128C1049.02 535.316 1049.1 536.384 1049.23 537.332 1049.35 538.279 1049.55 539.055 1049.82 539.66 1050.09 540.264 1050.43 540.707 1050.84 540.988 1051.24 541.269 1051.76 541.451 1052.38 541.535L1051.92 543.597 1035.76 543.597 1036.23 541.535C1037.14 541.472 1037.87 541.238 1038.4 540.832 1038.93 540.425 1039.3 539.873 1039.51 539.175 1039.72 538.477 1039.82 537.503 1039.82 536.253 1039.82 535.358 1039.8 534.42 1039.76 533.441L1039.7 530.378 1027.48 530.378 1027.04 531.16C1025.87 533.264 1025.1 534.858 1024.71 535.941 1024.33 537.024 1024.13 538.024 1024.13 538.941 1024.13 540.441 1025.02 541.305 1026.79 541.535L1026.32 543.597 1013.13 543.597 1013.6 541.535C1014.33 541.368 1014.97 541.087 1015.53 540.691 1016.08 540.295 1016.6 539.759 1017.1 539.082 1017.6 538.404 1018.31 537.243 1019.23 535.597Z" fill="#CFDCE6" fill-rule="evenodd"/><text fill="#000000" fill-opacity="0" font-family="Arial,Arial_MSFontService,sans-serif" font-size="42.875" x="1013.13" y="538.238">𝑨</text></g></svg>