<svg width="1273" height="524" xmlns="http://www.w3.org/2000/svg" xmlns:xlink="http://www.w3.org/1999/xlink" overflow="hidden"><defs><clipPath id="clip0"><rect x="505" y="100" width="1273" height="524"/></clipPath></defs><g clip-path="url(#clip0)" transform="translate(-505 -100)"><path d="M759 101 759 618.744" stroke="#CFDCE6" stroke-width="8" stroke-miterlimit="8" fill="none" fill-rule="evenodd"/><path d="M953.763 145.707C952.596 145.707 951.591 145.889 950.747 146.254 949.903 146.619 949.065 147.207 948.231 148.02 947.398 148.832 946.81 149.619 946.466 150.379 946.122 151.139 945.95 151.957 945.95 152.832L945.95 161.082C945.95 163.082 946.075 164.624 946.325 165.707 946.575 166.79 947.018 167.671 947.653 168.348 948.289 169.025 949.039 169.53 949.903 169.863 950.768 170.197 951.909 170.363 953.325 170.363 955.846 170.363 957.742 169.316 959.013 167.223 960.284 165.129 960.919 162.04 960.919 157.957 960.919 149.79 958.534 145.707 953.763 145.707ZM971.731 142.457 980.638 142.457 980.638 158.363C980.638 160.801 980.731 162.655 980.919 163.926 981.106 165.197 981.388 166.155 981.763 166.801 982.138 167.447 982.669 167.988 983.356 168.426 984.044 168.863 984.992 169.082 986.2 169.082 986.992 169.082 987.752 168.926 988.481 168.613 989.211 168.301 990.023 167.754 990.919 166.973 991.815 166.191 992.455 165.415 992.841 164.645 993.226 163.874 993.419 162.978 993.419 161.957L993.419 150.238C993.419 149.051 993.388 148.155 993.325 147.551 993.263 146.947 993.159 146.462 993.013 146.098 992.867 145.733 992.695 145.436 992.497 145.207 992.299 144.978 992.018 144.77 991.653 144.582 991.289 144.395 990.7 144.197 989.888 143.988L989.888 142.457 998.794 142.457 998.794 163.801C998.794 165.405 998.825 166.561 998.888 167.27 998.95 167.978 999.086 168.54 999.294 168.957 999.502 169.374 999.825 169.712 1000.26 169.973 1000.7 170.233 1001.48 170.478 1002.61 170.707L1002.61 172.332 995.45 172.645 993.544 172.645 993.731 167.52 993.263 167.395C991.534 169.27 989.883 170.645 988.31 171.52 986.737 172.395 985.159 172.832 983.575 172.832 981.679 172.832 980.117 172.457 978.888 171.707 977.659 170.957 976.742 169.837 976.138 168.348 975.534 166.858 975.231 164.759 975.231 162.051L975.231 150.238C975.231 148.488 975.164 147.285 975.028 146.629 974.893 145.973 974.633 145.452 974.247 145.066 973.862 144.681 973.023 144.322 971.731 143.988ZM890.325 142.176 892.231 142.176 892.231 164.52C892.231 166.311 892.315 167.556 892.481 168.254 892.648 168.952 892.966 169.483 893.435 169.848 893.903 170.212 894.669 170.53 895.731 170.801L895.731 172.332 883.481 172.332 883.481 170.801C884.294 170.551 884.872 170.332 885.216 170.145 885.56 169.957 885.851 169.697 886.091 169.363 886.33 169.03 886.518 168.52 886.653 167.832 886.789 167.145 886.856 166.072 886.856 164.613L886.856 150.988C886.856 149.655 886.836 148.582 886.794 147.77 886.752 146.957 886.606 146.306 886.356 145.816 886.106 145.327 885.726 144.962 885.216 144.723 884.705 144.483 883.981 144.28 883.044 144.113L883.044 142.457ZM956.106 141.957C959.544 141.957 962.185 143.244 964.028 145.816 965.872 148.389 966.794 152.155 966.794 157.113 966.794 160.551 966.273 163.441 965.231 165.785 964.19 168.129 962.674 169.889 960.685 171.066 958.695 172.244 956.325 172.832 953.575 172.832 952.034 172.832 950.638 172.702 949.388 172.441 948.138 172.181 946.992 171.832 945.95 171.395L945.95 177.988C945.95 179.342 945.997 180.353 946.091 181.02 946.185 181.686 946.351 182.212 946.591 182.598 946.83 182.983 947.174 183.301 947.622 183.551 948.07 183.801 948.794 184.03 949.794 184.238L949.794 185.77 937.044 185.77 937.044 184.238C937.794 184.03 938.403 183.816 938.872 183.598 939.341 183.379 939.7 183.056 939.95 182.629 940.2 182.202 940.367 181.624 940.45 180.895 940.534 180.165 940.575 179.197 940.575 177.988L940.575 151.176C940.575 149.676 940.554 148.608 940.513 147.973 940.471 147.337 940.388 146.811 940.263 146.395 940.138 145.978 939.955 145.634 939.716 145.363 939.476 145.092 939.153 144.863 938.747 144.676 938.341 144.488 937.669 144.301 936.731 144.113L936.731 142.457 944.075 142.176 945.981 142.176 945.575 147.27 946.044 147.395C947.336 146.082 948.356 145.129 949.106 144.535 949.856 143.941 950.633 143.447 951.435 143.051 952.237 142.655 953.008 142.374 953.747 142.207 954.487 142.04 955.273 141.957 956.106 141.957ZM920.044 141.957C921.169 141.957 922.174 142.087 923.06 142.348 923.945 142.608 924.726 143.009 925.403 143.551 926.08 144.092 926.638 144.764 927.075 145.566 927.513 146.369 927.841 147.332 928.06 148.457 928.278 149.582 928.388 151.009 928.388 152.738L928.388 164.52C928.388 165.957 928.429 166.999 928.513 167.645 928.596 168.29 928.742 168.79 928.95 169.145 929.159 169.499 929.461 169.796 929.856 170.035 930.252 170.275 930.94 170.53 931.919 170.801L931.919 172.332 919.606 172.332 919.606 170.801C920.419 170.551 921.002 170.332 921.356 170.145 921.711 169.957 922.008 169.697 922.247 169.363 922.487 169.03 922.674 168.514 922.81 167.816 922.945 167.119 923.013 166.061 923.013 164.645L923.013 156.457C923.013 154.999 922.971 153.676 922.888 152.488 922.804 151.301 922.664 150.327 922.466 149.566 922.268 148.806 922.028 148.212 921.747 147.785 921.466 147.358 921.133 146.994 920.747 146.691 920.362 146.389 919.919 146.15 919.419 145.973 918.919 145.796 918.263 145.707 917.45 145.707 916.638 145.707 915.867 145.869 915.138 146.191 914.409 146.514 913.606 147.072 912.731 147.863 911.856 148.655 911.221 149.436 910.825 150.207 910.429 150.978 910.231 151.863 910.231 152.863L910.231 164.52C910.231 166.311 910.315 167.556 910.481 168.254 910.648 168.952 910.966 169.483 911.435 169.848 911.903 170.212 912.669 170.53 913.731 170.801L913.731 172.332 901.481 172.332 901.481 170.801C902.294 170.551 902.872 170.332 903.216 170.145 903.56 169.957 903.851 169.697 904.091 169.363 904.33 169.03 904.518 168.52 904.653 167.832 904.789 167.145 904.856 166.072 904.856 164.613L904.856 150.988C904.856 149.655 904.836 148.582 904.794 147.77 904.752 146.957 904.606 146.306 904.356 145.816 904.106 145.327 903.726 144.962 903.216 144.723 902.705 144.483 901.981 144.28 901.044 144.113L901.044 142.457 908.356 142.176 910.263 142.176 909.919 147.27 910.356 147.395C911.898 145.832 913.143 144.717 914.091 144.051 915.039 143.384 915.997 142.869 916.966 142.504 917.935 142.139 918.961 141.957 920.044 141.957ZM1012.17 134.738 1016.61 134.738 1016.61 142.457 1026.7 142.457 1026.7 145.613 1016.61 145.613 1016.61 159.52C1016.61 161.54 1016.69 163.15 1016.86 164.348 1017.02 165.546 1017.34 166.483 1017.79 167.16 1018.25 167.837 1018.77 168.322 1019.36 168.613 1019.94 168.905 1020.69 169.051 1021.61 169.051 1022.44 169.051 1023.22 168.879 1023.95 168.535 1024.68 168.191 1025.4 167.697 1026.11 167.051L1027.51 168.738C1026.03 170.176 1024.63 171.217 1023.31 171.863 1021.99 172.509 1020.62 172.832 1019.2 172.832 1016.51 172.832 1014.51 172.035 1013.2 170.441 1011.89 168.848 1011.23 166.353 1011.23 162.957L1011.23 145.613 1006.61 145.613 1006.61 144.02C1007.65 143.853 1008.49 143.561 1009.14 143.145 1009.78 142.728 1010.29 142.191 1010.65 141.535 1011.02 140.879 1011.3 140.056 1011.51 139.066 1011.72 138.077 1011.94 136.634 1012.17 134.738ZM886.669 130.207 892.419 130.207 892.419 136.27 886.669 136.27Z" fill="#CFDCE6" fill-rule="evenodd"/><text fill="#000000" fill-opacity="0" font-family="Arial,Arial_MSFontService,sans-serif" font-size="55.5625" x="883.044" y="178.824">input</text><path d="M1262.57 183.17C1260.05 183.17 1258.12 184.263 1256.78 186.451 1255.43 188.638 1254.76 191.753 1254.76 195.795 1254.76 200.086 1255.44 203.383 1256.81 205.685 1258.17 207.987 1260.12 209.138 1262.67 209.138 1264.06 209.138 1265.25 208.8 1266.23 208.123 1267.21 207.446 1268 206.534 1268.62 205.388 1269.23 204.243 1269.68 202.914 1269.95 201.404 1270.22 199.894 1270.35 198.315 1270.35 196.67 1270.35 193.607 1270.02 191.065 1269.34 189.045 1268.66 187.024 1267.74 185.539 1266.57 184.591 1265.41 183.644 1264.07 183.17 1262.57 183.17ZM1262.7 180.701C1267.16 180.701 1270.53 181.998 1272.82 184.591 1275.11 187.185 1276.26 190.909 1276.26 195.763 1276.26 199.222 1275.69 202.138 1274.54 204.513 1273.4 206.888 1271.77 208.664 1269.67 209.841 1267.56 211.019 1265.07 211.607 1262.2 211.607 1257.86 211.607 1254.56 210.331 1252.28 207.779 1249.99 205.227 1248.85 201.451 1248.85 196.451 1248.85 193.013 1249.45 190.107 1250.65 187.732 1251.85 185.357 1253.49 183.591 1255.57 182.435 1257.66 181.279 1260.03 180.701 1262.7 180.701Z" fill="#CFDCE6" fill-rule="evenodd"/><text fill="#000000" fill-opacity="0" font-family="Arial,Arial_MSFontService,sans-serif" font-size="30.9062" x="1248.85" y="207.744">o</text><path d="M1355.89 184.482C1354.72 184.482 1353.71 184.664 1352.87 185.029 1352.03 185.394 1351.19 185.982 1350.35 186.795 1349.52 187.607 1348.93 188.394 1348.59 189.154 1348.24 189.914 1348.07 190.732 1348.07 191.607L1348.07 199.857C1348.07 201.857 1348.2 203.399 1348.45 204.482 1348.7 205.565 1349.14 206.446 1349.78 207.123 1350.41 207.8 1351.16 208.305 1352.03 208.638 1352.89 208.972 1354.03 209.138 1355.45 209.138 1357.97 209.138 1359.86 208.091 1361.14 205.998 1362.41 203.904 1363.04 200.815 1363.04 196.732 1363.04 188.565 1360.66 184.482 1355.89 184.482ZM1374.85 181.232 1383.76 181.232 1383.76 197.138C1383.76 199.576 1383.85 201.43 1384.04 202.701 1384.23 203.972 1384.51 204.93 1384.89 205.576 1385.26 206.222 1385.79 206.763 1386.48 207.201 1387.17 207.638 1388.11 207.857 1389.32 207.857 1390.11 207.857 1390.87 207.701 1391.6 207.388 1392.33 207.076 1393.15 206.529 1394.04 205.748 1394.94 204.966 1395.58 204.19 1395.96 203.42 1396.35 202.649 1396.54 201.753 1396.54 200.732L1396.54 189.013C1396.54 187.826 1396.51 186.93 1396.45 186.326 1396.39 185.722 1396.28 185.237 1396.14 184.873 1395.99 184.508 1395.82 184.211 1395.62 183.982 1395.42 183.753 1395.14 183.545 1394.78 183.357 1394.41 183.17 1393.82 182.972 1393.01 182.763L1393.01 181.232 1401.92 181.232 1401.92 202.576C1401.92 204.18 1401.95 205.336 1402.01 206.045 1402.07 206.753 1402.21 207.315 1402.42 207.732 1402.62 208.149 1402.95 208.487 1403.39 208.748 1403.82 209.008 1404.6 209.253 1405.73 209.482L1405.73 211.107 1398.57 211.42 1396.67 211.42 1396.85 206.295 1396.39 206.17C1394.66 208.045 1393 209.42 1391.43 210.295 1389.86 211.17 1388.28 211.607 1386.7 211.607 1384.8 211.607 1383.24 211.232 1382.01 210.482 1380.78 209.732 1379.86 208.612 1379.26 207.123 1378.66 205.633 1378.35 203.534 1378.35 200.826L1378.35 189.013C1378.35 187.263 1378.29 186.06 1378.15 185.404 1378.02 184.748 1377.75 184.227 1377.37 183.841 1376.98 183.456 1376.15 183.097 1374.85 182.763ZM1281.85 181.232 1290.76 181.232 1290.76 197.138C1290.76 199.576 1290.85 201.43 1291.04 202.701 1291.23 203.972 1291.51 204.93 1291.89 205.576 1292.26 206.222 1292.79 206.763 1293.48 207.201 1294.17 207.638 1295.11 207.857 1296.32 207.857 1297.11 207.857 1297.87 207.701 1298.6 207.388 1299.33 207.076 1300.15 206.529 1301.04 205.748 1301.94 204.966 1302.58 204.19 1302.96 203.42 1303.35 202.649 1303.54 201.753 1303.54 200.732L1303.54 189.013C1303.54 187.826 1303.51 186.93 1303.45 186.326 1303.39 185.722 1303.28 185.237 1303.14 184.873 1302.99 184.508 1302.82 184.211 1302.62 183.982 1302.42 183.753 1302.14 183.545 1301.78 183.357 1301.41 183.17 1300.82 182.972 1300.01 182.763L1300.01 181.232 1308.92 181.232 1308.92 202.576C1308.92 204.18 1308.95 205.336 1309.01 206.045 1309.07 206.753 1309.21 207.315 1309.42 207.732 1309.62 208.149 1309.95 208.487 1310.39 208.748 1310.82 209.008 1311.6 209.253 1312.73 209.482L1312.73 211.107 1305.57 211.42 1303.67 211.42 1303.85 206.295 1303.39 206.17C1301.66 208.045 1300 209.42 1298.43 210.295 1296.86 211.17 1295.28 211.607 1293.7 211.607 1291.8 211.607 1290.24 211.232 1289.01 210.482 1287.78 209.732 1286.86 208.612 1286.26 207.123 1285.66 205.633 1285.35 203.534 1285.35 200.826L1285.35 189.013C1285.35 187.263 1285.29 186.06 1285.15 185.404 1285.02 184.748 1284.75 184.227 1284.37 183.841 1283.98 183.456 1283.15 183.097 1281.85 182.763ZM1358.23 180.732C1361.67 180.732 1364.31 182.019 1366.15 184.591 1367.99 187.164 1368.92 190.93 1368.92 195.888 1368.92 199.326 1368.4 202.216 1367.35 204.56 1366.31 206.904 1364.8 208.664 1362.81 209.841 1360.82 211.019 1358.45 211.607 1355.7 211.607 1354.16 211.607 1352.76 211.477 1351.51 211.216 1350.26 210.956 1349.11 210.607 1348.07 210.17L1348.07 216.763C1348.07 218.118 1348.12 219.128 1348.21 219.795 1348.31 220.461 1348.47 220.987 1348.71 221.373 1348.95 221.758 1349.3 222.076 1349.74 222.326 1350.19 222.576 1350.92 222.805 1351.92 223.013L1351.92 224.545 1339.17 224.545 1339.17 223.013C1339.92 222.805 1340.53 222.591 1340.99 222.373 1341.46 222.154 1341.82 221.831 1342.07 221.404 1342.32 220.977 1342.49 220.399 1342.57 219.67 1342.66 218.94 1342.7 217.972 1342.7 216.763L1342.7 189.951C1342.7 188.451 1342.68 187.383 1342.64 186.748 1342.59 186.112 1342.51 185.586 1342.39 185.17 1342.26 184.753 1342.08 184.409 1341.84 184.138 1341.6 183.868 1341.28 183.638 1340.87 183.451 1340.46 183.263 1339.79 183.076 1338.85 182.888L1338.85 181.232 1346.2 180.951 1348.1 180.951 1347.7 186.045 1348.17 186.17C1349.46 184.857 1350.48 183.904 1351.23 183.31 1351.98 182.716 1352.75 182.222 1353.56 181.826 1354.36 181.43 1355.13 181.149 1355.87 180.982 1356.61 180.815 1357.4 180.732 1358.23 180.732ZM1414.29 173.513 1418.73 173.513 1418.73 181.232 1428.82 181.232 1428.82 184.388 1418.73 184.388 1418.73 198.295C1418.73 200.315 1418.81 201.925 1418.98 203.123 1419.15 204.321 1419.46 205.258 1419.92 205.935 1420.37 206.612 1420.9 207.097 1421.48 207.388 1422.06 207.68 1422.81 207.826 1423.73 207.826 1424.56 207.826 1425.34 207.654 1426.07 207.31 1426.8 206.966 1427.52 206.472 1428.23 205.826L1429.64 207.513C1428.16 208.951 1426.75 209.993 1425.43 210.638 1424.11 211.284 1422.74 211.607 1421.32 211.607 1418.64 211.607 1416.64 210.81 1415.32 209.216 1414.01 207.623 1413.35 205.128 1413.35 201.732L1413.35 184.388 1408.73 184.388 1408.73 182.795C1409.77 182.628 1410.61 182.336 1411.26 181.92 1411.91 181.503 1412.41 180.966 1412.78 180.31 1413.14 179.654 1413.43 178.831 1413.64 177.841 1413.84 176.852 1414.06 175.409 1414.29 173.513ZM1321.29 173.513 1325.73 173.513 1325.73 181.232 1335.82 181.232 1335.82 184.388 1325.73 184.388 1325.73 198.295C1325.73 200.315 1325.81 201.925 1325.98 203.123 1326.15 204.321 1326.46 205.258 1326.92 205.935 1327.37 206.612 1327.9 207.097 1328.48 207.388 1329.06 207.68 1329.81 207.826 1330.73 207.826 1331.56 207.826 1332.34 207.654 1333.07 207.31 1333.8 206.966 1334.52 206.472 1335.23 205.826L1336.64 207.513C1335.16 208.951 1333.75 209.993 1332.43 210.638 1331.11 211.284 1329.74 211.607 1328.32 211.607 1325.64 211.607 1323.64 210.81 1322.32 209.216 1321.01 207.623 1320.35 205.128 1320.35 201.732L1320.35 184.388 1315.73 184.388 1315.73 182.795C1316.77 182.628 1317.61 182.336 1318.26 181.92 1318.91 181.503 1319.41 180.966 1319.78 180.31 1320.14 179.654 1320.43 178.831 1320.64 177.841 1320.84 176.852 1321.06 175.409 1321.29 173.513Z" fill="#CFDCE6" fill-rule="evenodd"/><text fill="#000000" fill-opacity="0" font-family="Arial,Arial_MSFontService,sans-serif" font-size="51.0312" x="1281.85" y="218.166">utput</text><path d="M870.374 305.323C868.937 305.323 867.734 305.75 866.765 306.604 865.796 307.458 865.015 308.687 864.421 310.292 863.827 311.896 863.405 313.849 863.155 316.151 862.905 318.453 862.78 321.052 862.78 323.948 862.78 330.74 863.411 335.724 864.671 338.901 865.932 342.078 867.885 343.667 870.53 343.667 873.051 343.667 874.921 342.172 876.14 339.182 877.359 336.193 877.968 331.562 877.968 325.292 877.968 320.5 877.655 316.62 877.03 313.651 876.405 310.682 875.536 308.552 874.421 307.26 873.307 305.969 871.958 305.323 870.374 305.323ZM870.53 302.667C875.093 302.667 878.489 304.427 880.718 307.948 882.947 311.469 884.062 316.792 884.062 323.917 884.062 331.292 882.869 336.87 880.484 340.651 878.098 344.432 874.614 346.323 870.03 346.323 865.53 346.323 862.182 344.552 859.984 341.01 857.786 337.469 856.687 332.094 856.687 324.885 856.687 321.052 857.025 317.74 857.702 314.948 858.379 312.156 859.327 309.849 860.546 308.026 861.765 306.203 863.228 304.854 864.937 303.979 866.645 303.104 868.51 302.667 870.53 302.667Z" fill="#CFDCE6" fill-rule="evenodd"/><text fill="#000000" fill-opacity="0" font-family="Arial,Arial_MSFontService,sans-serif" font-size="43.6562" x="856.687" y="340.866">0</text><path d="M1065.17 389.963 1066.89 389.963C1066.76 391.963 1066.7 394.734 1066.7 398.276L1066.7 424.963C1066.7 426.171 1066.77 427.083 1066.91 427.697 1067.04 428.312 1067.28 428.812 1067.62 429.197 1067.97 429.583 1068.46 429.885 1069.11 430.104 1069.75 430.322 1070.57 430.489 1071.55 430.604 1072.52 430.718 1073.82 430.796 1075.42 430.838L1075.42 433.119 1052.33 433.119 1052.33 430.838C1054.64 430.734 1056.29 430.593 1057.28 430.416 1058.27 430.239 1059.02 429.973 1059.55 429.619 1060.07 429.265 1060.45 428.765 1060.69 428.119 1060.93 427.473 1061.05 426.421 1061.05 424.963L1061.05 399.619C1061.05 398.786 1060.9 398.177 1060.61 397.791 1060.32 397.406 1059.89 397.213 1059.33 397.213 1058.66 397.213 1057.71 397.557 1056.48 398.244 1055.25 398.932 1053.73 399.88 1051.92 401.088L1050.55 398.682Z" fill="#CFDCE6" fill-rule="evenodd"/><text fill="#000000" fill-opacity="0" font-family="Arial,Arial_MSFontService,sans-serif" font-size="43.1562" x="1050.55" y="427.725">1</text><path d="M1506 101 1506 618.744" stroke="#CFDCE6" stroke-width="8" stroke-miterlimit="8" fill="none" fill-rule="evenodd"/><path d="M759 104 1506.07 104" stroke="#CFDCE6" stroke-width="8" stroke-miterlimit="8" fill="none" fill-rule="evenodd"/><path d="M0 0 747.07 0.164304" stroke="#CFDCE6" stroke-width="8" stroke-miterlimit="8" fill="none" fill-rule="evenodd" transform="matrix(1 0 0 -1 759 368.164)"/><path d="M759 284 1506.07 284" stroke="#CFDCE6" stroke-width="8" stroke-miterlimit="8" fill="none" fill-rule="evenodd"/><path d="M759 200 1161.66 200" stroke="#CFDCE6" stroke-width="8" stroke-miterlimit="8" fill="none" fill-rule="evenodd"/><path d="M505 388C505 374.193 516.417 363 530.5 363 544.583 363 556 374.193 556 388 556 401.807 544.583 413 530.5 413 516.417 413 505 401.807 505 388Z" fill="#03111A" fill-rule="evenodd"/><path d="M1727 383C1727 369.193 1738.42 358 1752.5 358 1766.58 358 1778 369.193 1778 383 1778 396.807 1766.58 408 1752.5 408 1738.42 408 1727 396.807 1727 383Z" fill="#03111A" fill-rule="evenodd"/><path d="M870.489 226.985 863.364 247.141 876.426 247.141ZM869.27 220.86 874.208 220.86 884.833 255.704C885.333 257.329 885.775 258.568 886.161 259.422 886.546 260.277 887.01 260.943 887.551 261.422 888.093 261.902 888.833 262.256 889.77 262.485L889.77 264.016 875.364 264.016 875.364 262.485C876.406 262.277 877.182 262.047 877.692 261.797 878.202 261.547 878.583 261.198 878.833 260.751 879.083 260.303 879.208 259.704 879.208 258.954 879.208 258.245 879.124 257.48 878.958 256.657 878.791 255.834 878.551 254.912 878.239 253.891L877.083 249.86 862.52 249.86 861.458 252.922C860.916 254.464 860.562 255.631 860.395 256.422 860.228 257.214 860.145 257.933 860.145 258.579 860.145 259.829 860.463 260.745 861.098 261.329 861.734 261.912 862.708 262.297 864.02 262.485L864.02 264.016 850.676 264.016 850.676 262.485C851.843 262.297 852.859 261.62 853.723 260.454 854.588 259.287 855.426 257.62 856.239 255.454Z" fill="#CFDCE6" fill-rule="evenodd"/><text fill="#000000" fill-opacity="0" font-family="Arial,Arial_MSFontService,sans-serif" font-size="43.1562" x="850.676" y="258.622">A</text><path d="M1056.43 244.107 1056.43 261.919C1057.95 262.065 1059.65 262.138 1061.52 262.138 1064.25 262.138 1066.37 261.794 1067.88 261.107 1069.39 260.419 1070.49 259.404 1071.17 258.06 1071.84 256.716 1072.18 255.034 1072.18 253.013 1072.18 250.992 1071.81 249.325 1071.07 248.013 1070.33 246.7 1069.19 245.721 1067.65 245.075 1066.11 244.43 1063.98 244.107 1061.27 244.107ZM1062.46 224.982C1061.67 224.982 1060.63 225.002 1059.34 225.044 1058.05 225.086 1057.08 225.127 1056.43 225.169L1056.43 241.357 1061.9 241.357C1065.07 241.357 1067.49 240.591 1069.17 239.06 1070.84 237.529 1071.68 235.305 1071.68 232.388 1071.68 230.95 1071.45 229.758 1070.98 228.81 1070.51 227.862 1069.86 227.107 1069.04 226.544 1068.22 225.982 1067.24 225.581 1066.12 225.341 1064.99 225.101 1063.77 224.982 1062.46 224.982ZM1046.93 222.232 1064.02 222.232C1067.34 222.232 1070 222.586 1072.01 223.294 1074.02 224.002 1075.51 225.049 1076.49 226.435 1077.47 227.82 1077.96 229.607 1077.96 231.794 1077.96 233.607 1077.61 235.18 1076.92 236.513 1076.22 237.846 1075.31 238.95 1074.18 239.825 1073.06 240.7 1071.61 241.513 1069.84 242.263L1069.84 242.544C1072.67 243.398 1074.82 244.716 1076.27 246.497 1077.73 248.279 1078.46 250.398 1078.46 252.857 1078.46 255.69 1077.83 258.002 1076.57 259.794 1075.31 261.586 1073.55 262.883 1071.27 263.685 1069 264.487 1066.25 264.888 1063.02 264.888L1046.93 264.888 1046.93 263.357C1048.22 263.023 1049.09 262.654 1049.52 262.247 1049.96 261.841 1050.25 261.263 1050.38 260.513 1050.52 259.763 1050.59 258.617 1050.59 257.075L1050.59 230.044C1050.59 228.607 1050.54 227.56 1050.43 226.904 1050.33 226.247 1050.16 225.737 1049.92 225.372 1049.68 225.008 1049.36 224.716 1048.96 224.497 1048.57 224.279 1047.89 224.034 1046.93 223.763Z" fill="#CFDCE6" fill-rule="evenodd"/><text fill="#000000" fill-opacity="0" font-family="Arial,Arial_MSFontService,sans-serif" font-size="42.6562" x="1046.93" y="259.556">B</text><path d="M960 198 960 619.147" stroke="#CFDCE6" stroke-width="8" stroke-miterlimit="8" fill="none" fill-rule="evenodd"/><path d="M1162 104 1168.74 618.581" stroke="#CFDCE6" stroke-width="8" stroke-miterlimit="8" fill="none" fill-rule="evenodd"/><path d="M0 0 747.07 0.164304" stroke="#CFDCE6" stroke-width="8" stroke-miterlimit="8" fill="none" fill-rule="evenodd" transform="matrix(1 0 0 -1 759 452.164)"/><path d="M759 367 1506.07 367" stroke="#CFDCE6" stroke-width="8" stroke-miterlimit="8" fill="none" fill-rule="evenodd"/><path d="M0 0 747.07 0.164304" stroke="#CFDCE6" stroke-width="8" stroke-miterlimit="8" fill="none" fill-rule="evenodd" transform="matrix(1 0 0 -1 759 535.164)"/><path d="M0 0 747.07 0.164304" stroke="#CFDCE6" stroke-width="8" stroke-miterlimit="8" fill="none" fill-rule="evenodd" transform="matrix(1 0 0 -1 759 619.164)"/><path d="M759 535 1506.07 535" stroke="#CFDCE6" stroke-width="8" stroke-miterlimit="8" fill="none" fill-rule="evenodd"/><path d="M1062.7 304.372C1061.26 304.372 1060.06 304.8 1059.09 305.654 1058.12 306.508 1057.34 307.737 1056.75 309.341 1056.16 310.945 1055.73 312.898 1055.48 315.201 1055.23 317.503 1055.11 320.102 1055.11 322.997 1055.11 329.789 1055.74 334.773 1057 337.951 1058.26 341.128 1060.21 342.716 1062.86 342.716 1065.38 342.716 1067.25 341.221 1068.47 338.232 1069.69 335.242 1070.3 330.612 1070.3 324.341 1070.3 319.55 1069.98 315.669 1069.36 312.701 1068.73 309.732 1067.86 307.602 1066.75 306.31 1065.63 305.018 1064.29 304.372 1062.7 304.372ZM1062.86 301.716C1067.42 301.716 1070.82 303.477 1073.05 306.997 1075.27 310.518 1076.39 315.841 1076.39 322.966 1076.39 330.341 1075.2 335.919 1072.81 339.701 1070.43 343.482 1066.94 345.372 1062.36 345.372 1057.86 345.372 1054.51 343.602 1052.31 340.06 1050.11 336.518 1049.01 331.143 1049.01 323.935 1049.01 320.102 1049.35 316.789 1050.03 313.997 1050.71 311.206 1051.66 308.898 1052.87 307.076 1054.09 305.253 1055.56 303.904 1057.26 303.029 1058.97 302.154 1060.84 301.716 1062.86 301.716Z" fill="#CFDCE6" fill-rule="evenodd"/><text fill="#000000" fill-opacity="0" font-family="Arial,Arial_MSFontService,sans-serif" font-size="43.6562" x="1049.01" y="339.915">0</text><path d="M1335.61 301.57C1334.17 301.57 1332.97 301.998 1332 302.852 1331.03 303.706 1330.25 304.935 1329.66 306.539 1329.06 308.143 1328.64 310.096 1328.39 312.399 1328.14 314.701 1328.02 317.3 1328.02 320.195 1328.02 326.987 1328.65 331.971 1329.91 335.149 1331.17 338.326 1333.12 339.914 1335.77 339.914 1338.29 339.914 1340.16 338.419 1341.38 335.43 1342.59 332.44 1343.2 327.81 1343.2 321.539 1343.2 316.748 1342.89 312.867 1342.27 309.899 1341.64 306.93 1340.77 304.8 1339.66 303.508 1338.54 302.216 1337.19 301.57 1335.61 301.57ZM1335.77 298.914C1340.33 298.914 1343.72 300.675 1345.95 304.195 1348.18 307.716 1349.3 313.039 1349.3 320.164 1349.3 327.539 1348.1 333.117 1345.72 336.899 1343.33 340.68 1339.85 342.57 1335.27 342.57 1330.77 342.57 1327.42 340.8 1325.22 337.258 1323.02 333.716 1321.92 328.341 1321.92 321.133 1321.92 317.3 1322.26 313.987 1322.94 311.195 1323.61 308.404 1324.56 306.096 1325.78 304.274 1327 302.451 1328.46 301.102 1330.17 300.227 1331.88 299.352 1333.74 298.914 1335.77 298.914Z" fill="#CFDCE6" fill-rule="evenodd"/><text fill="#000000" fill-opacity="0" font-family="Arial,Arial_MSFontService,sans-serif" font-size="43.6562" x="1321.92" y="337.113">0</text><path d="M867.252 392.395C865.815 392.395 864.611 392.822 863.643 393.676 862.674 394.53 861.893 395.759 861.299 397.364 860.705 398.968 860.283 400.921 860.033 403.223 859.783 405.525 859.658 408.124 859.658 411.02 859.658 417.811 860.288 422.796 861.549 425.973 862.809 429.15 864.762 430.739 867.408 430.739 869.929 430.739 871.799 429.244 873.018 426.254 874.236 423.265 874.846 418.634 874.846 412.364 874.846 407.572 874.533 403.692 873.908 400.723 873.283 397.754 872.413 395.624 871.299 394.332 870.184 393.041 868.835 392.395 867.252 392.395ZM867.408 389.739C871.971 389.739 875.367 391.499 877.596 395.02 879.825 398.541 880.94 403.864 880.94 410.989 880.94 418.364 879.747 423.942 877.361 427.723 874.976 431.504 871.492 433.395 866.908 433.395 862.408 433.395 859.059 431.624 856.861 428.082 854.663 424.541 853.565 419.166 853.565 411.957 853.565 408.124 853.903 404.811 854.58 402.02 855.257 399.228 856.205 396.921 857.424 395.098 858.643 393.275 860.106 391.926 861.815 391.051 863.523 390.176 865.387 389.739 867.408 389.739Z" fill="#CFDCE6" fill-rule="evenodd"/><text fill="#000000" fill-opacity="0" font-family="Arial,Arial_MSFontService,sans-serif" font-size="43.6562" x="853.565" y="427.938">0</text><path d="M1337.21 392.395C1335.78 392.395 1334.57 392.822 1333.6 393.676 1332.64 394.53 1331.85 395.759 1331.26 397.364 1330.67 398.968 1330.24 400.921 1329.99 403.223 1329.74 405.525 1329.62 408.124 1329.62 411.02 1329.62 417.811 1330.25 422.796 1331.51 425.973 1332.77 429.15 1334.72 430.739 1337.37 430.739 1339.89 430.739 1341.76 429.244 1342.98 426.254 1344.2 423.265 1344.81 418.634 1344.81 412.364 1344.81 407.572 1344.49 403.692 1343.87 400.723 1343.24 397.754 1342.38 395.624 1341.26 394.332 1340.15 393.041 1338.8 392.395 1337.21 392.395ZM1337.37 389.739C1341.93 389.739 1345.33 391.499 1347.56 395.02 1349.79 398.541 1350.9 403.864 1350.9 410.989 1350.9 418.364 1349.71 423.942 1347.32 427.723 1344.94 431.504 1341.45 433.395 1336.87 433.395 1332.37 433.395 1329.02 431.624 1326.82 428.082 1324.62 424.541 1323.53 419.166 1323.53 411.957 1323.53 408.124 1323.86 404.811 1324.54 402.02 1325.22 399.228 1326.17 396.921 1327.39 395.098 1328.6 393.275 1330.07 391.926 1331.78 391.051 1333.48 390.176 1335.35 389.739 1337.37 389.739Z" fill="#CFDCE6" fill-rule="evenodd"/><text fill="#000000" fill-opacity="0" font-family="Arial,Arial_MSFontService,sans-serif" font-size="43.6562" x="1323.53" y="427.938">0</text><path d="M1062.7 479.577C1061.26 479.577 1060.06 480.004 1059.09 480.858 1058.12 481.712 1057.34 482.941 1056.75 484.545 1056.16 486.15 1055.73 488.103 1055.48 490.405 1055.23 492.707 1055.11 495.306 1055.11 498.202 1055.11 504.993 1055.74 509.978 1057 513.155 1058.26 516.332 1060.21 517.92 1062.86 517.92 1065.38 517.92 1067.25 516.426 1068.47 513.436 1069.69 510.446 1070.3 505.816 1070.3 499.545 1070.3 494.754 1069.98 490.874 1069.36 487.905 1068.73 484.936 1067.86 482.806 1066.75 481.514 1065.63 480.223 1064.29 479.577 1062.7 479.577ZM1062.86 476.92C1067.42 476.92 1070.82 478.681 1073.05 482.202 1075.27 485.723 1076.39 491.045 1076.39 498.17 1076.39 505.545 1075.2 511.124 1072.81 514.905 1070.43 518.686 1066.94 520.577 1062.36 520.577 1057.86 520.577 1054.51 518.806 1052.31 515.264 1050.11 511.723 1049.01 506.348 1049.01 499.139 1049.01 495.306 1049.35 491.993 1050.03 489.202 1050.71 486.41 1051.66 484.103 1052.87 482.28 1054.09 480.457 1055.56 479.108 1057.26 478.233 1058.97 477.358 1060.84 476.92 1062.86 476.92Z" fill="#CFDCE6" fill-rule="evenodd"/><text fill="#000000" fill-opacity="0" font-family="Arial,Arial_MSFontService,sans-serif" font-size="43.6562" x="1049.01" y="515.12">0</text><path d="M866.407 471.982 868.126 471.982C868.001 473.982 867.938 476.753 867.938 480.294L867.938 506.982C867.938 508.19 868.006 509.101 868.141 509.716 868.277 510.331 868.516 510.831 868.86 511.216 869.204 511.601 869.699 511.904 870.345 512.122 870.99 512.341 871.803 512.508 872.782 512.622 873.761 512.737 875.053 512.815 876.657 512.857L876.657 515.138 853.563 515.138 853.563 512.857C855.876 512.753 857.527 512.612 858.516 512.435 859.506 512.258 860.261 511.992 860.782 511.638 861.303 511.284 861.683 510.784 861.923 510.138 862.162 509.492 862.282 508.44 862.282 506.982L862.282 481.638C862.282 480.805 862.136 480.195 861.845 479.81 861.553 479.424 861.126 479.232 860.563 479.232 859.897 479.232 858.949 479.575 857.72 480.263 856.49 480.95 854.97 481.898 853.157 483.107L851.782 480.7Z" fill="#CFDCE6" fill-rule="evenodd"/><text fill="#000000" fill-opacity="0" font-family="Arial,Arial_MSFontService,sans-serif" font-size="43.1562" x="851.782" y="509.743">1</text><path d="M1337.21 475.348C1335.78 475.348 1334.57 475.775 1333.6 476.63 1332.64 477.484 1331.85 478.713 1331.26 480.317 1330.67 481.921 1330.24 483.874 1329.99 486.176 1329.74 488.478 1329.62 491.077 1329.62 493.973 1329.62 500.765 1330.25 505.749 1331.51 508.926 1332.77 512.103 1334.72 513.692 1337.37 513.692 1339.89 513.692 1341.76 512.197 1342.98 509.208 1344.2 506.218 1344.81 501.588 1344.81 495.317 1344.81 490.525 1344.49 486.645 1343.87 483.676 1343.24 480.708 1342.38 478.577 1341.26 477.286 1340.15 475.994 1338.8 475.348 1337.21 475.348ZM1337.37 472.692C1341.93 472.692 1345.33 474.452 1347.56 477.973 1349.79 481.494 1350.9 486.817 1350.9 493.942 1350.9 501.317 1349.71 506.895 1347.32 510.676 1344.94 514.458 1341.45 516.348 1336.87 516.348 1332.37 516.348 1329.02 514.577 1326.82 511.036 1324.62 507.494 1323.53 502.119 1323.53 494.911 1323.53 491.077 1323.86 487.765 1324.54 484.973 1325.22 482.182 1326.17 479.874 1327.39 478.051 1328.6 476.228 1330.07 474.88 1331.78 474.005 1333.48 473.13 1335.35 472.692 1337.37 472.692Z" fill="#CFDCE6" fill-rule="evenodd"/><text fill="#000000" fill-opacity="0" font-family="Arial,Arial_MSFontService,sans-serif" font-size="43.6562" x="1323.53" y="510.891">0</text><path d="M866.407 556.988 868.126 556.988C868.001 558.988 867.938 561.759 867.938 565.3L867.938 591.988C867.938 593.196 868.006 594.108 868.141 594.722 868.277 595.337 868.516 595.837 868.86 596.222 869.204 596.608 869.699 596.91 870.345 597.128 870.99 597.347 871.803 597.514 872.782 597.628 873.761 597.743 875.053 597.821 876.657 597.863L876.657 600.144 853.563 600.144 853.563 597.863C855.876 597.759 857.527 597.618 858.516 597.441 859.506 597.264 860.261 596.998 860.782 596.644 861.303 596.29 861.683 595.79 861.923 595.144 862.162 594.498 862.282 593.446 862.282 591.988L862.282 566.644C862.282 565.811 862.136 565.201 861.845 564.816 861.553 564.43 861.126 564.238 860.563 564.238 859.897 564.238 858.949 564.582 857.72 565.269 856.49 565.957 854.97 566.904 853.157 568.113L851.782 565.707Z" fill="#CFDCE6" fill-rule="evenodd"/><text fill="#000000" fill-opacity="0" font-family="Arial,Arial_MSFontService,sans-serif" font-size="43.1562" x="851.782" y="594.75">1</text><path d="M1061.72 555.28 1063.43 555.28C1063.31 557.28 1063.25 560.05 1063.25 563.592L1063.25 590.28C1063.25 591.488 1063.31 592.399 1063.45 593.014 1063.58 593.628 1063.82 594.128 1064.17 594.514 1064.51 594.899 1065.01 595.201 1065.65 595.42 1066.3 595.639 1067.11 595.806 1068.09 595.92 1069.07 596.035 1070.36 596.113 1071.97 596.155L1071.97 598.436 1048.87 598.436 1048.87 596.155C1051.18 596.05 1052.83 595.91 1053.82 595.733 1054.81 595.556 1055.57 595.29 1056.09 594.936 1056.61 594.582 1056.99 594.082 1057.23 593.436 1057.47 592.79 1057.59 591.738 1057.59 590.28L1057.59 564.936C1057.59 564.102 1057.44 563.493 1057.15 563.108 1056.86 562.722 1056.43 562.53 1055.87 562.53 1055.2 562.53 1054.26 562.873 1053.03 563.561 1051.8 564.248 1050.28 565.196 1048.47 566.405L1047.09 563.998Z" fill="#CFDCE6" fill-rule="evenodd"/><text fill="#000000" fill-opacity="0" font-family="Arial,Arial_MSFontService,sans-serif" font-size="43.1562" x="1047.09" y="593.041">1</text><path d="M1339.68 556.318 1341.4 556.318C1341.28 558.318 1341.21 561.089 1341.21 564.631L1341.21 591.318C1341.21 592.526 1341.28 593.438 1341.42 594.052 1341.55 594.667 1341.79 595.167 1342.14 595.552 1342.48 595.938 1342.97 596.24 1343.62 596.459 1344.27 596.677 1345.08 596.844 1346.06 596.959 1347.04 597.073 1348.33 597.151 1349.93 597.193L1349.93 599.474 1326.84 599.474 1326.84 597.193C1329.15 597.089 1330.8 596.948 1331.79 596.771 1332.78 596.594 1333.54 596.328 1334.06 595.974 1334.58 595.62 1334.96 595.12 1335.2 594.474 1335.44 593.828 1335.56 592.776 1335.56 591.318L1335.56 565.974C1335.56 565.141 1335.41 564.532 1335.12 564.146 1334.83 563.761 1334.4 563.568 1333.84 563.568 1333.17 563.568 1332.22 563.912 1330.99 564.599 1329.77 565.287 1328.24 566.235 1326.43 567.443L1325.06 565.037Z" fill="#CFDCE6" fill-rule="evenodd"/><text fill="#000000" fill-opacity="0" font-family="Arial,Arial_MSFontService,sans-serif" font-size="43.1562" x="1325.06" y="594.08">1</text></g></svg>