<svg width="1273" height="276" xmlns="http://www.w3.org/2000/svg" xmlns:xlink="http://www.w3.org/1999/xlink" overflow="hidden"><defs><clipPath id="clip0"><rect x="369" y="175" width="1273" height="276"/></clipPath></defs><g clip-path="url(#clip0)" transform="translate(-369 -175)"><path d="M755 179 755 445.698" stroke="#CFDCE6" stroke-width="8" stroke-miterlimit="8" fill="none" fill-rule="evenodd"/><path d="M860.971 212.538C859.805 212.538 858.799 212.72 857.956 213.085 857.112 213.449 856.273 214.038 855.44 214.85 854.607 215.663 854.018 216.449 853.674 217.21 853.331 217.97 853.159 218.788 853.159 219.663L853.159 227.913C853.159 229.913 853.284 231.454 853.534 232.538 853.784 233.621 854.227 234.501 854.862 235.178 855.497 235.855 856.247 236.361 857.112 236.694 857.977 237.027 859.117 237.194 860.534 237.194 863.055 237.194 864.951 236.147 866.221 234.053 867.492 231.96 868.128 228.871 868.128 224.788 868.128 216.621 865.742 212.538 860.971 212.538ZM878.94 209.288 887.846 209.288 887.846 225.194C887.846 227.631 887.94 229.486 888.128 230.756 888.315 232.027 888.596 232.986 888.971 233.631 889.346 234.277 889.878 234.819 890.565 235.256 891.253 235.694 892.201 235.913 893.409 235.913 894.201 235.913 894.961 235.756 895.69 235.444 896.419 235.131 897.232 234.585 898.128 233.803 899.023 233.022 899.664 232.246 900.049 231.475 900.435 230.704 900.628 229.809 900.628 228.788L900.628 217.069C900.628 215.881 900.596 214.986 900.534 214.381 900.471 213.777 900.367 213.293 900.221 212.928 900.076 212.564 899.904 212.267 899.706 212.038 899.508 211.809 899.227 211.6 898.862 211.413 898.497 211.225 897.909 211.027 897.096 210.819L897.096 209.288 906.003 209.288 906.003 230.631C906.003 232.236 906.034 233.392 906.096 234.1 906.159 234.809 906.294 235.371 906.503 235.788 906.711 236.204 907.034 236.543 907.471 236.803 907.909 237.064 908.69 237.309 909.815 237.538L909.815 239.163 902.659 239.475 900.753 239.475 900.94 234.35 900.471 234.225C898.742 236.1 897.091 237.475 895.518 238.35 893.945 239.225 892.367 239.663 890.784 239.663 888.888 239.663 887.326 239.288 886.096 238.538 884.867 237.788 883.951 236.668 883.346 235.178 882.742 233.689 882.44 231.59 882.44 228.881L882.44 217.069C882.44 215.319 882.372 214.116 882.237 213.46 882.102 212.803 881.841 212.283 881.456 211.897 881.07 211.512 880.232 211.152 878.94 210.819ZM797.534 209.006 799.44 209.006 799.44 231.35C799.44 233.142 799.523 234.387 799.69 235.085 799.857 235.783 800.174 236.314 800.643 236.678 801.112 237.043 801.878 237.361 802.94 237.631L802.94 239.163 790.69 239.163 790.69 237.631C791.503 237.381 792.081 237.163 792.424 236.975 792.768 236.788 793.06 236.527 793.299 236.194 793.539 235.861 793.727 235.35 793.862 234.663 793.997 233.975 794.065 232.902 794.065 231.444L794.065 217.819C794.065 216.486 794.044 215.413 794.003 214.6 793.961 213.788 793.815 213.137 793.565 212.647 793.315 212.158 792.935 211.793 792.424 211.553 791.914 211.314 791.19 211.111 790.253 210.944L790.253 209.288ZM863.315 208.788C866.753 208.788 869.393 210.074 871.237 212.647 873.081 215.22 874.003 218.986 874.003 223.944 874.003 227.381 873.482 230.272 872.44 232.616 871.398 234.96 869.883 236.72 867.893 237.897 865.904 239.074 863.534 239.663 860.784 239.663 859.242 239.663 857.846 239.533 856.596 239.272 855.346 239.012 854.201 238.663 853.159 238.225L853.159 244.819C853.159 246.173 853.206 247.184 853.299 247.85 853.393 248.517 853.56 249.043 853.799 249.428 854.039 249.814 854.383 250.131 854.831 250.381 855.279 250.631 856.003 250.861 857.003 251.069L857.003 252.6 844.253 252.6 844.253 251.069C845.003 250.861 845.612 250.647 846.081 250.428 846.549 250.21 846.909 249.887 847.159 249.46 847.409 249.033 847.576 248.454 847.659 247.725 847.742 246.996 847.784 246.027 847.784 244.819L847.784 218.006C847.784 216.506 847.763 215.439 847.721 214.803 847.68 214.168 847.596 213.642 847.471 213.225 847.346 212.809 847.164 212.465 846.924 212.194 846.685 211.923 846.362 211.694 845.956 211.506 845.549 211.319 844.878 211.131 843.94 210.944L843.94 209.288 851.284 209.006 853.19 209.006 852.784 214.1 853.253 214.225C854.544 212.913 855.565 211.96 856.315 211.366 857.065 210.772 857.841 210.277 858.643 209.881 859.445 209.486 860.216 209.204 860.956 209.038 861.695 208.871 862.482 208.788 863.315 208.788ZM827.253 208.788C828.378 208.788 829.383 208.918 830.268 209.178 831.154 209.439 831.935 209.84 832.612 210.381 833.289 210.923 833.846 211.595 834.284 212.397 834.721 213.199 835.049 214.163 835.268 215.288 835.487 216.413 835.596 217.84 835.596 219.569L835.596 231.35C835.596 232.788 835.638 233.829 835.721 234.475 835.805 235.121 835.951 235.621 836.159 235.975 836.367 236.329 836.669 236.626 837.065 236.866 837.461 237.105 838.148 237.361 839.128 237.631L839.128 239.163 826.815 239.163 826.815 237.631C827.628 237.381 828.211 237.163 828.565 236.975 828.919 236.788 829.216 236.527 829.456 236.194 829.695 235.861 829.883 235.345 830.018 234.647 830.154 233.949 830.221 232.892 830.221 231.475L830.221 223.288C830.221 221.829 830.18 220.506 830.096 219.319 830.013 218.131 829.872 217.158 829.674 216.397 829.477 215.637 829.237 215.043 828.956 214.616 828.674 214.189 828.341 213.824 827.956 213.522 827.57 213.22 827.128 212.98 826.628 212.803 826.128 212.626 825.471 212.538 824.659 212.538 823.846 212.538 823.076 212.699 822.346 213.022 821.617 213.345 820.815 213.902 819.94 214.694 819.065 215.486 818.43 216.267 818.034 217.038 817.638 217.809 817.44 218.694 817.44 219.694L817.44 231.35C817.44 233.142 817.523 234.387 817.69 235.085 817.857 235.783 818.174 236.314 818.643 236.678 819.112 237.043 819.878 237.361 820.94 237.631L820.94 239.163 808.69 239.163 808.69 237.631C809.503 237.381 810.081 237.163 810.424 236.975 810.768 236.788 811.06 236.527 811.299 236.194 811.539 235.861 811.727 235.35 811.862 234.663 811.997 233.975 812.065 232.902 812.065 231.444L812.065 217.819C812.065 216.486 812.044 215.413 812.003 214.6 811.961 213.788 811.815 213.137 811.565 212.647 811.315 212.158 810.935 211.793 810.424 211.553 809.914 211.314 809.19 211.111 808.253 210.944L808.253 209.288 815.565 209.006 817.471 209.006 817.128 214.1 817.565 214.225C819.107 212.663 820.352 211.548 821.299 210.881 822.247 210.215 823.206 209.699 824.174 209.335 825.143 208.97 826.169 208.788 827.253 208.788ZM919.378 201.569 923.815 201.569 923.815 209.288 933.909 209.288 933.909 212.444 923.815 212.444 923.815 226.35C923.815 228.371 923.898 229.98 924.065 231.178 924.232 232.376 924.544 233.314 925.003 233.991 925.461 234.668 925.982 235.152 926.565 235.444 927.148 235.736 927.898 235.881 928.815 235.881 929.648 235.881 930.43 235.71 931.159 235.366 931.888 235.022 932.607 234.527 933.315 233.881L934.721 235.569C933.242 237.006 931.841 238.048 930.518 238.694 929.195 239.34 927.826 239.663 926.409 239.663 923.721 239.663 921.721 238.866 920.409 237.272 919.096 235.678 918.44 233.184 918.44 229.788L918.44 212.444 913.815 212.444 913.815 210.85C914.857 210.684 915.701 210.392 916.346 209.975 916.992 209.559 917.497 209.022 917.862 208.366 918.227 207.71 918.513 206.887 918.721 205.897 918.93 204.908 919.148 203.465 919.378 201.569ZM793.878 197.038 799.628 197.038 799.628 203.1 793.878 203.1Z" fill="#CFDCE6" fill-rule="evenodd"/><text fill="#000000" fill-opacity="0" font-family="Arial,Arial_MSFontService,sans-serif" font-size="55.5625" x="790.253" y="245.655">input</text><path d="M1030.52 211.225C1028 211.225 1026.07 212.319 1024.72 214.506 1023.38 216.694 1022.71 219.809 1022.71 223.85 1022.71 228.142 1023.39 231.439 1024.75 233.741 1026.12 236.043 1028.07 237.194 1030.61 237.194 1032.01 237.194 1033.2 236.855 1034.18 236.178 1035.15 235.501 1035.95 234.59 1036.57 233.444 1037.18 232.298 1037.62 230.97 1037.89 229.46 1038.17 227.949 1038.3 226.371 1038.3 224.725 1038.3 221.663 1037.96 219.121 1037.28 217.1 1036.61 215.079 1035.69 213.595 1034.52 212.647 1033.35 211.699 1032.02 211.225 1030.52 211.225ZM1030.64 208.756C1035.1 208.756 1038.48 210.053 1040.77 212.647 1043.06 215.241 1044.21 218.965 1044.21 223.819 1044.21 227.277 1043.63 230.194 1042.49 232.569 1041.34 234.944 1039.72 236.72 1037.61 237.897 1035.51 239.074 1033.02 239.663 1030.14 239.663 1025.81 239.663 1022.5 238.387 1020.22 235.835 1017.94 233.283 1016.8 229.506 1016.8 224.506 1016.8 221.069 1017.4 218.163 1018.6 215.788 1019.8 213.413 1021.44 211.647 1023.52 210.491 1025.6 209.335 1027.98 208.756 1030.64 208.756Z" fill="#CFDCE6" fill-rule="evenodd"/><text fill="#000000" fill-opacity="0" font-family="Arial,Arial_MSFontService,sans-serif" font-size="30.9062" x="1016.8" y="235.799">o</text><path d="M1123.83 212.538C1122.67 212.538 1121.66 212.72 1120.82 213.085 1119.97 213.449 1119.13 214.038 1118.3 214.85 1117.47 215.663 1116.88 216.449 1116.54 217.21 1116.19 217.97 1116.02 218.788 1116.02 219.663L1116.02 227.913C1116.02 229.913 1116.14 231.454 1116.39 232.538 1116.64 233.621 1117.09 234.501 1117.72 235.178 1118.36 235.855 1119.11 236.361 1119.97 236.694 1120.84 237.027 1121.98 237.194 1123.39 237.194 1125.92 237.194 1127.81 236.147 1129.08 234.053 1130.35 231.96 1130.99 228.871 1130.99 224.788 1130.99 216.621 1128.6 212.538 1123.83 212.538ZM1142.8 209.288 1151.71 209.288 1151.71 225.194C1151.71 227.631 1151.8 229.486 1151.99 230.756 1152.18 232.027 1152.46 232.986 1152.83 233.631 1153.21 234.277 1153.74 234.819 1154.43 235.256 1155.11 235.694 1156.06 235.913 1157.27 235.913 1158.06 235.913 1158.82 235.756 1159.55 235.444 1160.28 235.131 1161.09 234.585 1161.99 233.803 1162.88 233.022 1163.52 232.246 1163.91 231.475 1164.3 230.704 1164.49 229.809 1164.49 228.788L1164.49 217.069C1164.49 215.881 1164.46 214.986 1164.39 214.381 1164.33 213.777 1164.23 213.293 1164.08 212.928 1163.94 212.564 1163.76 212.267 1163.57 212.038 1163.37 211.809 1163.09 211.6 1162.72 211.413 1162.36 211.225 1161.77 211.027 1160.96 210.819L1160.96 209.288 1169.86 209.288 1169.86 230.631C1169.86 232.236 1169.89 233.392 1169.96 234.1 1170.02 234.809 1170.15 235.371 1170.36 235.788 1170.57 236.204 1170.89 236.543 1171.33 236.803 1171.77 237.064 1172.55 237.309 1173.68 237.538L1173.68 239.163 1166.52 239.475 1164.61 239.475 1164.8 234.35 1164.33 234.225C1162.6 236.1 1160.95 237.475 1159.38 238.35 1157.81 239.225 1156.23 239.663 1154.64 239.663 1152.75 239.663 1151.19 239.288 1149.96 238.538 1148.73 237.788 1147.81 236.668 1147.21 235.178 1146.6 233.689 1146.3 231.59 1146.3 228.881L1146.3 217.069C1146.3 215.319 1146.23 214.116 1146.1 213.46 1145.96 212.803 1145.7 212.283 1145.32 211.897 1144.93 211.512 1144.09 211.152 1142.8 210.819ZM1049.8 209.288 1058.71 209.288 1058.71 225.194C1058.71 227.631 1058.8 229.486 1058.99 230.756 1059.18 232.027 1059.46 232.986 1059.83 233.631 1060.21 234.277 1060.74 234.819 1061.43 235.256 1062.11 235.694 1063.06 235.913 1064.27 235.913 1065.06 235.913 1065.82 235.756 1066.55 235.444 1067.28 235.131 1068.09 234.585 1068.99 233.803 1069.88 233.022 1070.52 232.246 1070.91 231.475 1071.3 230.704 1071.49 229.809 1071.49 228.788L1071.49 217.069C1071.49 215.881 1071.46 214.986 1071.39 214.381 1071.33 213.777 1071.23 213.293 1071.08 212.928 1070.94 212.564 1070.76 212.267 1070.57 212.038 1070.37 211.809 1070.09 211.6 1069.72 211.413 1069.36 211.225 1068.77 211.027 1067.96 210.819L1067.96 209.288 1076.86 209.288 1076.86 230.631C1076.86 232.236 1076.89 233.392 1076.96 234.1 1077.02 234.809 1077.15 235.371 1077.36 235.788 1077.57 236.204 1077.89 236.543 1078.33 236.803 1078.77 237.064 1079.55 237.309 1080.68 237.538L1080.68 239.163 1073.52 239.475 1071.61 239.475 1071.8 234.35 1071.33 234.225C1069.6 236.1 1067.95 237.475 1066.38 238.35 1064.81 239.225 1063.23 239.663 1061.64 239.663 1059.75 239.663 1058.19 239.288 1056.96 238.538 1055.73 237.788 1054.81 236.668 1054.21 235.178 1053.6 233.689 1053.3 231.59 1053.3 228.881L1053.3 217.069C1053.3 215.319 1053.23 214.116 1053.1 213.46 1052.96 212.803 1052.7 212.283 1052.32 211.897 1051.93 211.512 1051.09 211.152 1049.8 210.819ZM1126.18 208.788C1129.61 208.788 1132.25 210.074 1134.1 212.647 1135.94 215.22 1136.86 218.986 1136.86 223.944 1136.86 227.381 1136.34 230.272 1135.3 232.616 1134.26 234.96 1132.74 236.72 1130.75 237.897 1128.76 239.074 1126.39 239.663 1123.64 239.663 1122.1 239.663 1120.71 239.533 1119.46 239.272 1118.21 239.012 1117.06 238.663 1116.02 238.225L1116.02 244.819C1116.02 246.173 1116.07 247.184 1116.16 247.85 1116.25 248.517 1116.42 249.043 1116.66 249.428 1116.9 249.814 1117.24 250.131 1117.69 250.381 1118.14 250.631 1118.86 250.861 1119.86 251.069L1119.86 252.6 1107.11 252.6 1107.11 251.069C1107.86 250.861 1108.47 250.647 1108.94 250.428 1109.41 250.21 1109.77 249.887 1110.02 249.46 1110.27 249.033 1110.44 248.454 1110.52 247.725 1110.6 246.996 1110.64 246.027 1110.64 244.819L1110.64 218.006C1110.64 216.506 1110.62 215.439 1110.58 214.803 1110.54 214.168 1110.46 213.642 1110.33 213.225 1110.21 212.809 1110.02 212.465 1109.79 212.194 1109.55 211.923 1109.22 211.694 1108.82 211.506 1108.41 211.319 1107.74 211.131 1106.8 210.944L1106.8 209.288 1114.14 209.006 1116.05 209.006 1115.64 214.1 1116.11 214.225C1117.4 212.913 1118.43 211.96 1119.18 211.366 1119.93 210.772 1120.7 210.277 1121.5 209.881 1122.31 209.486 1123.08 209.204 1123.82 209.038 1124.56 208.871 1125.34 208.788 1126.18 208.788ZM1182.24 201.569 1186.68 201.569 1186.68 209.288 1196.77 209.288 1196.77 212.444 1186.68 212.444 1186.68 226.35C1186.68 228.371 1186.76 229.98 1186.93 231.178 1187.09 232.376 1187.4 233.314 1187.86 233.991 1188.32 234.668 1188.84 235.152 1189.43 235.444 1190.01 235.736 1190.76 235.881 1191.68 235.881 1192.51 235.881 1193.29 235.71 1194.02 235.366 1194.75 235.022 1195.47 234.527 1196.18 233.881L1197.58 235.569C1196.1 237.006 1194.7 238.048 1193.38 238.694 1192.06 239.34 1190.69 239.663 1189.27 239.663 1186.58 239.663 1184.58 238.866 1183.27 237.272 1181.96 235.678 1181.3 233.184 1181.3 229.788L1181.3 212.444 1176.68 212.444 1176.68 210.85C1177.72 210.684 1178.56 210.392 1179.21 209.975 1179.85 209.559 1180.36 209.022 1180.72 208.366 1181.09 207.71 1181.37 206.887 1181.58 205.897 1181.79 204.908 1182.01 203.465 1182.24 201.569ZM1089.24 201.569 1093.68 201.569 1093.68 209.288 1103.77 209.288 1103.77 212.444 1093.68 212.444 1093.68 226.35C1093.68 228.371 1093.76 229.98 1093.93 231.178 1094.09 232.376 1094.4 233.314 1094.86 233.991 1095.32 234.668 1095.84 235.152 1096.43 235.444 1097.01 235.736 1097.76 235.881 1098.68 235.881 1099.51 235.881 1100.29 235.71 1101.02 235.366 1101.75 235.022 1102.47 234.527 1103.18 233.881L1104.58 235.569C1103.1 237.006 1101.7 238.048 1100.38 238.694 1099.06 239.34 1097.69 239.663 1096.27 239.663 1093.58 239.663 1091.58 238.866 1090.27 237.272 1088.96 235.678 1088.3 233.184 1088.3 229.788L1088.3 212.444 1083.68 212.444 1083.68 210.85C1084.72 210.684 1085.56 210.392 1086.21 209.975 1086.85 209.559 1087.36 209.022 1087.72 208.366 1088.09 207.71 1088.37 206.887 1088.58 205.897 1088.79 204.908 1089.01 203.465 1089.24 201.569Z" fill="#CFDCE6" fill-rule="evenodd"/><text fill="#000000" fill-opacity="0" font-family="Arial,Arial_MSFontService,sans-serif" font-size="51.0312" x="1049.8" y="246.221">utput</text><path d="M862.749 301.95C861.311 301.95 860.108 302.377 859.139 303.231 858.17 304.085 857.389 305.315 856.795 306.919 856.202 308.523 855.78 310.476 855.53 312.778 855.28 315.08 855.155 317.679 855.155 320.575 855.155 327.367 855.785 332.351 857.045 335.528 858.306 338.705 860.259 340.294 862.905 340.294 865.426 340.294 867.295 338.799 868.514 335.809 869.733 332.82 870.342 328.19 870.342 321.919 870.342 317.127 870.03 313.247 869.405 310.278 868.78 307.309 867.91 305.179 866.795 303.887 865.681 302.596 864.332 301.95 862.749 301.95ZM862.905 299.294C867.467 299.294 870.863 301.054 873.092 304.575 875.321 308.096 876.436 313.419 876.436 320.544 876.436 327.919 875.243 333.497 872.858 337.278 870.472 341.059 866.988 342.95 862.405 342.95 857.905 342.95 854.556 341.179 852.358 337.637 850.16 334.096 849.061 328.721 849.061 321.512 849.061 317.679 849.4 314.367 850.077 311.575 850.754 308.783 851.702 306.476 852.92 304.653 854.139 302.83 855.603 301.481 857.311 300.606 859.019 299.731 860.884 299.294 862.905 299.294Z" fill="#CFDCE6" fill-rule="evenodd"/><text fill="#000000" fill-opacity="0" font-family="Arial,Arial_MSFontService,sans-serif" font-size="43.6562" x="849.061" y="337.493">0</text><path d="M1112.13 301.95C1110.69 301.95 1109.49 302.377 1108.52 303.231 1107.55 304.085 1106.77 305.315 1106.18 306.919 1105.58 308.523 1105.16 310.476 1104.91 312.778 1104.66 315.08 1104.53 317.679 1104.53 320.575 1104.53 327.367 1105.16 332.351 1106.43 335.528 1107.69 338.705 1109.64 340.294 1112.28 340.294 1114.81 340.294 1116.68 338.799 1117.89 335.809 1119.11 332.82 1119.72 328.19 1119.72 321.919 1119.72 317.127 1119.41 313.247 1118.78 310.278 1118.16 307.309 1117.29 305.179 1116.18 303.887 1115.06 302.596 1113.71 301.95 1112.13 301.95ZM1112.28 299.294C1116.85 299.294 1120.24 301.054 1122.47 304.575 1124.7 308.096 1125.82 313.419 1125.82 320.544 1125.82 327.919 1124.62 333.497 1122.24 337.278 1119.85 341.059 1116.37 342.95 1111.78 342.95 1107.28 342.95 1103.94 341.179 1101.74 337.637 1099.54 334.096 1098.44 328.721 1098.44 321.512 1098.44 317.679 1098.78 314.367 1099.46 311.575 1100.13 308.783 1101.08 306.476 1102.3 304.653 1103.52 302.83 1104.98 301.481 1106.69 300.606 1108.4 299.731 1110.26 299.294 1112.28 299.294Z" fill="#CFDCE6" fill-rule="evenodd"/><text fill="#000000" fill-opacity="0" font-family="Arial,Arial_MSFontService,sans-serif" font-size="43.6562" x="1098.44" y="337.493">0</text><path d="M865.217 385.154 866.936 385.154C866.811 387.154 866.749 389.925 866.749 393.467L866.749 420.154C866.749 421.363 866.816 422.274 866.952 422.889 867.087 423.503 867.327 424.003 867.67 424.389 868.014 424.774 868.509 425.076 869.155 425.295 869.801 425.514 870.613 425.68 871.592 425.795 872.571 425.91 873.863 425.988 875.467 426.029L875.467 428.311 852.374 428.311 852.374 426.029C854.686 425.925 856.337 425.785 857.327 425.607 858.316 425.43 859.071 425.165 859.592 424.811 860.113 424.456 860.493 423.956 860.733 423.311 860.972 422.665 861.092 421.613 861.092 420.154L861.092 394.811C861.092 393.977 860.946 393.368 860.655 392.982 860.363 392.597 859.936 392.404 859.374 392.404 858.707 392.404 857.759 392.748 856.53 393.436 855.301 394.123 853.78 395.071 851.967 396.279L850.592 393.873Z" fill="#CFDCE6" fill-rule="evenodd"/><text fill="#000000" fill-opacity="0" font-family="Arial,Arial_MSFontService,sans-serif" font-size="43.1562" x="850.592" y="422.916">1</text><path d="M1114.6 385.154 1116.32 385.154C1116.19 387.154 1116.13 389.925 1116.13 393.467L1116.13 420.154C1116.13 421.363 1116.2 422.274 1116.33 422.889 1116.47 423.503 1116.71 424.003 1117.05 424.389 1117.39 424.774 1117.89 425.076 1118.53 425.295 1119.18 425.514 1119.99 425.68 1120.97 425.795 1121.95 425.91 1123.24 425.988 1124.85 426.029L1124.85 428.311 1101.75 428.311 1101.75 426.029C1104.07 425.925 1105.72 425.785 1106.71 425.607 1107.7 425.43 1108.45 425.165 1108.97 424.811 1109.49 424.456 1109.87 423.956 1110.11 423.311 1110.35 422.665 1110.47 421.613 1110.47 420.154L1110.47 394.811C1110.47 393.977 1110.33 393.368 1110.03 392.982 1109.74 392.597 1109.32 392.404 1108.75 392.404 1108.09 392.404 1107.14 392.748 1105.91 393.436 1104.68 394.123 1103.16 395.071 1101.35 396.279L1099.97 393.873Z" fill="#CFDCE6" fill-rule="evenodd"/><text fill="#000000" fill-opacity="0" font-family="Arial,Arial_MSFontService,sans-serif" font-size="43.1562" x="1099.97" y="422.916">1</text><path d="M1242 179 1242 445.698" stroke="#CFDCE6" stroke-width="8" stroke-miterlimit="8" fill="none" fill-rule="evenodd"/><path d="M755 179 1242.07 179" stroke="#CFDCE6" stroke-width="8" stroke-miterlimit="8" fill="none" fill-rule="evenodd"/><path d="M755 446 1242.07 446" stroke="#CFDCE6" stroke-width="8" stroke-miterlimit="8" fill="none" fill-rule="evenodd"/><path d="M755 362 1242.07 362" stroke="#CFDCE6" stroke-width="8" stroke-miterlimit="8" fill="none" fill-rule="evenodd"/><path d="M755 278 1242.07 278" stroke="#CFDCE6" stroke-width="8" stroke-miterlimit="8" fill="none" fill-rule="evenodd"/><path d="M369 319C369 305.193 380.417 294 394.5 294 408.583 294 420 305.193 420 319 420 332.807 408.583 344 394.5 344 380.417 344 369 332.807 369 319Z" fill="#03111A" fill-rule="evenodd"/><path d="M1591 314C1591 300.193 1602.19 289 1616 289 1629.81 289 1641 300.193 1641 314 1641 327.807 1629.81 339 1616 339 1602.19 339 1591 327.807 1591 314Z" fill="#03111A" fill-rule="evenodd"/></g></svg>