<svg width="1007" height="588" xmlns="http://www.w3.org/2000/svg" xmlns:xlink="http://www.w3.org/1999/xlink" overflow="hidden"><defs><clipPath id="clip0"><rect x="46" y="55" width="1007" height="588"/></clipPath></defs><g clip-path="url(#clip0)" transform="translate(-46 -55)"><path d="M0 0 390.052 0.000104987" stroke="#CFDCE6" stroke-width="8" stroke-miterlimit="8" fill="none" fill-rule="evenodd" transform="matrix(-1 0 0 1 1048.05 472)"/><path d="M570.121 214.301 160 213" stroke="#CFDCE6" stroke-width="8" stroke-miterlimit="8" fill="none" fill-rule="evenodd"/><path d="M1048 214 1048 472.087" stroke="#CFDCE6" stroke-width="8" stroke-miterlimit="8" fill="none" fill-rule="evenodd"/><path d="M164 314.92 164 389.823 156 389.823 156 314.92ZM142.545 336.905 160 306.981 177.455 336.904C178.568 338.813 177.924 341.262 176.016 342.375 174.107 343.488 171.658 342.844 170.545 340.935L156.545 316.935 163.455 316.935 149.455 340.935C148.342 342.844 145.893 343.488 143.985 342.375 142.076 341.262 141.432 338.813 142.545 336.905Z" fill="#CFDCE6"/><text fill="#CFDCE6" font-family="Arial,Arial_MSFontService,sans-serif" font-weight="700" font-size="64" transform="translate(583.981 589)">V<tspan font-size="64" x="-498.667" y="-225">I</tspan></text><path d="M554 472.5C554 445.714 577.281 424 606 424 634.719 424 658 445.714 658 472.5 658 499.286 634.719 521 606 521 577.281 521 554 499.286 554 472.5Z" stroke="#CFDCE6" stroke-width="8" stroke-miterlimit="8" fill="none" fill-rule="evenodd"/><path d="M570 470.975C574.8 457.696 579.6 444.418 588 448.881 596.4 453.345 611.4 494.408 620.4 497.756 629.4 501.103 642 468.967 642 468.967" stroke="#CFDCE6" stroke-width="8" stroke-miterlimit="8" fill="none" fill-rule="evenodd"/><path d="M0 0 393.968 0.000104987" stroke="#CFDCE6" stroke-width="8" stroke-miterlimit="8" fill="none" fill-rule="evenodd" transform="matrix(-1 0 0 1 553.968 472)"/><path d="M160 213 160 471.087" stroke="#CFDCE6" stroke-width="8" stroke-miterlimit="8" fill="none" fill-rule="evenodd"/><path d="M0 0 414.69 1.38446" stroke="#CFDCE6" stroke-width="8" stroke-miterlimit="8" fill="none" fill-rule="evenodd" transform="matrix(-1 0 0 1 1048.69 213)"/><text fill="#CFDCE6" font-family="Arial,Arial_MSFontService,sans-serif" font-weight="700" font-size="64" transform="translate(583.595 137)">C</text><path d="M576 168 576 260.018" stroke="#CFDCE6" stroke-width="8" stroke-miterlimit="8" fill="none" fill-rule="evenodd"/><path d="M634 168 634 260.018" stroke="#CFDCE6" stroke-width="8" stroke-miterlimit="8" fill="none" fill-rule="evenodd"/></g></svg>