<svg width="1239" height="748" xmlns="http://www.w3.org/2000/svg" xmlns:xlink="http://www.w3.org/1999/xlink" overflow="hidden"><defs><clipPath id="clip0"><rect x="15" y="-20" width="1239" height="748"/></clipPath></defs><g clip-path="url(#clip0)" transform="translate(-15 20)"><rect x="88" y="440" width="459" height="207" stroke="#CFDCE6" stroke-width="8" stroke-miterlimit="8" fill="#406680"/><rect x="88" y="87" width="459" height="207" stroke="#CFDCE6" stroke-width="8" stroke-miterlimit="8" fill="#406680"/><path d="M28 643 592.126 643 592.126 651 28 651ZM570.143 629.545 600.066 647 570.143 664.455C568.234 665.568 565.785 664.924 564.672 663.016 563.559 661.107 564.203 658.658 566.112 657.545L590.112 643.545 590.112 650.455 566.112 636.455C564.203 635.342 563.559 632.893 564.672 630.985 565.785 629.076 568.234 628.432 570.143 629.545Z" fill="#CFDCE6"/><path d="M4-6.11936e-07 4.0001 678.34-3.9999 678.34-4 6.11936e-07ZM17.4552 656.356 0.000104597 686.279-17.455 656.356C-18.5681 654.448-17.9236 651.999-16.0154 650.886-14.1072 649.773-11.6579 650.417-10.5448 652.325L3.45522 676.325-3.45501 676.325 10.545 652.325C11.6581 650.417 14.1074 649.773 16.0156 650.886 17.9238 651.999 18.5683 654.448 17.4552 656.356Z" fill="#CFDCE6" transform="matrix(1 0 0 -1 88 703.261)"/><path d="M34.2216 18.8939 64.5654 18.8939 62.3466 28.9564 58.3466 28.9564C58.2424 26.9772 58.0549 25.5918 57.7841 24.8001 57.5133 24.0085 57.0966 23.4356 56.5341 23.0814 55.9716 22.7272 55.1799 22.5501 54.1591 22.5501L46.3154 22.5501 43.0029 37.5501 47.3466 37.5501C48.1799 37.5501 48.8831 37.4147 49.456 37.1439 50.0289 36.873 50.5602 36.4199 51.0497 35.7845 51.5393 35.1491 52.0237 34.2689 52.5029 33.1439L55.9404 33.1439 52.9404 45.8314 49.7216 45.8314C49.7216 44.623 49.6487 43.696 49.5029 43.0501 49.357 42.4043 49.0862 41.9355 48.6904 41.6439 48.2945 41.3522 47.6174 41.2064 46.6591 41.2064L42.2216 41.2064 38.5341 57.8939 45.5654 57.8939C46.482 57.8939 47.1956 57.8314 47.706 57.7064 48.2164 57.5814 48.6852 57.3835 49.1122 57.1126 49.5393 56.8418 50.0341 56.4095 50.5966 55.8158 51.1591 55.222 51.7164 54.472 52.2685 53.5658 52.8206 52.6595 53.3883 51.571 53.9716 50.3001L58.2216 50.3001 55.3466 61.5501 25.6279 61.5501 26.0654 59.4876C27.2529 59.1543 28.1279 58.571 28.6904 57.7376 29.2529 56.9043 29.7841 55.3626 30.2841 53.1126L35.9716 27.3314C36.2424 26.1022 36.3779 24.8835 36.3779 23.6751 36.3779 22.8001 36.1747 22.1595 35.7685 21.7533 35.3622 21.347 34.7008 21.0814 33.7841 20.9564Z" fill="#CFDCE6" fill-rule="evenodd"/><text fill="#000000" fill-opacity="0" font-family="Arial,Arial_MSFontService,sans-serif" font-size="42.6562" x="25.6279" y="56.2181">𝑬</text><path d="M44.8049 668.596C43.3258 668.596 42.1591 669.247 41.3049 670.549 40.4508 671.851 39.8362 673.789 39.4612 676.362 39.0862 678.935 38.8987 682.283 38.8987 686.408 38.8987 690.992 39.1018 694.638 39.5081 697.346 39.9143 700.054 40.5549 702.049 41.4299 703.33 42.3049 704.612 43.4716 705.252 44.9299 705.252 45.7216 705.252 46.4143 705.06 47.0081 704.674 47.6018 704.289 48.1331 703.685 48.6018 702.862 49.0706 702.039 49.4716 700.945 49.8049 699.58 50.1383 698.216 50.3779 696.518 50.5237 694.487 50.6695 692.455 50.7424 690.19 50.7424 687.69 50.7424 683.961 50.6018 680.825 50.3206 678.283 50.0393 675.742 49.6383 673.783 49.1174 672.408 48.5966 671.033 47.982 670.054 47.2737 669.471 46.5654 668.888 45.7424 668.596 44.8049 668.596ZM44.9924 665.096C50.1174 665.096 53.9404 666.841 56.4612 670.33 58.982 673.82 60.2424 679.158 60.2424 686.346 60.2424 693.721 58.9039 699.299 56.2268 703.08 53.5497 706.862 49.6174 708.752 44.4299 708.752 39.3049 708.752 35.5185 706.976 33.0706 703.424 30.6227 699.872 29.3987 694.502 29.3987 687.315 29.3987 680.106 30.7633 674.601 33.4924 670.799 36.2216 666.997 40.0549 665.096 44.9924 665.096Z" fill="#CFDCE6" fill-rule="evenodd"/><text fill="#000000" fill-opacity="0" font-family="Arial,Arial_MSFontService,sans-serif" font-size="43.6562" x="29.3987" y="703.295">𝟎</text><path d="M312.357 14.8438 313.2 17.25C308.325 18.8542 304.716 21.9844 302.372 26.6406 300.029 31.2969 298.857 37.1458 298.857 44.1875 298.857 51.4792 300.029 57.4896 302.372 62.2188 304.716 66.9479 308.294 70.1146 313.107 71.7188L312.357 74.125C306.253 72.5208 301.575 69.0677 298.325 63.7656 295.075 58.4635 293.45 52.0417 293.45 44.5 293.45 36.9792 295.081 30.5573 298.341 25.2344 301.601 19.9115 306.273 16.4479 312.357 14.8438Z" fill="#CFDCE6" fill-rule="evenodd"/><text fill="#000000" fill-opacity="0" font-family="Arial,Arial_MSFontService,sans-serif" font-size="59.2812" x="293.45" y="66.7148">(</text><path d="M336.263 31.75C334.325 31.75 332.607 32.724 331.107 34.6719 329.607 36.6198 328.398 39.2396 327.482 42.5312 326.565 45.8229 326.107 48.7708 326.107 51.375 326.107 52.8958 326.331 54.0312 326.779 54.7812 327.226 55.5312 327.919 55.9062 328.857 55.9062 330.232 55.9062 331.633 55.2344 333.06 53.8906 334.487 52.5469 335.638 50.9688 336.513 49.1562 337.388 47.3438 338.169 44.8646 338.857 41.7188L339.107 40.5625C339.44 39.0208 339.607 37.4792 339.607 35.9375 339.607 34.5625 339.346 33.5208 338.825 32.8125 338.305 32.1042 337.45 31.75 336.263 31.75ZM335.888 28.5C338.992 28.5 341.638 29.25 343.825 30.75L346.857 28.5 350.357 29 345.294 50.25C344.982 51.5625 344.825 52.75 344.825 53.8125 344.825 54.5 344.94 55.0312 345.169 55.4062 345.398 55.7812 345.794 55.9688 346.357 55.9688 347.003 55.9688 347.7 55.6771 348.45 55.0938 349.2 54.5104 350.075 53.6458 351.075 52.5L353.325 54.75C351.138 56.9375 349.253 58.4427 347.669 59.2656 346.086 60.0885 344.419 60.5 342.669 60.5 340.919 60.5 339.534 60.0156 338.513 59.0469 337.492 58.0781 336.982 56.8021 336.982 55.2188 336.982 54.6979 337.044 54.1979 337.169 53.7188L336.732 53.6562C335.211 55.4479 333.904 56.7969 332.81 57.7031 331.716 58.6094 330.555 59.3021 329.325 59.7812 328.096 60.2604 326.732 60.5 325.232 60.5 322.732 60.5 320.836 59.651 319.544 57.9531 318.253 56.2552 317.607 53.7812 317.607 50.5312 317.607 47.7188 318.013 44.9271 318.825 42.1562 319.638 39.3854 320.805 36.9948 322.325 34.9844 323.846 32.974 325.758 31.3906 328.06 30.2344 330.362 29.0781 332.971 28.5 335.888 28.5Z" fill="#CFDCE6" fill-rule="evenodd"/><text fill="#000000" fill-opacity="0" font-family="Arial,Arial_MSFontService,sans-serif" font-size="32" x="317.607" y="56.5">𝒂</text><path d="M356.19 14.8438C362.273 16.4479 366.945 19.9115 370.206 25.2344 373.466 30.5573 375.096 36.9792 375.096 44.5 375.096 52.0417 373.471 58.4635 370.221 63.7656 366.971 69.0677 362.294 72.5208 356.19 74.125L355.44 71.7188C360.253 70.1146 363.831 66.9479 366.174 62.2188 368.518 57.4896 369.69 51.4792 369.69 44.1875 369.69 37.1458 368.523 31.2969 366.19 26.6406 363.857 21.9844 360.242 18.8542 355.346 17.25Z" fill="#CFDCE6" fill-rule="evenodd"/><text fill="#000000" fill-opacity="0" font-family="Arial,Arial_MSFontService,sans-serif" font-size="59.2812" x="355.346" y="66.7148">)</text><path d="M123 628 178.297 628" stroke="#CFDCE6" stroke-width="8" stroke-miterlimit="8" fill="none" fill-rule="evenodd"/><path d="M206 628 261.297 628" stroke="#CFDCE6" stroke-width="8" stroke-miterlimit="8" fill="none" fill-rule="evenodd"/><path d="M289 628 344.297 628" stroke="#CFDCE6" stroke-width="8" stroke-miterlimit="8" fill="none" fill-rule="evenodd"/><path d="M372 628 427.297 628" stroke="#CFDCE6" stroke-width="8" stroke-miterlimit="8" fill="none" fill-rule="evenodd"/><path d="M455 628 510.297 628" stroke="#CFDCE6" stroke-width="8" stroke-miterlimit="8" fill="none" fill-rule="evenodd"/><path d="M135 611.5C135 603.492 142.163 597 151 597 159.837 597 167 603.492 167 611.5 167 619.508 159.837 626 151 626 142.163 626 135 619.508 135 611.5Z" stroke="#CFDCE6" stroke-width="8" stroke-miterlimit="8" fill="#8FACBF" fill-rule="evenodd"/><path d="M216 611.5C216 603.492 222.94 597 231.5 597 240.06 597 247 603.492 247 611.5 247 619.508 240.06 626 231.5 626 222.94 626 216 619.508 216 611.5Z" stroke="#CFDCE6" stroke-width="8" stroke-miterlimit="8" fill="#8FACBF" fill-rule="evenodd"/><path d="M301 611.5C301 603.492 308.163 597 317 597 325.837 597 333 603.492 333 611.5 333 619.508 325.837 626 317 626 308.163 626 301 619.508 301 611.5Z" stroke="#CFDCE6" stroke-width="8" stroke-miterlimit="8" fill="#8FACBF" fill-rule="evenodd"/><path d="M384 611.5C384 603.492 391.163 597 400 597 408.837 597 416 603.492 416 611.5 416 619.508 408.837 626 400 626 391.163 626 384 619.508 384 611.5Z" stroke="#CFDCE6" stroke-width="8" stroke-miterlimit="8" fill="#8FACBF" fill-rule="evenodd"/><path d="M466 611.5C466 603.492 473.163 597 482 597 490.837 597 498 603.492 498 611.5 498 619.508 490.837 626 482 626 473.163 626 466 619.508 466 611.5Z" stroke="#CFDCE6" stroke-width="8" stroke-miterlimit="8" fill="#8FACBF" fill-rule="evenodd"/><path d="M124 582 179.297 582" stroke="#CFDCE6" stroke-width="8" stroke-miterlimit="8" fill="none" fill-rule="evenodd"/><path d="M207 582 262.297 582" stroke="#CFDCE6" stroke-width="8" stroke-miterlimit="8" fill="none" fill-rule="evenodd"/><path d="M290 582 345.297 582" stroke="#CFDCE6" stroke-width="8" stroke-miterlimit="8" fill="none" fill-rule="evenodd"/><path d="M373 582 428.297 582" stroke="#CFDCE6" stroke-width="8" stroke-miterlimit="8" fill="none" fill-rule="evenodd"/><path d="M456 582 511.297 582" stroke="#CFDCE6" stroke-width="8" stroke-miterlimit="8" fill="none" fill-rule="evenodd"/><path d="M136 566C136 557.716 142.94 551 151.5 551 160.06 551 167 557.716 167 566 167 574.284 160.06 581 151.5 581 142.94 581 136 574.284 136 566Z" stroke="#CFDCE6" stroke-width="8" stroke-miterlimit="8" fill="#8FACBF" fill-rule="evenodd"/><path d="M217 566C217 557.716 223.94 551 232.5 551 241.06 551 248 557.716 248 566 248 574.284 241.06 581 232.5 581 223.94 581 217 574.284 217 566Z" stroke="#CFDCE6" stroke-width="8" stroke-miterlimit="8" fill="#8FACBF" fill-rule="evenodd"/><path d="M302 566C302 557.716 308.94 551 317.5 551 326.06 551 333 557.716 333 566 333 574.284 326.06 581 317.5 581 308.94 581 302 574.284 302 566Z" stroke="#CFDCE6" stroke-width="8" stroke-miterlimit="8" fill="#8FACBF" fill-rule="evenodd"/><path d="M385 566C385 557.716 391.94 551 400.5 551 409.06 551 416 557.716 416 566 416 574.284 409.06 581 400.5 581 391.94 581 385 574.284 385 566Z" stroke="#CFDCE6" stroke-width="8" stroke-miterlimit="8" fill="#8FACBF" fill-rule="evenodd"/><path d="M467 566C467 557.716 474.163 551 483 551 491.837 551 499 557.716 499 566 499 574.284 491.837 581 483 581 474.163 581 467 574.284 467 566Z" stroke="#CFDCE6" stroke-width="8" stroke-miterlimit="8" fill="#8FACBF" fill-rule="evenodd"/><path d="M125 537 180.297 537" stroke="#CFDCE6" stroke-width="8" stroke-miterlimit="8" fill="none" fill-rule="evenodd"/><path d="M208 537 263.297 537" stroke="#CFDCE6" stroke-width="8" stroke-miterlimit="8" fill="none" fill-rule="evenodd"/><path d="M291 537 346.297 537" stroke="#CFDCE6" stroke-width="8" stroke-miterlimit="8" fill="none" fill-rule="evenodd"/><path d="M374 537 429.297 537" stroke="#CFDCE6" stroke-width="8" stroke-miterlimit="8" fill="none" fill-rule="evenodd"/><path d="M457 537 512.297 537" stroke="#CFDCE6" stroke-width="8" stroke-miterlimit="8" fill="none" fill-rule="evenodd"/><path d="M136 521C136 512.716 143.163 506 152 506 160.837 506 168 512.716 168 521 168 529.284 160.837 536 152 536 143.163 536 136 529.284 136 521Z" stroke="#CFDCE6" stroke-width="8" stroke-miterlimit="8" fill="#8FACBF" fill-rule="evenodd"/><path d="M217 521C217 512.716 224.163 506 233 506 241.837 506 249 512.716 249 521 249 529.284 241.837 536 233 536 224.163 536 217 529.284 217 521Z" stroke="#CFDCE6" stroke-width="8" stroke-miterlimit="8" fill="#8FACBF" fill-rule="evenodd"/><path d="M302 521C302 512.716 309.163 506 318 506 326.837 506 334 512.716 334 521 334 529.284 326.837 536 318 536 309.163 536 302 529.284 302 521Z" stroke="#CFDCE6" stroke-width="8" stroke-miterlimit="8" fill="#8FACBF" fill-rule="evenodd"/><path d="M385 521C385 512.716 392.163 506 401 506 409.837 506 417 512.716 417 521 417 529.284 409.837 536 401 536 392.163 536 385 529.284 385 521Z" stroke="#CFDCE6" stroke-width="8" stroke-miterlimit="8" fill="#8FACBF" fill-rule="evenodd"/><path d="M468 521C468 512.716 474.94 506 483.5 506 492.06 506 499 512.716 499 521 499 529.284 492.06 536 483.5 536 474.94 536 468 529.284 468 521Z" stroke="#CFDCE6" stroke-width="8" stroke-miterlimit="8" fill="#8FACBF" fill-rule="evenodd"/><path d="M125 491 180.297 491" stroke="#CFDCE6" stroke-width="8" stroke-miterlimit="8" fill="none" fill-rule="evenodd"/><path d="M208 491 263.297 491" stroke="#CFDCE6" stroke-width="8" stroke-miterlimit="8" fill="none" fill-rule="evenodd"/><path d="M291 491 346.297 491" stroke="#CFDCE6" stroke-width="8" stroke-miterlimit="8" fill="none" fill-rule="evenodd"/><path d="M374 491 429.297 491" stroke="#CFDCE6" stroke-width="8" stroke-miterlimit="8" fill="none" fill-rule="evenodd"/><path d="M457 491 512.297 491" stroke="#CFDCE6" stroke-width="8" stroke-miterlimit="8" fill="none" fill-rule="evenodd"/><path d="M137 475.5C137 467.492 144.163 461 153 461 161.837 461 169 467.492 169 475.5 169 483.508 161.837 490 153 490 144.163 490 137 483.508 137 475.5Z" stroke="#CFDCE6" stroke-width="8" stroke-miterlimit="8" fill="#8FACBF" fill-rule="evenodd"/><path d="M218 475C218 466.716 224.94 460 233.5 460 242.06 460 249 466.716 249 475 249 483.284 242.06 490 233.5 490 224.94 490 218 483.284 218 475Z" stroke="#CFDCE6" stroke-width="8" stroke-miterlimit="8" fill="#8FACBF" fill-rule="evenodd"/><path d="M303 475C303 466.716 310.163 460 319 460 327.837 460 335 466.716 335 475 335 483.284 327.837 490 319 490 310.163 490 303 483.284 303 475Z" stroke="#CFDCE6" stroke-width="8" stroke-miterlimit="8" fill="#8FACBF" fill-rule="evenodd"/><path d="M386 475C386 466.716 393.163 460 402 460 410.837 460 418 466.716 418 475 418 483.284 410.837 490 402 490 393.163 490 386 483.284 386 475Z" stroke="#CFDCE6" stroke-width="8" stroke-miterlimit="8" fill="#8FACBF" fill-rule="evenodd"/><path d="M469 475C469 466.716 475.94 460 484.5 460 493.06 460 500 466.716 500 475 500 483.284 493.06 490 484.5 490 475.94 490 469 483.284 469 475Z" stroke="#CFDCE6" stroke-width="8" stroke-miterlimit="8" fill="#8FACBF" fill-rule="evenodd"/><path d="M117 275 172.297 275" stroke="#CFDCE6" stroke-width="8" stroke-miterlimit="8" fill="none" fill-rule="evenodd"/><path d="M200 275 255.297 275" stroke="#CFDCE6" stroke-width="8" stroke-miterlimit="8" fill="none" fill-rule="evenodd"/><path d="M283 275 338.297 275" stroke="#CFDCE6" stroke-width="8" stroke-miterlimit="8" fill="none" fill-rule="evenodd"/><path d="M366 275 421.297 275" stroke="#CFDCE6" stroke-width="8" stroke-miterlimit="8" fill="none" fill-rule="evenodd"/><path d="M449 275 504.297 275" stroke="#CFDCE6" stroke-width="8" stroke-miterlimit="8" fill="none" fill-rule="evenodd"/><path d="M129 259C129 250.716 136.163 244 145 244 153.837 244 161 250.716 161 259 161 267.284 153.837 274 145 274 136.163 274 129 267.284 129 259Z" stroke="#CFDCE6" stroke-width="8" stroke-miterlimit="8" fill="#8FACBF" fill-rule="evenodd"/><path d="M210 259C210 250.716 217.163 244 226 244 234.837 244 242 250.716 242 259 242 267.284 234.837 274 226 274 217.163 274 210 267.284 210 259Z" stroke="#CFDCE6" stroke-width="8" stroke-miterlimit="8" fill="#8FACBF" fill-rule="evenodd"/><path d="M295 259C295 250.716 302.163 244 311 244 319.837 244 327 250.716 327 259 327 267.284 319.837 274 311 274 302.163 274 295 267.284 295 259Z" stroke="#CFDCE6" stroke-width="8" stroke-miterlimit="8" fill="#8FACBF" fill-rule="evenodd"/><path d="M378 259C378 250.716 385.163 244 394 244 402.837 244 410 250.716 410 259 410 267.284 402.837 274 394 274 385.163 274 378 267.284 378 259Z" stroke="#CFDCE6" stroke-width="8" stroke-miterlimit="8" fill="#8FACBF" fill-rule="evenodd"/><path d="M461 259C461 250.716 467.94 244 476.5 244 485.06 244 492 250.716 492 259 492 267.284 485.06 274 476.5 274 467.94 274 461 267.284 461 259Z" stroke="#CFDCE6" stroke-width="8" stroke-miterlimit="8" fill="#8FACBF" fill-rule="evenodd"/><path d="M118 230 173.297 230" stroke="#CFDCE6" stroke-width="8" stroke-miterlimit="8" fill="none" fill-rule="evenodd"/><path d="M201 230 256.297 230" stroke="#CFDCE6" stroke-width="8" stroke-miterlimit="8" fill="none" fill-rule="evenodd"/><path d="M284 230 339.297 230" stroke="#CFDCE6" stroke-width="8" stroke-miterlimit="8" fill="none" fill-rule="evenodd"/><path d="M367 230 422.297 230" stroke="#CFDCE6" stroke-width="8" stroke-miterlimit="8" fill="none" fill-rule="evenodd"/><path d="M450 230 505.297 230" stroke="#CFDCE6" stroke-width="8" stroke-miterlimit="8" fill="none" fill-rule="evenodd"/><path d="M130 213.5C130 205.492 136.94 199 145.5 199 154.06 199 161 205.492 161 213.5 161 221.508 154.06 228 145.5 228 136.94 228 130 221.508 130 213.5Z" stroke="#CFDCE6" stroke-width="8" stroke-miterlimit="8" fill="#8FACBF" fill-rule="evenodd"/><path d="M296 213.5C296 205.492 302.94 199 311.5 199 320.06 199 327 205.492 327 213.5 327 221.508 320.06 228 311.5 228 302.94 228 296 221.508 296 213.5Z" stroke="#CFDCE6" stroke-width="8" stroke-miterlimit="8" fill="#8FACBF" fill-rule="evenodd"/><path d="M119 184 174.297 184" stroke="#CFDCE6" stroke-width="8" stroke-miterlimit="8" fill="none" fill-rule="evenodd"/><path d="M202 184 257.297 184" stroke="#CFDCE6" stroke-width="8" stroke-miterlimit="8" fill="none" fill-rule="evenodd"/><path d="M285 184 340.297 184" stroke="#CFDCE6" stroke-width="8" stroke-miterlimit="8" fill="none" fill-rule="evenodd"/><path d="M368 184 423.297 184" stroke="#CFDCE6" stroke-width="8" stroke-miterlimit="8" fill="none" fill-rule="evenodd"/><path d="M451 184 506.297 184" stroke="#CFDCE6" stroke-width="8" stroke-miterlimit="8" fill="none" fill-rule="evenodd"/><path d="M119 139 174.297 139" stroke="#CFDCE6" stroke-width="8" stroke-miterlimit="8" fill="none" fill-rule="evenodd"/><path d="M202 139 257.297 139" stroke="#CFDCE6" stroke-width="8" stroke-miterlimit="8" fill="none" fill-rule="evenodd"/><path d="M285 139 340.297 139" stroke="#CFDCE6" stroke-width="8" stroke-miterlimit="8" fill="none" fill-rule="evenodd"/><path d="M368 139 423.297 139" stroke="#CFDCE6" stroke-width="8" stroke-miterlimit="8" fill="none" fill-rule="evenodd"/><path d="M451 139 506.297 139" stroke="#CFDCE6" stroke-width="8" stroke-miterlimit="8" fill="none" fill-rule="evenodd"/><rect x="706" y="441" width="458" height="207" stroke="#CFDCE6" stroke-width="8" stroke-miterlimit="8" fill="#406680"/><rect x="706" y="88" width="458" height="207" stroke="#CFDCE6" stroke-width="8" stroke-miterlimit="8" fill="#406680"/><path d="M645 644 1209.13 644 1209.13 652 645 652ZM1187.14 630.545 1217.07 648 1187.14 665.455C1185.23 666.568 1182.79 665.924 1181.67 664.016 1180.56 662.107 1181.2 659.658 1183.11 658.545L1207.11 644.545 1207.11 651.455 1183.11 637.455C1181.2 636.342 1180.56 633.893 1181.67 631.985 1182.79 630.076 1185.23 629.432 1187.14 630.545Z" fill="#CFDCE6"/><path d="M4-6.11936e-07 4.0001 678.34-3.9999 678.34-4 6.11936e-07ZM17.4552 656.356 0.000104597 686.279-17.455 656.356C-18.5681 654.448-17.9236 651.999-16.0154 650.886-14.1072 649.773-11.6579 650.417-10.5448 652.325L3.45522 676.325-3.45501 676.325 10.545 652.325C11.6581 650.417 14.1074 649.773 16.0156 650.886 17.9238 651.999 18.5683 654.448 17.4552 656.356Z" fill="#CFDCE6" transform="matrix(1 0 0 -1 706 704.261)"/><path d="M651.643 20.444 681.987 20.444 679.768 30.5065 675.768 30.5065C675.664 28.5273 675.476 27.1419 675.206 26.3503 674.935 25.5586 674.518 24.9857 673.956 24.6315 673.393 24.2773 672.601 24.1003 671.581 24.1003L663.737 24.1003 660.424 39.1003 664.768 39.1003C665.601 39.1003 666.304 38.9649 666.877 38.694 667.45 38.4232 667.982 37.9701 668.471 37.3346 668.961 36.6992 669.445 35.819 669.924 34.694L673.362 34.694 670.362 47.3815 667.143 47.3815C667.143 46.1732 667.07 45.2461 666.924 44.6003 666.778 43.9544 666.508 43.4857 666.112 43.194 665.716 42.9024 665.039 42.7565 664.081 42.7565L659.643 42.7565 655.956 59.444 662.987 59.444C663.903 59.444 664.617 59.3815 665.127 59.2565 665.638 59.1315 666.107 58.9336 666.534 58.6628 666.961 58.3919 667.456 57.9596 668.018 57.3659 668.581 56.7721 669.138 56.0221 669.69 55.1159 670.242 54.2096 670.81 53.1211 671.393 51.8503L675.643 51.8503 672.768 63.1003 643.049 63.1003 643.487 61.0378C644.674 60.7044 645.549 60.1211 646.112 59.2878 646.674 58.4544 647.206 56.9128 647.706 54.6628L653.393 28.8815C653.664 27.6523 653.799 26.4336 653.799 25.2253 653.799 24.3503 653.596 23.7096 653.19 23.3034 652.784 22.8971 652.122 22.6315 651.206 22.5065Z" fill="#CFDCE6" fill-rule="evenodd"/><text fill="#000000" fill-opacity="0" font-family="Arial,Arial_MSFontService,sans-serif" font-size="42.6562" x="643.049" y="57.7682">𝑬</text><path d="M662.226 670.146C660.747 670.146 659.581 670.797 658.726 672.099 657.872 673.401 657.258 675.339 656.883 677.912 656.508 680.485 656.32 683.834 656.32 687.959 656.32 692.542 656.523 696.188 656.93 698.896 657.336 701.604 657.976 703.599 658.851 704.88 659.726 706.162 660.893 706.802 662.351 706.802 663.143 706.802 663.836 706.61 664.43 706.224 665.023 705.839 665.555 705.235 666.023 704.412 666.492 703.589 666.893 702.495 667.226 701.13 667.56 699.766 667.799 698.068 667.945 696.037 668.091 694.005 668.164 691.74 668.164 689.24 668.164 685.511 668.023 682.375 667.742 679.834 667.461 677.292 667.06 675.334 666.539 673.959 666.018 672.584 665.403 671.604 664.695 671.021 663.987 670.438 663.164 670.146 662.226 670.146ZM662.414 666.646C667.539 666.646 671.362 668.391 673.883 671.88 676.403 675.37 677.664 680.709 677.664 687.896 677.664 695.271 676.325 700.849 673.648 704.63 670.971 708.412 667.039 710.302 661.851 710.302 656.726 710.302 652.94 708.526 650.492 704.974 648.044 701.422 646.82 696.052 646.82 688.865 646.82 681.656 648.185 676.151 650.914 672.349 653.643 668.547 657.476 666.646 662.414 666.646Z" fill="#CFDCE6" fill-rule="evenodd"/><text fill="#000000" fill-opacity="0" font-family="Arial,Arial_MSFontService,sans-serif" font-size="43.6562" x="646.82" y="704.845">𝟎</text><path d="M929.778 16.3939 930.622 18.8001C925.747 20.4043 922.137 23.5345 919.794 28.1908 917.45 32.847 916.278 38.696 916.278 45.7376 916.278 53.0293 917.45 59.0397 919.794 63.7689 922.137 68.498 925.716 71.6647 930.528 73.2689L929.778 75.6751C923.674 74.071 918.997 70.6178 915.747 65.3158 912.497 60.0137 910.872 53.5918 910.872 46.0501 910.872 38.5293 912.502 32.1074 915.762 26.7845 919.023 21.4616 923.695 17.9981 929.778 16.3939Z" fill="#CFDCE6" fill-rule="evenodd"/><text fill="#000000" fill-opacity="0" font-family="Arial,Arial_MSFontService,sans-serif" font-size="59.2812" x="910.872" y="68.265">(</text><path d="M956.059 34.6439C954.684 34.6439 953.283 35.3158 951.856 36.6595 950.429 38.0033 949.289 39.5605 948.434 41.3314 947.58 43.1022 946.799 45.6022 946.091 48.8314L945.841 49.9876C945.507 51.5293 945.341 53.0397 945.341 54.5189 945.341 56.0397 945.596 57.1335 946.106 57.8001 946.617 58.4668 947.476 58.8001 948.684 58.8001 949.726 58.8001 950.674 58.5658 951.528 58.097 952.382 57.6283 953.19 56.8626 953.95 55.8001 954.71 54.7376 955.45 53.3678 956.169 51.6908 956.887 50.0137 957.507 48.0085 958.028 45.6751 958.549 43.3418 958.809 41.1751 958.809 39.1751 958.809 37.6335 958.585 36.4928 958.137 35.7533 957.69 35.0137 956.997 34.6439 956.059 34.6439ZM949.747 16.8001 953.403 16.8001 948.622 35.9251 949.028 36.0501C950.841 33.9251 952.544 32.3939 954.137 31.4564 955.731 30.5189 957.632 30.0501 959.841 30.0501 962.216 30.0501 964.054 30.9043 965.356 32.6126 966.658 34.321 967.309 36.7897 967.309 40.0189 967.309 41.8522 967.091 43.8678 966.653 46.0658 966.216 48.2637 965.601 50.2116 964.809 51.9095 964.018 53.6074 963.07 55.0918 961.966 56.3626 960.861 57.6335 959.627 58.6856 958.262 59.5189 956.898 60.3522 955.424 60.9824 953.841 61.4095 952.257 61.8366 950.559 62.0501 948.747 62.0501 947.372 62.0501 946.059 61.8835 944.809 61.5501 943.559 61.2168 942.268 60.6335 940.934 59.8001L938.028 62.0501 934.622 61.5501 942.528 26.2376C942.966 24.2793 943.184 22.7897 943.184 21.7689 943.184 21.1231 943.085 20.6543 942.887 20.3626 942.69 20.071 942.424 19.8626 942.091 19.7376 941.757 19.6126 941.08 19.4772 940.059 19.3314L940.559 17.3001Z" fill="#CFDCE6" fill-rule="evenodd"/><text fill="#000000" fill-opacity="0" font-family="Arial,Arial_MSFontService,sans-serif" font-size="45.25" x="934.622" y="56.3939">𝒃</text><path d="M972.611 16.3939C978.695 17.9981 983.367 21.4616 986.627 26.7845 989.887 32.1074 991.518 38.5293 991.518 46.0501 991.518 53.5918 989.893 60.0137 986.643 65.3158 983.393 70.6178 978.716 74.071 972.611 75.6751L971.861 73.2689C976.674 71.6647 980.252 68.498 982.596 63.7689 984.94 59.0397 986.111 53.0293 986.111 45.7376 986.111 38.696 984.945 32.847 982.611 28.1908 980.278 23.5345 976.663 20.4043 971.768 18.8001Z" fill="#CFDCE6" fill-rule="evenodd"/><text fill="#000000" fill-opacity="0" font-family="Arial,Arial_MSFontService,sans-serif" font-size="59.2812" x="971.768" y="68.265">)</text><path d="M741 629 796.297 629" stroke="#CFDCE6" stroke-width="8" stroke-miterlimit="8" fill="none" fill-rule="evenodd"/><path d="M824 629 879.297 629" stroke="#CFDCE6" stroke-width="8" stroke-miterlimit="8" fill="none" fill-rule="evenodd"/><path d="M907 629 962.297 629" stroke="#CFDCE6" stroke-width="8" stroke-miterlimit="8" fill="none" fill-rule="evenodd"/><path d="M990 629 1045.3 629" stroke="#CFDCE6" stroke-width="8" stroke-miterlimit="8" fill="none" fill-rule="evenodd"/><path d="M1073 629 1128.3 629" stroke="#CFDCE6" stroke-width="8" stroke-miterlimit="8" fill="none" fill-rule="evenodd"/><path d="M752 613C752 604.716 759.163 598 768 598 776.837 598 784 604.716 784 613 784 621.284 776.837 628 768 628 759.163 628 752 621.284 752 613Z" stroke="#CFDCE6" stroke-width="8" stroke-miterlimit="8" fill="#8FACBF" fill-rule="evenodd"/><path d="M833 613C833 604.716 840.163 598 849 598 857.837 598 865 604.716 865 613 865 621.284 857.837 628 849 628 840.163 628 833 621.284 833 613Z" stroke="#CFDCE6" stroke-width="8" stroke-miterlimit="8" fill="#8FACBF" fill-rule="evenodd"/><path d="M918 613C918 604.716 925.163 598 934 598 942.837 598 950 604.716 950 613 950 621.284 942.837 628 934 628 925.163 628 918 621.284 918 613Z" stroke="#CFDCE6" stroke-width="8" stroke-miterlimit="8" fill="#8FACBF" fill-rule="evenodd"/><path d="M1001 613C1001 604.716 1008.16 598 1017 598 1025.84 598 1033 604.716 1033 613 1033 621.284 1025.84 628 1017 628 1008.16 628 1001 621.284 1001 613Z" stroke="#CFDCE6" stroke-width="8" stroke-miterlimit="8" fill="#8FACBF" fill-rule="evenodd"/><path d="M1084 613C1084 604.716 1090.94 598 1099.5 598 1108.06 598 1115 604.716 1115 613 1115 621.284 1108.06 628 1099.5 628 1090.94 628 1084 621.284 1084 613Z" stroke="#CFDCE6" stroke-width="8" stroke-miterlimit="8" fill="#8FACBF" fill-rule="evenodd"/><path d="M741 584 796.297 584" stroke="#CFDCE6" stroke-width="8" stroke-miterlimit="8" fill="none" fill-rule="evenodd"/><path d="M824 584 879.297 584" stroke="#CFDCE6" stroke-width="8" stroke-miterlimit="8" fill="none" fill-rule="evenodd"/><path d="M907 584 962.297 584" stroke="#CFDCE6" stroke-width="8" stroke-miterlimit="8" fill="none" fill-rule="evenodd"/><path d="M990 584 1045.3 584" stroke="#CFDCE6" stroke-width="8" stroke-miterlimit="8" fill="none" fill-rule="evenodd"/><path d="M1073 584 1128.3 584" stroke="#CFDCE6" stroke-width="8" stroke-miterlimit="8" fill="none" fill-rule="evenodd"/><path d="M753 568C753 559.716 760.163 553 769 553 777.837 553 785 559.716 785 568 785 576.284 777.837 583 769 583 760.163 583 753 576.284 753 568Z" stroke="#CFDCE6" stroke-width="8" stroke-miterlimit="8" fill="#8FACBF" fill-rule="evenodd"/><path d="M834 568C834 559.716 841.163 553 850 553 858.837 553 866 559.716 866 568 866 576.284 858.837 583 850 583 841.163 583 834 576.284 834 568Z" stroke="#CFDCE6" stroke-width="8" stroke-miterlimit="8" fill="#8FACBF" fill-rule="evenodd"/><path d="M919 568C919 559.716 926.163 553 935 553 943.837 553 951 559.716 951 568 951 576.284 943.837 583 935 583 926.163 583 919 576.284 919 568Z" stroke="#CFDCE6" stroke-width="8" stroke-miterlimit="8" fill="#8FACBF" fill-rule="evenodd"/><path d="M1002 568C1002 559.716 1009.16 553 1018 553 1026.84 553 1034 559.716 1034 568 1034 576.284 1026.84 583 1018 583 1009.16 583 1002 576.284 1002 568Z" stroke="#CFDCE6" stroke-width="8" stroke-miterlimit="8" fill="#8FACBF" fill-rule="evenodd"/><path d="M1085 568C1085 559.716 1091.94 553 1100.5 553 1109.06 553 1116 559.716 1116 568 1116 576.284 1109.06 583 1100.5 583 1091.94 583 1085 576.284 1085 568Z" stroke="#CFDCE6" stroke-width="8" stroke-miterlimit="8" fill="#8FACBF" fill-rule="evenodd"/><path d="M742 538 797.297 538" stroke="#CFDCE6" stroke-width="8" stroke-miterlimit="8" fill="none" fill-rule="evenodd"/><path d="M825 538 880.297 538" stroke="#CFDCE6" stroke-width="8" stroke-miterlimit="8" fill="none" fill-rule="evenodd"/><path d="M908 538 963.297 538" stroke="#CFDCE6" stroke-width="8" stroke-miterlimit="8" fill="none" fill-rule="evenodd"/><path d="M991 538 1046.3 538" stroke="#CFDCE6" stroke-width="8" stroke-miterlimit="8" fill="none" fill-rule="evenodd"/><path d="M1074 538 1129.3 538" stroke="#CFDCE6" stroke-width="8" stroke-miterlimit="8" fill="none" fill-rule="evenodd"/><path d="M754 522.5C754 514.492 760.94 508 769.5 508 778.06 508 785 514.492 785 522.5 785 530.508 778.06 537 769.5 537 760.94 537 754 530.508 754 522.5Z" stroke="#CFDCE6" stroke-width="8" stroke-miterlimit="8" fill="#8FACBF" fill-rule="evenodd"/><path d="M835 522C835 513.716 841.94 507 850.5 507 859.06 507 866 513.716 866 522 866 530.284 859.06 537 850.5 537 841.94 537 835 530.284 835 522Z" stroke="#CFDCE6" stroke-width="8" stroke-miterlimit="8" fill="#8FACBF" fill-rule="evenodd"/><path d="M920 522C920 513.716 926.94 507 935.5 507 944.06 507 951 513.716 951 522 951 530.284 944.06 537 935.5 537 926.94 537 920 530.284 920 522Z" stroke="#CFDCE6" stroke-width="8" stroke-miterlimit="8" fill="#8FACBF" fill-rule="evenodd"/><path d="M1003 522C1003 513.716 1009.94 507 1018.5 507 1027.06 507 1034 513.716 1034 522 1034 530.284 1027.06 537 1018.5 537 1009.94 537 1003 530.284 1003 522Z" stroke="#CFDCE6" stroke-width="8" stroke-miterlimit="8" fill="#8FACBF" fill-rule="evenodd"/><path d="M1085 522C1085 513.716 1092.16 507 1101 507 1109.84 507 1117 513.716 1117 522 1117 530.284 1109.84 537 1101 537 1092.16 537 1085 530.284 1085 522Z" stroke="#CFDCE6" stroke-width="8" stroke-miterlimit="8" fill="#8FACBF" fill-rule="evenodd"/><path d="M743 493 798.297 493" stroke="#CFDCE6" stroke-width="8" stroke-miterlimit="8" fill="none" fill-rule="evenodd"/><path d="M826 493 881.297 493" stroke="#CFDCE6" stroke-width="8" stroke-miterlimit="8" fill="none" fill-rule="evenodd"/><path d="M909 493 964.297 493" stroke="#CFDCE6" stroke-width="8" stroke-miterlimit="8" fill="none" fill-rule="evenodd"/><path d="M992 493 1047.3 493" stroke="#CFDCE6" stroke-width="8" stroke-miterlimit="8" fill="none" fill-rule="evenodd"/><path d="M1075 493 1130.3 493" stroke="#CFDCE6" stroke-width="8" stroke-miterlimit="8" fill="none" fill-rule="evenodd"/><path d="M755 477C755 468.716 761.94 462 770.5 462 779.06 462 786 468.716 786 477 786 485.284 779.06 492 770.5 492 761.94 492 755 485.284 755 477Z" stroke="#CFDCE6" stroke-width="8" stroke-miterlimit="8" fill="#8FACBF" fill-rule="evenodd"/><path d="M835 477C835 468.716 842.163 462 851 462 859.837 462 867 468.716 867 477 867 485.284 859.837 492 851 492 842.163 492 835 485.284 835 477Z" stroke="#CFDCE6" stroke-width="8" stroke-miterlimit="8" fill="#8FACBF" fill-rule="evenodd"/><path d="M921 477C921 468.716 927.94 462 936.5 462 945.06 462 952 468.716 952 477 952 485.284 945.06 492 936.5 492 927.94 492 921 485.284 921 477Z" stroke="#CFDCE6" stroke-width="8" stroke-miterlimit="8" fill="#8FACBF" fill-rule="evenodd"/><path d="M1004 477C1004 468.716 1010.94 462 1019.5 462 1028.06 462 1035 468.716 1035 477 1035 485.284 1028.06 492 1019.5 492 1010.94 492 1004 485.284 1004 477Z" stroke="#CFDCE6" stroke-width="8" stroke-miterlimit="8" fill="#8FACBF" fill-rule="evenodd"/><path d="M1086 477C1086 468.716 1092.94 462 1101.5 462 1110.06 462 1117 468.716 1117 477 1117 485.284 1110.06 492 1101.5 492 1092.94 492 1086 485.284 1086 477Z" stroke="#CFDCE6" stroke-width="8" stroke-miterlimit="8" fill="#8FACBF" fill-rule="evenodd"/><path d="M735 277 790.297 277" stroke="#CFDCE6" stroke-width="8" stroke-miterlimit="8" fill="none" fill-rule="evenodd"/><path d="M818 277 873.297 277" stroke="#CFDCE6" stroke-width="8" stroke-miterlimit="8" fill="none" fill-rule="evenodd"/><path d="M901 277 956.297 277" stroke="#CFDCE6" stroke-width="8" stroke-miterlimit="8" fill="none" fill-rule="evenodd"/><path d="M984 277 1039.3 277" stroke="#CFDCE6" stroke-width="8" stroke-miterlimit="8" fill="none" fill-rule="evenodd"/><path d="M1067 277 1122.3 277" stroke="#CFDCE6" stroke-width="8" stroke-miterlimit="8" fill="none" fill-rule="evenodd"/><path d="M735 231 790.297 231" stroke="#CFDCE6" stroke-width="8" stroke-miterlimit="8" fill="none" fill-rule="evenodd"/><path d="M818 231 873.297 231" stroke="#CFDCE6" stroke-width="8" stroke-miterlimit="8" fill="none" fill-rule="evenodd"/><path d="M901 231 956.297 231" stroke="#CFDCE6" stroke-width="8" stroke-miterlimit="8" fill="none" fill-rule="evenodd"/><path d="M984 231 1039.3 231" stroke="#CFDCE6" stroke-width="8" stroke-miterlimit="8" fill="none" fill-rule="evenodd"/><path d="M1067 231 1122.3 231" stroke="#CFDCE6" stroke-width="8" stroke-miterlimit="8" fill="none" fill-rule="evenodd"/><path d="M736 186 791.297 186" stroke="#CFDCE6" stroke-width="8" stroke-miterlimit="8" fill="none" fill-rule="evenodd"/><path d="M819 186 874.297 186" stroke="#CFDCE6" stroke-width="8" stroke-miterlimit="8" fill="none" fill-rule="evenodd"/><path d="M902 186 957.297 186" stroke="#CFDCE6" stroke-width="8" stroke-miterlimit="8" fill="none" fill-rule="evenodd"/><path d="M985 186 1040.3 186" stroke="#CFDCE6" stroke-width="8" stroke-miterlimit="8" fill="none" fill-rule="evenodd"/><path d="M1068 186 1123.3 186" stroke="#CFDCE6" stroke-width="8" stroke-miterlimit="8" fill="none" fill-rule="evenodd"/><path d="M737 140 792.297 140" stroke="#CFDCE6" stroke-width="8" stroke-miterlimit="8" fill="none" fill-rule="evenodd"/><path d="M820 140 875.297 140" stroke="#CFDCE6" stroke-width="8" stroke-miterlimit="8" fill="none" fill-rule="evenodd"/><path d="M903 140 958.297 140" stroke="#CFDCE6" stroke-width="8" stroke-miterlimit="8" fill="none" fill-rule="evenodd"/><path d="M986 140 1041.3 140" stroke="#CFDCE6" stroke-width="8" stroke-miterlimit="8" fill="none" fill-rule="evenodd"/><path d="M1069 140 1124.3 140" stroke="#CFDCE6" stroke-width="8" stroke-miterlimit="8" fill="none" fill-rule="evenodd"/></g></svg>