<svg width="996" height="501" xmlns="http://www.w3.org/2000/svg" xmlns:xlink="http://www.w3.org/1999/xlink" overflow="hidden"><defs><clipPath id="clip0"><rect x="46" y="109" width="996" height="501"/></clipPath></defs><g clip-path="url(#clip0)" transform="translate(-46 -109)"><path d="M234 370.5C234 336.534 262.43 309 297.5 309 332.57 309 361 336.534 361 370.5 361 404.466 332.57 432 297.5 432 262.43 432 234 404.466 234 370.5Z" stroke="#CFDCE6" stroke-width="8" stroke-miterlimit="8" fill="none" fill-rule="evenodd"/><path d="M294 289.217 294 176 302 176 302 289.217ZM286 180 298 156 310 180Z" fill="#CFDCE6"/><path d="M4-3.15235e-06 4.00009 113.217-3.99991 113.217-4 3.15235e-06ZM12.0001 109.217 0.000104987 133.217-11.9999 109.217Z" fill="#CFDCE6" transform="matrix(-1 0 0 1 298 452)"/><path d="M390 366 503.217 366 503.217 374 390 374ZM499.217 358 523.217 370 499.217 382Z" fill="#CFDCE6"/><path d="M4-3.15235e-06 4.00009 113.217-3.99991 113.217-4 3.15235e-06ZM12.0001 109.217 0.000104987 133.217-11.9999 109.217Z" fill="#CFDCE6" transform="matrix(-1.83697e-16 -1 -1 1.83697e-16 205.217 370)"/><path d="M369.36 306.105 449.416 226.049 455.073 231.705 375.017 311.762ZM440.931 223.22 466.387 214.735 457.902 240.191Z" fill="#CFDCE6"/><path d="M375.016 429.236 455.073 509.292 449.416 514.949 369.359 434.892ZM457.902 500.807 466.387 526.263 440.931 517.778Z" fill="#CFDCE6"/><path d="M4-3.15235e-06 4.00009 113.217-3.99991 113.217-4 3.15235e-06ZM12.0001 109.217 0.000104987 133.217-11.9999 109.217Z" fill="#CFDCE6" transform="matrix(-0.707107 -0.707107 -0.707107 0.707107 223.226 432.064)"/><path d="M220.398 311.762 140.341 231.705 145.998 226.048 226.055 306.105ZM137.513 240.19 129.027 214.735 154.483 223.22Z" fill="#CFDCE6"/><path d="M263.46 366.815 294.315 366.815 294.315 335.592 301.685 335.592 301.685 366.815 332.54 366.815 332.54 374.185 301.685 374.185 301.685 405.408 294.315 405.408 294.315 374.185 263.46 374.185Z" stroke="#CFDCE6" stroke-width="8" stroke-miterlimit="8" fill="#CFDCE6" fill-rule="evenodd"/><path d="M748 371C748 336.758 776.206 309 811 309 845.794 309 874 336.758 874 371 874 405.242 845.794 433 811 433 776.206 433 748 405.242 748 371Z" stroke="#CFDCE6" stroke-width="8" stroke-miterlimit="8" fill="none" fill-rule="evenodd"/><path d="M807 269.217 807 156 815 156 815 269.217ZM823 265.217 811 289.217 799 265.217Z" fill="#CFDCE6"/><path d="M4.00002 20 4.0001 133.217-3.99989 133.217-3.99998 20ZM-12 24 0 0 12 24Z" fill="#CFDCE6" transform="matrix(-1 0 0 1 811 452)"/><path d="M924 367 1037.22 367 1037.22 375 924 375ZM928 383 904 371 928 359Z" fill="#CFDCE6"/><path d="M4.00002 20 4.0001 133.217-3.99989 133.217-3.99998 20ZM-12 24 0 0 12 24Z" fill="#CFDCE6" transform="matrix(-1.83697e-16 -1 -1 1.83697e-16 718.217 371)"/><path d="M896.756 292.412 976.812 212.355 982.469 218.012 902.413 298.069ZM910.898 300.897 885.442 309.383 893.927 283.927Z" fill="#CFDCE6"/><path d="M902.412 443.827 982.469 523.883 976.812 529.54 896.756 449.483ZM893.927 457.969 885.442 432.513 910.898 440.998Z" fill="#CFDCE6"/><path d="M4.00002 20 4.0001 133.217-3.99989 133.217-3.99998 20ZM-12 24 0 0 12 24Z" fill="#CFDCE6" transform="matrix(-0.707107 -0.707107 -0.707107 0.707107 736.48 432.513)"/><path d="M719.51 298.069 639.453 218.012 645.11 212.355 725.167 292.412ZM727.995 283.926 736.48 309.382 711.024 300.897Z" fill="#CFDCE6"/><rect x="777.195" y="366.296" width="67.6107" height="9.40796" stroke="#CFDCE6" stroke-width="8" stroke-miterlimit="8" fill="#CFDCE6"/><text fill="#CFDCE6" font-family="Arial,Arial_MSFontService,sans-serif" font-weight="400" font-size="37" transform="translate(69.3757 157)">(a)<tspan font-size="37" x="503.878" y="3">(b)</tspan></text></g></svg>