<svg width="1274" height="526" xmlns="http://www.w3.org/2000/svg" xmlns:xlink="http://www.w3.org/1999/xlink" overflow="hidden"><defs><clipPath id="clip0"><rect x="574" y="71" width="1274" height="526"/></clipPath></defs><g clip-path="url(#clip0)" transform="translate(-574 -71)"><path d="M1101 346C1101 276.964 1158.98 221 1230.5 221 1302.02 221 1360 276.964 1360 346 1360 415.036 1302.02 471 1230.5 471 1158.98 471 1101 415.036 1101 346Z" stroke="#CFDCE6" stroke-width="8" stroke-miterlimit="8" fill="none" fill-rule="evenodd"/><path d="M1183 276 1183 416" stroke="#CFDCE6" stroke-width="8" stroke-miterlimit="8" fill="none" fill-rule="evenodd"/><path d="M0 0 146.861 0.000104987" stroke="#CFDCE6" stroke-width="8" stroke-miterlimit="8" fill="none" fill-rule="evenodd" transform="matrix(-1 0 0 1 1182.86 346)"/><path d="M1.63543-3.65039 101.547 41.1114 98.2762 48.4122-1.63543 3.65039ZM86.9853 19.8438 107.156 48.0076 72.7121 51.7029C70.5155 51.9385 68.5438 50.3489 68.3082 48.1524 68.0725 45.9558 69.6622 43.9841 71.8587 43.7485L99.4851 40.7847 96.6598 47.0909 80.4814 24.502C79.1951 22.706 79.6083 20.2073 81.4043 18.9209 83.2003 17.6346 85.699 18.0478 86.9853 19.8438Z" fill="#CFDCE6" transform="matrix(-1 0 0 1 1290.14 261)"/><path d="M1290.14 424 1183 376" stroke="#CFDCE6" stroke-width="8" stroke-miterlimit="8" fill="none" fill-rule="evenodd"/><path d="M1290 163 1290 261" stroke="#CFDCE6" stroke-width="8" stroke-miterlimit="8" fill="none" fill-rule="evenodd"/><path d="M1290 424 1290 515" stroke="#CFDCE6" stroke-width="8" stroke-miterlimit="8" fill="none" fill-rule="evenodd"/><path d="M983.493 344.734 979.868 361.297C980.743 361.359 982.077 361.39 983.868 361.39 986.452 361.39 988.499 360.911 990.009 359.953 991.52 358.994 992.639 357.651 993.368 355.922 994.098 354.192 994.462 352.422 994.462 350.609 994.462 346.692 992.243 344.734 987.806 344.734ZM991.243 326.047C989.785 326.047 988.556 326.099 987.556 326.203L984.275 341.078 989.15 341.078C990.983 341.078 992.582 340.666 993.947 339.843 995.311 339.02 996.358 337.88 997.087 336.422 997.816 334.963 998.181 333.286 998.181 331.39 998.181 329.599 997.618 328.26 996.493 327.375 995.368 326.489 993.618 326.047 991.243 326.047ZM975.525 322.39 993.462 322.39C997.129 322.39 999.988 322.713 1002.04 323.359 1004.09 324.005 1005.58 324.963 1006.49 326.234 1007.41 327.505 1007.87 329.109 1007.87 331.047 1007.87 333.942 1007.07 336.328 1005.48 338.203 1003.88 340.078 1001.32 341.703 997.775 343.078L997.712 343.422C999.671 344.213 1001.19 345.317 1002.26 346.734 1003.33 348.151 1003.87 349.786 1003.87 351.64 1003.87 354.182 1003.26 356.401 1002.04 358.297 1000.82 360.192 998.879 361.791 996.212 363.093 993.546 364.395 989.441 365.047 983.9 365.047L966.931 365.047 967.368 362.984C968.556 362.651 969.431 362.067 969.993 361.234 970.556 360.401 971.087 358.859 971.587 356.609L977.275 330.828C977.546 329.599 977.681 328.38 977.681 327.172 977.681 326.297 977.478 325.656 977.072 325.25 976.665 324.843 976.004 324.578 975.087 324.453Z" fill="#CFDCE6" fill-rule="evenodd"/><text fill="#000000" fill-opacity="0" font-family="Arial,Arial_MSFontService,sans-serif" font-size="42.6562" x="966.931" y="359.714">𝑩</text><path d="M1279.17 88.5421 1309.52 88.5421 1307.3 98.6046 1303.3 98.6046C1303.2 96.6254 1303.01 95.24 1302.74 94.4483 1302.47 93.6566 1302.05 93.0837 1301.49 92.7296 1300.92 92.3754 1300.13 92.1983 1299.11 92.1983L1291.27 92.1983 1287.96 107.198 1292.3 107.198C1293.13 107.198 1293.84 107.063 1294.41 106.792 1294.98 106.521 1295.51 106.068 1296 105.433 1296.49 104.797 1296.98 103.917 1297.46 102.792L1300.89 102.792 1297.89 115.48 1294.67 115.48C1294.67 114.271 1294.6 113.344 1294.46 112.698 1294.31 112.052 1294.04 111.584 1293.64 111.292 1293.25 111 1292.57 110.855 1291.61 110.855L1287.17 110.855 1283.49 127.542 1290.52 127.542C1291.44 127.542 1292.15 127.48 1292.66 127.355 1293.17 127.23 1293.64 127.032 1294.07 126.761 1294.49 126.49 1294.99 126.058 1295.55 125.464 1296.11 124.87 1296.67 124.12 1297.22 123.214 1297.77 122.308 1298.34 121.219 1298.92 119.948L1303.17 119.948 1300.3 131.198 1270.58 131.198 1271.02 129.136C1272.21 128.802 1273.08 128.219 1273.64 127.386 1274.21 126.552 1274.74 125.011 1275.24 122.761L1280.92 96.9796C1281.2 95.7504 1281.33 94.5316 1281.33 93.3233 1281.33 92.4483 1281.13 91.8077 1280.72 91.4014 1280.32 90.9952 1279.65 90.7296 1278.74 90.6046Z" fill="#CFDCE6" fill-rule="evenodd"/><text fill="#000000" fill-opacity="0" font-family="Arial,Arial_MSFontService,sans-serif" font-size="42.6562" x="1270.58" y="125.866">𝑬</text><path d="M1298.44 535.914C1302 535.914 1305.5 536.424 1308.94 537.445L1306.94 546.57 1302.84 546.57C1302.78 544.716 1302.59 543.32 1302.28 542.382 1301.97 541.445 1301.48 540.742 1300.81 540.273 1300.15 539.804 1299.24 539.57 1298.09 539.57 1296.34 539.57 1294.62 540.257 1292.91 541.632 1291.2 543.007 1289.62 545.085 1288.17 547.867 1286.72 550.648 1285.56 553.934 1284.67 557.726 1283.79 561.518 1283.34 564.934 1283.34 567.976 1283.34 569.726 1283.51 571.174 1283.83 572.32 1284.15 573.466 1284.71 574.351 1285.52 574.976 1286.32 575.601 1287.43 575.914 1288.84 575.914 1291.01 575.914 1292.81 575.372 1294.24 574.289 1295.66 573.205 1296.95 571.341 1298.09 568.695L1302.19 568.695 1300.19 577.914C1298.17 578.497 1296.16 578.919 1294.16 579.179 1292.16 579.44 1290.01 579.57 1287.72 579.57 1283.28 579.57 1279.88 578.356 1277.5 575.929 1275.13 573.502 1273.94 570.007 1273.94 565.445 1273.94 563.716 1274.13 561.726 1274.5 559.476 1275.1 555.914 1276.1 552.622 1277.5 549.601 1278.9 546.58 1280.65 544.044 1282.77 541.992 1284.88 539.94 1287.26 538.414 1289.89 537.414 1292.53 536.414 1295.38 535.914 1298.44 535.914Z" fill="#CFDCE6" fill-rule="evenodd"/><text fill="#000000" fill-opacity="0" font-family="Arial,Arial_MSFontService,sans-serif" font-size="43.6562" x="1273.94" y="574.113">𝑪</text><path d="M575 358C575 344.193 586.417 333 600.5 333 614.583 333 626 344.193 626 358 626 371.807 614.583 383 600.5 383 586.417 383 575 371.807 575 358Z" fill="#03111A" fill-rule="evenodd"/><path d="M1796 353C1796 339.193 1807.42 328 1821.5 328 1835.58 328 1847 339.193 1847 353 1847 366.807 1835.58 378 1821.5 378 1807.42 378 1796 366.807 1796 353Z" fill="#03111A" fill-rule="evenodd"/></g></svg>