<svg width="1276" height="747" xmlns="http://www.w3.org/2000/svg" xmlns:xlink="http://www.w3.org/1999/xlink" overflow="hidden"><defs><clipPath id="clip0"><rect x="1" y="-23" width="1276" height="747"/></clipPath></defs><g clip-path="url(#clip0)" transform="translate(-1 23)"><path d="M393 640 984.036 640 984.036 648 393 648ZM962.052 626.545 991.975 644 962.052 661.455C960.144 662.568 957.695 661.924 956.581 660.016 955.468 658.107 956.113 655.658 958.021 654.545L982.021 640.545 982.021 647.455 958.021 633.455C956.113 632.342 955.468 629.893 956.581 627.985 957.695 626.076 960.144 625.432 962.052 626.545Z" fill="#CFDCE6"/><path d="M4-6.11936e-07 4.0001 678.34-3.9999 678.34-4 6.11936e-07ZM17.4552 656.356 0.000104597 686.279-17.455 656.356C-18.5681 654.448-17.9236 651.999-16.0154 650.886-14.1072 649.773-11.6579 650.417-10.5448 652.325L3.45522 676.325-3.45501 676.325 10.545 652.325C11.6581 650.417 14.1074 649.773 16.0156 650.886 17.9238 651.999 18.5683 654.448 17.4552 656.356Z" fill="#CFDCE6" transform="matrix(1 0 0 -1 454 700.261)"/><path d="M454.345 640.219 453.5 84.5001" stroke="#CFDCE6" stroke-width="13.3333" stroke-miterlimit="8" fill="none" fill-rule="evenodd"/><path d="M454.5 643.5 840.554 643.5" stroke="#CFDCE6" stroke-width="13.3333" stroke-miterlimit="8" fill="none" fill-rule="evenodd"/><path d="M0 0 5.10131 562.932" stroke="#CFDCE6" stroke-width="13.3333" stroke-miterlimit="8" fill="none" fill-rule="evenodd" transform="matrix(1 0 0 -1 835.5 640.432)"/><path d="M178.508 580.708 193.679 580.708 192.57 585.739 190.57 585.739C190.518 584.75 190.424 584.057 190.289 583.661 190.153 583.265 189.945 582.979 189.664 582.802 189.383 582.625 188.987 582.536 188.476 582.536L184.554 582.536 182.898 590.036 185.07 590.036C185.487 590.036 185.838 589.968 186.125 589.833 186.411 589.697 186.677 589.471 186.922 589.153 187.166 588.836 187.409 588.395 187.648 587.833L189.367 587.833 187.867 594.177 186.258 594.177C186.258 593.572 186.221 593.109 186.148 592.786 186.075 592.463 185.94 592.229 185.742 592.083 185.544 591.937 185.205 591.864 184.726 591.864L182.508 591.864 180.664 600.208 184.179 600.208C184.638 600.208 184.995 600.177 185.25 600.114 185.505 600.052 185.739 599.953 185.953 599.817 186.166 599.682 186.414 599.466 186.695 599.169 186.976 598.872 187.255 598.497 187.531 598.044 187.807 597.591 188.091 597.046 188.383 596.411L190.508 596.411 189.07 602.036 174.211 602.036 174.429 601.005C175.023 600.838 175.461 600.546 175.742 600.13 176.023 599.713 176.289 598.942 176.539 597.817L179.383 584.927C179.518 584.312 179.586 583.703 179.586 583.099 179.586 582.661 179.484 582.341 179.281 582.138 179.078 581.934 178.747 581.802 178.289 581.739Z" fill="#CFDCE6" fill-rule="evenodd"/><text fill="#000000" fill-opacity="0" font-family="Arial,Arial_MSFontService,sans-serif" font-size="21.3281" x="174.211" y="599.37">𝑬</text><path d="M202.024 593.06 203.462 593.06C203.417 593.779 203.394 594.775 203.394 596.047L203.394 605.436C203.394 605.87 203.419 606.198 203.467 606.419 203.516 606.64 203.602 606.819 203.726 606.958 203.849 607.096 204.027 607.205 204.259 607.283 204.491 607.362 204.783 607.422 205.135 607.463 205.487 607.504 205.951 607.532 206.528 607.547L206.528 608.569 196.836 608.569 196.836 607.547C197.667 607.51 198.26 607.459 198.616 607.396 198.971 607.332 199.243 607.237 199.43 607.109 199.617 606.982 199.754 606.802 199.84 606.57 199.926 606.338 199.969 605.96 199.969 605.436L199.969 597.316C199.969 597.009 199.911 596.789 199.795 596.654 199.679 596.519 199.52 596.452 199.318 596.452 199.13 596.452 198.867 596.538 198.526 596.71 198.185 596.882 197.626 597.234 196.847 597.766L196.162 596.575Z" fill="#CFDCE6" fill-rule="evenodd"/><text fill="#000000" fill-opacity="0" font-family="Arial,Arial_MSFontService,sans-serif" font-size="15.5093" x="196.162" y="606.631">𝟏</text><path d="M220.862 595.099 240.112 595.099 240.112 597.177 220.862 597.177ZM220.862 588.614 240.112 588.614 240.112 590.692 220.862 590.692Z" fill="#CFDCE6" fill-rule="evenodd"/><text fill="#000000" fill-opacity="0" font-family="Arial,Arial_MSFontService,sans-serif" font-size="8.5625" x="220.862" y="596.106">=</text><path d="M342.866 552.103C347.147 555.77 350.545 561.238 353.061 568.509 355.577 575.78 356.834 583.895 356.834 592.853 356.834 601.676 355.577 609.777 353.061 617.158 350.545 624.538 347.147 630.051 342.866 633.697L342.131 632.54C345.829 628.78 348.678 623.337 350.678 616.212 352.678 609.087 353.678 601.306 353.678 592.869 353.678 584.233 352.673 576.415 350.663 569.415 348.652 562.415 345.808 557.035 342.131 553.275ZM267.847 552.103 268.582 553.275C264.894 557.035 262.048 562.415 260.042 569.415 258.037 576.415 257.035 584.233 257.035 592.869 257.035 601.306 258.035 609.087 260.035 616.212 262.035 623.337 264.884 628.78 268.582 632.54L267.847 633.697C263.566 630.051 260.167 624.538 257.652 617.158 255.136 609.777 253.878 601.676 253.878 592.853 253.878 583.895 255.136 575.78 257.652 568.509 260.167 561.238 263.566 555.77 267.847 552.103Z" fill="#CFDCE6" fill-rule="evenodd"/><path d="M278.301 555.472 279.207 555.472 278.207 559.504 282.16 557.8 282.723 559.066 277.801 561.129 276.52 566.3 276.707 566.363C277.686 565.061 278.619 564.113 279.504 563.519 280.389 562.925 281.29 562.629 282.207 562.629 283.186 562.629 283.939 562.905 284.465 563.457 284.991 564.009 285.254 564.785 285.254 565.785 285.254 566.441 285.103 567.373 284.801 568.582L283.785 572.675C283.504 573.811 283.363 574.613 283.363 575.082 283.363 575.498 283.431 575.8 283.567 575.988 283.702 576.175 283.915 576.269 284.207 576.269 284.52 576.269 284.853 576.142 285.207 575.886 285.561 575.631 286.061 575.144 286.707 574.425L287.598 575.3C286.754 576.175 286.108 576.785 285.66 577.129 285.212 577.472 284.783 577.714 284.371 577.855 283.96 577.996 283.494 578.066 282.973 578.066 282.296 578.066 281.754 577.824 281.348 577.339 280.942 576.855 280.738 576.238 280.738 575.488 280.738 574.811 280.91 573.816 281.254 572.504L281.942 569.8C282.192 568.821 282.356 568.097 282.434 567.629 282.512 567.16 282.551 566.78 282.551 566.488 282.551 565.759 282.428 565.238 282.184 564.925 281.939 564.613 281.54 564.457 280.988 564.457 280.551 564.457 280.069 564.634 279.543 564.988 279.017 565.342 278.468 565.881 277.895 566.605 277.322 567.329 276.866 568.022 276.527 568.683 276.189 569.345 275.921 570.134 275.723 571.05L274.301 577.816 271.598 577.816 275.098 562.254 272.957 563.175 272.395 561.91 275.457 560.66 275.707 559.55C275.895 558.644 275.988 558.009 275.988 557.644 275.988 557.207 275.856 556.899 275.59 556.722 275.324 556.545 274.848 556.446 274.16 556.425L274.348 555.613Z" fill="#CFDCE6" fill-rule="evenodd"/><text fill="#000000" fill-opacity="0" font-family="Arial,Arial_MSFontService,sans-serif" font-size="22.5938" x="271.598" y="575.242">ℏ</text><path d="M295.275 550.587C296.375 550.587 297.274 550.735 297.97 551.03 298.666 551.326 299.17 551.727 299.481 552.232 299.791 552.737 299.947 553.327 299.947 554.001 299.947 554.592 299.836 555.143 299.615 555.652 299.395 556.161 299.013 556.741 298.47 557.392 297.927 558.044 297.012 558.976 295.724 560.189 295.327 560.563 294.854 561.055 294.303 561.666 293.753 562.276 293.317 562.798 292.995 563.232L292.995 563.345 296.982 563.345C297.469 563.345 297.832 563.309 298.071 563.238 298.311 563.167 298.5 563.043 298.638 562.867 298.777 562.691 298.891 562.427 298.981 562.076L300.272 562.076 300.014 566.096 289.727 566.096 289.727 565.355C290.303 564.03 291.483 562.323 293.265 560.234 294.073 559.283 294.689 558.5 295.112 557.887 295.535 557.273 295.851 556.692 296.061 556.146 296.271 555.599 296.375 555.034 296.375 554.45 296.375 553.626 296.192 552.981 295.825 552.513 295.458 552.045 294.957 551.811 294.32 551.811 293.1 551.811 292.317 552.691 291.973 554.45L289.952 554.45 289.952 551.8C291.172 551.305 292.157 550.98 292.905 550.823 293.654 550.665 294.444 550.587 295.275 550.587Z" fill="#CFDCE6" fill-rule="evenodd"/><text fill="#000000" fill-opacity="0" font-family="Arial,Arial_MSFontService,sans-serif" font-size="15.5093" x="289.727" y="564.157">𝟐</text><path d="M310.508 562.316 325.477 562.316 324.805 565.222 320.977 565.222 319.227 572.691C319.029 573.535 318.93 574.212 318.93 574.722 318.93 575.129 318.997 575.41 319.133 575.566 319.268 575.722 319.461 575.8 319.711 575.8 320.023 575.8 320.352 575.67 320.695 575.41 321.039 575.149 321.445 574.754 321.914 574.222L323.039 575.347C322.122 576.306 321.245 576.998 320.406 577.425 319.568 577.852 318.711 578.066 317.836 578.066 316.805 578.066 316.047 577.806 315.562 577.285 315.078 576.764 314.836 575.936 314.836 574.8 314.836 574.186 314.95 573.368 315.18 572.347L315.32 571.722C315.758 569.764 316.378 567.639 317.18 565.347L317.102 565.222 312.977 565.222 311.633 571.55C311.102 574.071 310.602 576.16 310.133 577.816L305.32 577.816 305.539 576.832C306.112 576.186 306.695 575.131 307.289 573.668 307.883 572.204 308.352 570.701 308.695 569.16L309.57 565.222 309.258 565.222C308.716 565.222 308.271 565.269 307.922 565.363 307.573 565.457 307.227 565.621 306.883 565.855 306.539 566.089 306.122 566.467 305.633 566.988L304.32 565.816C305.185 564.774 305.896 564.019 306.453 563.55 307.01 563.082 307.581 562.759 308.164 562.582 308.747 562.405 309.529 562.316 310.508 562.316Z" fill="#CFDCE6" fill-rule="evenodd"/><text fill="#000000" fill-opacity="0" font-family="Arial,Arial_MSFontService,sans-serif" font-size="15.75" x="304.32" y="576.097">𝝅</text><path d="M332.602 550.587C333.702 550.587 334.601 550.735 335.297 551.03 335.993 551.326 336.497 551.727 336.807 552.232 337.118 552.737 337.273 553.327 337.273 554.001 337.273 554.592 337.163 555.143 336.942 555.652 336.721 556.161 336.339 556.741 335.797 557.392 335.254 558.044 334.339 558.976 333.051 560.189 332.654 560.563 332.18 561.055 331.63 561.666 331.08 562.276 330.644 562.798 330.322 563.232L330.322 563.345 334.309 563.345C334.795 563.345 335.158 563.309 335.398 563.238 335.638 563.167 335.827 563.043 335.965 562.867 336.104 562.691 336.218 562.427 336.308 562.076L337.599 562.076 337.341 566.096 327.054 566.096 327.054 565.355C327.63 564.03 328.809 562.323 330.591 560.234 331.4 559.283 332.016 558.5 332.439 557.887 332.862 557.273 333.178 556.692 333.388 556.146 333.597 555.599 333.702 555.034 333.702 554.45 333.702 553.626 333.519 552.981 333.152 552.513 332.785 552.045 332.283 551.811 331.647 551.811 330.427 551.811 329.644 552.691 329.3 554.45L327.278 554.45 327.278 551.8C328.499 551.305 329.483 550.98 330.232 550.823 330.981 550.665 331.77 550.587 332.602 550.587Z" fill="#CFDCE6" fill-rule="evenodd"/><text fill="#000000" fill-opacity="0" font-family="Arial,Arial_MSFontService,sans-serif" font-size="15.5093" x="327.054" y="564.157">𝟐</text><path d="M296.557 607.693C297.421 607.693 298.111 607.935 298.627 608.419 299.142 608.904 299.4 609.542 299.4 610.333 299.4 610.594 299.369 610.844 299.307 611.083L299.494 611.177C300.442 609.979 301.361 609.099 302.252 608.536 303.142 607.974 304.176 607.693 305.353 607.693 306.395 607.693 307.215 607.979 307.814 608.552 308.413 609.125 308.728 609.917 308.76 610.927 309.624 609.823 310.497 609.008 311.377 608.482 312.257 607.956 313.254 607.693 314.369 607.693 315.421 607.693 316.247 607.99 316.846 608.583 317.445 609.177 317.744 610.005 317.744 611.068 317.744 611.38 317.718 611.76 317.666 612.208 317.614 612.656 317.536 613.083 317.432 613.49L316.166 618.521C316.051 618.958 315.978 619.297 315.947 619.536 315.916 619.776 315.9 620.047 315.9 620.349 315.9 620.755 315.968 621.036 316.103 621.193 316.239 621.349 316.432 621.427 316.682 621.427 316.984 621.427 317.322 621.284 317.697 620.997 318.072 620.711 318.515 620.276 319.025 619.693L320.15 620.818C319.129 621.859 318.215 622.599 317.408 623.036 316.601 623.474 315.713 623.693 314.744 623.693 313.671 623.693 312.874 623.427 312.353 622.896 311.833 622.365 311.572 621.552 311.572 620.458 311.572 620.115 311.609 619.695 311.682 619.201 311.754 618.706 311.859 618.193 311.994 617.661L312.713 614.943C312.879 614.328 313.028 613.68 313.158 612.997 313.288 612.315 313.353 611.786 313.353 611.411 313.353 610.453 312.978 609.974 312.228 609.974 311.78 609.974 311.234 610.26 310.588 610.833 309.942 611.406 309.408 612.034 308.986 612.716 308.564 613.398 308.239 614.302 308.01 615.427L306.291 623.443 301.791 623.443 304.072 613.505C304.187 613.026 304.265 612.633 304.307 612.326 304.348 612.018 304.369 611.75 304.369 611.521 304.369 610.979 304.275 610.586 304.088 610.341 303.9 610.096 303.603 609.974 303.197 609.974 302.718 609.974 302.153 610.271 301.502 610.865 300.851 611.458 300.325 612.083 299.924 612.74 299.523 613.396 299.202 614.292 298.963 615.427L297.213 623.443 292.728 623.443 295.244 612.583C295.4 611.906 295.478 611.391 295.478 611.036 295.478 610.693 295.421 610.427 295.307 610.24 295.192 610.052 294.994 609.958 294.713 609.958 294.39 609.958 294.041 610.104 293.666 610.396 293.291 610.688 292.853 611.12 292.353 611.693L291.228 610.568C292.27 609.505 293.195 608.76 294.002 608.333 294.809 607.906 295.661 607.693 296.557 607.693ZM326.041 602.115 333.9 602.115 333.682 603.146C333.088 603.312 332.65 603.604 332.369 604.021 332.088 604.438 331.822 605.208 331.572 606.333L328.197 621.583 331.15 621.583C331.661 621.583 332.057 621.542 332.338 621.458 332.619 621.375 332.874 621.245 333.103 621.068 333.333 620.891 333.585 620.646 333.861 620.333 334.137 620.021 334.411 619.615 334.682 619.115 334.952 618.615 335.228 617.99 335.51 617.24L337.635 617.24 336.041 623.443 321.744 623.443 321.963 622.411C322.557 622.245 322.994 621.953 323.275 621.536 323.557 621.12 323.822 620.349 324.072 619.224L326.916 606.333C327.051 605.719 327.119 605.109 327.119 604.505 327.119 604.068 327.017 603.747 326.814 603.544 326.611 603.341 326.28 603.208 325.822 603.146ZM281.353 601.865C282.885 601.865 284.135 602.07 285.103 602.482 286.072 602.893 286.773 603.451 287.205 604.154 287.637 604.857 287.853 605.677 287.853 606.615 287.853 607.438 287.7 608.203 287.392 608.911 287.085 609.62 286.554 610.427 285.799 611.333 285.043 612.24 283.77 613.536 281.978 615.224 281.426 615.745 280.767 616.43 280.002 617.279 279.236 618.128 278.629 618.854 278.182 619.458L278.182 619.615 283.728 619.615C284.405 619.615 284.911 619.565 285.244 619.466 285.577 619.367 285.84 619.195 286.033 618.951 286.226 618.706 286.385 618.339 286.51 617.849L288.307 617.849 287.947 623.443 273.635 623.443 273.635 622.411C274.437 620.568 276.077 618.193 278.557 615.286 279.682 613.964 280.538 612.875 281.127 612.021 281.715 611.167 282.155 610.359 282.447 609.599 282.739 608.839 282.885 608.052 282.885 607.24 282.885 606.094 282.629 605.195 282.119 604.544 281.609 603.893 280.911 603.568 280.025 603.568 278.327 603.568 277.239 604.792 276.76 607.24L273.947 607.24 273.947 603.552C275.645 602.865 277.015 602.411 278.057 602.193 279.098 601.974 280.197 601.865 281.353 601.865Z" fill="#CFDCE6" fill-rule="evenodd"/><text fill="#000000" fill-opacity="0" font-family="Arial,Arial_MSFontService,sans-serif" font-size="21.8281" x="273.635" y="620.964">𝟐𝒎𝑳</text><path d="M270.06 592.036 341.06 592.036 341.06 594.036 270.06 594.036Z" fill="#CFDCE6" fill-rule="evenodd"/><path d="M155.76 492.665 170.932 492.665 169.822 497.696 167.822 497.696C167.77 496.707 167.677 496.014 167.541 495.618 167.406 495.222 167.197 494.936 166.916 494.759 166.635 494.582 166.239 494.493 165.729 494.493L161.807 494.493 160.151 501.993 162.322 501.993C162.739 501.993 163.091 501.926 163.377 501.79 163.664 501.655 163.929 501.428 164.174 501.11 164.419 500.793 164.661 500.353 164.901 499.79L166.619 499.79 165.119 506.134 163.51 506.134C163.51 505.53 163.473 505.066 163.401 504.743 163.328 504.42 163.192 504.186 162.994 504.04 162.796 503.894 162.458 503.821 161.979 503.821L159.76 503.821 157.916 512.165 161.432 512.165C161.89 512.165 162.247 512.134 162.502 512.071 162.757 512.009 162.992 511.91 163.205 511.775 163.419 511.639 163.666 511.423 163.947 511.126 164.229 510.829 164.507 510.454 164.783 510.001 165.059 509.548 165.343 509.004 165.635 508.368L167.76 508.368 166.322 513.993 151.463 513.993 151.682 512.962C152.276 512.795 152.713 512.504 152.994 512.087 153.276 511.67 153.541 510.9 153.791 509.775L156.635 496.884C156.77 496.269 156.838 495.66 156.838 495.056 156.838 494.618 156.736 494.298 156.533 494.095 156.33 493.892 155.999 493.759 155.541 493.696Z" fill="#CFDCE6" fill-rule="evenodd"/><text fill="#000000" fill-opacity="0" font-family="Arial,Arial_MSFontService,sans-serif" font-size="21.3281" x="151.463" y="511.327">𝑬</text><path d="M178.401 505.017C179.501 505.017 180.4 505.165 181.096 505.461 181.792 505.757 182.296 506.157 182.606 506.663 182.917 507.168 183.072 507.758 183.072 508.431 183.072 509.023 182.962 509.573 182.741 510.082 182.52 510.591 182.138 511.172 181.596 511.823 181.053 512.474 180.137 513.406 178.85 514.619 178.453 514.994 177.979 515.486 177.429 516.096 176.879 516.706 176.443 517.229 176.121 517.663L176.121 517.775 180.108 517.775C180.594 517.775 180.957 517.74 181.197 517.668 181.436 517.597 181.626 517.474 181.764 517.298 181.903 517.122 182.017 516.858 182.107 516.506L183.398 516.506 183.14 520.527 172.853 520.527 172.853 519.785C173.429 518.46 174.608 516.753 176.39 514.664 177.199 513.713 177.815 512.931 178.238 512.317 178.661 511.703 178.977 511.123 179.187 510.576 179.396 510.03 179.501 509.465 179.501 508.881 179.501 508.057 179.318 507.411 178.951 506.943 178.584 506.475 178.082 506.241 177.446 506.241 176.226 506.241 175.443 507.121 175.099 508.881L173.077 508.881 173.077 506.23C174.298 505.736 175.282 505.41 176.031 505.253 176.78 505.096 177.569 505.017 178.401 505.017Z" fill="#CFDCE6" fill-rule="evenodd"/><text fill="#000000" fill-opacity="0" font-family="Arial,Arial_MSFontService,sans-serif" font-size="15.5093" x="172.853" y="518.588">𝟐</text><path d="M198.114 507.056 217.364 507.056 217.364 509.134 198.114 509.134ZM198.114 500.571 217.364 500.571 217.364 502.65 198.114 502.65Z" fill="#CFDCE6" fill-rule="evenodd"/><text fill="#000000" fill-opacity="0" font-family="Arial,Arial_MSFontService,sans-serif" font-size="8.5625" x="198.114" y="508.064">=</text><path d="M237.787 497.525 232.443 505.571 232.443 505.837 237.787 505.837 237.787 502.259C237.787 500.759 237.839 499.181 237.943 497.525ZM238.896 492.556 242.412 492.556 242.412 505.837 242.896 505.837C243.407 505.837 243.766 505.803 243.974 505.735 244.183 505.668 244.362 505.54 244.514 505.353 244.665 505.165 244.808 504.832 244.943 504.353L246.584 504.353 246.396 507.806 242.412 507.806 242.412 510.134C242.412 510.915 242.459 511.465 242.553 511.782 242.646 512.1 242.79 512.337 242.982 512.493 243.175 512.65 243.547 512.806 244.099 512.962L244.099 513.993 236.115 513.993 236.115 512.962C236.667 512.816 237.045 512.652 237.248 512.47 237.451 512.288 237.592 512.045 237.67 511.743 237.748 511.441 237.787 510.905 237.787 510.134L237.787 507.806 229.412 507.806 229.412 506.118Z" fill="#CFDCE6" fill-rule="evenodd"/><text fill="#000000" fill-opacity="0" font-family="Arial,Arial_MSFontService,sans-serif" font-size="21.4375" x="229.412" y="511.314">𝟒</text><path d="M344.618 464.06C348.899 467.727 352.298 473.196 354.813 480.466 357.329 487.737 358.587 495.852 358.587 504.81 358.587 513.633 357.329 521.735 354.813 529.115 352.298 536.495 348.899 542.008 344.618 545.654L343.884 544.498C347.582 540.737 350.431 535.295 352.431 528.17 354.431 521.045 355.431 513.263 355.431 504.826 355.431 496.19 354.425 488.373 352.415 481.373 350.404 474.373 347.561 468.992 343.884 465.232ZM269.599 464.06 270.334 465.232C266.646 468.992 263.8 474.373 261.795 481.373 259.79 488.373 258.787 496.19 258.787 504.826 258.787 513.263 259.787 521.045 261.787 528.17 263.787 535.295 266.636 540.737 270.334 544.498L269.599 545.654C265.318 542.008 261.92 536.495 259.404 529.115 256.889 521.735 255.631 513.633 255.631 504.81 255.631 495.852 256.889 487.737 259.404 480.466 261.92 473.196 265.318 467.727 269.599 464.06Z" fill="#CFDCE6" fill-rule="evenodd"/><path d="M280.053 467.43 280.959 467.43 279.959 471.461 283.913 469.758 284.475 471.023 279.553 473.086 278.272 478.258 278.459 478.32C279.439 477.018 280.371 476.07 281.256 475.476 282.142 474.883 283.043 474.586 283.959 474.586 284.939 474.586 285.691 474.862 286.217 475.414 286.743 475.966 287.006 476.742 287.006 477.742 287.006 478.398 286.855 479.331 286.553 480.539L285.538 484.633C285.256 485.768 285.116 486.57 285.116 487.039 285.116 487.456 285.183 487.758 285.319 487.945 285.454 488.133 285.668 488.226 285.959 488.226 286.272 488.226 286.605 488.099 286.959 487.844 287.314 487.588 287.814 487.101 288.459 486.383L289.35 487.258C288.506 488.133 287.861 488.742 287.413 489.086 286.965 489.43 286.535 489.672 286.124 489.812 285.712 489.953 285.246 490.023 284.725 490.023 284.048 490.023 283.506 489.781 283.1 489.297 282.694 488.812 282.491 488.195 282.491 487.445 282.491 486.768 282.663 485.773 283.006 484.461L283.694 481.758C283.944 480.779 284.108 480.055 284.186 479.586 284.264 479.117 284.303 478.737 284.303 478.445 284.303 477.716 284.181 477.195 283.936 476.883 283.691 476.57 283.293 476.414 282.741 476.414 282.303 476.414 281.821 476.591 281.295 476.945 280.769 477.299 280.22 477.838 279.647 478.562 279.074 479.286 278.618 479.979 278.28 480.64 277.941 481.302 277.673 482.091 277.475 483.008L276.053 489.773 273.35 489.773 276.85 474.211 274.709 475.133 274.147 473.867 277.209 472.617 277.459 471.508C277.647 470.601 277.741 469.966 277.741 469.601 277.741 469.164 277.608 468.857 277.342 468.68 277.077 468.502 276.6 468.404 275.913 468.383L276.1 467.57Z" fill="#CFDCE6" fill-rule="evenodd"/><text fill="#000000" fill-opacity="0" font-family="Arial,Arial_MSFontService,sans-serif" font-size="22.5938" x="273.35" y="487.199">ℏ</text><path d="M297.027 462.544C298.128 462.544 299.026 462.692 299.723 462.988 300.419 463.283 300.922 463.684 301.233 464.189 301.544 464.695 301.699 465.284 301.699 465.958 301.699 466.55 301.589 467.1 301.368 467.609 301.147 468.118 300.765 468.698 300.222 469.35 299.679 470.001 298.764 470.933 297.476 472.146 297.08 472.52 296.606 473.013 296.056 473.623 295.505 474.233 295.069 474.755 294.747 475.19L294.747 475.302 298.734 475.302C299.221 475.302 299.584 475.266 299.824 475.195 300.063 475.124 300.252 475 300.391 474.825 300.529 474.649 300.643 474.385 300.733 474.033L302.025 474.033 301.766 478.053 291.479 478.053 291.479 477.312C292.056 475.987 293.235 474.28 295.017 472.191 295.826 471.24 296.441 470.458 296.864 469.844 297.287 469.23 297.604 468.65 297.813 468.103 298.023 467.557 298.128 466.991 298.128 466.407 298.128 465.584 297.944 464.938 297.577 464.47 297.211 464.002 296.709 463.768 296.073 463.768 294.852 463.768 294.07 464.648 293.725 466.407L291.704 466.407 291.704 463.757C292.924 463.263 293.909 462.937 294.658 462.78 295.406 462.623 296.196 462.544 297.027 462.544Z" fill="#CFDCE6" fill-rule="evenodd"/><text fill="#000000" fill-opacity="0" font-family="Arial,Arial_MSFontService,sans-serif" font-size="15.5093" x="291.479" y="476.115">𝟐</text><path d="M312.26 474.273 327.229 474.273 326.557 477.18 322.729 477.18 320.979 484.648C320.781 485.492 320.682 486.169 320.682 486.68 320.682 487.086 320.75 487.367 320.885 487.523 321.021 487.68 321.213 487.758 321.463 487.758 321.776 487.758 322.104 487.627 322.448 487.367 322.791 487.107 323.198 486.711 323.666 486.18L324.791 487.305C323.875 488.263 322.997 488.956 322.159 489.383 321.32 489.81 320.463 490.023 319.588 490.023 318.557 490.023 317.799 489.763 317.315 489.242 316.83 488.721 316.588 487.893 316.588 486.758 316.588 486.143 316.703 485.325 316.932 484.305L317.073 483.68C317.51 481.721 318.13 479.596 318.932 477.305L318.854 477.18 314.729 477.18 313.385 483.508C312.854 486.029 312.354 488.117 311.885 489.773L307.073 489.773 307.291 488.789C307.864 488.143 308.448 487.088 309.041 485.625 309.635 484.161 310.104 482.659 310.448 481.117L311.323 477.18 311.01 477.18C310.468 477.18 310.023 477.226 309.674 477.32 309.325 477.414 308.979 477.578 308.635 477.812 308.291 478.047 307.875 478.424 307.385 478.945L306.073 477.773C306.937 476.732 307.648 475.976 308.205 475.508 308.763 475.039 309.333 474.716 309.916 474.539 310.5 474.362 311.281 474.273 312.26 474.273Z" fill="#CFDCE6" fill-rule="evenodd"/><text fill="#000000" fill-opacity="0" font-family="Arial,Arial_MSFontService,sans-serif" font-size="15.75" x="306.073" y="488.055">𝝅</text><path d="M334.354 462.544C335.454 462.544 336.353 462.692 337.049 462.988 337.745 463.283 338.249 463.684 338.56 464.189 338.87 464.695 339.026 465.284 339.026 465.958 339.026 466.55 338.915 467.1 338.694 467.609 338.474 468.118 338.092 468.698 337.549 469.35 337.006 470.001 336.091 470.933 334.803 472.146 334.406 472.52 333.933 473.013 333.382 473.623 332.832 474.233 332.396 474.755 332.074 475.19L332.074 475.302 336.061 475.302C336.548 475.302 336.911 475.266 337.15 475.195 337.39 475.124 337.579 475 337.717 474.825 337.856 474.649 337.97 474.385 338.06 474.033L339.351 474.033 339.093 478.053 328.806 478.053 328.806 477.312C329.383 475.987 330.562 474.28 332.344 472.191 333.152 471.24 333.768 470.458 334.191 469.844 334.614 469.23 334.93 468.65 335.14 468.103 335.35 467.557 335.454 466.991 335.454 466.407 335.454 465.584 335.271 464.938 334.904 464.47 334.537 464.002 334.036 463.768 333.399 463.768 332.179 463.768 331.396 464.648 331.052 466.407L329.031 466.407 329.031 463.757C330.251 463.263 331.236 462.937 331.984 462.78 332.733 462.623 333.523 462.544 334.354 462.544Z" fill="#CFDCE6" fill-rule="evenodd"/><text fill="#000000" fill-opacity="0" font-family="Arial,Arial_MSFontService,sans-serif" font-size="15.5093" x="328.806" y="476.115">𝟐</text><path d="M298.309 519.65C299.173 519.65 299.864 519.892 300.379 520.377 300.895 520.861 301.153 521.499 301.153 522.291 301.153 522.551 301.121 522.801 301.059 523.041L301.246 523.134C302.194 521.936 303.114 521.056 304.004 520.494 304.895 519.931 305.929 519.65 307.106 519.65 308.147 519.65 308.968 519.936 309.567 520.509 310.166 521.082 310.481 521.874 310.512 522.884 311.377 521.78 312.249 520.965 313.129 520.439 314.009 519.913 315.007 519.65 316.121 519.65 317.173 519.65 317.999 519.947 318.598 520.541 319.197 521.134 319.496 521.962 319.496 523.025 319.496 523.337 319.47 523.718 319.418 524.166 319.366 524.614 319.288 525.041 319.184 525.447L317.918 530.478C317.804 530.916 317.731 531.254 317.699 531.494 317.668 531.733 317.653 532.004 317.653 532.306 317.653 532.712 317.72 532.994 317.856 533.15 317.991 533.306 318.184 533.384 318.434 533.384 318.736 533.384 319.074 533.241 319.449 532.955 319.824 532.668 320.267 532.233 320.778 531.65L321.903 532.775C320.882 533.817 319.968 534.556 319.16 534.994 318.353 535.431 317.465 535.65 316.496 535.65 315.423 535.65 314.627 535.384 314.106 534.853 313.585 534.322 313.324 533.509 313.324 532.416 313.324 532.072 313.361 531.653 313.434 531.158 313.507 530.663 313.611 530.15 313.746 529.619L314.465 526.9C314.632 526.285 314.78 525.637 314.91 524.955 315.041 524.272 315.106 523.744 315.106 523.369 315.106 522.41 314.731 521.931 313.981 521.931 313.533 521.931 312.986 522.218 312.34 522.791 311.694 523.364 311.16 523.991 310.739 524.673 310.317 525.356 309.991 526.259 309.762 527.384L308.043 535.4 303.543 535.4 305.824 525.462C305.939 524.983 306.017 524.59 306.059 524.283 306.1 523.975 306.121 523.707 306.121 523.478 306.121 522.936 306.028 522.543 305.84 522.298 305.653 522.054 305.356 521.931 304.949 521.931 304.47 521.931 303.905 522.228 303.254 522.822 302.603 523.416 302.077 524.041 301.676 524.697 301.275 525.353 300.955 526.249 300.715 527.384L298.965 535.4 294.481 535.4 296.996 524.541C297.153 523.864 297.231 523.348 297.231 522.994 297.231 522.65 297.173 522.384 297.059 522.197 296.944 522.009 296.746 521.916 296.465 521.916 296.142 521.916 295.793 522.061 295.418 522.353 295.043 522.645 294.606 523.077 294.106 523.65L292.981 522.525C294.022 521.462 294.947 520.718 295.754 520.291 296.561 519.864 297.413 519.65 298.309 519.65ZM327.793 514.072 335.653 514.072 335.434 515.103C334.84 515.27 334.403 515.561 334.121 515.978 333.84 516.395 333.574 517.166 333.324 518.291L329.949 533.541 332.903 533.541C333.413 533.541 333.809 533.499 334.09 533.416 334.371 533.332 334.627 533.202 334.856 533.025 335.085 532.848 335.337 532.603 335.614 532.291 335.89 531.978 336.163 531.572 336.434 531.072 336.705 530.572 336.981 529.947 337.262 529.197L339.387 529.197 337.793 535.4 323.496 535.4 323.715 534.369C324.309 534.202 324.746 533.91 325.028 533.494 325.309 533.077 325.574 532.306 325.824 531.181L328.668 518.291C328.804 517.676 328.871 517.067 328.871 516.462 328.871 516.025 328.77 515.705 328.567 515.502 328.364 515.298 328.033 515.166 327.574 515.103ZM283.106 513.822C284.637 513.822 285.887 514.028 286.856 514.439 287.824 514.85 288.525 515.408 288.957 516.111 289.39 516.814 289.606 517.634 289.606 518.572 289.606 519.395 289.452 520.16 289.145 520.869 288.837 521.577 288.306 522.384 287.551 523.291 286.796 524.197 285.522 525.494 283.731 527.181 283.179 527.702 282.52 528.387 281.754 529.236 280.989 530.085 280.382 530.811 279.934 531.416L279.934 531.572 285.481 531.572C286.158 531.572 286.663 531.522 286.996 531.423 287.33 531.324 287.593 531.153 287.785 530.908 287.978 530.663 288.137 530.296 288.262 529.806L290.059 529.806 289.699 535.4 275.387 535.4 275.387 534.369C276.189 532.525 277.83 530.15 280.309 527.244 281.434 525.921 282.291 524.832 282.879 523.978 283.468 523.124 283.908 522.317 284.199 521.556 284.491 520.796 284.637 520.009 284.637 519.197 284.637 518.051 284.382 517.153 283.871 516.502 283.361 515.85 282.663 515.525 281.778 515.525 280.08 515.525 278.991 516.749 278.512 519.197L275.699 519.197 275.699 515.509C277.397 514.822 278.767 514.369 279.809 514.15 280.85 513.931 281.949 513.822 283.106 513.822Z" fill="#CFDCE6" fill-rule="evenodd"/><text fill="#000000" fill-opacity="0" font-family="Arial,Arial_MSFontService,sans-serif" font-size="21.8281" x="275.387" y="532.921">𝟐𝒎𝑳</text><path d="M271.559 503.993 342.559 503.993 342.559 505.993 271.559 505.993Z" fill="#CFDCE6" fill-rule="evenodd"/><path d="M167.95 390.324 183.122 390.324 182.013 395.355 180.013 395.355C179.961 394.366 179.867 393.673 179.732 393.277 179.596 392.881 179.388 392.595 179.107 392.418 178.825 392.241 178.43 392.152 177.919 392.152L173.997 392.152 172.341 399.652 174.513 399.652C174.93 399.652 175.281 399.584 175.568 399.449 175.854 399.314 176.12 399.087 176.364 398.769 176.609 398.452 176.851 398.012 177.091 397.449L178.81 397.449 177.31 403.793 175.7 403.793C175.7 403.189 175.664 402.725 175.591 402.402 175.518 402.079 175.383 401.845 175.185 401.699 174.987 401.553 174.648 401.48 174.169 401.48L171.95 401.48 170.107 409.824 173.622 409.824C174.081 409.824 174.437 409.793 174.693 409.73 174.948 409.668 175.182 409.569 175.396 409.433 175.609 409.298 175.857 409.082 176.138 408.785 176.419 408.488 176.698 408.113 176.974 407.66 177.25 407.207 177.534 406.663 177.825 406.027L179.95 406.027 178.513 411.652 163.653 411.652 163.872 410.621C164.466 410.454 164.903 410.163 165.185 409.746 165.466 409.329 165.732 408.558 165.982 407.433L168.825 394.543C168.961 393.928 169.028 393.319 169.028 392.715 169.028 392.277 168.927 391.957 168.724 391.754 168.521 391.551 168.19 391.418 167.732 391.355Z" fill="#CFDCE6" fill-rule="evenodd"/><text fill="#000000" fill-opacity="0" font-family="Arial,Arial_MSFontService,sans-serif" font-size="21.3281" x="163.653" y="408.986">𝑬</text><path d="M190.625 402.676C192.04 402.676 193.17 402.964 194.016 403.541 194.862 404.117 195.285 404.922 195.285 405.956 195.285 406.824 195.036 407.573 194.538 408.202 194.041 408.831 193.208 409.415 192.04 409.954L192.04 410.055C193.133 410.257 193.996 410.695 194.628 411.369 195.261 412.042 195.577 412.877 195.577 413.873 195.577 414.742 195.366 415.515 194.943 416.192 194.52 416.87 193.878 417.401 193.017 417.787 192.156 418.172 191.111 418.365 189.883 418.365 189.037 418.365 188.206 418.288 187.39 418.135 186.574 417.982 185.863 417.766 185.256 417.489L185.256 414.67 187.278 414.67C187.495 415.524 187.802 416.143 188.199 416.529 188.596 416.915 189.116 417.107 189.76 417.107 191.347 417.107 192.141 416.127 192.141 414.165 192.141 413.109 191.862 412.323 191.304 411.807 190.746 411.29 189.898 411.032 188.76 411.032L187.873 411.032 187.873 409.751C189.176 409.699 190.164 409.394 190.838 408.836 191.512 408.278 191.849 407.472 191.849 406.416 191.849 405.585 191.68 404.958 191.343 404.535 191.006 404.112 190.516 403.9 189.872 403.9 189.243 403.9 188.727 404.125 188.322 404.574 187.918 405.023 187.641 405.682 187.491 406.551L185.47 406.551 185.47 403.889C187.364 403.081 189.082 402.676 190.625 402.676Z" fill="#CFDCE6" fill-rule="evenodd"/><text fill="#000000" fill-opacity="0" font-family="Arial,Arial_MSFontService,sans-serif" font-size="15.689" x="185.256" y="416.404">𝟑</text><path d="M210.304 404.715 229.554 404.715 229.554 406.793 210.304 406.793ZM210.304 398.23 229.554 398.23 229.554 400.308 210.304 400.308Z" fill="#CFDCE6" fill-rule="evenodd"/><text fill="#000000" fill-opacity="0" font-family="Arial,Arial_MSFontService,sans-serif" font-size="8.5625" x="210.304" y="405.723">=</text><path d="M250.196 391.824C247.977 391.824 246.868 393.475 246.868 396.777 246.868 399.808 247.832 401.324 249.759 401.324 250.144 401.324 250.503 401.288 250.837 401.215 251.17 401.142 251.485 401.03 251.782 400.879 252.079 400.728 252.355 400.545 252.61 400.332 252.865 400.118 253.035 399.944 253.118 399.808 253.201 399.673 253.272 399.475 253.329 399.215 253.386 398.954 253.415 398.6 253.415 398.152 253.415 396.111 253.141 394.545 252.595 393.457 252.048 392.368 251.248 391.824 250.196 391.824ZM250.352 390.074C252.842 390.074 254.743 390.832 256.056 392.348 257.368 393.863 258.024 396.058 258.024 398.933 258.024 402.829 257.05 405.897 255.102 408.137 253.154 410.376 250.352 411.631 246.696 411.902L245.884 410.98 245.884 409.855C247.029 409.834 248.006 409.657 248.813 409.324 249.621 408.991 250.324 408.519 250.923 407.91 251.522 407.301 252.016 406.525 252.407 405.582 252.798 404.639 253.082 403.428 253.259 401.949L253.102 401.887C252.3 402.439 251.511 402.84 250.735 403.09 249.959 403.34 249.029 403.465 247.946 403.465 246.154 403.465 244.756 402.91 243.751 401.801 242.746 400.691 242.243 399.147 242.243 397.168 242.243 395.782 242.569 394.545 243.22 393.457 243.871 392.368 244.806 391.532 246.024 390.949 247.243 390.366 248.686 390.074 250.352 390.074Z" fill="#CFDCE6" fill-rule="evenodd"/><text fill="#000000" fill-opacity="0" font-family="Arial,Arial_MSFontService,sans-serif" font-size="21.8281" x="242.243" y="409.174">𝟗</text><path d="M356.808 361.719C361.09 365.386 364.488 370.854 367.004 378.125 369.519 385.396 370.777 393.511 370.777 402.469 370.777 411.292 369.519 419.394 367.004 426.774 364.488 434.154 361.09 439.667 356.808 443.313L356.074 442.157C359.772 438.396 362.621 432.953 364.621 425.828 366.621 418.703 367.621 410.922 367.621 402.485 367.621 393.849 366.616 386.032 364.605 379.032 362.595 372.032 359.751 366.651 356.074 362.891ZM281.79 361.719 282.524 362.891C278.837 366.651 275.99 372.032 273.985 379.032 271.98 386.032 270.977 393.849 270.977 402.485 270.977 410.922 271.977 418.703 273.977 425.828 275.977 432.953 278.826 438.396 282.524 442.157L281.79 443.313C277.509 439.667 274.11 434.154 271.595 426.774 269.079 419.394 267.821 411.292 267.821 402.469 267.821 393.511 269.079 385.396 271.595 378.125 274.11 370.854 277.509 365.386 281.79 361.719Z" fill="#CFDCE6" fill-rule="evenodd"/><path d="M292.244 365.088 293.15 365.088 292.15 369.12 296.103 367.417 296.666 368.682 291.744 370.745 290.462 375.917 290.65 375.979C291.629 374.677 292.561 373.729 293.447 373.135 294.332 372.542 295.233 372.245 296.15 372.245 297.129 372.245 297.882 372.521 298.408 373.073 298.934 373.625 299.197 374.401 299.197 375.401 299.197 376.057 299.046 376.989 298.744 378.198L297.728 382.292C297.447 383.427 297.306 384.229 297.306 384.698 297.306 385.114 297.374 385.417 297.509 385.604 297.645 385.792 297.858 385.885 298.15 385.885 298.462 385.885 298.796 385.758 299.15 385.503 299.504 385.247 300.004 384.76 300.65 384.042L301.541 384.917C300.697 385.792 300.051 386.401 299.603 386.745 299.155 387.088 298.725 387.331 298.314 387.471 297.903 387.612 297.436 387.682 296.916 387.682 296.238 387.682 295.697 387.44 295.291 386.956 294.884 386.471 294.681 385.854 294.681 385.104 294.681 384.427 294.853 383.432 295.197 382.12L295.884 379.417C296.134 378.437 296.298 377.713 296.376 377.245 296.455 376.776 296.494 376.396 296.494 376.104 296.494 375.375 296.371 374.854 296.126 374.542 295.882 374.229 295.483 374.073 294.931 374.073 294.494 374.073 294.012 374.25 293.486 374.604 292.96 374.958 292.41 375.497 291.837 376.221 291.265 376.945 290.809 377.638 290.47 378.299 290.132 378.961 289.863 379.75 289.666 380.667L288.244 387.432 285.541 387.432 289.041 371.87 286.9 372.792 286.337 371.526 289.4 370.276 289.65 369.167C289.837 368.26 289.931 367.625 289.931 367.26 289.931 366.823 289.798 366.516 289.533 366.338 289.267 366.161 288.791 366.062 288.103 366.042L288.291 365.229Z" fill="#CFDCE6" fill-rule="evenodd"/><text fill="#000000" fill-opacity="0" font-family="Arial,Arial_MSFontService,sans-serif" font-size="22.5938" x="285.541" y="384.858">ℏ</text><path d="M309.218 360.203C310.318 360.203 311.217 360.351 311.913 360.647 312.609 360.942 313.113 361.343 313.423 361.848 313.734 362.354 313.889 362.943 313.889 363.617 313.889 364.208 313.779 364.759 313.558 365.268 313.337 365.777 312.956 366.357 312.413 367.009 311.87 367.66 310.955 368.592 309.667 369.805 309.27 370.179 308.796 370.672 308.246 371.282 307.696 371.892 307.26 372.414 306.938 372.848L306.938 372.961 310.925 372.961C311.411 372.961 311.774 372.925 312.014 372.854 312.254 372.783 312.443 372.659 312.581 372.483 312.72 372.307 312.834 372.044 312.924 371.692L314.215 371.692 313.957 375.712 303.67 375.712 303.67 374.971C304.246 373.646 305.425 371.939 307.207 369.85 308.016 368.899 308.632 368.117 309.055 367.503 309.478 366.889 309.794 366.309 310.004 365.762 310.213 365.215 310.318 364.65 310.318 364.066 310.318 363.243 310.135 362.597 309.768 362.129 309.401 361.661 308.899 361.427 308.263 361.427 307.043 361.427 306.26 362.307 305.916 364.066L303.894 364.066 303.894 361.416C305.115 360.922 306.099 360.596 306.848 360.439 307.597 360.282 308.387 360.203 309.218 360.203Z" fill="#CFDCE6" fill-rule="evenodd"/><text fill="#000000" fill-opacity="0" font-family="Arial,Arial_MSFontService,sans-serif" font-size="15.5093" x="303.67" y="373.774">𝟐</text><path d="M324.451 371.932 339.419 371.932 338.747 374.838 334.919 374.838 333.169 382.307C332.971 383.151 332.872 383.828 332.872 384.338 332.872 384.745 332.94 385.026 333.076 385.182 333.211 385.338 333.404 385.417 333.654 385.417 333.966 385.417 334.294 385.286 334.638 385.026 334.982 384.766 335.388 384.37 335.857 383.838L336.982 384.963C336.065 385.922 335.188 386.614 334.349 387.042 333.51 387.469 332.654 387.682 331.779 387.682 330.747 387.682 329.99 387.422 329.505 386.901 329.021 386.38 328.779 385.552 328.779 384.417 328.779 383.802 328.893 382.984 329.122 381.963L329.263 381.338C329.701 379.38 330.32 377.255 331.122 374.963L331.044 374.838 326.919 374.838 325.576 381.167C325.044 383.687 324.544 385.776 324.076 387.432L319.263 387.432 319.482 386.448C320.055 385.802 320.638 384.747 321.232 383.284 321.826 381.82 322.294 380.318 322.638 378.776L323.513 374.838 323.201 374.838C322.659 374.838 322.214 374.885 321.865 374.979 321.516 375.073 321.169 375.237 320.826 375.471 320.482 375.706 320.065 376.083 319.576 376.604L318.263 375.432C319.128 374.391 319.839 373.635 320.396 373.167 320.953 372.698 321.523 372.375 322.107 372.198 322.69 372.021 323.471 371.932 324.451 371.932Z" fill="#CFDCE6" fill-rule="evenodd"/><text fill="#000000" fill-opacity="0" font-family="Arial,Arial_MSFontService,sans-serif" font-size="15.75" x="318.263" y="385.713">𝝅</text><path d="M346.544 360.203C347.645 360.203 348.543 360.351 349.24 360.647 349.936 360.942 350.439 361.343 350.75 361.848 351.061 362.354 351.216 362.943 351.216 363.617 351.216 364.208 351.106 364.759 350.885 365.268 350.664 365.777 350.282 366.357 349.739 367.009 349.197 367.66 348.281 368.592 346.994 369.805 346.597 370.179 346.123 370.672 345.573 371.282 345.023 371.892 344.586 372.414 344.265 372.848L344.265 372.961 348.251 372.961C348.738 372.961 349.101 372.925 349.341 372.854 349.58 372.783 349.769 372.659 349.908 372.483 350.046 372.307 350.161 372.044 350.25 371.692L351.542 371.692 351.284 375.712 340.996 375.712 340.996 374.971C341.573 373.646 342.752 371.939 344.534 369.85 345.343 368.899 345.958 368.117 346.381 367.503 346.804 366.889 347.121 366.309 347.33 365.762 347.54 365.215 347.645 364.65 347.645 364.066 347.645 363.243 347.461 362.597 347.095 362.129 346.728 361.661 346.226 361.427 345.59 361.427 344.369 361.427 343.587 362.307 343.243 364.066L341.221 364.066 341.221 361.416C342.441 360.922 343.426 360.596 344.175 360.439 344.923 360.282 345.713 360.203 346.544 360.203Z" fill="#CFDCE6" fill-rule="evenodd"/><text fill="#000000" fill-opacity="0" font-family="Arial,Arial_MSFontService,sans-serif" font-size="15.5093" x="340.996" y="373.774">𝟐</text><path d="M310.499 417.309C311.364 417.309 312.054 417.551 312.57 418.035 313.085 418.52 313.343 419.158 313.343 419.949 313.343 420.21 313.312 420.46 313.249 420.699L313.437 420.793C314.385 419.595 315.304 418.715 316.195 418.153 317.085 417.59 318.119 417.309 319.296 417.309 320.338 417.309 321.158 417.595 321.757 418.168 322.356 418.741 322.671 419.533 322.702 420.543 323.567 419.439 324.439 418.624 325.32 418.098 326.2 417.572 327.197 417.309 328.312 417.309 329.364 417.309 330.189 417.606 330.788 418.199 331.387 418.793 331.687 419.621 331.687 420.684 331.687 420.996 331.661 421.377 331.609 421.824 331.557 422.272 331.478 422.699 331.374 423.106L330.109 428.137C329.994 428.574 329.921 428.913 329.89 429.153 329.859 429.392 329.843 429.663 329.843 429.965 329.843 430.371 329.911 430.653 330.046 430.809 330.182 430.965 330.374 431.043 330.624 431.043 330.926 431.043 331.265 430.9 331.64 430.614 332.015 430.327 332.458 429.892 332.968 429.309L334.093 430.434C333.072 431.475 332.158 432.215 331.351 432.653 330.544 433.09 329.656 433.309 328.687 433.309 327.614 433.309 326.817 433.043 326.296 432.512 325.775 431.981 325.515 431.168 325.515 430.074 325.515 429.731 325.551 429.311 325.624 428.817 325.697 428.322 325.801 427.809 325.937 427.278L326.656 424.559C326.822 423.944 326.971 423.296 327.101 422.614 327.231 421.931 327.296 421.403 327.296 421.028 327.296 420.069 326.921 419.59 326.171 419.59 325.723 419.59 325.176 419.877 324.531 420.449 323.885 421.022 323.351 421.65 322.929 422.332 322.507 423.015 322.182 423.918 321.952 425.043L320.234 433.059 315.734 433.059 318.015 423.121C318.13 422.642 318.208 422.249 318.249 421.942 318.291 421.634 318.312 421.366 318.312 421.137 318.312 420.595 318.218 420.202 318.031 419.957 317.843 419.712 317.546 419.59 317.14 419.59 316.661 419.59 316.096 419.887 315.445 420.481 314.794 421.074 314.268 421.699 313.866 422.356 313.465 423.012 313.145 423.908 312.906 425.043L311.156 433.059 306.671 433.059 309.187 422.199C309.343 421.522 309.421 421.007 309.421 420.653 309.421 420.309 309.364 420.043 309.249 419.856 309.135 419.668 308.937 419.574 308.656 419.574 308.333 419.574 307.984 419.72 307.609 420.012 307.234 420.304 306.796 420.736 306.296 421.309L305.171 420.184C306.213 419.121 307.137 418.377 307.945 417.949 308.752 417.522 309.603 417.309 310.499 417.309ZM339.984 411.731 347.843 411.731 347.624 412.762C347.031 412.929 346.593 413.22 346.312 413.637 346.031 414.054 345.765 414.824 345.515 415.949L342.14 431.199 345.093 431.199C345.603 431.199 345.999 431.158 346.281 431.074 346.562 430.991 346.817 430.861 347.046 430.684 347.275 430.507 347.528 430.262 347.804 429.949 348.08 429.637 348.353 429.231 348.624 428.731 348.895 428.231 349.171 427.606 349.452 426.856L351.577 426.856 349.984 433.059 335.687 433.059 335.906 432.028C336.499 431.861 336.937 431.569 337.218 431.153 337.499 430.736 337.765 429.965 338.015 428.84L340.859 415.949C340.994 415.335 341.062 414.725 341.062 414.121 341.062 413.684 340.96 413.364 340.757 413.16 340.554 412.957 340.223 412.824 339.765 412.762ZM295.296 411.481C296.827 411.481 298.077 411.686 299.046 412.098 300.015 412.509 300.715 413.067 301.148 413.77 301.58 414.473 301.796 415.293 301.796 416.231 301.796 417.054 301.643 417.819 301.335 418.528 301.028 419.236 300.497 420.043 299.741 420.949 298.986 421.856 297.713 423.153 295.921 424.84 295.369 425.361 294.71 426.046 293.945 426.895 293.179 427.744 292.572 428.47 292.124 429.074L292.124 429.231 297.671 429.231C298.348 429.231 298.853 429.181 299.187 429.082 299.52 428.983 299.783 428.811 299.976 428.567 300.169 428.322 300.327 427.955 300.452 427.465L302.249 427.465 301.89 433.059 287.577 433.059 287.577 432.028C288.38 430.184 290.02 427.809 292.499 424.903 293.624 423.58 294.481 422.491 295.07 421.637 295.658 420.783 296.098 419.975 296.39 419.215 296.682 418.455 296.827 417.668 296.827 416.856 296.827 415.71 296.572 414.811 296.062 414.16 295.551 413.509 294.853 413.184 293.968 413.184 292.27 413.184 291.182 414.408 290.702 416.856L287.89 416.856 287.89 413.168C289.588 412.481 290.958 412.028 291.999 411.809 293.041 411.59 294.14 411.481 295.296 411.481Z" fill="#CFDCE6" fill-rule="evenodd"/><text fill="#000000" fill-opacity="0" font-family="Arial,Arial_MSFontService,sans-serif" font-size="21.8281" x="287.577" y="430.58">𝟐𝒎𝑳</text><path d="M283.75 401.652 354.75 401.652 354.75 403.652 283.75 403.652Z" fill="#CFDCE6" fill-rule="evenodd"/><path d="M156.674 214.237 171.846 214.237 170.737 219.269 168.737 219.269C168.685 218.279 168.591 217.586 168.455 217.19 168.32 216.795 168.112 216.508 167.83 216.331 167.549 216.154 167.153 216.065 166.643 216.065L162.721 216.065 161.065 223.565 163.237 223.565C163.653 223.565 164.005 223.498 164.291 223.362 164.578 223.227 164.843 223 165.088 222.683 165.333 222.365 165.575 221.925 165.815 221.362L167.534 221.362 166.034 227.706 164.424 227.706C164.424 227.102 164.388 226.638 164.315 226.315 164.242 225.993 164.107 225.758 163.909 225.612 163.711 225.467 163.372 225.394 162.893 225.394L160.674 225.394 158.83 233.737 162.346 233.737C162.804 233.737 163.161 233.706 163.416 233.644 163.672 233.581 163.906 233.482 164.12 233.347 164.333 233.211 164.58 232.995 164.862 232.698 165.143 232.401 165.422 232.026 165.698 231.573 165.974 231.12 166.258 230.576 166.549 229.94L168.674 229.94 167.237 235.565 152.377 235.565 152.596 234.534C153.19 234.368 153.627 234.076 153.909 233.659 154.19 233.243 154.455 232.472 154.705 231.347L157.549 218.456C157.685 217.842 157.752 217.232 157.752 216.628 157.752 216.19 157.651 215.87 157.448 215.667 157.245 215.464 156.914 215.331 156.455 215.269Z" fill="#CFDCE6" fill-rule="evenodd"/><text fill="#000000" fill-opacity="0" font-family="Arial,Arial_MSFontService,sans-serif" font-size="21.3281" x="152.377" y="232.899">𝑬</text><path d="M179.158 230.262 175.317 236.046 175.317 236.236 179.158 236.236 179.158 233.665C179.158 232.587 179.195 231.452 179.27 230.262ZM179.955 226.691 182.482 226.691 182.482 236.236 182.83 236.236C183.197 236.236 183.455 236.212 183.605 236.163 183.755 236.115 183.884 236.023 183.992 235.888 184.101 235.754 184.204 235.514 184.301 235.17L185.48 235.17 185.346 237.652 182.482 237.652 182.482 239.325C182.482 239.886 182.516 240.281 182.583 240.51 182.65 240.738 182.753 240.908 182.892 241.021 183.03 241.133 183.298 241.245 183.695 241.358L183.695 242.099 177.956 242.099 177.956 241.358C178.353 241.253 178.624 241.135 178.77 241.004 178.916 240.873 179.017 240.699 179.073 240.482 179.13 240.264 179.158 239.879 179.158 239.325L179.158 237.652 173.138 237.652 173.138 236.439Z" fill="#CFDCE6" fill-rule="evenodd"/><text fill="#000000" fill-opacity="0" font-family="Arial,Arial_MSFontService,sans-serif" font-size="15.4082" x="173.138" y="240.173">𝟒</text><path d="M199.028 228.628 218.278 228.628 218.278 230.706 199.028 230.706ZM199.028 222.144 218.278 222.144 218.278 224.222 199.028 224.222Z" fill="#CFDCE6" fill-rule="evenodd"/><text fill="#000000" fill-opacity="0" font-family="Arial,Arial_MSFontService,sans-serif" font-size="8.5625" x="199.028" y="229.636">=</text><path d="M258.483 224.581C257.972 224.581 257.493 224.657 257.045 224.808 256.597 224.959 256.201 225.162 255.858 225.417 255.514 225.672 255.282 225.881 255.162 226.042 255.042 226.203 254.957 226.435 254.904 226.737 254.852 227.039 254.826 227.571 254.826 228.331 254.826 230.237 255.092 231.67 255.623 232.628 256.154 233.586 256.967 234.065 258.061 234.065 259.175 234.065 260.009 233.662 260.561 232.855 261.113 232.047 261.389 230.8 261.389 229.112 261.389 227.623 261.141 226.495 260.647 225.73 260.152 224.964 259.43 224.581 258.483 224.581ZM262.545 213.987 263.389 215.065 263.389 216.034C261.108 216.086 259.259 216.792 257.842 218.151 256.425 219.511 255.483 221.456 255.014 223.987L255.17 224.05C255.983 223.487 256.8 223.076 257.623 222.815 258.446 222.555 259.347 222.425 260.326 222.425 261.524 222.425 262.553 222.688 263.412 223.214 264.272 223.74 264.92 224.482 265.358 225.44 265.795 226.399 266.014 227.513 266.014 228.784 266.014 230.17 265.722 231.391 265.139 232.448 264.555 233.506 263.657 234.331 262.443 234.925 261.23 235.519 259.743 235.815 257.983 235.815 256.368 235.815 254.98 235.493 253.818 234.847 252.657 234.201 251.769 233.248 251.154 231.987 250.54 230.727 250.233 229.196 250.233 227.394 250.233 224.956 250.746 222.753 251.772 220.784 252.798 218.815 254.253 217.232 256.139 216.034 258.024 214.836 260.16 214.154 262.545 213.987ZM240.139 213.987 242.139 213.987C242.076 214.987 242.045 216.373 242.045 218.144L242.045 231.206C242.045 231.81 242.079 232.266 242.147 232.573 242.214 232.881 242.334 233.131 242.506 233.323 242.678 233.516 242.925 233.667 243.248 233.776 243.571 233.886 243.977 233.969 244.467 234.026 244.957 234.084 245.602 234.123 246.404 234.144L246.404 235.565 232.92 235.565 232.92 234.144C234.076 234.092 234.902 234.021 235.397 233.933 235.891 233.844 236.269 233.711 236.529 233.534 236.79 233.357 236.98 233.107 237.1 232.784 237.22 232.461 237.279 231.935 237.279 231.206L237.279 219.909C237.279 219.482 237.199 219.175 237.037 218.987 236.876 218.8 236.654 218.706 236.373 218.706 236.113 218.706 235.746 218.826 235.272 219.065 234.798 219.305 234.019 219.795 232.936 220.534L231.983 218.878Z" fill="#CFDCE6" fill-rule="evenodd"/><text fill="#000000" fill-opacity="0" font-family="Arial,Arial_MSFontService,sans-serif" font-size="21.8281" x="231.983" y="233.087">𝟏𝟔</text><path d="M364.699 185.632C368.98 189.299 372.379 194.768 374.894 202.039 377.41 209.309 378.668 217.424 378.668 226.382 378.668 235.205 377.41 243.307 374.894 250.687 372.379 258.067 368.98 263.58 364.699 267.226L363.965 266.07C367.663 262.309 370.512 256.867 372.512 249.742 374.512 242.617 375.512 234.835 375.512 226.398 375.512 217.763 374.506 209.945 372.496 202.945 370.485 195.945 367.642 190.565 363.965 186.804ZM289.68 185.632 290.415 186.804C286.727 190.565 283.881 195.945 281.876 202.945 279.871 209.945 278.868 217.763 278.868 226.398 278.868 234.835 279.868 242.617 281.868 249.742 283.868 256.867 286.717 262.309 290.415 266.07L289.68 267.226C285.399 263.58 282.001 258.067 279.485 250.687 276.97 243.307 275.712 235.205 275.712 226.382 275.712 217.424 276.97 209.309 279.485 202.039 282.001 194.768 285.399 189.299 289.68 185.632Z" fill="#CFDCE6" fill-rule="evenodd"/><path d="M300.134 189.002 301.04 189.002 300.04 193.033 303.994 191.33 304.556 192.595 299.634 194.658 298.353 199.83 298.54 199.892C299.52 198.59 300.452 197.642 301.337 197.049 302.223 196.455 303.124 196.158 304.04 196.158 305.02 196.158 305.772 196.434 306.298 196.986 306.824 197.538 307.087 198.314 307.087 199.314 307.087 199.97 306.936 200.903 306.634 202.111L305.619 206.205C305.337 207.34 305.197 208.142 305.197 208.611 305.197 209.028 305.264 209.33 305.4 209.517 305.535 209.705 305.749 209.799 306.04 209.799 306.353 209.799 306.686 209.671 307.04 209.416 307.395 209.161 307.895 208.674 308.54 207.955L309.431 208.83C308.587 209.705 307.941 210.314 307.494 210.658 307.046 211.002 306.616 211.244 306.205 211.385 305.793 211.525 305.327 211.595 304.806 211.595 304.129 211.595 303.587 211.353 303.181 210.869 302.775 210.385 302.572 209.767 302.572 209.017 302.572 208.34 302.744 207.345 303.087 206.033L303.775 203.33C304.025 202.351 304.189 201.627 304.267 201.158 304.345 200.689 304.384 200.309 304.384 200.017 304.384 199.288 304.262 198.767 304.017 198.455 303.772 198.142 303.374 197.986 302.822 197.986 302.384 197.986 301.902 198.163 301.376 198.517 300.85 198.872 300.301 199.411 299.728 200.135 299.155 200.858 298.699 201.551 298.361 202.213 298.022 202.874 297.754 203.663 297.556 204.58L296.134 211.345 293.431 211.345 296.931 195.783 294.79 196.705 294.228 195.439 297.29 194.189 297.54 193.08C297.728 192.174 297.822 191.538 297.822 191.174 297.822 190.736 297.689 190.429 297.423 190.252 297.158 190.075 296.681 189.976 295.994 189.955L296.181 189.142Z" fill="#CFDCE6" fill-rule="evenodd"/><text fill="#000000" fill-opacity="0" font-family="Arial,Arial_MSFontService,sans-serif" font-size="22.5938" x="293.431" y="208.771">ℏ</text><path d="M317.108 184.116C318.209 184.116 319.107 184.264 319.803 184.56 320.5 184.856 321.003 185.256 321.314 185.761 321.625 186.267 321.78 186.856 321.78 187.53 321.78 188.122 321.67 188.672 321.449 189.181 321.228 189.69 320.846 190.27 320.303 190.922 319.76 191.573 318.845 192.505 317.557 193.718 317.161 194.093 316.687 194.585 316.137 195.195 315.586 195.805 315.15 196.327 314.828 196.762L314.828 196.874 318.815 196.874C319.302 196.874 319.665 196.838 319.905 196.767 320.144 196.696 320.333 196.573 320.472 196.397 320.61 196.221 320.724 195.957 320.814 195.605L322.106 195.605 321.847 199.625 311.56 199.625 311.56 198.884C312.137 197.559 313.316 195.852 315.098 193.763 315.907 192.812 316.522 192.03 316.945 191.416 317.368 190.802 317.685 190.222 317.894 189.675 318.104 189.129 318.209 188.563 318.209 187.979 318.209 187.156 318.025 186.51 317.658 186.042 317.292 185.574 316.79 185.34 316.154 185.34 314.933 185.34 314.151 186.22 313.806 187.979L311.785 187.979 311.785 185.329C313.005 184.835 313.99 184.509 314.739 184.352 315.487 184.195 316.277 184.116 317.108 184.116Z" fill="#CFDCE6" fill-rule="evenodd"/><text fill="#000000" fill-opacity="0" font-family="Arial,Arial_MSFontService,sans-serif" font-size="15.5093" x="311.56" y="197.687">𝟐</text><path d="M332.341 195.845 347.31 195.845 346.638 198.752 342.81 198.752 341.06 206.22C340.862 207.064 340.763 207.741 340.763 208.252 340.763 208.658 340.831 208.939 340.966 209.095 341.102 209.252 341.294 209.33 341.544 209.33 341.857 209.33 342.185 209.2 342.529 208.939 342.872 208.679 343.279 208.283 343.747 207.752L344.872 208.877C343.956 209.835 343.078 210.528 342.24 210.955 341.401 211.382 340.544 211.595 339.669 211.595 338.638 211.595 337.88 211.335 337.396 210.814 336.911 210.293 336.669 209.465 336.669 208.33 336.669 207.715 336.784 206.898 337.013 205.877L337.154 205.252C337.591 203.293 338.211 201.168 339.013 198.877L338.935 198.752 334.81 198.752 333.466 205.08C332.935 207.601 332.435 209.689 331.966 211.345L327.154 211.345 327.372 210.361C327.945 209.715 328.529 208.661 329.122 207.197 329.716 205.733 330.185 204.231 330.529 202.689L331.404 198.752 331.091 198.752C330.549 198.752 330.104 198.799 329.755 198.892 329.406 198.986 329.06 199.15 328.716 199.385 328.372 199.619 327.956 199.997 327.466 200.517L326.154 199.345C327.018 198.304 327.729 197.549 328.286 197.08 328.844 196.611 329.414 196.288 329.997 196.111 330.581 195.934 331.362 195.845 332.341 195.845Z" fill="#CFDCE6" fill-rule="evenodd"/><text fill="#000000" fill-opacity="0" font-family="Arial,Arial_MSFontService,sans-serif" font-size="15.75" x="326.154" y="209.627">𝝅</text><path d="M354.435 184.116C355.535 184.116 356.434 184.264 357.13 184.56 357.826 184.856 358.33 185.256 358.641 185.761 358.951 186.267 359.107 186.856 359.107 187.53 359.107 188.122 358.996 188.672 358.775 189.181 358.555 189.69 358.173 190.27 357.63 190.922 357.087 191.573 356.172 192.505 354.884 193.718 354.487 194.093 354.014 194.585 353.463 195.195 352.913 195.805 352.477 196.327 352.155 196.762L352.155 196.874 356.142 196.874C356.629 196.874 356.992 196.838 357.231 196.767 357.471 196.696 357.66 196.573 357.798 196.397 357.937 196.221 358.051 195.957 358.141 195.605L359.432 195.605 359.174 199.625 348.887 199.625 348.887 198.884C349.464 197.559 350.643 195.852 352.425 193.763 353.233 192.812 353.849 192.03 354.272 191.416 354.695 190.802 355.011 190.222 355.221 189.675 355.431 189.129 355.535 188.563 355.535 187.979 355.535 187.156 355.352 186.51 354.985 186.042 354.618 185.574 354.117 185.34 353.48 185.34 352.26 185.34 351.477 186.22 351.133 187.979L349.112 187.979 349.112 185.329C350.332 184.835 351.317 184.509 352.065 184.352 352.814 184.195 353.604 184.116 354.435 184.116Z" fill="#CFDCE6" fill-rule="evenodd"/><text fill="#000000" fill-opacity="0" font-family="Arial,Arial_MSFontService,sans-serif" font-size="15.5093" x="348.887" y="197.687">𝟐</text><path d="M318.39 241.222C319.254 241.222 319.945 241.464 320.46 241.949 320.976 242.433 321.234 243.071 321.234 243.863 321.234 244.123 321.202 244.373 321.14 244.613L321.327 244.707C322.275 243.509 323.195 242.628 324.085 242.066 324.976 241.503 326.01 241.222 327.187 241.222 328.228 241.222 329.049 241.509 329.648 242.082 330.247 242.654 330.562 243.446 330.593 244.457 331.458 243.352 332.33 242.537 333.21 242.011 334.09 241.485 335.088 241.222 336.202 241.222 337.254 241.222 338.08 241.519 338.679 242.113 339.278 242.707 339.577 243.535 339.577 244.597 339.577 244.91 339.551 245.29 339.499 245.738 339.447 246.186 339.369 246.613 339.265 247.019L337.999 252.05C337.885 252.488 337.812 252.826 337.78 253.066 337.749 253.305 337.734 253.576 337.734 253.878 337.734 254.285 337.801 254.566 337.937 254.722 338.072 254.878 338.265 254.957 338.515 254.957 338.817 254.957 339.155 254.813 339.53 254.527 339.905 254.24 340.348 253.805 340.859 253.222L341.984 254.347C340.963 255.389 340.049 256.128 339.241 256.566 338.434 257.003 337.546 257.222 336.577 257.222 335.504 257.222 334.708 256.957 334.187 256.425 333.666 255.894 333.405 255.082 333.405 253.988 333.405 253.644 333.442 253.225 333.515 252.73 333.588 252.235 333.692 251.722 333.827 251.191L334.546 248.472C334.713 247.858 334.861 247.209 334.991 246.527 335.122 245.845 335.187 245.316 335.187 244.941 335.187 243.983 334.812 243.503 334.062 243.503 333.614 243.503 333.067 243.79 332.421 244.363 331.775 244.936 331.241 245.563 330.82 246.246 330.398 246.928 330.072 247.832 329.843 248.957L328.124 256.972 323.624 256.972 325.905 247.035C326.02 246.555 326.098 246.162 326.14 245.855 326.182 245.548 326.202 245.279 326.202 245.05 326.202 244.509 326.109 244.115 325.921 243.871 325.734 243.626 325.437 243.503 325.03 243.503 324.551 243.503 323.986 243.8 323.335 244.394 322.684 244.988 322.158 245.613 321.757 246.269 321.356 246.925 321.036 247.821 320.796 248.957L319.046 256.972 314.562 256.972 317.077 246.113C317.234 245.436 317.312 244.92 317.312 244.566 317.312 244.222 317.254 243.957 317.14 243.769 317.025 243.582 316.827 243.488 316.546 243.488 316.223 243.488 315.874 243.634 315.499 243.925 315.124 244.217 314.687 244.649 314.187 245.222L313.062 244.097C314.103 243.035 315.028 242.29 315.835 241.863 316.642 241.436 317.494 241.222 318.39 241.222ZM347.874 235.644 355.734 235.644 355.515 236.675C354.921 236.842 354.484 237.134 354.202 237.55 353.921 237.967 353.655 238.738 353.405 239.863L350.03 255.113 352.984 255.113C353.494 255.113 353.89 255.071 354.171 254.988 354.452 254.904 354.708 254.774 354.937 254.597 355.166 254.42 355.419 254.175 355.695 253.863 355.971 253.55 356.244 253.144 356.515 252.644 356.786 252.144 357.062 251.519 357.343 250.769L359.468 250.769 357.874 256.972 343.577 256.972 343.796 255.941C344.39 255.774 344.827 255.483 345.109 255.066 345.39 254.649 345.655 253.878 345.905 252.753L348.749 239.863C348.885 239.248 348.952 238.639 348.952 238.035 348.952 237.597 348.851 237.277 348.648 237.074 348.445 236.871 348.114 236.738 347.655 236.675ZM303.187 235.394C304.718 235.394 305.968 235.6 306.937 236.011 307.905 236.423 308.606 236.98 309.038 237.683 309.471 238.386 309.687 239.207 309.687 240.144 309.687 240.967 309.533 241.733 309.226 242.441 308.919 243.149 308.387 243.957 307.632 244.863 306.877 245.769 305.603 247.066 303.812 248.753 303.26 249.274 302.601 249.959 301.835 250.808 301.07 251.657 300.463 252.384 300.015 252.988L300.015 253.144 305.562 253.144C306.239 253.144 306.744 253.095 307.077 252.996 307.411 252.897 307.674 252.725 307.866 252.48 308.059 252.235 308.218 251.868 308.343 251.378L310.14 251.378 309.78 256.972 295.468 256.972 295.468 255.941C296.27 254.097 297.911 251.722 300.39 248.816 301.515 247.493 302.372 246.404 302.96 245.55 303.549 244.696 303.989 243.889 304.28 243.128 304.572 242.368 304.718 241.582 304.718 240.769 304.718 239.623 304.463 238.725 303.952 238.074 303.442 237.423 302.744 237.097 301.859 237.097 300.161 237.097 299.072 238.321 298.593 240.769L295.78 240.769 295.78 237.082C297.478 236.394 298.848 235.941 299.89 235.722 300.932 235.503 302.03 235.394 303.187 235.394Z" fill="#CFDCE6" fill-rule="evenodd"/><text fill="#000000" fill-opacity="0" font-family="Arial,Arial_MSFontService,sans-serif" font-size="21.8281" x="295.468" y="254.494">𝟐𝒎𝑳</text><path d="M291.06 225.565 362.06 225.565 362.06 227.565 291.06 227.565Z" fill="#CFDCE6" fill-rule="evenodd"/><path d="M1032.99 629.874C1034.65 629.874 1035.92 630.124 1036.8 630.624 1037.67 631.124 1038.39 631.994 1038.95 633.234 1039.52 634.473 1040.05 636.457 1040.55 639.187L1040.86 639.187C1042.4 637.02 1043.6 635.39 1044.45 634.296 1045.31 633.202 1046.1 632.327 1046.83 631.671 1047.56 631.015 1048.27 630.551 1048.95 630.28 1049.64 630.01 1050.45 629.874 1051.39 629.874 1052.43 629.874 1053.49 630.062 1054.55 630.437L1053.08 637.187 1050.27 637.187C1050.16 636.312 1049.78 635.874 1049.11 635.874 1048.82 635.874 1048.51 635.947 1048.19 636.093 1047.87 636.239 1047.44 636.567 1046.91 637.077 1046.38 637.588 1045.72 638.327 1044.92 639.296 1044.13 640.265 1042.94 641.739 1041.36 643.718 1042.09 648.114 1042.69 651.265 1043.16 653.171 1043.63 655.077 1044.11 656.312 1044.61 656.874 1044.9 657.187 1045.26 657.343 1045.67 657.343 1046.19 657.343 1046.68 657.14 1047.13 656.734 1047.57 656.327 1048.15 655.416 1048.86 653.999L1051.7 655.312C1050.5 657.52 1049.13 659.166 1047.6 660.249 1046.06 661.332 1044.27 661.874 1042.2 661.874 1040.93 661.874 1039.92 661.713 1039.16 661.39 1038.4 661.067 1037.75 660.53 1037.22 659.78 1036.69 659.03 1036.22 657.973 1035.81 656.609 1035.41 655.244 1035.03 653.457 1034.67 651.249L1034.36 651.249C1032.59 653.791 1031.17 655.728 1030.11 657.062 1029.05 658.395 1028.14 659.395 1027.38 660.062 1026.62 660.728 1025.89 661.197 1025.19 661.468 1024.49 661.739 1023.65 661.874 1022.67 661.874 1022.22 661.874 1021.66 661.817 1021 661.702 1020.35 661.588 1019.85 661.468 1019.52 661.343L1020.99 654.562 1023.8 654.562C1023.82 654.999 1023.93 655.327 1024.13 655.546 1024.32 655.765 1024.58 655.874 1024.89 655.874 1025.27 655.874 1025.62 655.796 1025.94 655.64 1026.26 655.484 1026.71 655.135 1027.28 654.593 1027.86 654.051 1028.58 653.254 1029.45 652.202 1030.33 651.15 1031.81 649.301 1033.89 646.655 1033.45 644.197 1033.04 642.077 1032.66 640.296 1032.27 638.515 1031.92 637.223 1031.61 636.421 1031.3 635.619 1031 635.082 1030.72 634.812 1030.44 634.541 1030.12 634.405 1029.77 634.405 1029.35 634.405 1028.99 634.515 1028.67 634.734 1028.36 634.952 1028.03 635.306 1027.69 635.796 1027.35 636.286 1026.98 636.937 1026.58 637.749L1023.74 636.437C1024.94 634.228 1026.3 632.582 1027.81 631.499 1029.32 630.416 1031.05 629.874 1032.99 629.874Z" fill="#CFDCE6" fill-rule="evenodd"/><text fill="#000000" fill-opacity="0" font-family="Arial,Arial_MSFontService,sans-serif" font-size="32" x="1019.52" y="657.874">𝒙</text><path d="M367.586 16.058 397.929 16.058 395.711 26.1205 391.711 26.1205C391.606 24.1413 391.419 22.7559 391.148 21.9642 390.877 21.1726 390.461 20.5996 389.898 20.2455 389.336 19.8913 388.544 19.7142 387.523 19.7142L379.679 19.7142 376.367 34.7142 380.711 34.7142C381.544 34.7142 382.247 34.5788 382.82 34.308 383.393 34.0371 383.924 33.584 384.414 32.9486 384.903 32.3132 385.388 31.433 385.867 30.308L389.304 30.308 386.304 42.9955 383.086 42.9955C383.086 41.7871 383.013 40.8601 382.867 40.2142 382.721 39.5684 382.45 39.0996 382.054 38.808 381.658 38.5163 380.981 38.3705 380.023 38.3705L375.586 38.3705 371.898 55.058 378.929 55.058C379.846 55.058 380.559 54.9955 381.07 54.8705 381.58 54.7455 382.049 54.5476 382.476 54.2767 382.903 54.0059 383.398 53.5736 383.961 52.9799 384.523 52.3861 385.08 51.6361 385.632 50.7299 386.184 49.8236 386.752 48.7351 387.336 47.4642L391.586 47.4642 388.711 58.7142 358.992 58.7142 359.429 56.6517C360.617 56.3184 361.492 55.7351 362.054 54.9017 362.617 54.0684 363.148 52.5267 363.648 50.2767L369.336 24.4955C369.606 23.2663 369.742 22.0476 369.742 20.8392 369.742 19.9642 369.539 19.3236 369.132 18.9174 368.726 18.5111 368.065 18.2455 367.148 18.1205Z" fill="#CFDCE6" fill-rule="evenodd"/><text fill="#000000" fill-opacity="0" font-family="Arial,Arial_MSFontService,sans-serif" font-size="42.6562" x="358.992" y="53.3822">𝑬</text><path d="M253.277 154.446 253.277 159.674 247.273 159.674 247.273 154.446ZM253.277 141.765 253.277 146.993 247.273 146.993 247.273 141.765ZM253.277 129.085 253.277 134.312 247.273 134.312 247.273 129.085Z" fill="#CFDCE6" fill-rule="evenodd"/><text fill="#000000" fill-opacity="0" font-family="Arial,Arial_MSFontService,sans-serif" font-size="30.5889" x="247.273" y="155.85">…</text><path d="M262.699 82.8799C261.574 82.8799 260.533 83.1299 259.574 83.6299 258.616 84.1299 257.725 84.8226 256.902 85.708 256.08 86.5934 255.319 87.6507 254.621 88.8799 253.923 90.1091 253.262 91.4528 252.637 92.9111 253.116 93.9736 253.668 95.0049 254.293 96.0049 254.918 97.0049 255.632 97.8955 256.434 98.6768 257.236 99.458 258.137 100.083 259.137 100.552 260.137 101.021 261.251 101.255 262.481 101.255 263.668 101.255 264.731 101 265.668 100.489 266.606 99.9789 267.402 99.2705 268.059 98.3643 268.715 97.458 269.215 96.3903 269.559 95.1611 269.902 93.932 270.074 92.5882 270.074 91.1299 270.074 89.9841 269.928 88.9059 269.637 87.8955 269.345 86.8851 268.897 86.0101 268.293 85.2705 267.689 84.5309 266.923 83.9476 265.996 83.5205 265.069 83.0934 263.97 82.8799 262.699 82.8799ZM238.762 81.9736C237.72 81.9736 236.715 82.1559 235.746 82.5205 234.777 82.8851 233.923 83.4424 233.184 84.1924 232.444 84.9424 231.856 85.8955 231.418 87.0518 230.981 88.208 230.762 89.5674 230.762 91.1299 230.762 92.4424 230.923 93.6611 231.246 94.7861 231.569 95.9111 232.059 96.8851 232.715 97.708 233.371 98.5309 234.184 99.1768 235.152 99.6455 236.121 100.114 237.262 100.349 238.574 100.349 239.658 100.349 240.632 100.114 241.496 99.6455 242.361 99.1768 243.184 98.4997 243.965 97.6143 244.746 96.7289 245.512 95.6403 246.262 94.3486 247.012 93.057 247.824 91.5778 248.699 89.9111 247.47 87.0986 246.007 85.0726 244.309 83.833 242.611 82.5934 240.762 81.9736 238.762 81.9736ZM238.387 78.7861C239.72 78.7861 240.955 78.9997 242.09 79.4268 243.225 79.8539 244.272 80.4528 245.231 81.2236 246.189 81.9945 247.064 82.9164 247.856 83.9893 248.647 85.0622 249.376 86.2445 250.043 87.5361 250.918 85.7861 251.856 84.3434 252.856 83.208 253.856 82.0726 254.897 81.1768 255.981 80.5205 257.064 79.8643 258.184 79.4111 259.34 79.1611 260.496 78.9111 261.668 78.7861 262.856 78.7861 264.564 78.7861 266.111 79.1195 267.496 79.7861 268.882 80.4528 270.059 81.3643 271.027 82.5205 271.996 83.6768 272.741 85.0205 273.262 86.5518 273.783 88.083 274.043 89.7028 274.043 91.4111 274.043 93.2653 273.772 94.9841 273.231 96.5674 272.689 98.1507 271.918 99.5257 270.918 100.692 269.918 101.859 268.699 102.776 267.262 103.442 265.824 104.109 264.21 104.442 262.418 104.442 261.085 104.442 259.871 104.198 258.777 103.708 257.684 103.218 256.684 102.562 255.777 101.739 254.871 100.916 254.043 99.9476 253.293 98.833 252.543 97.7184 251.856 96.5361 251.231 95.2861 250.397 96.9528 249.501 98.3591 248.543 99.5049 247.585 100.651 246.59 101.588 245.559 102.317 244.527 103.047 243.47 103.573 242.387 103.896 241.304 104.218 240.22 104.38 239.137 104.38 237.033 104.38 235.21 104.021 233.668 103.302 232.126 102.583 230.845 101.625 229.824 100.427 228.804 99.2289 228.043 97.8486 227.543 96.2861 227.043 94.7236 226.793 93.0986 226.793 91.4111 226.793 89.5986 227.064 87.9216 227.606 86.3799 228.147 84.8382 228.918 83.5049 229.918 82.3799 230.918 81.2549 232.132 80.3747 233.559 79.7393 234.986 79.1039 236.595 78.7861 238.387 78.7861Z" fill="#CFDCE6" fill-rule="evenodd"/><text fill="#000000" fill-opacity="0" font-family="Arial,Arial_MSFontService,sans-serif" font-size="25.6562" x="226.793" y="101.235">∞</text><path d="M411.436 665.76C409.957 665.76 408.79 666.411 407.936 667.713 407.082 669.015 406.467 670.953 406.092 673.526 405.717 676.099 405.529 679.448 405.529 683.573 405.529 688.156 405.733 691.802 406.139 694.51 406.545 697.218 407.186 699.213 408.061 700.494 408.936 701.776 410.102 702.416 411.561 702.416 412.352 702.416 413.045 702.224 413.639 701.838 414.233 701.453 414.764 700.849 415.233 700.026 415.701 699.203 416.102 698.109 416.436 696.744 416.769 695.38 417.009 693.682 417.154 691.651 417.3 689.619 417.373 687.354 417.373 684.854 417.373 681.125 417.233 677.989 416.951 675.448 416.67 672.906 416.269 670.948 415.748 669.573 415.227 668.198 414.613 667.218 413.904 666.635 413.196 666.052 412.373 665.76 411.436 665.76ZM411.623 662.26C416.748 662.26 420.571 664.005 423.092 667.494 425.613 670.984 426.873 676.323 426.873 683.51 426.873 690.885 425.535 696.463 422.858 700.244 420.18 704.026 416.248 705.916 411.061 705.916 405.936 705.916 402.149 704.14 399.701 700.588 397.253 697.036 396.029 691.666 396.029 684.479 396.029 677.27 397.394 671.765 400.123 667.963 402.852 664.161 406.686 662.26 411.623 662.26Z" fill="#CFDCE6" fill-rule="evenodd"/><text fill="#000000" fill-opacity="0" font-family="Arial,Arial_MSFontService,sans-serif" font-size="43.6562" x="396.029" y="700.459">𝟎</text><path d="M826.754 662.76 842.473 662.76 842.035 664.823C840.848 665.156 839.973 665.739 839.41 666.573 838.848 667.406 838.317 668.948 837.817 671.198L831.067 701.698 836.973 701.698C837.994 701.698 838.785 701.614 839.348 701.448 839.91 701.281 840.421 701.02 840.879 700.666 841.337 700.312 841.843 699.823 842.395 699.198 842.947 698.573 843.494 697.76 844.035 696.76 844.577 695.76 845.129 694.51 845.692 693.01L849.942 693.01 846.754 705.416 818.16 705.416 818.598 703.354C819.785 703.02 820.66 702.437 821.223 701.604 821.785 700.77 822.317 699.229 822.817 696.979L828.504 671.198C828.775 669.968 828.91 668.75 828.91 667.541 828.91 666.666 828.707 666.026 828.301 665.619 827.895 665.213 827.233 664.948 826.317 664.823Z" fill="#CFDCE6" fill-rule="evenodd"/><text fill="#000000" fill-opacity="0" font-family="Arial,Arial_MSFontService,sans-serif" font-size="42.6562" x="818.16" y="700.084">𝑳</text><path d="M2 342C2 328.193 13.1929 317 27 317 40.8071 317 52 328.193 52 342 52 355.807 40.8071 367 27 367 13.1929 367 2 355.807 2 342Z" fill="#03111A" fill-rule="evenodd"/><path d="M1225 317C1225 303.193 1236.42 292 1250.5 292 1264.58 292 1276 303.193 1276 317 1276 330.807 1264.58 342 1250.5 342 1236.42 342 1225 330.807 1225 317Z" fill="#03111A" fill-rule="evenodd"/><path d="M461 601 834.632 601" stroke="#CFDCE6" stroke-width="8" stroke-miterlimit="8" fill="none" fill-rule="evenodd"/><path d="M452 523 827.884 523" stroke="#CFDCE6" stroke-width="8" stroke-miterlimit="8" fill="none" fill-rule="evenodd"/><path d="M454 396 836.94 396" stroke="#CFDCE6" stroke-width="8" stroke-miterlimit="8" fill="none" fill-rule="evenodd"/><path d="M457 217 839.94 217" stroke="#CFDCE6" stroke-width="8" stroke-miterlimit="8" fill="none" fill-rule="evenodd"/></g></svg>