<svg width="1265" height="440" xmlns="http://www.w3.org/2000/svg" xmlns:xlink="http://www.w3.org/1999/xlink" overflow="hidden"><defs><clipPath id="clip0"><rect x="8" y="103" width="1265" height="440"/></clipPath></defs><g clip-path="url(#clip0)" transform="translate(-8 -103)"><rect x="12" y="374.25" width="468.75" height="102.75" fill="#406680"/><path d="M480.75 374.25 515 340 515 442.75 480.75 477Z" fill="#335267" fill-rule="evenodd"/><path d="M12 374.25 46.2501 340 515 340 480.75 374.25Z" fill="#658499" fill-rule="evenodd"/><path d="M12 374.25 46.2501 340 515 340 515 442.75 480.75 477 12 477ZM12 374.25 480.75 374.25 515 340M480.75 374.25 480.75 477" stroke="#CFDCE6" stroke-width="8" stroke-miterlimit="8" fill="none" fill-rule="evenodd"/><rect x="12" y="270" width="138" height="102" fill="#8FACBF"/><path d="M150 270 184 236 184 338 150 372Z" fill="#738A9A" fill-rule="evenodd"/><path d="M12 270 45.9999 236 184 236 150 270Z" fill="#A5BCCC" fill-rule="evenodd"/><path d="M12 270 45.9999 236 184 236 184 338 150 372 12 372ZM12 270 150 270 184 236M150 270 150 372" stroke="#CFDCE6" stroke-width="8" stroke-miterlimit="8" fill="none" fill-rule="evenodd"/><rect x="140" y="270" width="211" height="102" fill="#406680"/><path d="M351 270 385 236 385 338 351 372Z" fill="#335267" fill-rule="evenodd"/><path d="M140 270 174 236 385 236 351 270Z" fill="#658499" fill-rule="evenodd"/><path d="M140 270 174 236 385 236 385 338 351 372 140 372ZM140 270 351 270 385 236M351 270 351 372" stroke="#CFDCE6" stroke-width="8" stroke-miterlimit="8" fill="none" fill-rule="evenodd"/><rect x="343" y="270" width="138" height="102" fill="#8FACBF"/><path d="M481 270 515 236 515 338 481 372Z" fill="#738A9A" fill-rule="evenodd"/><path d="M343 270 377 236 515 236 481 270Z" fill="#A5BCCC" fill-rule="evenodd"/><path d="M343 270 377 236 515 236 515 338 481 372 343 372ZM343 270 481 270 515 236M481 270 481 372" stroke="#CFDCE6" stroke-width="8" stroke-miterlimit="8" fill="none" fill-rule="evenodd"/><path d="M0 0 194.116 0.670656" stroke="#406680" stroke-width="13.3333" stroke-miterlimit="8" fill="none" fill-rule="evenodd" transform="matrix(-1 0 0 1 338.616 372.5)"/><rect x="107" y="240.671" width="282.329" height="27.3291" fill="#0A2333"/><path d="M389.329 240.671 420 210 420 237.329 389.329 268Z" fill="#081C29" fill-rule="evenodd"/><path d="M107 240.671 137.671 210 420 210 389.329 240.671Z" fill="#3A4E5B" fill-rule="evenodd"/><path d="M107 240.671 137.671 210 420 210 420 237.329 389.329 268 107 268ZM107 240.671 389.329 240.671 420 210M389.329 240.671 389.329 268" stroke="#CFDCE6" stroke-width="8" stroke-miterlimit="8" fill="none" fill-rule="evenodd"/><rect x="107" y="151.25" width="283.75" height="87.75" fill="#406680"/><path d="M390.75 151.25 420 122 420 209.75 390.75 239Z" fill="#335267" fill-rule="evenodd"/><path d="M107 151.25 136.25 122 420 122 390.75 151.25Z" fill="#658499" fill-rule="evenodd"/><path d="M107 151.25 136.25 122 420 122 420 209.75 390.75 239 107 239ZM107 151.25 390.75 151.25 420 122M390.75 151.25 390.75 239" stroke="#CFDCE6" stroke-width="8" stroke-miterlimit="8" fill="none" fill-rule="evenodd"/><text fill="#CFDCE6" font-family="Arial,Arial_MSFontService,sans-serif" font-weight="700" font-size="64" transform="translate(231.568 411)">p<tspan fill="#03111A" font-size="64" x="-173.567" y="-72">n</tspan><tspan fill="#03111A" font-size="64" x="163.311" y="-70">n</tspan></text><path d="M553 299 652 299 652 268 714 330 652 392 652 361 553 361Z" stroke="#CFDCE6" stroke-width="8" stroke-miterlimit="8" fill="none" fill-rule="evenodd"/><path d="M752 136.804C752 120.344 765.344 107 781.804 107L1238.2 107C1254.66 107 1268 120.344 1268 136.804L1268 447.196C1268 463.656 1254.66 477 1238.2 477L781.804 477C765.344 477 752 463.656 752 447.196Z" stroke="#CFDCE6" stroke-width="8" stroke-miterlimit="8" fill="none" fill-rule="evenodd"/><path d="M791 155.582C791 140.901 802.901 129 817.582 129L1205.42 129C1220.1 129 1232 140.901 1232 155.582L1232 432.418C1232 447.099 1220.1 459 1205.42 459L817.582 459C802.901 459 791 447.099 791 432.418Z" stroke="#CFDCE6" stroke-width="8" stroke-miterlimit="8" fill="none" fill-rule="evenodd"/><path d="M959 477 959 499.857" stroke="#CFDCE6" stroke-width="8" stroke-miterlimit="8" fill="none" fill-rule="evenodd"/><path d="M1060 477 1060 499.857" stroke="#CFDCE6" stroke-width="8" stroke-miterlimit="8" fill="none" fill-rule="evenodd"/><path d="M863 500 1159 500C1169.49 500 1178 508.507 1178 519L1178 538 844 538 844 519C844 508.507 852.507 500 863 500Z" stroke="#CFDCE6" stroke-width="8" stroke-miterlimit="8" fill="none" fill-rule="evenodd"/><rect x="844" y="165" width="329" height="57" stroke="#CFDCE6" stroke-width="8" stroke-miterlimit="8" fill="none"/><text fill="#CFDCE6" font-family="Arial,Arial_MSFontService,sans-serif" font-weight="700" font-size="43" transform="translate(853.703 207)">selec<tspan font-size="43" x="106.5" y="0">t</tspan></text><rect x="844" y="222" width="328" height="198" stroke="#CFDCE6" stroke-width="8" stroke-miterlimit="8" fill="none"/><rect x="847" y="229" width="318" height="55" stroke="#CFDCE6" stroke-width="8" stroke-miterlimit="8" fill="#CFDCE6"/><text fill="#03111A" font-family="Arial,Arial_MSFontService,sans-serif" font-weight="700" font-size="43" transform="translate(857.618 268)">option 1<tspan fill="#CFDCE6" font-size="43" x="-0.888306" y="63">option </tspan><tspan fill="#CFDCE6" font-size="43" x="140.945" y="63">2</tspan><tspan fill="#CFDCE6" font-size="43" x="0" y="122">o</tspan><tspan fill="#CFDCE6" font-size="43" x="26" y="122">ption 3</tspan></text><rect x="1112" y="165" width="61" height="57" stroke="#CFDCE6" stroke-width="8" stroke-miterlimit="8" fill="none"/><path d="M1153 186 1142.5 203 1132 186Z" stroke="#CFDCE6" stroke-width="8" stroke-miterlimit="8" fill="#CFDCE6" fill-rule="evenodd"/><path d="M1114.52 327.645 1102.79 309.489 1091.37 316.864 1086.8 273.546 1124.41 295.52 1113 302.895 1124.73 321.05Z" stroke="#406680" stroke-width="8" stroke-miterlimit="8" fill="#CFDCE6" fill-rule="evenodd"/></g></svg>