<svg width="1274" height="521" xmlns="http://www.w3.org/2000/svg" xmlns:xlink="http://www.w3.org/1999/xlink" overflow="hidden"><defs><clipPath id="clip0"><rect x="643" y="48" width="1274" height="521"/></clipPath></defs><g clip-path="url(#clip0)" transform="translate(-643 -48)"><rect x="1029" y="461.25" width="467.75" height="102.75" fill="#406680"/><path d="M1496.75 461.25 1531 427 1531 529.75 1496.75 564Z" fill="#335267" fill-rule="evenodd"/><path d="M1029 461.25 1063.25 427 1531 427 1496.75 461.25Z" fill="#658499" fill-rule="evenodd"/><path d="M1029 461.25 1063.25 427 1531 427 1531 529.75 1496.75 564 1029 564ZM1029 461.25 1496.75 461.25 1531 427M1496.75 461.25 1496.75 564" stroke="#CFDCE6" stroke-width="8" stroke-miterlimit="8" fill="none" fill-rule="evenodd"/><rect x="1029" y="357" width="138" height="102" fill="#8FACBF"/><path d="M1167 357 1201 323 1201 425 1167 459Z" fill="#738A9A" fill-rule="evenodd"/><path d="M1029 357 1063 323 1201 323 1167 357Z" fill="#A5BCCC" fill-rule="evenodd"/><path d="M1029 357 1063 323 1201 323 1201 425 1167 459 1029 459ZM1029 357 1167 357 1201 323M1167 357 1167 459" stroke="#CFDCE6" stroke-width="8" stroke-miterlimit="8" fill="none" fill-rule="evenodd"/><rect x="1157" y="357" width="211" height="102" fill="#406680"/><path d="M1368 357 1402 323 1402 425 1368 459Z" fill="#335267" fill-rule="evenodd"/><path d="M1157 357 1191 323 1402 323 1368 357Z" fill="#658499" fill-rule="evenodd"/><path d="M1157 357 1191 323 1402 323 1402 425 1368 459 1157 459ZM1157 357 1368 357 1402 323M1368 357 1368 459" stroke="#CFDCE6" stroke-width="8" stroke-miterlimit="8" fill="none" fill-rule="evenodd"/><rect x="1359" y="357" width="138" height="102" fill="#8FACBF"/><path d="M1497 357 1531 323 1531 425 1497 459Z" fill="#738A9A" fill-rule="evenodd"/><path d="M1359 357 1393 323 1531 323 1497 357Z" fill="#A5BCCC" fill-rule="evenodd"/><path d="M1359 357 1393 323 1531 323 1531 425 1497 459 1359 459ZM1359 357 1497 357 1531 323M1497 357 1497 459" stroke="#CFDCE6" stroke-width="8" stroke-miterlimit="8" fill="none" fill-rule="evenodd"/><path d="M0 0 194.116 0.670656" stroke="#406680" stroke-width="13.3333" stroke-miterlimit="8" fill="none" fill-rule="evenodd" transform="matrix(-1 0 0 1 1354.62 459.5)"/><rect x="1123" y="327.671" width="283.329" height="27.3289" fill="#0A2333"/><path d="M1406.33 327.671 1437 297 1437 324.329 1406.33 355Z" fill="#081C29" fill-rule="evenodd"/><path d="M1123 327.671 1153.67 297 1437 297 1406.33 327.671Z" fill="#3A4E5B" fill-rule="evenodd"/><path d="M1123 327.671 1153.67 297 1437 297 1437 324.329 1406.33 355 1123 355ZM1123 327.671 1406.33 327.671 1437 297M1406.33 327.671 1406.33 355" stroke="#CFDCE6" stroke-width="8" stroke-miterlimit="8" fill="none" fill-rule="evenodd"/><rect x="1123" y="238.25" width="284.75" height="87.7499" fill="#406680"/><path d="M1407.75 238.25 1437 209 1437 296.75 1407.75 326Z" fill="#335267" fill-rule="evenodd"/><path d="M1123 238.25 1152.25 209 1437 209 1407.75 238.25Z" fill="#658499" fill-rule="evenodd"/><path d="M1123 238.25 1152.25 209 1437 209 1437 296.75 1407.75 326 1123 326ZM1123 238.25 1407.75 238.25 1437 209M1407.75 238.25 1407.75 326" stroke="#CFDCE6" stroke-width="8" stroke-miterlimit="8" fill="none" fill-rule="evenodd"/><path d="M0 0 107.235 1.06572" stroke="#CFDCE6" stroke-width="8" stroke-miterlimit="8" fill="none" fill-rule="evenodd" transform="matrix(-1 0 0 1 1030.23 392)"/><path d="M1280 224.878 1280 145" stroke="#CFDCE6" stroke-width="8" stroke-miterlimit="8" fill="none" fill-rule="evenodd"/><path d="M1514 391 1630.18 391" stroke="#CFDCE6" stroke-width="8" stroke-miterlimit="8" fill="none" fill-rule="evenodd"/><path d="M875.595 368.969C877.678 368.969 879.595 369.078 881.345 369.297 883.095 369.516 884.897 369.906 886.751 370.469L884.845 379.375 880.751 379.375C880.73 377.042 880.272 375.333 879.376 374.25 878.48 373.167 877.033 372.625 875.033 372.625 872.845 372.625 871.116 373.214 869.845 374.391 868.574 375.568 867.939 377.188 867.939 379.25 867.939 380.708 868.444 382.089 869.454 383.391 870.465 384.693 871.991 386.083 874.033 387.563 875.887 388.938 877.314 390.172 878.314 391.266 879.314 392.36 880.064 393.521 880.564 394.75 881.064 395.979 881.314 397.386 881.314 398.969 881.314 400.865 880.897 402.693 880.064 404.453 879.23 406.214 878.059 407.708 876.548 408.938 875.038 410.167 873.335 411.089 871.439 411.703 869.543 412.318 867.033 412.625 863.908 412.625 861.991 412.625 859.986 412.458 857.892 412.125 855.798 411.792 853.783 411.323 851.845 410.719L853.783 401.719 857.876 401.719C857.939 403.552 858.22 404.995 858.72 406.047 859.22 407.099 859.928 407.849 860.845 408.297 861.762 408.745 862.97 408.969 864.47 408.969 866.741 408.969 868.533 408.318 869.845 407.016 871.158 405.714 871.814 403.896 871.814 401.563 871.814 400.354 871.605 399.287 871.189 398.36 870.772 397.432 870.131 396.531 869.267 395.656 868.402 394.781 866.908 393.563 864.783 392 862.803 390.542 861.309 388.927 860.298 387.156 859.288 385.386 858.783 383.531 858.783 381.594 858.783 379.948 859.137 378.333 859.845 376.75 860.553 375.167 861.6 373.787 862.986 372.61 864.371 371.432 866.116 370.531 868.22 369.906 870.324 369.281 872.783 368.969 875.595 368.969Z" fill="#CFDCE6" fill-rule="evenodd"/><text fill="#000000" fill-opacity="0" font-family="Arial,Arial_MSFontService,sans-serif" font-size="43.6562" x="851.845" y="407.168">𝑺</text><path d="M1691.18 374.035C1690.14 374.035 1689.34 374.056 1688.77 374.097L1681.05 409.222C1682.01 409.306 1682.78 409.347 1683.37 409.347 1686.05 409.347 1688.37 408.816 1690.32 407.754 1692.27 406.691 1694 405.071 1695.51 402.894 1697.02 400.717 1698.21 398.061 1699.07 394.925 1699.93 391.79 1700.37 388.639 1700.37 385.472 1700.37 383.326 1700.13 381.524 1699.65 380.066 1699.17 378.608 1698.51 377.431 1697.66 376.535 1696.82 375.639 1695.84 374.998 1694.73 374.613 1693.61 374.227 1692.43 374.035 1691.18 374.035ZM1676.71 370.379 1689.37 370.379C1692.8 370.379 1695.55 370.566 1697.62 370.941 1699.49 371.274 1701.21 371.847 1702.76 372.66 1704.31 373.472 1705.53 374.368 1706.43 375.347 1707.57 376.556 1708.48 378.071 1709.13 379.894 1709.79 381.717 1710.12 383.858 1710.12 386.316 1710.12 389.087 1709.8 391.743 1709.18 394.285 1708.55 396.826 1707.63 399.175 1706.41 401.332 1705.19 403.488 1703.74 405.342 1702.04 406.894 1700.34 408.446 1698.64 409.655 1696.93 410.519 1695.22 411.384 1693.29 412.019 1691.15 412.425 1689 412.832 1686.46 413.035 1683.52 413.035L1668.12 413.035 1668.55 410.972C1669.74 410.639 1670.62 410.056 1671.18 409.222 1671.74 408.389 1672.27 406.847 1672.77 404.597L1678.46 378.816C1678.73 377.587 1678.87 376.368 1678.87 375.16 1678.87 374.285 1678.66 373.644 1678.26 373.238 1677.85 372.832 1677.19 372.566 1676.27 372.441Z" fill="#CFDCE6" fill-rule="evenodd"/><text fill="#000000" fill-opacity="0" font-family="Arial,Arial_MSFontService,sans-serif" font-size="42.6562" x="1668.12" y="407.703">𝑫</text><path d="M1260.59 476.371C1259.21 476.371 1257.81 477.043 1256.38 478.386 1254.96 479.73 1253.82 481.287 1252.96 483.058 1252.11 484.829 1251.33 487.329 1250.62 490.558L1250.37 491.715C1250.04 493.256 1249.87 494.767 1249.87 496.246 1249.87 497.767 1250.12 498.86 1250.63 499.527 1251.14 500.194 1252 500.527 1253.21 500.527 1254.25 500.527 1255.2 500.293 1256.06 499.824 1256.91 499.355 1257.72 498.59 1258.48 497.527 1259.24 496.465 1259.98 495.095 1260.7 493.418 1261.42 491.741 1262.04 489.735 1262.56 487.402 1263.08 485.069 1263.34 482.902 1263.34 480.902 1263.34 479.36 1263.11 478.22 1262.67 477.48 1262.22 476.741 1261.52 476.371 1260.59 476.371ZM1246.81 471.777C1248.54 471.777 1249.92 472.261 1250.95 473.23 1251.98 474.199 1252.49 475.475 1252.49 477.058 1252.49 477.579 1252.43 478.079 1252.31 478.558L1252.62 478.808C1254.54 476.371 1256.39 474.59 1258.18 473.465 1259.97 472.34 1262.05 471.777 1264.4 471.777 1266.75 471.777 1268.58 472.631 1269.88 474.34 1271.19 476.048 1271.84 478.517 1271.84 481.746 1271.84 484.558 1271.43 487.35 1270.62 490.121 1269.81 492.892 1268.64 495.282 1267.12 497.293 1265.6 499.303 1263.69 500.886 1261.38 502.043 1259.08 503.199 1256.48 503.777 1253.59 503.777 1251.73 503.777 1249.94 503.454 1248.21 502.808L1247.02 508.371C1246.84 509.287 1246.7 510.001 1246.62 510.511 1246.54 511.022 1246.49 511.496 1246.49 511.933 1246.49 512.829 1246.73 513.475 1247.2 513.871 1247.67 514.267 1248.47 514.527 1249.62 514.652L1249.27 516.715 1236.27 516.715 1244.18 481.558C1244.49 480.162 1244.65 479.131 1244.65 478.465 1244.65 477.777 1244.54 477.246 1244.31 476.871 1244.08 476.496 1243.68 476.308 1243.12 476.308 1242.47 476.308 1241.77 476.6 1241.02 477.183 1240.27 477.767 1239.4 478.631 1238.4 479.777L1236.15 477.527C1238.23 475.402 1240.08 473.912 1241.7 473.058 1243.31 472.204 1245.01 471.777 1246.81 471.777Z" fill="#CFDCE6" fill-rule="evenodd"/><text fill="#000000" fill-opacity="0" font-family="Arial,Arial_MSFontService,sans-serif" font-size="44.9375" x="1236.15" y="511.097">𝒑</text><path d="M1082.7 387.883C1084.43 387.883 1085.81 388.367 1086.84 389.336 1087.87 390.305 1088.39 391.581 1088.39 393.164 1088.39 393.685 1088.33 394.185 1088.2 394.664L1088.51 394.914C1090.47 392.477 1092.33 390.695 1094.09 389.57 1095.85 388.445 1097.91 387.883 1100.26 387.883 1102.41 387.883 1104.09 388.487 1105.31 389.695 1106.53 390.904 1107.14 392.55 1107.14 394.633 1107.14 395.3 1107.07 396.133 1106.94 397.133 1106.8 398.133 1106.64 399.018 1106.45 399.789L1103.98 409.539C1103.63 410.935 1103.45 412.154 1103.45 413.195 1103.45 414.008 1103.59 414.57 1103.86 414.883 1104.13 415.195 1104.51 415.352 1105.01 415.352 1105.62 415.352 1106.29 415.065 1107.04 414.492 1107.79 413.919 1108.68 413.05 1109.7 411.883L1111.95 414.133C1109.91 416.216 1108.08 417.695 1106.47 418.57 1104.85 419.445 1103.08 419.883 1101.14 419.883 1098.93 419.883 1097.32 419.336 1096.29 418.242 1095.27 417.149 1094.76 415.539 1094.76 413.414 1094.76 411.893 1095.07 409.945 1095.67 407.57L1097.04 402.383C1097.4 401.05 1097.7 399.732 1097.95 398.43 1098.2 397.128 1098.33 396.06 1098.33 395.227 1098.33 394.289 1098.13 393.591 1097.73 393.133 1097.34 392.675 1096.77 392.445 1096.04 392.445 1095.02 392.445 1093.86 393.05 1092.54 394.258 1091.23 395.466 1090.18 396.742 1089.39 398.086 1088.6 399.43 1087.97 401.185 1087.51 403.352L1084.01 419.383 1075.04 419.383 1080.08 397.664C1080.39 396.31 1080.54 395.279 1080.54 394.57 1080.54 393.883 1080.43 393.352 1080.2 392.977 1079.97 392.602 1079.58 392.414 1079.01 392.414 1078.37 392.414 1077.67 392.706 1076.92 393.289 1076.17 393.873 1075.29 394.737 1074.29 395.883L1072.04 393.633C1074.13 391.508 1075.98 390.018 1077.59 389.164 1079.21 388.31 1080.91 387.883 1082.7 387.883Z" fill="#03111A" fill-rule="evenodd"/><text fill="#000000" fill-opacity="0" font-family="Arial,Arial_MSFontService,sans-serif" font-size="32" x="1072.04" y="415.883">𝒏</text><path d="M1422.05 393.146C1423.78 393.146 1425.16 393.631 1426.19 394.599 1427.22 395.568 1427.74 396.844 1427.74 398.427 1427.74 398.948 1427.68 399.448 1427.55 399.927L1427.86 400.177C1429.82 397.74 1431.68 395.959 1433.44 394.834 1435.2 393.709 1437.26 393.146 1439.61 393.146 1441.76 393.146 1443.44 393.75 1444.66 394.959 1445.88 396.167 1446.49 397.813 1446.49 399.896 1446.49 400.563 1446.42 401.396 1446.29 402.396 1446.15 403.396 1445.99 404.282 1445.8 405.052L1443.33 414.802C1442.98 416.198 1442.8 417.417 1442.8 418.459 1442.8 419.271 1442.94 419.834 1443.21 420.146 1443.48 420.459 1443.86 420.615 1444.36 420.615 1444.97 420.615 1445.65 420.328 1446.4 419.756 1447.15 419.183 1448.03 418.313 1449.05 417.146L1451.3 419.396C1449.26 421.48 1447.43 422.959 1445.82 423.834 1444.2 424.709 1442.43 425.146 1440.49 425.146 1438.28 425.146 1436.67 424.599 1435.65 423.506 1434.62 422.412 1434.11 420.802 1434.11 418.677 1434.11 417.157 1434.42 415.209 1435.02 412.834L1436.4 407.646C1436.75 406.313 1437.05 404.995 1437.3 403.693 1437.55 402.391 1437.68 401.323 1437.68 400.49 1437.68 399.552 1437.48 398.855 1437.08 398.396 1436.69 397.938 1436.12 397.709 1435.4 397.709 1434.37 397.709 1433.21 398.313 1431.9 399.521 1430.58 400.73 1429.53 402.006 1428.74 403.349 1427.95 404.693 1427.32 406.448 1426.86 408.615L1423.36 424.646 1414.4 424.646 1419.43 402.927C1419.74 401.573 1419.9 400.542 1419.9 399.834 1419.9 399.146 1419.78 398.615 1419.55 398.24 1419.32 397.865 1418.93 397.677 1418.36 397.677 1417.72 397.677 1417.02 397.969 1416.27 398.552 1415.52 399.136 1414.65 400 1413.65 401.146L1411.4 398.896C1413.48 396.771 1415.33 395.282 1416.94 394.427 1418.56 393.573 1420.26 393.146 1422.05 393.146Z" fill="#03111A" fill-rule="evenodd"/><text fill="#000000" fill-opacity="0" font-family="Arial,Arial_MSFontService,sans-serif" font-size="32" x="1411.4" y="421.146">𝒏</text><path d="M1286.97 65.0103C1291.39 65.0103 1295.35 65.604 1298.85 66.7915L1296.94 75.729 1292.85 75.729C1292.85 73.9165 1292.65 72.5051 1292.27 71.4946 1291.88 70.4842 1291.29 69.7603 1290.5 69.3228 1289.71 68.8853 1288.65 68.6665 1287.31 68.6665 1284.54 68.6665 1282.05 69.9426 1279.85 72.4946 1277.64 75.0467 1275.76 78.7967 1274.22 83.7446 1272.68 88.6926 1271.91 93.1457 1271.91 97.104 1271.91 102.375 1273.65 105.01 1277.13 105.01 1278.79 105.01 1280.17 104.484 1281.25 103.432 1282.33 102.38 1283.13 100.75 1283.63 98.5415L1284.06 96.5728C1284.23 95.8019 1284.33 95.1613 1284.38 94.6509 1284.42 94.1405 1284.44 93.6769 1284.44 93.2603 1284.44 92.4061 1284.24 91.7655 1283.85 91.3384 1283.45 90.9113 1282.77 90.6353 1281.81 90.5103L1282.25 88.4478 1297.5 88.4478 1297.06 90.5103C1296.25 90.7811 1295.65 91.1092 1295.25 91.4946 1294.86 91.8801 1294.5 92.4426 1294.19 93.1821 1293.88 93.9217 1293.53 95.1561 1293.16 96.8853L1290.75 107.667 1286.44 108.667 1284.78 106.448C1282.05 107.927 1279.21 108.667 1276.25 108.667 1271.88 108.667 1268.52 107.437 1266.17 104.979 1263.83 102.521 1262.66 98.9686 1262.66 94.3228 1262.66 91.4478 1263.15 88.1613 1264.13 84.4634 1265.11 80.7655 1266.62 77.4321 1268.67 74.4634 1270.73 71.4946 1273.3 69.1769 1276.41 67.5103 1279.51 65.8436 1283.03 65.0103 1286.97 65.0103Z" fill="#CFDCE6" fill-rule="evenodd"/><text fill="#000000" fill-opacity="0" font-family="Arial,Arial_MSFontService,sans-serif" font-size="43.6562" x="1262.66" y="103.209">𝑮</text><path d="M644 398C644 384.193 655.417 373 669.5 373 683.583 373 695 384.193 695 398 695 411.807 683.583 423 669.5 423 655.417 423 644 411.807 644 398Z" fill="#03111A" fill-rule="evenodd"/><path d="M1865 393C1865 379.193 1876.42 368 1890.5 368 1904.58 368 1916 379.193 1916 393 1916 406.807 1904.58 418 1890.5 418 1876.42 418 1865 406.807 1865 393Z" fill="#03111A" fill-rule="evenodd"/></g></svg>