<svg width="1276" height="747" xmlns="http://www.w3.org/2000/svg" xmlns:xlink="http://www.w3.org/1999/xlink" overflow="hidden"><defs><clipPath id="clip0"><rect x="1" y="-20" width="1276" height="747"/></clipPath></defs><g clip-path="url(#clip0)" transform="translate(-1 20)"><rect x="382" y="440" width="458" height="207" stroke="#CFDCE6" stroke-width="8" stroke-miterlimit="8" fill="#406680"/><rect x="382" y="87" width="458" height="207" stroke="#CFDCE6" stroke-width="8" stroke-miterlimit="8" fill="#406680"/><path d="M321 643 885.126 643 885.126 651 321 651ZM863.143 629.545 893.066 647 863.143 664.455C861.234 665.568 858.785 664.924 857.672 663.016 856.559 661.107 857.203 658.658 859.112 657.545L883.112 643.545 883.112 650.455 859.112 636.455C857.203 635.342 856.559 632.893 857.672 630.985 858.785 629.076 861.234 628.432 863.143 629.545Z" fill="#CFDCE6"/><path d="M4-6.11936e-07 4.0001 678.34-3.9999 678.34-4 6.11936e-07ZM17.4552 656.356 0.000104597 686.279-17.455 656.356C-18.5681 654.448-17.9236 651.999-16.0154 650.886-14.1072 649.773-11.6579 650.417-10.5448 652.325L3.45522 676.325-3.45501 676.325 10.545 652.325C11.6581 650.417 14.1074 649.773 16.0156 650.886 17.9238 651.999 18.5683 654.448 17.4552 656.356Z" fill="#CFDCE6" transform="matrix(1 0 0 -1 382 703.261)"/><path d="M327.787 18.8939 358.131 18.8939 355.912 28.9564 351.912 28.9564C351.808 26.9772 351.62 25.5918 351.349 24.8001 351.079 24.0085 350.662 23.4356 350.099 23.0814 349.537 22.7272 348.745 22.5501 347.724 22.5501L339.881 22.5501 336.568 37.5501 340.912 37.5501C341.745 37.5501 342.448 37.4147 343.021 37.1439 343.594 36.873 344.125 36.4199 344.615 35.7845 345.105 35.1491 345.589 34.2689 346.068 33.1439L349.506 33.1439 346.506 45.8314 343.287 45.8314C343.287 44.623 343.214 43.696 343.068 43.0501 342.922 42.4043 342.651 41.9355 342.256 41.6439 341.86 41.3522 341.183 41.2064 340.224 41.2064L335.787 41.2064 332.099 57.8939 339.131 57.8939C340.047 57.8939 340.761 57.8314 341.271 57.7064 341.782 57.5814 342.25 57.3835 342.677 57.1126 343.105 56.8418 343.599 56.4095 344.162 55.8158 344.724 55.222 345.282 54.472 345.834 53.5658 346.386 52.6595 346.954 51.571 347.537 50.3001L351.787 50.3001 348.912 61.5501 319.193 61.5501 319.631 59.4876C320.818 59.1543 321.693 58.571 322.256 57.7376 322.818 56.9043 323.349 55.3626 323.849 53.1126L329.537 27.3314C329.808 26.1022 329.943 24.8835 329.943 23.6751 329.943 22.8001 329.74 22.1595 329.334 21.7533 328.927 21.347 328.266 21.0814 327.349 20.9564Z" fill="#CFDCE6" fill-rule="evenodd"/><text fill="#000000" fill-opacity="0" font-family="Arial,Arial_MSFontService,sans-serif" font-size="42.6562" x="319.193" y="56.2181">𝑬</text><path d="M338.37 668.596C336.891 668.596 335.724 669.247 334.87 670.549 334.016 671.851 333.401 673.789 333.026 676.362 332.651 678.935 332.464 682.283 332.464 686.408 332.464 690.992 332.667 694.638 333.073 697.346 333.48 700.054 334.12 702.049 334.995 703.33 335.87 704.612 337.037 705.252 338.495 705.252 339.287 705.252 339.98 705.06 340.573 704.674 341.167 704.289 341.698 703.685 342.167 702.862 342.636 702.039 343.037 700.945 343.37 699.58 343.704 698.216 343.943 696.518 344.089 694.487 344.235 692.455 344.308 690.19 344.308 687.69 344.308 683.961 344.167 680.825 343.886 678.283 343.605 675.742 343.204 673.783 342.683 672.408 342.162 671.033 341.547 670.054 340.839 669.471 340.131 668.888 339.308 668.596 338.37 668.596ZM338.558 665.096C343.683 665.096 347.506 666.841 350.026 670.33 352.547 673.82 353.808 679.158 353.808 686.346 353.808 693.721 352.469 699.299 349.792 703.08 347.115 706.862 343.183 708.752 337.995 708.752 332.87 708.752 329.084 706.976 326.636 703.424 324.188 699.872 322.964 694.502 322.964 687.315 322.964 680.106 324.329 674.601 327.058 670.799 329.787 666.997 333.62 665.096 338.558 665.096Z" fill="#CFDCE6" fill-rule="evenodd"/><text fill="#000000" fill-opacity="0" font-family="Arial,Arial_MSFontService,sans-serif" font-size="43.6562" x="322.964" y="703.295">𝟎</text><path d="M417 628 472.297 628" stroke="#CFDCE6" stroke-width="8" stroke-miterlimit="8" fill="none" fill-rule="evenodd"/><path d="M500 628 555.297 628" stroke="#CFDCE6" stroke-width="8" stroke-miterlimit="8" fill="none" fill-rule="evenodd"/><path d="M583 628 638.297 628" stroke="#CFDCE6" stroke-width="8" stroke-miterlimit="8" fill="none" fill-rule="evenodd"/><path d="M666 628 721.297 628" stroke="#CFDCE6" stroke-width="8" stroke-miterlimit="8" fill="none" fill-rule="evenodd"/><path d="M749 628 804.297 628" stroke="#CFDCE6" stroke-width="8" stroke-miterlimit="8" fill="none" fill-rule="evenodd"/><path d="M429 611.5C429 603.492 435.94 597 444.5 597 453.06 597 460 603.492 460 611.5 460 619.508 453.06 626 444.5 626 435.94 626 429 619.508 429 611.5Z" stroke="#CFDCE6" stroke-width="8" stroke-miterlimit="8" fill="#8FACBF" fill-rule="evenodd"/><path d="M509 611.5C509 603.492 516.163 597 525 597 533.837 597 541 603.492 541 611.5 541 619.508 533.837 626 525 626 516.163 626 509 619.508 509 611.5Z" stroke="#CFDCE6" stroke-width="8" stroke-miterlimit="8" fill="#8FACBF" fill-rule="evenodd"/><path d="M595 611.5C595 603.492 601.94 597 610.5 597 619.06 597 626 603.492 626 611.5 626 619.508 619.06 626 610.5 626 601.94 626 595 619.508 595 611.5Z" stroke="#CFDCE6" stroke-width="8" stroke-miterlimit="8" fill="#8FACBF" fill-rule="evenodd"/><path d="M678 611.5C678 603.492 684.94 597 693.5 597 702.06 597 709 603.492 709 611.5 709 619.508 702.06 626 693.5 626 684.94 626 678 619.508 678 611.5Z" stroke="#CFDCE6" stroke-width="8" stroke-miterlimit="8" fill="#8FACBF" fill-rule="evenodd"/><path d="M760 611.5C760 603.492 767.163 597 776 597 784.837 597 792 603.492 792 611.5 792 619.508 784.837 626 776 626 767.163 626 760 619.508 760 611.5Z" stroke="#CFDCE6" stroke-width="8" stroke-miterlimit="8" fill="#8FACBF" fill-rule="evenodd"/><path d="M417 582 472.297 582" stroke="#CFDCE6" stroke-width="8" stroke-miterlimit="8" fill="none" fill-rule="evenodd"/><path d="M500 582 555.297 582" stroke="#CFDCE6" stroke-width="8" stroke-miterlimit="8" fill="none" fill-rule="evenodd"/><path d="M583 582 638.297 582" stroke="#CFDCE6" stroke-width="8" stroke-miterlimit="8" fill="none" fill-rule="evenodd"/><path d="M666 582 721.297 582" stroke="#CFDCE6" stroke-width="8" stroke-miterlimit="8" fill="none" fill-rule="evenodd"/><path d="M749 582 804.297 582" stroke="#CFDCE6" stroke-width="8" stroke-miterlimit="8" fill="none" fill-rule="evenodd"/><path d="M429 566C429 557.716 436.163 551 445 551 453.837 551 461 557.716 461 566 461 574.284 453.837 581 445 581 436.163 581 429 574.284 429 566Z" stroke="#CFDCE6" stroke-width="8" stroke-miterlimit="8" fill="#8FACBF" fill-rule="evenodd"/><path d="M510 566C510 557.716 517.163 551 526 551 534.837 551 542 557.716 542 566 542 574.284 534.837 581 526 581 517.163 581 510 574.284 510 566Z" stroke="#CFDCE6" stroke-width="8" stroke-miterlimit="8" fill="#8FACBF" fill-rule="evenodd"/><path d="M595 566C595 557.716 602.163 551 611 551 619.837 551 627 557.716 627 566 627 574.284 619.837 581 611 581 602.163 581 595 574.284 595 566Z" stroke="#CFDCE6" stroke-width="8" stroke-miterlimit="8" fill="#8FACBF" fill-rule="evenodd"/><path d="M678 566C678 557.716 685.163 551 694 551 702.837 551 710 557.716 710 566 710 574.284 702.837 581 694 581 685.163 581 678 574.284 678 566Z" stroke="#CFDCE6" stroke-width="8" stroke-miterlimit="8" fill="#8FACBF" fill-rule="evenodd"/><path d="M761 566C761 557.716 767.94 551 776.5 551 785.06 551 792 557.716 792 566 792 574.284 785.06 581 776.5 581 767.94 581 761 574.284 761 566Z" stroke="#CFDCE6" stroke-width="8" stroke-miterlimit="8" fill="#8FACBF" fill-rule="evenodd"/><path d="M418 537 473.297 537" stroke="#CFDCE6" stroke-width="8" stroke-miterlimit="8" fill="none" fill-rule="evenodd"/><path d="M501 537 556.297 537" stroke="#CFDCE6" stroke-width="8" stroke-miterlimit="8" fill="none" fill-rule="evenodd"/><path d="M584 537 639.297 537" stroke="#CFDCE6" stroke-width="8" stroke-miterlimit="8" fill="none" fill-rule="evenodd"/><path d="M667 537 722.297 537" stroke="#CFDCE6" stroke-width="8" stroke-miterlimit="8" fill="none" fill-rule="evenodd"/><path d="M750 537 805.297 537" stroke="#CFDCE6" stroke-width="8" stroke-miterlimit="8" fill="none" fill-rule="evenodd"/><path d="M430 521C430 512.716 437.163 506 446 506 454.837 506 462 512.716 462 521 462 529.284 454.837 536 446 536 437.163 536 430 529.284 430 521Z" stroke="#CFDCE6" stroke-width="8" stroke-miterlimit="8" fill="#8FACBF" fill-rule="evenodd"/><path d="M511 521C511 512.716 517.94 506 526.5 506 535.06 506 542 512.716 542 521 542 529.284 535.06 536 526.5 536 517.94 536 511 529.284 511 521Z" stroke="#CFDCE6" stroke-width="8" stroke-miterlimit="8" fill="#8FACBF" fill-rule="evenodd"/><path d="M596 521C596 512.716 603.163 506 612 506 620.837 506 628 512.716 628 521 628 529.284 620.837 536 612 536 603.163 536 596 529.284 596 521Z" stroke="#CFDCE6" stroke-width="8" stroke-miterlimit="8" fill="#8FACBF" fill-rule="evenodd"/><path d="M679 521C679 512.716 686.163 506 695 506 703.837 506 711 512.716 711 521 711 529.284 703.837 536 695 536 686.163 536 679 529.284 679 521Z" stroke="#CFDCE6" stroke-width="8" stroke-miterlimit="8" fill="#8FACBF" fill-rule="evenodd"/><path d="M761 521C761 512.716 768.163 506 777 506 785.837 506 793 512.716 793 521 793 529.284 785.837 536 777 536 768.163 536 761 529.284 761 521Z" stroke="#CFDCE6" stroke-width="8" stroke-miterlimit="8" fill="#8FACBF" fill-rule="evenodd"/><path d="M419 491 474.297 491" stroke="#CFDCE6" stroke-width="8" stroke-miterlimit="8" fill="none" fill-rule="evenodd"/><path d="M502 491 557.297 491" stroke="#CFDCE6" stroke-width="8" stroke-miterlimit="8" fill="none" fill-rule="evenodd"/><path d="M585 491 640.297 491" stroke="#CFDCE6" stroke-width="8" stroke-miterlimit="8" fill="none" fill-rule="evenodd"/><path d="M668 491 723.297 491" stroke="#CFDCE6" stroke-width="8" stroke-miterlimit="8" fill="none" fill-rule="evenodd"/><path d="M751 491 806.297 491" stroke="#CFDCE6" stroke-width="8" stroke-miterlimit="8" fill="none" fill-rule="evenodd"/><path d="M431 475.5C431 467.492 437.94 461 446.5 461 455.06 461 462 467.492 462 475.5 462 483.508 455.06 490 446.5 490 437.94 490 431 483.508 431 475.5Z" stroke="#CFDCE6" stroke-width="8" stroke-miterlimit="8" fill="#8FACBF" fill-rule="evenodd"/><path d="M597 475C597 466.716 603.94 460 612.5 460 621.06 460 628 466.716 628 475 628 483.284 621.06 490 612.5 490 603.94 490 597 483.284 597 475Z" stroke="#CFDCE6" stroke-width="8" stroke-miterlimit="8" fill="#8FACBF" fill-rule="evenodd"/><path d="M762 475C762 466.716 769.163 460 778 460 786.837 460 794 466.716 794 475 794 483.284 786.837 490 778 490 769.163 490 762 483.284 762 475Z" stroke="#CFDCE6" stroke-width="8" stroke-miterlimit="8" fill="#8FACBF" fill-rule="evenodd"/><path d="M411 275 466.297 275" stroke="#CFDCE6" stroke-width="8" stroke-miterlimit="8" fill="none" fill-rule="evenodd"/><path d="M494 275 549.297 275" stroke="#CFDCE6" stroke-width="8" stroke-miterlimit="8" fill="none" fill-rule="evenodd"/><path d="M577 275 632.297 275" stroke="#CFDCE6" stroke-width="8" stroke-miterlimit="8" fill="none" fill-rule="evenodd"/><path d="M660 275 715.297 275" stroke="#CFDCE6" stroke-width="8" stroke-miterlimit="8" fill="none" fill-rule="evenodd"/><path d="M743 275 798.297 275" stroke="#CFDCE6" stroke-width="8" stroke-miterlimit="8" fill="none" fill-rule="evenodd"/><path d="M412 230 467.297 230" stroke="#CFDCE6" stroke-width="8" stroke-miterlimit="8" fill="none" fill-rule="evenodd"/><path d="M495 230 550.297 230" stroke="#CFDCE6" stroke-width="8" stroke-miterlimit="8" fill="none" fill-rule="evenodd"/><path d="M578 230 633.297 230" stroke="#CFDCE6" stroke-width="8" stroke-miterlimit="8" fill="none" fill-rule="evenodd"/><path d="M661 230 716.297 230" stroke="#CFDCE6" stroke-width="8" stroke-miterlimit="8" fill="none" fill-rule="evenodd"/><path d="M744 230 799.297 230" stroke="#CFDCE6" stroke-width="8" stroke-miterlimit="8" fill="none" fill-rule="evenodd"/><path d="M412 184 467.297 184" stroke="#CFDCE6" stroke-width="8" stroke-miterlimit="8" fill="none" fill-rule="evenodd"/><path d="M495 184 550.297 184" stroke="#CFDCE6" stroke-width="8" stroke-miterlimit="8" fill="none" fill-rule="evenodd"/><path d="M578 184 633.297 184" stroke="#CFDCE6" stroke-width="8" stroke-miterlimit="8" fill="none" fill-rule="evenodd"/><path d="M661 184 716.297 184" stroke="#CFDCE6" stroke-width="8" stroke-miterlimit="8" fill="none" fill-rule="evenodd"/><path d="M744 184 799.297 184" stroke="#CFDCE6" stroke-width="8" stroke-miterlimit="8" fill="none" fill-rule="evenodd"/><path d="M413 139 468.297 139" stroke="#CFDCE6" stroke-width="8" stroke-miterlimit="8" fill="none" fill-rule="evenodd"/><path d="M496 139 551.297 139" stroke="#CFDCE6" stroke-width="8" stroke-miterlimit="8" fill="none" fill-rule="evenodd"/><path d="M579 139 634.297 139" stroke="#CFDCE6" stroke-width="8" stroke-miterlimit="8" fill="none" fill-rule="evenodd"/><path d="M662 139 717.297 139" stroke="#CFDCE6" stroke-width="8" stroke-miterlimit="8" fill="none" fill-rule="evenodd"/><path d="M745 139 800.297 139" stroke="#CFDCE6" stroke-width="8" stroke-miterlimit="8" fill="none" fill-rule="evenodd"/><path d="M495 339 550.297 339" stroke="#CFDCE6" stroke-width="8" stroke-miterlimit="8" fill="none" fill-rule="evenodd"/><path d="M505 256.5C505 248.492 512.163 242 521 242 529.837 242 537 248.492 537 256.5 537 264.508 529.837 271 521 271 512.163 271 505 264.508 505 256.5Z" stroke="#CFDCE6" stroke-width="8" stroke-miterlimit="8" fill="#8FACBF" fill-rule="evenodd"/><path d="M658 339 713.297 339" stroke="#CFDCE6" stroke-width="8" stroke-miterlimit="8" fill="none" fill-rule="evenodd"/><path d="M672 259C672 250.716 678.94 244 687.5 244 696.06 244 703 250.716 703 259 703 267.284 696.06 274 687.5 274 678.94 274 672 267.284 672 259Z" stroke="#CFDCE6" stroke-width="8" stroke-miterlimit="8" fill="#8FACBF" fill-rule="evenodd"/><path d="M2 342C2 328.193 13.1929 317 27 317 40.8071 317 52 328.193 52 342 52 355.807 40.8071 367 27 367 13.1929 367 2 355.807 2 342Z" fill="#03111A" fill-rule="evenodd"/><path d="M1225 317C1225 303.193 1236.42 292 1250.5 292 1264.58 292 1276 303.193 1276 317 1276 330.807 1264.58 342 1250.5 342 1236.42 342 1225 330.807 1225 317Z" fill="#03111A" fill-rule="evenodd"/><path d="M513 475C513 466.716 520.163 460 529 460 537.837 460 545 466.716 545 475 545 483.284 537.837 490 529 490 520.163 490 513 483.284 513 475Z" stroke="#CFDCE6" stroke-width="8" stroke-miterlimit="8" fill="#8FACBF" fill-rule="evenodd"/><path d="M680 474C680 465.716 686.94 459 695.5 459 704.06 459 711 465.716 711 474 711 482.284 704.06 489 695.5 489 686.94 489 680 482.284 680 474Z" stroke="#CFDCE6" stroke-width="8" stroke-miterlimit="8" fill="#8FACBF" fill-rule="evenodd"/></g></svg>