<svg width="2160" height="757" xmlns="http://www.w3.org/2000/svg" xmlns:xlink="http://www.w3.org/1999/xlink" overflow="hidden"><defs><clipPath id="clip0"><rect x="-1" y="3" width="2160" height="757"/></clipPath></defs><g clip-path="url(#clip0)" transform="translate(1 -3)"><rect x="69" y="513" width="459" height="207" stroke="#CFDCE6" stroke-width="8" stroke-miterlimit="8" fill="#406680"/><rect x="74" y="191" width="458" height="207" stroke="#CFDCE6" stroke-width="8" stroke-miterlimit="8" fill="#406680"/><path d="M3.99988-0.0307465 8.46423 580.746 0.464463 580.808-3.99988 0.0307465ZM21.75 558.662 4.52539 588.719-13.1592 558.931C-14.287 557.031-13.6613 554.577-11.7617 553.449-9.86208 552.322-7.40793 552.947-6.28017 554.847L7.90389 578.738 0.993866 578.792 14.809 554.685C15.9074 552.768 18.3516 552.105 20.2683 553.203 22.1851 554.302 22.8484 556.746 21.75 558.662Z" fill="#CFDCE6" transform="matrix(1 0 0 -1 69 719.7)"/><path d="M19.0417 132.666 49.3854 132.666 47.1667 142.728 43.1667 142.728C43.0625 140.749 42.875 139.364 42.6042 138.572 42.3333 137.78 41.9167 137.207 41.3542 136.853 40.7917 136.499 40 136.322 38.9792 136.322L31.1354 136.322 27.8229 151.322 32.1667 151.322C33 151.322 33.7031 151.187 34.276 150.916 34.849 150.645 35.3802 150.192 35.8698 149.556 36.3594 148.921 36.8438 148.041 37.3229 146.916L40.7604 146.916 37.7604 159.603 34.5417 159.603C34.5417 158.395 34.4688 157.468 34.3229 156.822 34.1771 156.176 33.9062 155.707 33.5104 155.416 33.1146 155.124 32.4375 154.978 31.4792 154.978L27.0417 154.978 23.3542 171.666 30.3854 171.666C31.3021 171.666 32.0156 171.603 32.526 171.478 33.0365 171.353 33.5052 171.155 33.9323 170.884 34.3594 170.614 34.8542 170.181 35.4167 169.588 35.9792 168.994 36.5365 168.244 37.0885 167.338 37.6406 166.431 38.2083 165.343 38.7917 164.072L43.0417 164.072 40.1667 175.322 10.4479 175.322 10.8854 173.259C12.0729 172.926 12.9479 172.343 13.5104 171.509 14.0729 170.676 14.6042 169.134 15.1042 166.884L20.7917 141.103C21.0625 139.874 21.1979 138.655 21.1979 137.447 21.1979 136.572 20.9948 135.931 20.5885 135.525 20.1823 135.119 19.5208 134.853 18.6042 134.728Z" fill="#CFDCE6" fill-rule="evenodd"/><text fill="#000000" fill-opacity="0" font-family="Arial,Arial_MSFontService,sans-serif" font-size="42.6562" x="10.4479" y="169.99">𝑬</text><path d="M104 701 159.297 701" stroke="#CFDCE6" stroke-width="8" stroke-miterlimit="8" fill="none" fill-rule="evenodd"/><path d="M187 701 242.297 701" stroke="#CFDCE6" stroke-width="8" stroke-miterlimit="8" fill="none" fill-rule="evenodd"/><path d="M270 701 325.297 701" stroke="#CFDCE6" stroke-width="8" stroke-miterlimit="8" fill="none" fill-rule="evenodd"/><path d="M353 701 408.297 701" stroke="#CFDCE6" stroke-width="8" stroke-miterlimit="8" fill="none" fill-rule="evenodd"/><path d="M436 701 491.297 701" stroke="#CFDCE6" stroke-width="8" stroke-miterlimit="8" fill="none" fill-rule="evenodd"/><path d="M116 684.5C116 676.492 123.163 670 132 670 140.837 670 148 676.492 148 684.5 148 692.508 140.837 699 132 699 123.163 699 116 692.508 116 684.5Z" stroke="#CFDCE6" stroke-width="8" stroke-miterlimit="8" fill="#8FACBF" fill-rule="evenodd"/><path d="M197 684.5C197 676.492 204.163 670 213 670 221.837 670 229 676.492 229 684.5 229 692.508 221.837 699 213 699 204.163 699 197 692.508 197 684.5Z" stroke="#CFDCE6" stroke-width="8" stroke-miterlimit="8" fill="#8FACBF" fill-rule="evenodd"/><path d="M282 684.5C282 676.492 289.163 670 298 670 306.837 670 314 676.492 314 684.5 314 692.508 306.837 699 298 699 289.163 699 282 692.508 282 684.5Z" stroke="#CFDCE6" stroke-width="8" stroke-miterlimit="8" fill="#8FACBF" fill-rule="evenodd"/><path d="M365 684.5C365 676.492 372.163 670 381 670 389.837 670 397 676.492 397 684.5 397 692.508 389.837 699 381 699 372.163 699 365 692.508 365 684.5Z" stroke="#CFDCE6" stroke-width="8" stroke-miterlimit="8" fill="#8FACBF" fill-rule="evenodd"/><path d="M448 684.5C448 676.492 454.94 670 463.5 670 472.06 670 479 676.492 479 684.5 479 692.508 472.06 699 463.5 699 454.94 699 448 692.508 448 684.5Z" stroke="#CFDCE6" stroke-width="8" stroke-miterlimit="8" fill="#8FACBF" fill-rule="evenodd"/><path d="M105 655 160.297 655" stroke="#CFDCE6" stroke-width="8" stroke-miterlimit="8" fill="none" fill-rule="evenodd"/><path d="M188 655 243.297 655" stroke="#CFDCE6" stroke-width="8" stroke-miterlimit="8" fill="none" fill-rule="evenodd"/><path d="M271 655 326.297 655" stroke="#CFDCE6" stroke-width="8" stroke-miterlimit="8" fill="none" fill-rule="evenodd"/><path d="M354 655 409.297 655" stroke="#CFDCE6" stroke-width="8" stroke-miterlimit="8" fill="none" fill-rule="evenodd"/><path d="M437 655 492.297 655" stroke="#CFDCE6" stroke-width="8" stroke-miterlimit="8" fill="none" fill-rule="evenodd"/><path d="M117 639.5C117 631.492 123.94 625 132.5 625 141.06 625 148 631.492 148 639.5 148 647.508 141.06 654 132.5 654 123.94 654 117 647.508 117 639.5Z" stroke="#CFDCE6" stroke-width="8" stroke-miterlimit="8" fill="#8FACBF" fill-rule="evenodd"/><path d="M198 639C198 630.716 204.94 624 213.5 624 222.06 624 229 630.716 229 639 229 647.284 222.06 654 213.5 654 204.94 654 198 647.284 198 639Z" stroke="#CFDCE6" stroke-width="8" stroke-miterlimit="8" fill="#8FACBF" fill-rule="evenodd"/><path d="M283 639C283 630.716 289.94 624 298.5 624 307.06 624 314 630.716 314 639 314 647.284 307.06 654 298.5 654 289.94 654 283 647.284 283 639Z" stroke="#CFDCE6" stroke-width="8" stroke-miterlimit="8" fill="#8FACBF" fill-rule="evenodd"/><path d="M366 639C366 630.716 372.94 624 381.5 624 390.06 624 397 630.716 397 639 397 647.284 390.06 654 381.5 654 372.94 654 366 647.284 366 639Z" stroke="#CFDCE6" stroke-width="8" stroke-miterlimit="8" fill="#8FACBF" fill-rule="evenodd"/><path d="M448 639C448 630.716 455.163 624 464 624 472.837 624 480 630.716 480 639 480 647.284 472.837 654 464 654 455.163 654 448 647.284 448 639Z" stroke="#CFDCE6" stroke-width="8" stroke-miterlimit="8" fill="#8FACBF" fill-rule="evenodd"/><path d="M106 610 161.297 610" stroke="#CFDCE6" stroke-width="8" stroke-miterlimit="8" fill="none" fill-rule="evenodd"/><path d="M189 610 244.297 610" stroke="#CFDCE6" stroke-width="8" stroke-miterlimit="8" fill="none" fill-rule="evenodd"/><path d="M272 610 327.297 610" stroke="#CFDCE6" stroke-width="8" stroke-miterlimit="8" fill="none" fill-rule="evenodd"/><path d="M355 610 410.297 610" stroke="#CFDCE6" stroke-width="8" stroke-miterlimit="8" fill="none" fill-rule="evenodd"/><path d="M438 610 493.297 610" stroke="#CFDCE6" stroke-width="8" stroke-miterlimit="8" fill="none" fill-rule="evenodd"/><path d="M118 594C118 585.716 124.94 579 133.5 579 142.06 579 149 585.716 149 594 149 602.284 142.06 609 133.5 609 124.94 609 118 602.284 118 594Z" stroke="#CFDCE6" stroke-width="8" stroke-miterlimit="8" fill="#8FACBF" fill-rule="evenodd"/><path d="M198 594C198 585.716 205.163 579 214 579 222.837 579 230 585.716 230 594 230 602.284 222.837 609 214 609 205.163 609 198 602.284 198 594Z" stroke="#CFDCE6" stroke-width="8" stroke-miterlimit="8" fill="#8FACBF" fill-rule="evenodd"/><path d="M284 594C284 585.716 290.94 579 299.5 579 308.06 579 315 585.716 315 594 315 602.284 308.06 609 299.5 609 290.94 609 284 602.284 284 594Z" stroke="#CFDCE6" stroke-width="8" stroke-miterlimit="8" fill="#8FACBF" fill-rule="evenodd"/><path d="M367 594C367 585.716 373.94 579 382.5 579 391.06 579 398 585.716 398 594 398 602.284 391.06 609 382.5 609 373.94 609 367 602.284 367 594Z" stroke="#CFDCE6" stroke-width="8" stroke-miterlimit="8" fill="#8FACBF" fill-rule="evenodd"/><path d="M449 594C449 585.716 456.163 579 465 579 473.837 579 481 585.716 481 594 481 602.284 473.837 609 465 609 456.163 609 449 602.284 449 594Z" stroke="#CFDCE6" stroke-width="8" stroke-miterlimit="8" fill="#8FACBF" fill-rule="evenodd"/><path d="M106 565 161.297 565" stroke="#CFDCE6" stroke-width="8" stroke-miterlimit="8" fill="none" fill-rule="evenodd"/><path d="M189 565 244.297 565" stroke="#CFDCE6" stroke-width="8" stroke-miterlimit="8" fill="none" fill-rule="evenodd"/><path d="M272 565 327.297 565" stroke="#CFDCE6" stroke-width="8" stroke-miterlimit="8" fill="none" fill-rule="evenodd"/><path d="M355 565 410.297 565" stroke="#CFDCE6" stroke-width="8" stroke-miterlimit="8" fill="none" fill-rule="evenodd"/><path d="M438 565 493.297 565" stroke="#CFDCE6" stroke-width="8" stroke-miterlimit="8" fill="none" fill-rule="evenodd"/><path d="M118 548.5C118 540.492 125.163 534 134 534 142.837 534 150 540.492 150 548.5 150 556.508 142.837 563 134 563 125.163 563 118 556.508 118 548.5Z" stroke="#CFDCE6" stroke-width="8" stroke-miterlimit="8" fill="#8FACBF" fill-rule="evenodd"/><path d="M284 548.5C284 540.492 291.163 534 300 534 308.837 534 316 540.492 316 548.5 316 556.508 308.837 563 300 563 291.163 563 284 556.508 284 548.5Z" stroke="#CFDCE6" stroke-width="8" stroke-miterlimit="8" fill="#8FACBF" fill-rule="evenodd"/><path d="M450 548.5C450 540.492 456.94 534 465.5 534 474.06 534 481 540.492 481 548.5 481 556.508 474.06 563 465.5 563 456.94 563 450 556.508 450 548.5Z" stroke="#CFDCE6" stroke-width="8" stroke-miterlimit="8" fill="#8FACBF" fill-rule="evenodd"/><path d="M103 379 158.297 379" stroke="#CFDCE6" stroke-width="8" stroke-miterlimit="8" fill="none" fill-rule="evenodd"/><path d="M186 379 241.297 379" stroke="#CFDCE6" stroke-width="8" stroke-miterlimit="8" fill="none" fill-rule="evenodd"/><path d="M269 379 324.297 379" stroke="#CFDCE6" stroke-width="8" stroke-miterlimit="8" fill="none" fill-rule="evenodd"/><path d="M352 379 407.297 379" stroke="#CFDCE6" stroke-width="8" stroke-miterlimit="8" fill="none" fill-rule="evenodd"/><path d="M435 379 490.297 379" stroke="#CFDCE6" stroke-width="8" stroke-miterlimit="8" fill="none" fill-rule="evenodd"/><path d="M104 334 159.297 334" stroke="#CFDCE6" stroke-width="8" stroke-miterlimit="8" fill="none" fill-rule="evenodd"/><path d="M187 334 242.297 334" stroke="#CFDCE6" stroke-width="8" stroke-miterlimit="8" fill="none" fill-rule="evenodd"/><path d="M270 334 325.297 334" stroke="#CFDCE6" stroke-width="8" stroke-miterlimit="8" fill="none" fill-rule="evenodd"/><path d="M353 334 408.297 334" stroke="#CFDCE6" stroke-width="8" stroke-miterlimit="8" fill="none" fill-rule="evenodd"/><path d="M436 334 491.297 334" stroke="#CFDCE6" stroke-width="8" stroke-miterlimit="8" fill="none" fill-rule="evenodd"/><path d="M104 289 159.297 289" stroke="#CFDCE6" stroke-width="8" stroke-miterlimit="8" fill="none" fill-rule="evenodd"/><path d="M187 289 242.297 289" stroke="#CFDCE6" stroke-width="8" stroke-miterlimit="8" fill="none" fill-rule="evenodd"/><path d="M270 289 325.297 289" stroke="#CFDCE6" stroke-width="8" stroke-miterlimit="8" fill="none" fill-rule="evenodd"/><path d="M353 289 408.297 289" stroke="#CFDCE6" stroke-width="8" stroke-miterlimit="8" fill="none" fill-rule="evenodd"/><path d="M436 289 491.297 289" stroke="#CFDCE6" stroke-width="8" stroke-miterlimit="8" fill="none" fill-rule="evenodd"/><path d="M105 243 160.297 243" stroke="#CFDCE6" stroke-width="8" stroke-miterlimit="8" fill="none" fill-rule="evenodd"/><path d="M188 243 243.297 243" stroke="#CFDCE6" stroke-width="8" stroke-miterlimit="8" fill="none" fill-rule="evenodd"/><path d="M271 243 326.297 243" stroke="#CFDCE6" stroke-width="8" stroke-miterlimit="8" fill="none" fill-rule="evenodd"/><path d="M354 243 409.297 243" stroke="#CFDCE6" stroke-width="8" stroke-miterlimit="8" fill="none" fill-rule="evenodd"/><path d="M437 243 492.297 243" stroke="#CFDCE6" stroke-width="8" stroke-miterlimit="8" fill="none" fill-rule="evenodd"/><path d="M187 443 242.297 443" stroke="#CFDCE6" stroke-width="8" stroke-miterlimit="8" fill="none" fill-rule="evenodd"/><path d="M197 361C197 352.716 204.163 346 213 346 221.837 346 229 352.716 229 361 229 369.284 221.837 376 213 376 204.163 376 197 369.284 197 361Z" stroke="#CFDCE6" stroke-width="8" stroke-miterlimit="8" fill="#8FACBF" fill-rule="evenodd"/><path d="M350 443 405.297 443" stroke="#CFDCE6" stroke-width="8" stroke-miterlimit="8" fill="none" fill-rule="evenodd"/><path d="M364 363.5C364 355.492 370.94 349 379.5 349 388.06 349 395 355.492 395 363.5 395 371.508 388.06 378 379.5 378 370.94 378 364 371.508 364 363.5Z" stroke="#CFDCE6" stroke-width="8" stroke-miterlimit="8" fill="#8FACBF" fill-rule="evenodd"/><path d="M201 548C201 539.716 207.94 533 216.5 533 225.06 533 232 539.716 232 548 232 556.284 225.06 563 216.5 563 207.94 563 201 556.284 201 548Z" stroke="#CFDCE6" stroke-width="8" stroke-miterlimit="8" fill="#8FACBF" fill-rule="evenodd"/><path d="M367 547C367 538.716 374.163 532 383 532 391.837 532 399 538.716 399 547 399 555.284 391.837 562 383 562 374.163 562 367 555.284 367 547Z" stroke="#CFDCE6" stroke-width="8" stroke-miterlimit="8" fill="#8FACBF" fill-rule="evenodd"/><rect x="530" y="513" width="458" height="207" stroke="#CFDCE6" stroke-width="8" stroke-miterlimit="8" fill="#406680"/><rect x="535" y="191" width="458" height="207" stroke="#CFDCE6" stroke-width="8" stroke-miterlimit="8" fill="#406680"/><path d="M0.00829881-3.99999 956.077-2.01643 956.06 5.98355-0.00829881 3.99999ZM934.124-15.5171 964.01 2.00004 934.051 19.393C932.141 20.5022 929.693 19.8526 928.584 17.9421 927.474 16.0315 928.124 13.5836 930.035 12.4745L954.064-1.47572 954.049 5.4345 930.078-8.61527C928.172-9.73234 927.533-12.1829 928.65-14.0888 929.767-15.9947 932.218-16.6342 934.124-15.5171Z" fill="#CFDCE6" transform="matrix(1 0 0 -1 74 722)"/><path d="M565 701 620.297 701" stroke="#CFDCE6" stroke-width="8" stroke-miterlimit="8" fill="none" fill-rule="evenodd"/><path d="M648 701 703.297 701" stroke="#CFDCE6" stroke-width="8" stroke-miterlimit="8" fill="none" fill-rule="evenodd"/><path d="M731 701 786.297 701" stroke="#CFDCE6" stroke-width="8" stroke-miterlimit="8" fill="none" fill-rule="evenodd"/><path d="M814 701 869.297 701" stroke="#CFDCE6" stroke-width="8" stroke-miterlimit="8" fill="none" fill-rule="evenodd"/><path d="M897 701 952.297 701" stroke="#CFDCE6" stroke-width="8" stroke-miterlimit="8" fill="none" fill-rule="evenodd"/><path d="M577 684.5C577 676.492 583.94 670 592.5 670 601.06 670 608 676.492 608 684.5 608 692.508 601.06 699 592.5 699 583.94 699 577 692.508 577 684.5Z" stroke="#CFDCE6" stroke-width="8" stroke-miterlimit="8" fill="#8FACBF" fill-rule="evenodd"/><path d="M658 684.5C658 676.492 664.94 670 673.5 670 682.06 670 689 676.492 689 684.5 689 692.508 682.06 699 673.5 699 664.94 699 658 692.508 658 684.5Z" stroke="#CFDCE6" stroke-width="8" stroke-miterlimit="8" fill="#8FACBF" fill-rule="evenodd"/><path d="M743 684.5C743 676.492 749.94 670 758.5 670 767.06 670 774 676.492 774 684.5 774 692.508 767.06 699 758.5 699 749.94 699 743 692.508 743 684.5Z" stroke="#CFDCE6" stroke-width="8" stroke-miterlimit="8" fill="#8FACBF" fill-rule="evenodd"/><path d="M826 684.5C826 676.492 832.94 670 841.5 670 850.06 670 857 676.492 857 684.5 857 692.508 850.06 699 841.5 699 832.94 699 826 692.508 826 684.5Z" stroke="#CFDCE6" stroke-width="8" stroke-miterlimit="8" fill="#8FACBF" fill-rule="evenodd"/><path d="M908 684.5C908 676.492 915.163 670 924 670 932.837 670 940 676.492 940 684.5 940 692.508 932.837 699 924 699 915.163 699 908 692.508 908 684.5Z" stroke="#CFDCE6" stroke-width="8" stroke-miterlimit="8" fill="#8FACBF" fill-rule="evenodd"/><path d="M566 655 621.297 655" stroke="#CFDCE6" stroke-width="8" stroke-miterlimit="8" fill="none" fill-rule="evenodd"/><path d="M649 655 704.297 655" stroke="#CFDCE6" stroke-width="8" stroke-miterlimit="8" fill="none" fill-rule="evenodd"/><path d="M732 655 787.297 655" stroke="#CFDCE6" stroke-width="8" stroke-miterlimit="8" fill="none" fill-rule="evenodd"/><path d="M815 655 870.297 655" stroke="#CFDCE6" stroke-width="8" stroke-miterlimit="8" fill="none" fill-rule="evenodd"/><path d="M898 655 953.297 655" stroke="#CFDCE6" stroke-width="8" stroke-miterlimit="8" fill="none" fill-rule="evenodd"/><path d="M577 639.5C577 631.492 584.163 625 593 625 601.837 625 609 631.492 609 639.5 609 647.508 601.837 654 593 654 584.163 654 577 647.508 577 639.5Z" stroke="#CFDCE6" stroke-width="8" stroke-miterlimit="8" fill="#8FACBF" fill-rule="evenodd"/><path d="M658 639C658 630.716 665.163 624 674 624 682.837 624 690 630.716 690 639 690 647.284 682.837 654 674 654 665.163 654 658 647.284 658 639Z" stroke="#CFDCE6" stroke-width="8" stroke-miterlimit="8" fill="#8FACBF" fill-rule="evenodd"/><path d="M743 639C743 630.716 750.163 624 759 624 767.837 624 775 630.716 775 639 775 647.284 767.837 654 759 654 750.163 654 743 647.284 743 639Z" stroke="#CFDCE6" stroke-width="8" stroke-miterlimit="8" fill="#8FACBF" fill-rule="evenodd"/><path d="M826 639C826 630.716 833.163 624 842 624 850.837 624 858 630.716 858 639 858 647.284 850.837 654 842 654 833.163 654 826 647.284 826 639Z" stroke="#CFDCE6" stroke-width="8" stroke-miterlimit="8" fill="#8FACBF" fill-rule="evenodd"/><path d="M909 639C909 630.716 915.94 624 924.5 624 933.06 624 940 630.716 940 639 940 647.284 933.06 654 924.5 654 915.94 654 909 647.284 909 639Z" stroke="#CFDCE6" stroke-width="8" stroke-miterlimit="8" fill="#8FACBF" fill-rule="evenodd"/><path d="M566 610 621.297 610" stroke="#CFDCE6" stroke-width="8" stroke-miterlimit="8" fill="none" fill-rule="evenodd"/><path d="M649 610 704.297 610" stroke="#CFDCE6" stroke-width="8" stroke-miterlimit="8" fill="none" fill-rule="evenodd"/><path d="M732 610 787.297 610" stroke="#CFDCE6" stroke-width="8" stroke-miterlimit="8" fill="none" fill-rule="evenodd"/><path d="M815 610 870.297 610" stroke="#CFDCE6" stroke-width="8" stroke-miterlimit="8" fill="none" fill-rule="evenodd"/><path d="M898 610 953.297 610" stroke="#CFDCE6" stroke-width="8" stroke-miterlimit="8" fill="none" fill-rule="evenodd"/><path d="M578 594C578 585.716 585.163 579 594 579 602.837 579 610 585.716 610 594 610 602.284 602.837 609 594 609 585.163 609 578 602.284 578 594Z" stroke="#CFDCE6" stroke-width="8" stroke-miterlimit="8" fill="#8FACBF" fill-rule="evenodd"/><path d="M659 594C659 585.716 665.94 579 674.5 579 683.06 579 690 585.716 690 594 690 602.284 683.06 609 674.5 609 665.94 609 659 602.284 659 594Z" stroke="#CFDCE6" stroke-width="8" stroke-miterlimit="8" fill="#8FACBF" fill-rule="evenodd"/><path d="M744 594C744 585.716 751.163 579 760 579 768.837 579 776 585.716 776 594 776 602.284 768.837 609 760 609 751.163 609 744 602.284 744 594Z" stroke="#CFDCE6" stroke-width="8" stroke-miterlimit="8" fill="#8FACBF" fill-rule="evenodd"/><path d="M827 594C827 585.716 834.163 579 843 579 851.837 579 859 585.716 859 594 859 602.284 851.837 609 843 609 834.163 609 827 602.284 827 594Z" stroke="#CFDCE6" stroke-width="8" stroke-miterlimit="8" fill="#8FACBF" fill-rule="evenodd"/><path d="M910 594C910 585.716 916.94 579 925.5 579 934.06 579 941 585.716 941 594 941 602.284 934.06 609 925.5 609 916.94 609 910 602.284 910 594Z" stroke="#CFDCE6" stroke-width="8" stroke-miterlimit="8" fill="#8FACBF" fill-rule="evenodd"/><path d="M567 565 622.297 565" stroke="#CFDCE6" stroke-width="8" stroke-miterlimit="8" fill="none" fill-rule="evenodd"/><path d="M650 565 705.297 565" stroke="#CFDCE6" stroke-width="8" stroke-miterlimit="8" fill="none" fill-rule="evenodd"/><path d="M733 565 788.297 565" stroke="#CFDCE6" stroke-width="8" stroke-miterlimit="8" fill="none" fill-rule="evenodd"/><path d="M816 565 871.297 565" stroke="#CFDCE6" stroke-width="8" stroke-miterlimit="8" fill="none" fill-rule="evenodd"/><path d="M899 565 954.297 565" stroke="#CFDCE6" stroke-width="8" stroke-miterlimit="8" fill="none" fill-rule="evenodd"/><path d="M579 548.5C579 540.492 585.94 534 594.5 534 603.06 534 610 540.492 610 548.5 610 556.508 603.06 563 594.5 563 585.94 563 579 556.508 579 548.5Z" stroke="#CFDCE6" stroke-width="8" stroke-miterlimit="8" fill="#8FACBF" fill-rule="evenodd"/><path d="M745 548.5C745 540.492 751.94 534 760.5 534 769.06 534 776 540.492 776 548.5 776 556.508 769.06 563 760.5 563 751.94 563 745 556.508 745 548.5Z" stroke="#CFDCE6" stroke-width="8" stroke-miterlimit="8" fill="#8FACBF" fill-rule="evenodd"/><path d="M910 548.5C910 540.492 917.163 534 926 534 934.837 534 942 540.492 942 548.5 942 556.508 934.837 563 926 563 917.163 563 910 556.508 910 548.5Z" stroke="#CFDCE6" stroke-width="8" stroke-miterlimit="8" fill="#8FACBF" fill-rule="evenodd"/><path d="M564 379 619.297 379" stroke="#CFDCE6" stroke-width="8" stroke-miterlimit="8" fill="none" fill-rule="evenodd"/><path d="M647 379 702.297 379" stroke="#CFDCE6" stroke-width="8" stroke-miterlimit="8" fill="none" fill-rule="evenodd"/><path d="M730 379 785.297 379" stroke="#CFDCE6" stroke-width="8" stroke-miterlimit="8" fill="none" fill-rule="evenodd"/><path d="M813 379 868.297 379" stroke="#CFDCE6" stroke-width="8" stroke-miterlimit="8" fill="none" fill-rule="evenodd"/><path d="M896 379 951.297 379" stroke="#CFDCE6" stroke-width="8" stroke-miterlimit="8" fill="none" fill-rule="evenodd"/><path d="M564 334 619.297 334" stroke="#CFDCE6" stroke-width="8" stroke-miterlimit="8" fill="none" fill-rule="evenodd"/><path d="M647 334 702.297 334" stroke="#CFDCE6" stroke-width="8" stroke-miterlimit="8" fill="none" fill-rule="evenodd"/><path d="M730 334 785.297 334" stroke="#CFDCE6" stroke-width="8" stroke-miterlimit="8" fill="none" fill-rule="evenodd"/><path d="M813 334 868.297 334" stroke="#CFDCE6" stroke-width="8" stroke-miterlimit="8" fill="none" fill-rule="evenodd"/><path d="M896 334 951.297 334" stroke="#CFDCE6" stroke-width="8" stroke-miterlimit="8" fill="none" fill-rule="evenodd"/><path d="M565 289 620.297 289" stroke="#CFDCE6" stroke-width="8" stroke-miterlimit="8" fill="none" fill-rule="evenodd"/><path d="M648 289 703.297 289" stroke="#CFDCE6" stroke-width="8" stroke-miterlimit="8" fill="none" fill-rule="evenodd"/><path d="M731 289 786.297 289" stroke="#CFDCE6" stroke-width="8" stroke-miterlimit="8" fill="none" fill-rule="evenodd"/><path d="M814 289 869.297 289" stroke="#CFDCE6" stroke-width="8" stroke-miterlimit="8" fill="none" fill-rule="evenodd"/><path d="M897 289 952.297 289" stroke="#CFDCE6" stroke-width="8" stroke-miterlimit="8" fill="none" fill-rule="evenodd"/><path d="M566 243 621.297 243" stroke="#CFDCE6" stroke-width="8" stroke-miterlimit="8" fill="none" fill-rule="evenodd"/><path d="M649 243 704.297 243" stroke="#CFDCE6" stroke-width="8" stroke-miterlimit="8" fill="none" fill-rule="evenodd"/><path d="M732 243 787.297 243" stroke="#CFDCE6" stroke-width="8" stroke-miterlimit="8" fill="none" fill-rule="evenodd"/><path d="M815 243 870.297 243" stroke="#CFDCE6" stroke-width="8" stroke-miterlimit="8" fill="none" fill-rule="evenodd"/><path d="M898 243 953.297 243" stroke="#CFDCE6" stroke-width="8" stroke-miterlimit="8" fill="none" fill-rule="evenodd"/><path d="M647 494 702.297 494" stroke="#CFDCE6" stroke-width="8" stroke-miterlimit="8" fill="none" fill-rule="evenodd"/><path d="M659 478C659 469.716 665.94 463 674.5 463 683.06 463 690 469.716 690 478 690 486.284 683.06 493 674.5 493 665.94 493 659 486.284 659 478Z" stroke="#CFDCE6" stroke-width="8" stroke-miterlimit="8" fill="#8FACBF" fill-rule="evenodd"/><path d="M816 495 871.297 495" stroke="#CFDCE6" stroke-width="8" stroke-miterlimit="8" fill="none" fill-rule="evenodd"/><path d="M828 479C828 470.716 834.94 464 843.5 464 852.06 464 859 470.716 859 479 859 487.284 852.06 494 843.5 494 834.94 494 828 487.284 828 479Z" stroke="#CFDCE6" stroke-width="8" stroke-miterlimit="8" fill="#8FACBF" fill-rule="evenodd"/><path d="M215.401 138.27C217.13 138.27 218.51 138.754 219.542 139.723 220.573 140.692 221.088 141.968 221.088 143.551 221.088 144.072 221.026 144.572 220.901 145.051L221.213 145.301C223.172 142.864 225.031 141.082 226.792 139.957 228.552 138.832 230.609 138.27 232.963 138.27 235.109 138.27 236.792 138.874 238.01 140.082 239.229 141.291 239.838 142.936 239.838 145.02 239.838 145.686 239.771 146.52 239.635 147.52 239.5 148.52 239.338 149.405 239.151 150.176L236.682 159.926C236.328 161.322 236.151 162.541 236.151 163.582 236.151 164.395 236.286 164.957 236.557 165.27 236.828 165.582 237.213 165.739 237.713 165.739 238.318 165.739 238.995 165.452 239.745 164.879 240.495 164.306 241.38 163.436 242.401 162.27L244.651 164.52C242.609 166.603 240.781 168.082 239.167 168.957 237.552 169.832 235.776 170.27 233.838 170.27 231.63 170.27 230.015 169.723 228.995 168.629 227.974 167.535 227.463 165.926 227.463 163.801 227.463 162.28 227.765 160.332 228.37 157.957L229.745 152.77C230.099 151.436 230.401 150.119 230.651 148.817 230.901 147.515 231.026 146.447 231.026 145.614 231.026 144.676 230.828 143.978 230.432 143.52 230.036 143.061 229.474 142.832 228.745 142.832 227.724 142.832 226.557 143.436 225.245 144.645 223.932 145.853 222.88 147.129 222.088 148.473 221.297 149.817 220.672 151.572 220.213 153.739L216.713 169.77 207.745 169.77 212.776 148.051C213.088 146.697 213.245 145.666 213.245 144.957 213.245 144.27 213.13 143.739 212.901 143.364 212.672 142.989 212.276 142.801 211.713 142.801 211.068 142.801 210.37 143.093 209.62 143.676 208.87 144.259 207.995 145.124 206.995 146.27L204.745 144.02C206.828 141.895 208.677 140.405 210.292 139.551 211.906 138.697 213.609 138.27 215.401 138.27Z" fill="#CFDCE6" fill-rule="evenodd"/><text fill="#000000" fill-opacity="0" font-family="Arial,Arial_MSFontService,sans-serif" font-size="32" x="204.745" y="166.27">𝒏</text><path d="M264.204 149.395 302.704 149.395 302.704 153.551 264.204 153.551Z" fill="#CFDCE6" fill-rule="evenodd"/><text fill="#000000" fill-opacity="0" font-family="Arial,Arial_MSFontService,sans-serif" font-size="4.15625" x="264.204" y="153.031">−</text><path d="M411.789 142.864C410.414 142.864 409.013 143.535 407.586 144.879 406.159 146.223 405.018 147.78 404.164 149.551 403.31 151.322 402.528 153.822 401.82 157.051L401.57 158.207C401.237 159.749 401.07 161.259 401.07 162.739 401.07 164.259 401.325 165.353 401.836 166.02 402.346 166.686 403.205 167.02 404.414 167.02 405.455 167.02 406.403 166.785 407.258 166.317 408.112 165.848 408.919 165.082 409.679 164.02 410.44 162.957 411.179 161.587 411.898 159.91 412.617 158.233 413.237 156.228 413.758 153.895 414.278 151.561 414.539 149.395 414.539 147.395 414.539 145.853 414.315 144.712 413.867 143.973 413.419 143.233 412.726 142.864 411.789 142.864ZM448.445 141.52C446.508 141.52 444.763 142.478 443.211 144.395 441.659 146.311 440.383 149.103 439.383 152.77 443.216 152.666 446.148 151.931 448.179 150.567 450.211 149.202 451.226 147.27 451.226 144.77 451.226 143.707 450.982 142.9 450.492 142.348 450.002 141.796 449.32 141.52 448.445 141.52ZM449.226 138.27C455.601 138.27 458.789 140.572 458.789 145.176 458.789 146.759 458.471 148.155 457.836 149.364 457.2 150.572 456.143 151.666 454.664 152.645 453.185 153.624 451.096 154.416 448.398 155.02 445.7 155.624 442.445 155.968 438.633 156.051 438.362 157.28 438.226 158.551 438.226 159.864 438.226 161.801 438.633 163.259 439.445 164.239 440.258 165.218 441.487 165.707 443.133 165.707 444.966 165.707 446.622 165.337 448.101 164.598 449.58 163.858 451.32 162.541 453.32 160.645L455.945 163.27C453.841 165.645 451.575 167.405 449.148 168.551 446.721 169.697 444.091 170.27 441.258 170.27 438.82 170.27 436.747 169.843 435.039 168.989 433.33 168.134 432.044 166.869 431.179 165.192 430.315 163.515 429.883 161.509 429.883 159.176 429.883 158.093 430.028 156.707 430.32 155.02 430.716 152.728 431.32 150.686 432.133 148.895 433.153 146.686 434.487 144.791 436.133 143.207 437.778 141.624 439.711 140.405 441.929 139.551 444.148 138.697 446.58 138.27 449.226 138.27ZM398.008 138.27C399.737 138.27 401.117 138.754 402.148 139.723 403.179 140.692 403.695 141.968 403.695 143.551 403.695 144.072 403.633 144.572 403.508 145.051L403.82 145.301C405.737 142.864 407.591 141.082 409.383 139.957 411.174 138.832 413.247 138.27 415.601 138.27 417.955 138.27 419.784 139.124 421.086 140.832 422.388 142.541 423.039 145.009 423.039 148.239 423.039 151.051 422.633 153.843 421.82 156.614 421.008 159.384 419.841 161.775 418.32 163.785 416.799 165.796 414.888 167.379 412.586 168.535 410.284 169.692 407.685 170.27 404.789 170.27 402.935 170.27 401.143 169.947 399.414 169.301L398.226 174.864C398.039 175.78 397.903 176.494 397.82 177.004 397.737 177.515 397.695 177.989 397.695 178.426 397.695 179.322 397.929 179.968 398.398 180.364 398.867 180.759 399.674 181.02 400.82 181.145L400.476 183.207 387.476 183.207 395.383 148.051C395.695 146.655 395.851 145.624 395.851 144.957 395.851 144.27 395.737 143.739 395.508 143.364 395.278 142.989 394.883 142.801 394.32 142.801 393.674 142.801 392.976 143.093 392.226 143.676 391.476 144.259 390.601 145.124 389.601 146.27L387.351 144.02C389.435 141.895 391.284 140.405 392.898 139.551 394.513 138.697 396.216 138.27 398.008 138.27ZM360.57 138.27C362.174 138.27 363.471 138.504 364.461 138.973 365.45 139.442 366.237 140.087 366.82 140.91 367.403 141.733 367.872 142.78 368.226 144.051 368.518 145.051 368.862 146.811 369.258 149.332 369.903 153.436 370.455 157.468 370.914 161.426 373.226 158.114 375.002 154.884 376.242 151.739 377.482 148.593 378.101 145.78 378.101 143.301 378.101 142.509 377.914 141.91 377.539 141.504 377.164 141.098 376.508 140.874 375.57 140.832L376.008 138.77 384.82 138.77 385.914 140.832C385.497 142.27 384.851 144.009 383.976 146.051 382.685 149.051 380.945 152.416 378.758 156.145 376.778 159.499 374.622 162.853 372.289 166.207 369.56 170.124 367.185 173.285 365.164 175.692 363.143 178.098 361.393 179.874 359.914 181.02 358.747 181.895 357.633 182.515 356.57 182.879 355.508 183.244 354.383 183.426 353.195 183.426 351.653 183.426 350.195 183.197 348.82 182.739L350.383 175.676 353.664 175.676C353.685 176.551 353.815 177.197 354.054 177.614 354.294 178.03 354.726 178.239 355.351 178.239 355.851 178.239 356.32 178.15 356.758 177.973 357.195 177.796 357.747 177.447 358.414 176.926 359.08 176.405 359.919 175.556 360.929 174.379 361.94 173.202 363.08 171.78 364.351 170.114 363.935 167.572 363.398 164.577 362.742 161.129 362.086 157.681 361.445 154.546 360.82 151.723 360.195 148.9 359.737 146.989 359.445 145.989 359.153 144.989 358.872 144.275 358.601 143.848 358.33 143.421 358.081 143.14 357.851 143.004 357.622 142.869 357.383 142.801 357.133 142.801 356.612 142.801 356.133 143.015 355.695 143.442 355.258 143.869 354.685 144.77 353.976 146.145L351.133 144.832C352.341 142.645 353.716 141.004 355.258 139.91 356.799 138.817 358.57 138.27 360.57 138.27ZM334.226 130.957 341.726 130.957 339.914 138.77 347.508 138.77 346.664 142.676 339.008 142.676 335.976 155.176C335.455 157.322 335.096 158.952 334.898 160.067 334.7 161.181 334.601 162.124 334.601 162.895 334.601 163.874 334.778 164.587 335.133 165.035 335.487 165.483 336.008 165.707 336.695 165.707 337.633 165.707 338.596 165.374 339.586 164.707 340.575 164.041 341.643 163.009 342.789 161.614L345.195 164.082C343.091 166.395 341.159 168.004 339.398 168.91 337.638 169.817 335.56 170.27 333.164 170.27 330.789 170.27 328.966 169.66 327.695 168.442 326.424 167.223 325.789 165.541 325.789 163.395 325.789 162.416 325.862 161.483 326.008 160.598 326.153 159.712 326.455 158.259 326.914 156.239L330.133 142.676 325.258 142.676 325.851 140.145C327.31 140.145 328.414 140.009 329.164 139.739 329.914 139.468 330.544 139.061 331.054 138.52 331.565 137.978 332.06 137.155 332.539 136.051 333.018 134.947 333.58 133.249 334.226 130.957Z" fill="#CFDCE6" fill-rule="evenodd"/><text fill="#000000" fill-opacity="0" font-family="Arial,Arial_MSFontService,sans-serif" font-size="52.4688" x="325.258" y="176.867">𝒕𝒚𝒑𝒆</text><text fill="#CFDCE6" font-family="Calibri,Calibri_MSFontService,sans-serif" font-weight="700" font-size="64" transform="translate(642.083 167)">p</text><path d="M681.073 146.598 719.573 146.598 719.573 150.754 681.073 150.754Z" fill="#CFDCE6" fill-rule="evenodd"/><text fill="#000000" fill-opacity="0" font-family="Arial,Arial_MSFontService,sans-serif" font-size="4.15625" x="681.073" y="150.234">−</text><path d="M814.437 140.066C813.062 140.066 811.661 140.738 810.234 142.082 808.807 143.426 807.666 144.983 806.812 146.754 805.958 148.525 805.177 151.025 804.468 154.254L804.218 155.41C803.885 156.952 803.718 158.462 803.718 159.941 803.718 161.462 803.974 162.556 804.484 163.223 804.994 163.889 805.854 164.223 807.062 164.223 808.104 164.223 809.052 163.988 809.906 163.519 810.76 163.051 811.567 162.285 812.328 161.223 813.088 160.16 813.828 158.79 814.547 157.113 815.265 155.436 815.885 153.431 816.406 151.098 816.927 148.764 817.187 146.598 817.187 144.598 817.187 143.056 816.963 141.915 816.515 141.176 816.067 140.436 815.375 140.066 814.437 140.066ZM851.093 138.723C849.156 138.723 847.411 139.681 845.859 141.598 844.307 143.514 843.031 146.306 842.031 149.973 845.864 149.868 848.797 149.134 850.828 147.769 852.859 146.405 853.875 144.473 853.875 141.973 853.875 140.91 853.63 140.103 853.14 139.551 852.651 138.999 851.968 138.723 851.093 138.723ZM851.875 135.473C858.25 135.473 861.437 137.775 861.437 142.379 861.437 143.962 861.119 145.358 860.484 146.566 859.849 147.775 858.791 148.868 857.312 149.848 855.833 150.827 853.744 151.618 851.047 152.223 848.349 152.827 845.093 153.171 841.281 153.254 841.01 154.483 840.875 155.754 840.875 157.066 840.875 159.004 841.281 160.462 842.093 161.441 842.906 162.421 844.135 162.91 845.781 162.91 847.614 162.91 849.27 162.54 850.75 161.801 852.229 161.061 853.968 159.743 855.968 157.848L858.593 160.473C856.489 162.848 854.224 164.608 851.797 165.754 849.369 166.9 846.739 167.473 843.906 167.473 841.468 167.473 839.395 167.046 837.687 166.191 835.979 165.337 834.692 164.072 833.828 162.394 832.963 160.717 832.531 158.712 832.531 156.379 832.531 155.296 832.677 153.91 832.968 152.223 833.364 149.931 833.968 147.889 834.781 146.098 835.802 143.889 837.135 141.993 838.781 140.41 840.427 138.827 842.359 137.608 844.578 136.754 846.797 135.9 849.229 135.473 851.875 135.473ZM800.656 135.473C802.385 135.473 803.765 135.957 804.797 136.926 805.828 137.894 806.343 139.171 806.343 140.754 806.343 141.275 806.281 141.775 806.156 142.254L806.468 142.504C808.385 140.066 810.239 138.285 812.031 137.16 813.823 136.035 815.895 135.473 818.25 135.473 820.604 135.473 822.432 136.327 823.734 138.035 825.036 139.743 825.687 142.212 825.687 145.441 825.687 148.254 825.281 151.046 824.468 153.816 823.656 156.587 822.489 158.978 820.968 160.988 819.448 162.999 817.536 164.582 815.234 165.738 812.932 166.894 810.333 167.473 807.437 167.473 805.583 167.473 803.791 167.15 802.062 166.504L800.875 172.066C800.687 172.983 800.552 173.697 800.468 174.207 800.385 174.717 800.343 175.191 800.343 175.629 800.343 176.525 800.578 177.171 801.047 177.566 801.515 177.962 802.323 178.223 803.468 178.348L803.125 180.41 790.125 180.41 798.031 145.254C798.343 143.858 798.5 142.827 798.5 142.16 798.5 141.473 798.385 140.941 798.156 140.566 797.927 140.191 797.531 140.004 796.968 140.004 796.323 140.004 795.625 140.296 794.875 140.879 794.125 141.462 793.25 142.327 792.25 143.473L790 141.223C792.083 139.098 793.932 137.608 795.547 136.754 797.161 135.9 798.864 135.473 800.656 135.473ZM763.218 135.473C764.823 135.473 766.119 135.707 767.109 136.176 768.099 136.644 768.885 137.29 769.468 138.113 770.052 138.936 770.52 139.983 770.875 141.254 771.166 142.254 771.51 144.014 771.906 146.535 772.552 150.639 773.104 154.671 773.562 158.629 775.875 155.316 777.651 152.087 778.89 148.941 780.13 145.796 780.75 142.983 780.75 140.504 780.75 139.712 780.562 139.113 780.187 138.707 779.812 138.301 779.156 138.077 778.218 138.035L778.656 135.973 787.468 135.973 788.562 138.035C788.145 139.473 787.5 141.212 786.625 143.254 785.333 146.254 783.593 149.618 781.406 153.348 779.427 156.702 777.27 160.056 774.937 163.41 772.208 167.327 769.833 170.488 767.812 172.894 765.791 175.301 764.041 177.077 762.562 178.223 761.395 179.098 760.281 179.717 759.218 180.082 758.156 180.447 757.031 180.629 755.843 180.629 754.302 180.629 752.843 180.4 751.468 179.941L753.031 172.879 756.312 172.879C756.333 173.754 756.463 174.4 756.703 174.816 756.942 175.233 757.375 175.441 758 175.441 758.5 175.441 758.968 175.353 759.406 175.176 759.843 174.999 760.395 174.65 761.062 174.129 761.729 173.608 762.567 172.759 763.578 171.582 764.588 170.405 765.729 168.983 767 167.316 766.583 164.775 766.047 161.78 765.39 158.332 764.734 154.884 764.093 151.749 763.468 148.926 762.843 146.103 762.385 144.191 762.093 143.191 761.802 142.191 761.52 141.478 761.25 141.051 760.979 140.624 760.729 140.342 760.5 140.207 760.27 140.072 760.031 140.004 759.781 140.004 759.26 140.004 758.781 140.217 758.343 140.644 757.906 141.072 757.333 141.973 756.625 143.348L753.781 142.035C754.989 139.848 756.364 138.207 757.906 137.113 759.448 136.019 761.218 135.473 763.218 135.473ZM736.875 128.16 744.375 128.16 742.562 135.973 750.156 135.973 749.312 139.879 741.656 139.879 738.625 152.379C738.104 154.525 737.744 156.155 737.547 157.269 737.349 158.384 737.25 159.327 737.25 160.098 737.25 161.077 737.427 161.79 737.781 162.238 738.135 162.686 738.656 162.91 739.343 162.91 740.281 162.91 741.244 162.577 742.234 161.91 743.224 161.243 744.291 160.212 745.437 158.816L747.843 161.285C745.739 163.598 743.807 165.207 742.047 166.113 740.286 167.019 738.208 167.473 735.812 167.473 733.437 167.473 731.614 166.863 730.343 165.644 729.073 164.426 728.437 162.743 728.437 160.598 728.437 159.618 728.51 158.686 728.656 157.801 728.802 156.915 729.104 155.462 729.562 153.441L732.781 139.879 727.906 139.879 728.5 137.348C729.958 137.348 731.062 137.212 731.812 136.941 732.562 136.671 733.192 136.264 733.703 135.723 734.213 135.181 734.708 134.358 735.187 133.254 735.666 132.15 736.229 130.452 736.875 128.16Z" fill="#CFDCE6" fill-rule="evenodd"/><text fill="#000000" fill-opacity="0" font-family="Arial,Arial_MSFontService,sans-serif" font-size="52.4688" x="727.906" y="174.07">𝒕𝒚𝒑𝒆</text><path d="M1017 427.25 1072.5 427.25 1072.5 402 1123 452.5 1072.5 503 1072.5 477.75 1017 477.75Z" stroke="#CFDCE6" stroke-width="8" stroke-miterlimit="8" fill="none" fill-rule="evenodd"/><rect x="1156" y="517" width="458" height="207" stroke="#CFDCE6" stroke-width="8" stroke-miterlimit="8" fill="#406680"/><rect x="1160" y="195" width="459" height="207" stroke="#CFDCE6" stroke-width="8" stroke-miterlimit="8" fill="#406680"/><path d="M1156 720 2114.11 720 2114.11 728 1156 728ZM2092.12 706.545 2122.05 724 2092.12 741.455C2090.22 742.568 2087.77 741.924 2086.65 740.016 2085.54 738.107 2086.19 735.658 2088.09 734.545L2112.09 720.545 2112.09 727.455 2088.09 713.455C2086.19 712.342 2085.54 709.893 2086.65 707.985 2087.77 706.076 2090.22 705.432 2092.12 706.545Z" fill="#CFDCE6"/><path d="M3.99988-0.0307465 8.46423 580.746 0.464463 580.808-3.99988 0.0307465ZM21.75 558.662 4.52539 588.719-13.1592 558.931C-14.287 557.031-13.6613 554.577-11.7617 553.449-9.86208 552.322-7.40793 552.947-6.28017 554.847L7.90389 578.738 0.993866 578.792 14.809 554.685C15.9074 552.768 18.3516 552.105 20.2683 553.203 22.1851 554.302 22.8484 556.746 21.75 558.662Z" fill="#CFDCE6" transform="matrix(1 0 0 -1 1156 723.7)"/><path d="M1105.53 136.219 1135.87 136.219 1133.65 146.282 1129.65 146.282C1129.55 144.303 1129.36 142.917 1129.09 142.125 1128.82 141.334 1128.4 140.761 1127.84 140.407 1127.28 140.053 1126.49 139.875 1125.47 139.875L1117.62 139.875 1114.31 154.875 1118.65 154.875C1119.49 154.875 1120.19 154.74 1120.76 154.469 1121.34 154.198 1121.87 153.745 1122.36 153.11 1122.85 152.474 1123.33 151.594 1123.81 150.469L1127.25 150.469 1124.25 163.157 1121.03 163.157C1121.03 161.948 1120.96 161.021 1120.81 160.375 1120.67 159.73 1120.39 159.261 1120 158.969 1119.6 158.678 1118.93 158.532 1117.97 158.532L1113.53 158.532 1109.84 175.219 1116.87 175.219C1117.79 175.219 1118.5 175.157 1119.01 175.032 1119.52 174.907 1119.99 174.709 1120.42 174.438 1120.85 174.167 1121.34 173.735 1121.9 173.141 1122.47 172.547 1123.02 171.797 1123.58 170.891 1124.13 169.985 1124.7 168.896 1125.28 167.625L1129.53 167.625 1126.65 178.875 1096.94 178.875 1097.37 176.813C1098.56 176.48 1099.44 175.896 1100 175.063 1100.56 174.23 1101.09 172.688 1101.59 170.438L1107.28 144.657C1107.55 143.428 1107.69 142.209 1107.69 141 1107.69 140.125 1107.48 139.485 1107.08 139.079 1106.67 138.672 1106.01 138.407 1105.09 138.282Z" fill="#CFDCE6" fill-rule="evenodd"/><text fill="#000000" fill-opacity="0" font-family="Arial,Arial_MSFontService,sans-serif" font-size="42.6562" x="1096.94" y="173.543">𝑬</text><path d="M1191 704 1246.3 704" stroke="#CFDCE6" stroke-width="8" stroke-miterlimit="8" fill="none" fill-rule="evenodd"/><path d="M1274 704 1329.3 704" stroke="#CFDCE6" stroke-width="8" stroke-miterlimit="8" fill="none" fill-rule="evenodd"/><path d="M1357 704 1412.3 704" stroke="#CFDCE6" stroke-width="8" stroke-miterlimit="8" fill="none" fill-rule="evenodd"/><path d="M1440 704 1495.3 704" stroke="#CFDCE6" stroke-width="8" stroke-miterlimit="8" fill="none" fill-rule="evenodd"/><path d="M1523 704 1578.3 704" stroke="#CFDCE6" stroke-width="8" stroke-miterlimit="8" fill="none" fill-rule="evenodd"/><path d="M1203 688C1203 679.716 1209.94 673 1218.5 673 1227.06 673 1234 679.716 1234 688 1234 696.284 1227.06 703 1218.5 703 1209.94 703 1203 696.284 1203 688Z" stroke="#CFDCE6" stroke-width="8" stroke-miterlimit="8" fill="#8FACBF" fill-rule="evenodd"/><path d="M1284 688C1284 679.716 1290.94 673 1299.5 673 1308.06 673 1315 679.716 1315 688 1315 696.284 1308.06 703 1299.5 703 1290.94 703 1284 696.284 1284 688Z" stroke="#CFDCE6" stroke-width="8" stroke-miterlimit="8" fill="#8FACBF" fill-rule="evenodd"/><path d="M1369 688C1369 679.716 1375.94 673 1384.5 673 1393.06 673 1400 679.716 1400 688 1400 696.284 1393.06 703 1384.5 703 1375.94 703 1369 696.284 1369 688Z" stroke="#CFDCE6" stroke-width="8" stroke-miterlimit="8" fill="#8FACBF" fill-rule="evenodd"/><path d="M1452 688C1452 679.716 1458.94 673 1467.5 673 1476.06 673 1483 679.716 1483 688 1483 696.284 1476.06 703 1467.5 703 1458.94 703 1452 696.284 1452 688Z" stroke="#CFDCE6" stroke-width="8" stroke-miterlimit="8" fill="#8FACBF" fill-rule="evenodd"/><path d="M1534 688C1534 679.716 1541.16 673 1550 673 1558.84 673 1566 679.716 1566 688 1566 696.284 1558.84 703 1550 703 1541.16 703 1534 696.284 1534 688Z" stroke="#CFDCE6" stroke-width="8" stroke-miterlimit="8" fill="#8FACBF" fill-rule="evenodd"/><path d="M1191 659 1246.3 659" stroke="#CFDCE6" stroke-width="8" stroke-miterlimit="8" fill="none" fill-rule="evenodd"/><path d="M1274 659 1329.3 659" stroke="#CFDCE6" stroke-width="8" stroke-miterlimit="8" fill="none" fill-rule="evenodd"/><path d="M1357 659 1412.3 659" stroke="#CFDCE6" stroke-width="8" stroke-miterlimit="8" fill="none" fill-rule="evenodd"/><path d="M1440 659 1495.3 659" stroke="#CFDCE6" stroke-width="8" stroke-miterlimit="8" fill="none" fill-rule="evenodd"/><path d="M1523 659 1578.3 659" stroke="#CFDCE6" stroke-width="8" stroke-miterlimit="8" fill="none" fill-rule="evenodd"/><path d="M1203 643C1203 634.716 1210.16 628 1219 628 1227.84 628 1235 634.716 1235 643 1235 651.284 1227.84 658 1219 658 1210.16 658 1203 651.284 1203 643Z" stroke="#CFDCE6" stroke-width="8" stroke-miterlimit="8" fill="#8FACBF" fill-rule="evenodd"/><path d="M1284 643C1284 634.716 1291.16 628 1300 628 1308.84 628 1316 634.716 1316 643 1316 651.284 1308.84 658 1300 658 1291.16 658 1284 651.284 1284 643Z" stroke="#CFDCE6" stroke-width="8" stroke-miterlimit="8" fill="#8FACBF" fill-rule="evenodd"/><path d="M1369 643C1369 634.716 1376.16 628 1385 628 1393.84 628 1401 634.716 1401 643 1401 651.284 1393.84 658 1385 658 1376.16 658 1369 651.284 1369 643Z" stroke="#CFDCE6" stroke-width="8" stroke-miterlimit="8" fill="#8FACBF" fill-rule="evenodd"/><path d="M1452 643C1452 634.716 1459.16 628 1468 628 1476.84 628 1484 634.716 1484 643 1484 651.284 1476.84 658 1468 658 1459.16 658 1452 651.284 1452 643Z" stroke="#CFDCE6" stroke-width="8" stroke-miterlimit="8" fill="#8FACBF" fill-rule="evenodd"/><path d="M1535 643C1535 634.716 1541.94 628 1550.5 628 1559.06 628 1566 634.716 1566 643 1566 651.284 1559.06 658 1550.5 658 1541.94 658 1535 651.284 1535 643Z" stroke="#CFDCE6" stroke-width="8" stroke-miterlimit="8" fill="#8FACBF" fill-rule="evenodd"/><path d="M1192 614 1247.3 614" stroke="#CFDCE6" stroke-width="8" stroke-miterlimit="8" fill="none" fill-rule="evenodd"/><path d="M1275 614 1330.3 614" stroke="#CFDCE6" stroke-width="8" stroke-miterlimit="8" fill="none" fill-rule="evenodd"/><path d="M1358 614 1413.3 614" stroke="#CFDCE6" stroke-width="8" stroke-miterlimit="8" fill="none" fill-rule="evenodd"/><path d="M1441 614 1496.3 614" stroke="#CFDCE6" stroke-width="8" stroke-miterlimit="8" fill="none" fill-rule="evenodd"/><path d="M1524 614 1579.3 614" stroke="#CFDCE6" stroke-width="8" stroke-miterlimit="8" fill="none" fill-rule="evenodd"/><path d="M1204 597.5C1204 589.492 1211.16 583 1220 583 1228.84 583 1236 589.492 1236 597.5 1236 605.508 1228.84 612 1220 612 1211.16 612 1204 605.508 1204 597.5Z" stroke="#CFDCE6" stroke-width="8" stroke-miterlimit="8" fill="#8FACBF" fill-rule="evenodd"/><path d="M1285 597.5C1285 589.492 1291.94 583 1300.5 583 1309.06 583 1316 589.492 1316 597.5 1316 605.508 1309.06 612 1300.5 612 1291.94 612 1285 605.508 1285 597.5Z" stroke="#CFDCE6" stroke-width="8" stroke-miterlimit="8" fill="#8FACBF" fill-rule="evenodd"/><path d="M1370 597.5C1370 589.492 1377.16 583 1386 583 1394.84 583 1402 589.492 1402 597.5 1402 605.508 1394.84 612 1386 612 1377.16 612 1370 605.508 1370 597.5Z" stroke="#CFDCE6" stroke-width="8" stroke-miterlimit="8" fill="#8FACBF" fill-rule="evenodd"/><path d="M1453 597.5C1453 589.492 1460.16 583 1469 583 1477.84 583 1485 589.492 1485 597.5 1485 605.508 1477.84 612 1469 612 1460.16 612 1453 605.508 1453 597.5Z" stroke="#CFDCE6" stroke-width="8" stroke-miterlimit="8" fill="#8FACBF" fill-rule="evenodd"/><path d="M1535 597.5C1535 589.492 1542.16 583 1551 583 1559.84 583 1567 589.492 1567 597.5 1567 605.508 1559.84 612 1551 612 1542.16 612 1535 605.508 1535 597.5Z" stroke="#CFDCE6" stroke-width="8" stroke-miterlimit="8" fill="#8FACBF" fill-rule="evenodd"/><path d="M1193 568 1248.3 568" stroke="#CFDCE6" stroke-width="8" stroke-miterlimit="8" fill="none" fill-rule="evenodd"/><path d="M1276 568 1331.3 568" stroke="#CFDCE6" stroke-width="8" stroke-miterlimit="8" fill="none" fill-rule="evenodd"/><path d="M1359 568 1414.3 568" stroke="#CFDCE6" stroke-width="8" stroke-miterlimit="8" fill="none" fill-rule="evenodd"/><path d="M1442 568 1497.3 568" stroke="#CFDCE6" stroke-width="8" stroke-miterlimit="8" fill="none" fill-rule="evenodd"/><path d="M1525 568 1580.3 568" stroke="#CFDCE6" stroke-width="8" stroke-miterlimit="8" fill="none" fill-rule="evenodd"/><path d="M1205 552C1205 543.716 1211.94 537 1220.5 537 1229.06 537 1236 543.716 1236 552 1236 560.284 1229.06 567 1220.5 567 1211.94 567 1205 560.284 1205 552Z" stroke="#CFDCE6" stroke-width="8" stroke-miterlimit="8" fill="#8FACBF" fill-rule="evenodd"/><path d="M1371 552C1371 543.716 1377.94 537 1386.5 537 1395.06 537 1402 543.716 1402 552 1402 560.284 1395.06 567 1386.5 567 1377.94 567 1371 560.284 1371 552Z" stroke="#CFDCE6" stroke-width="8" stroke-miterlimit="8" fill="#8FACBF" fill-rule="evenodd"/><path d="M1536 552C1536 543.716 1543.16 537 1552 537 1560.84 537 1568 543.716 1568 552 1568 560.284 1560.84 567 1552 567 1543.16 567 1536 560.284 1536 552Z" stroke="#CFDCE6" stroke-width="8" stroke-miterlimit="8" fill="#8FACBF" fill-rule="evenodd"/><path d="M1190 383 1245.3 383" stroke="#CFDCE6" stroke-width="8" stroke-miterlimit="8" fill="none" fill-rule="evenodd"/><path d="M1273 383 1328.3 383" stroke="#CFDCE6" stroke-width="8" stroke-miterlimit="8" fill="none" fill-rule="evenodd"/><path d="M1356 383 1411.3 383" stroke="#CFDCE6" stroke-width="8" stroke-miterlimit="8" fill="none" fill-rule="evenodd"/><path d="M1439 383 1494.3 383" stroke="#CFDCE6" stroke-width="8" stroke-miterlimit="8" fill="none" fill-rule="evenodd"/><path d="M1522 383 1577.3 383" stroke="#CFDCE6" stroke-width="8" stroke-miterlimit="8" fill="none" fill-rule="evenodd"/><path d="M1190 338 1245.3 338" stroke="#CFDCE6" stroke-width="8" stroke-miterlimit="8" fill="none" fill-rule="evenodd"/><path d="M1273 338 1328.3 338" stroke="#CFDCE6" stroke-width="8" stroke-miterlimit="8" fill="none" fill-rule="evenodd"/><path d="M1356 338 1411.3 338" stroke="#CFDCE6" stroke-width="8" stroke-miterlimit="8" fill="none" fill-rule="evenodd"/><path d="M1439 338 1494.3 338" stroke="#CFDCE6" stroke-width="8" stroke-miterlimit="8" fill="none" fill-rule="evenodd"/><path d="M1522 338 1577.3 338" stroke="#CFDCE6" stroke-width="8" stroke-miterlimit="8" fill="none" fill-rule="evenodd"/><path d="M1191 292 1246.3 292" stroke="#CFDCE6" stroke-width="8" stroke-miterlimit="8" fill="none" fill-rule="evenodd"/><path d="M1274 292 1329.3 292" stroke="#CFDCE6" stroke-width="8" stroke-miterlimit="8" fill="none" fill-rule="evenodd"/><path d="M1357 292 1412.3 292" stroke="#CFDCE6" stroke-width="8" stroke-miterlimit="8" fill="none" fill-rule="evenodd"/><path d="M1440 292 1495.3 292" stroke="#CFDCE6" stroke-width="8" stroke-miterlimit="8" fill="none" fill-rule="evenodd"/><path d="M1523 292 1578.3 292" stroke="#CFDCE6" stroke-width="8" stroke-miterlimit="8" fill="none" fill-rule="evenodd"/><path d="M1192 247 1247.3 247" stroke="#CFDCE6" stroke-width="8" stroke-miterlimit="8" fill="none" fill-rule="evenodd"/><path d="M1275 247 1330.3 247" stroke="#CFDCE6" stroke-width="8" stroke-miterlimit="8" fill="none" fill-rule="evenodd"/><path d="M1358 247 1413.3 247" stroke="#CFDCE6" stroke-width="8" stroke-miterlimit="8" fill="none" fill-rule="evenodd"/><path d="M1441 247 1496.3 247" stroke="#CFDCE6" stroke-width="8" stroke-miterlimit="8" fill="none" fill-rule="evenodd"/><path d="M1524 247 1579.3 247" stroke="#CFDCE6" stroke-width="8" stroke-miterlimit="8" fill="none" fill-rule="evenodd"/><path d="M1274 447 1329.3 447" stroke="#CFDCE6" stroke-width="8" stroke-miterlimit="8" fill="none" fill-rule="evenodd"/><path d="M1284 364.5C1284 356.492 1290.94 350 1299.5 350 1308.06 350 1315 356.492 1315 364.5 1315 372.508 1308.06 379 1299.5 379 1290.94 379 1284 372.508 1284 364.5Z" stroke="#CFDCE6" stroke-width="8" stroke-miterlimit="8" fill="#8FACBF" fill-rule="evenodd"/><path d="M1437 447 1492.3 447" stroke="#CFDCE6" stroke-width="8" stroke-miterlimit="8" fill="none" fill-rule="evenodd"/><path d="M1450 367C1450 358.716 1457.16 352 1466 352 1474.84 352 1482 358.716 1482 367 1482 375.284 1474.84 382 1466 382 1457.16 382 1450 375.284 1450 367Z" stroke="#CFDCE6" stroke-width="8" stroke-miterlimit="8" fill="#8FACBF" fill-rule="evenodd"/><path d="M1287 551.5C1287 543.492 1294.16 537 1303 537 1311.84 537 1319 543.492 1319 551.5 1319 559.508 1311.84 566 1303 566 1294.16 566 1287 559.508 1287 551.5Z" stroke="#CFDCE6" stroke-width="8" stroke-miterlimit="8" fill="#8FACBF" fill-rule="evenodd"/><path d="M1454 551C1454 542.716 1460.94 536 1469.5 536 1478.06 536 1485 542.716 1485 551 1485 559.284 1478.06 566 1469.5 566 1460.94 566 1454 559.284 1454 551Z" stroke="#CFDCE6" stroke-width="8" stroke-miterlimit="8" fill="#8FACBF" fill-rule="evenodd"/><rect x="1619" y="442" width="458" height="206" stroke="#CFDCE6" stroke-width="8" stroke-miterlimit="8" fill="#406680"/><rect x="1623" y="120" width="459" height="207" stroke="#CFDCE6" stroke-width="8" stroke-miterlimit="8" fill="#406680"/><path d="M1653 629 1708.3 629" stroke="#CFDCE6" stroke-width="8" stroke-miterlimit="8" fill="none" fill-rule="evenodd"/><path d="M1736 629 1791.3 629" stroke="#CFDCE6" stroke-width="8" stroke-miterlimit="8" fill="none" fill-rule="evenodd"/><path d="M1819 629 1874.3 629" stroke="#CFDCE6" stroke-width="8" stroke-miterlimit="8" fill="none" fill-rule="evenodd"/><path d="M1902 629 1957.3 629" stroke="#CFDCE6" stroke-width="8" stroke-miterlimit="8" fill="none" fill-rule="evenodd"/><path d="M1985 629 2040.3 629" stroke="#CFDCE6" stroke-width="8" stroke-miterlimit="8" fill="none" fill-rule="evenodd"/><path d="M1665 613C1665 604.716 1672.16 598 1681 598 1689.84 598 1697 604.716 1697 613 1697 621.284 1689.84 628 1681 628 1672.16 628 1665 621.284 1665 613Z" stroke="#CFDCE6" stroke-width="8" stroke-miterlimit="8" fill="#8FACBF" fill-rule="evenodd"/><path d="M1746 613C1746 604.716 1753.16 598 1762 598 1770.84 598 1778 604.716 1778 613 1778 621.284 1770.84 628 1762 628 1753.16 628 1746 621.284 1746 613Z" stroke="#CFDCE6" stroke-width="8" stroke-miterlimit="8" fill="#8FACBF" fill-rule="evenodd"/><path d="M1831 613C1831 604.716 1838.16 598 1847 598 1855.84 598 1863 604.716 1863 613 1863 621.284 1855.84 628 1847 628 1838.16 628 1831 621.284 1831 613Z" stroke="#CFDCE6" stroke-width="8" stroke-miterlimit="8" fill="#8FACBF" fill-rule="evenodd"/><path d="M1914 613C1914 604.716 1921.16 598 1930 598 1938.84 598 1946 604.716 1946 613 1946 621.284 1938.84 628 1930 628 1921.16 628 1914 621.284 1914 613Z" stroke="#CFDCE6" stroke-width="8" stroke-miterlimit="8" fill="#8FACBF" fill-rule="evenodd"/><path d="M1997 613C1997 604.716 2003.94 598 2012.5 598 2021.06 598 2028 604.716 2028 613 2028 621.284 2021.06 628 2012.5 628 2003.94 628 1997 621.284 1997 613Z" stroke="#CFDCE6" stroke-width="8" stroke-miterlimit="8" fill="#8FACBF" fill-rule="evenodd"/><path d="M1654 584 1709.3 584" stroke="#CFDCE6" stroke-width="8" stroke-miterlimit="8" fill="none" fill-rule="evenodd"/><path d="M1737 584 1792.3 584" stroke="#CFDCE6" stroke-width="8" stroke-miterlimit="8" fill="none" fill-rule="evenodd"/><path d="M1820 584 1875.3 584" stroke="#CFDCE6" stroke-width="8" stroke-miterlimit="8" fill="none" fill-rule="evenodd"/><path d="M1903 584 1958.3 584" stroke="#CFDCE6" stroke-width="8" stroke-miterlimit="8" fill="none" fill-rule="evenodd"/><path d="M1986 584 2041.3 584" stroke="#CFDCE6" stroke-width="8" stroke-miterlimit="8" fill="none" fill-rule="evenodd"/><path d="M1666 568C1666 559.716 1672.94 553 1681.5 553 1690.06 553 1697 559.716 1697 568 1697 576.284 1690.06 583 1681.5 583 1672.94 583 1666 576.284 1666 568Z" stroke="#CFDCE6" stroke-width="8" stroke-miterlimit="8" fill="#8FACBF" fill-rule="evenodd"/><path d="M1747 568C1747 559.716 1753.94 553 1762.5 553 1771.06 553 1778 559.716 1778 568 1778 576.284 1771.06 583 1762.5 583 1753.94 583 1747 576.284 1747 568Z" stroke="#CFDCE6" stroke-width="8" stroke-miterlimit="8" fill="#8FACBF" fill-rule="evenodd"/><path d="M1832 568C1832 559.716 1838.94 553 1847.5 553 1856.06 553 1863 559.716 1863 568 1863 576.284 1856.06 583 1847.5 583 1838.94 583 1832 576.284 1832 568Z" stroke="#CFDCE6" stroke-width="8" stroke-miterlimit="8" fill="#8FACBF" fill-rule="evenodd"/><path d="M1915 568C1915 559.716 1921.94 553 1930.5 553 1939.06 553 1946 559.716 1946 568 1946 576.284 1939.06 583 1930.5 583 1921.94 583 1915 576.284 1915 568Z" stroke="#CFDCE6" stroke-width="8" stroke-miterlimit="8" fill="#8FACBF" fill-rule="evenodd"/><path d="M1997 568C1997 559.716 2004.16 553 2013 553 2021.84 553 2029 559.716 2029 568 2029 576.284 2021.84 583 2013 583 2004.16 583 1997 576.284 1997 568Z" stroke="#CFDCE6" stroke-width="8" stroke-miterlimit="8" fill="#8FACBF" fill-rule="evenodd"/><path d="M1655 539 1710.3 539" stroke="#CFDCE6" stroke-width="8" stroke-miterlimit="8" fill="none" fill-rule="evenodd"/><path d="M1738 539 1793.3 539" stroke="#CFDCE6" stroke-width="8" stroke-miterlimit="8" fill="none" fill-rule="evenodd"/><path d="M1821 539 1876.3 539" stroke="#CFDCE6" stroke-width="8" stroke-miterlimit="8" fill="none" fill-rule="evenodd"/><path d="M1904 539 1959.3 539" stroke="#CFDCE6" stroke-width="8" stroke-miterlimit="8" fill="none" fill-rule="evenodd"/><path d="M1987 539 2042.3 539" stroke="#CFDCE6" stroke-width="8" stroke-miterlimit="8" fill="none" fill-rule="evenodd"/><path d="M1667 522.5C1667 514.492 1673.94 508 1682.5 508 1691.06 508 1698 514.492 1698 522.5 1698 530.508 1691.06 537 1682.5 537 1673.94 537 1667 530.508 1667 522.5Z" stroke="#CFDCE6" stroke-width="8" stroke-miterlimit="8" fill="#8FACBF" fill-rule="evenodd"/><path d="M1748 522.5C1748 514.492 1754.94 508 1763.5 508 1772.06 508 1779 514.492 1779 522.5 1779 530.508 1772.06 537 1763.5 537 1754.94 537 1748 530.508 1748 522.5Z" stroke="#CFDCE6" stroke-width="8" stroke-miterlimit="8" fill="#8FACBF" fill-rule="evenodd"/><path d="M1833 522.5C1833 514.492 1839.94 508 1848.5 508 1857.06 508 1864 514.492 1864 522.5 1864 530.508 1857.06 537 1848.5 537 1839.94 537 1833 530.508 1833 522.5Z" stroke="#CFDCE6" stroke-width="8" stroke-miterlimit="8" fill="#8FACBF" fill-rule="evenodd"/><path d="M1916 522.5C1916 514.492 1922.94 508 1931.5 508 1940.06 508 1947 514.492 1947 522.5 1947 530.508 1940.06 537 1931.5 537 1922.94 537 1916 530.508 1916 522.5Z" stroke="#CFDCE6" stroke-width="8" stroke-miterlimit="8" fill="#8FACBF" fill-rule="evenodd"/><path d="M1998 522.5C1998 514.492 2005.16 508 2014 508 2022.84 508 2030 514.492 2030 522.5 2030 530.508 2022.84 537 2014 537 2005.16 537 1998 530.508 1998 522.5Z" stroke="#CFDCE6" stroke-width="8" stroke-miterlimit="8" fill="#8FACBF" fill-rule="evenodd"/><path d="M1655 493 1710.3 493" stroke="#CFDCE6" stroke-width="8" stroke-miterlimit="8" fill="none" fill-rule="evenodd"/><path d="M1738 493 1793.3 493" stroke="#CFDCE6" stroke-width="8" stroke-miterlimit="8" fill="none" fill-rule="evenodd"/><path d="M1821 493 1876.3 493" stroke="#CFDCE6" stroke-width="8" stroke-miterlimit="8" fill="none" fill-rule="evenodd"/><path d="M1904 493 1959.3 493" stroke="#CFDCE6" stroke-width="8" stroke-miterlimit="8" fill="none" fill-rule="evenodd"/><path d="M1987 493 2042.3 493" stroke="#CFDCE6" stroke-width="8" stroke-miterlimit="8" fill="none" fill-rule="evenodd"/><path d="M1667 477C1667 468.716 1674.16 462 1683 462 1691.84 462 1699 468.716 1699 477 1699 485.284 1691.84 492 1683 492 1674.16 492 1667 485.284 1667 477Z" stroke="#CFDCE6" stroke-width="8" stroke-miterlimit="8" fill="#8FACBF" fill-rule="evenodd"/><path d="M1833 477C1833 468.716 1840.16 462 1849 462 1857.84 462 1865 468.716 1865 477 1865 485.284 1857.84 492 1849 492 1840.16 492 1833 485.284 1833 477Z" stroke="#CFDCE6" stroke-width="8" stroke-miterlimit="8" fill="#8FACBF" fill-rule="evenodd"/><path d="M1999 477C1999 468.716 2005.94 462 2014.5 462 2023.06 462 2030 468.716 2030 477 2030 485.284 2023.06 492 2014.5 492 2005.94 492 1999 485.284 1999 477Z" stroke="#CFDCE6" stroke-width="8" stroke-miterlimit="8" fill="#8FACBF" fill-rule="evenodd"/><path d="M1652 308 1707.3 308" stroke="#CFDCE6" stroke-width="8" stroke-miterlimit="8" fill="none" fill-rule="evenodd"/><path d="M1735 308 1790.3 308" stroke="#CFDCE6" stroke-width="8" stroke-miterlimit="8" fill="none" fill-rule="evenodd"/><path d="M1818 308 1873.3 308" stroke="#CFDCE6" stroke-width="8" stroke-miterlimit="8" fill="none" fill-rule="evenodd"/><path d="M1901 308 1956.3 308" stroke="#CFDCE6" stroke-width="8" stroke-miterlimit="8" fill="none" fill-rule="evenodd"/><path d="M1984 308 2039.3 308" stroke="#CFDCE6" stroke-width="8" stroke-miterlimit="8" fill="none" fill-rule="evenodd"/><path d="M1653 263 1708.3 263" stroke="#CFDCE6" stroke-width="8" stroke-miterlimit="8" fill="none" fill-rule="evenodd"/><path d="M1736 263 1791.3 263" stroke="#CFDCE6" stroke-width="8" stroke-miterlimit="8" fill="none" fill-rule="evenodd"/><path d="M1819 263 1874.3 263" stroke="#CFDCE6" stroke-width="8" stroke-miterlimit="8" fill="none" fill-rule="evenodd"/><path d="M1902 263 1957.3 263" stroke="#CFDCE6" stroke-width="8" stroke-miterlimit="8" fill="none" fill-rule="evenodd"/><path d="M1985 263 2040.3 263" stroke="#CFDCE6" stroke-width="8" stroke-miterlimit="8" fill="none" fill-rule="evenodd"/><path d="M1654 217 1709.3 217" stroke="#CFDCE6" stroke-width="8" stroke-miterlimit="8" fill="none" fill-rule="evenodd"/><path d="M1737 217 1792.3 217" stroke="#CFDCE6" stroke-width="8" stroke-miterlimit="8" fill="none" fill-rule="evenodd"/><path d="M1820 217 1875.3 217" stroke="#CFDCE6" stroke-width="8" stroke-miterlimit="8" fill="none" fill-rule="evenodd"/><path d="M1903 217 1958.3 217" stroke="#CFDCE6" stroke-width="8" stroke-miterlimit="8" fill="none" fill-rule="evenodd"/><path d="M1986 217 2041.3 217" stroke="#CFDCE6" stroke-width="8" stroke-miterlimit="8" fill="none" fill-rule="evenodd"/><path d="M1654 172 1709.3 172" stroke="#CFDCE6" stroke-width="8" stroke-miterlimit="8" fill="none" fill-rule="evenodd"/><path d="M1737 172 1792.3 172" stroke="#CFDCE6" stroke-width="8" stroke-miterlimit="8" fill="none" fill-rule="evenodd"/><path d="M1820 172 1875.3 172" stroke="#CFDCE6" stroke-width="8" stroke-miterlimit="8" fill="none" fill-rule="evenodd"/><path d="M1903 172 1958.3 172" stroke="#CFDCE6" stroke-width="8" stroke-miterlimit="8" fill="none" fill-rule="evenodd"/><path d="M1986 172 2041.3 172" stroke="#CFDCE6" stroke-width="8" stroke-miterlimit="8" fill="none" fill-rule="evenodd"/><path d="M1736 423 1791.3 423" stroke="#CFDCE6" stroke-width="8" stroke-miterlimit="8" fill="none" fill-rule="evenodd"/><path d="M1748 407C1748 398.716 1754.94 392 1763.5 392 1772.06 392 1779 398.716 1779 407 1779 415.284 1772.06 422 1763.5 422 1754.94 422 1748 415.284 1748 407Z" stroke="#CFDCE6" stroke-width="8" stroke-miterlimit="8" fill="#8FACBF" fill-rule="evenodd"/><path d="M1904 424 1959.3 424" stroke="#CFDCE6" stroke-width="8" stroke-miterlimit="8" fill="none" fill-rule="evenodd"/><path d="M1916 407.5C1916 399.492 1923.16 393 1932 393 1940.84 393 1948 399.492 1948 407.5 1948 415.508 1940.84 422 1932 422 1923.16 422 1916 415.508 1916 407.5Z" stroke="#CFDCE6" stroke-width="8" stroke-miterlimit="8" fill="#8FACBF" fill-rule="evenodd"/><path d="M1301.89 141.823C1303.62 141.823 1305 142.308 1306.03 143.276 1307.06 144.245 1307.58 145.521 1307.58 147.105 1307.58 147.625 1307.51 148.125 1307.39 148.605L1307.7 148.855C1309.66 146.417 1311.52 144.636 1313.28 143.511 1315.04 142.386 1317.1 141.823 1319.45 141.823 1321.6 141.823 1323.28 142.427 1324.5 143.636 1325.72 144.844 1326.33 146.49 1326.33 148.573 1326.33 149.24 1326.26 150.073 1326.12 151.073 1325.99 152.073 1325.83 152.959 1325.64 153.73L1323.17 163.48C1322.82 164.875 1322.64 166.094 1322.64 167.136 1322.64 167.948 1322.77 168.511 1323.05 168.823 1323.32 169.136 1323.7 169.292 1324.2 169.292 1324.81 169.292 1325.48 169.006 1326.23 168.433 1326.98 167.86 1327.87 166.99 1328.89 165.823L1331.14 168.073C1329.1 170.157 1327.27 171.636 1325.65 172.511 1324.04 173.386 1322.26 173.823 1320.33 173.823 1318.12 173.823 1316.5 173.276 1315.48 172.183 1314.46 171.089 1313.95 169.48 1313.95 167.355 1313.95 165.834 1314.25 163.886 1314.86 161.511L1316.23 156.323C1316.59 154.99 1316.89 153.672 1317.14 152.37 1317.39 151.068 1317.51 150 1317.51 149.167 1317.51 148.23 1317.32 147.532 1316.92 147.073 1316.52 146.615 1315.96 146.386 1315.23 146.386 1314.21 146.386 1313.05 146.99 1311.73 148.198 1310.42 149.407 1309.37 150.683 1308.58 152.026 1307.78 153.37 1307.16 155.125 1306.7 157.292L1303.2 173.323 1294.23 173.323 1299.26 151.605C1299.58 150.25 1299.73 149.219 1299.73 148.511 1299.73 147.823 1299.62 147.292 1299.39 146.917 1299.16 146.542 1298.76 146.355 1298.2 146.355 1297.56 146.355 1296.86 146.646 1296.11 147.23 1295.36 147.813 1294.48 148.677 1293.48 149.823L1291.23 147.573C1293.32 145.448 1295.17 143.959 1296.78 143.105 1298.39 142.25 1300.1 141.823 1301.89 141.823Z" fill="#CFDCE6" fill-rule="evenodd"/><text fill="#000000" fill-opacity="0" font-family="Arial,Arial_MSFontService,sans-serif" font-size="32" x="1291.23" y="169.823">𝒏</text><path d="M1350.69 152.948 1389.19 152.948 1389.19 157.105 1350.69 157.105Z" fill="#CFDCE6" fill-rule="evenodd"/><text fill="#000000" fill-opacity="0" font-family="Arial,Arial_MSFontService,sans-serif" font-size="4.15625" x="1350.69" y="156.585">−</text><path d="M1498.28 146.417C1496.9 146.417 1495.5 147.089 1494.07 148.433 1492.65 149.776 1491.51 151.334 1490.65 153.105 1489.8 154.875 1489.02 157.375 1488.31 160.605L1488.06 161.761C1487.72 163.302 1487.56 164.813 1487.56 166.292 1487.56 167.813 1487.81 168.907 1488.32 169.573 1488.83 170.24 1489.69 170.573 1490.9 170.573 1491.94 170.573 1492.89 170.339 1493.75 169.87 1494.6 169.401 1495.41 168.636 1496.17 167.573 1496.93 166.511 1497.67 165.141 1498.39 163.464 1499.1 161.787 1499.72 159.782 1500.25 157.448 1500.77 155.115 1501.03 152.948 1501.03 150.948 1501.03 149.407 1500.8 148.266 1500.35 147.526 1499.91 146.787 1499.21 146.417 1498.28 146.417ZM1534.93 145.073C1533 145.073 1531.25 146.032 1529.7 147.948 1528.15 149.865 1526.87 152.657 1525.87 156.323 1529.7 156.219 1532.64 155.485 1534.67 154.12 1536.7 152.756 1537.71 150.823 1537.71 148.323 1537.71 147.261 1537.47 146.453 1536.98 145.901 1536.49 145.349 1535.81 145.073 1534.93 145.073ZM1535.71 141.823C1542.09 141.823 1545.28 144.125 1545.28 148.73 1545.28 150.313 1544.96 151.709 1544.32 152.917 1543.69 154.125 1542.63 155.219 1541.15 156.198 1539.67 157.177 1537.58 157.969 1534.89 158.573 1532.19 159.177 1528.93 159.521 1525.12 159.605 1524.85 160.834 1524.71 162.105 1524.71 163.417 1524.71 165.355 1525.12 166.813 1525.93 167.792 1526.75 168.771 1527.97 169.261 1529.62 169.261 1531.45 169.261 1533.11 168.891 1534.59 168.151 1536.07 167.412 1537.81 166.094 1539.81 164.198L1542.43 166.823C1540.33 169.198 1538.06 170.959 1535.64 172.105 1533.21 173.25 1530.58 173.823 1527.75 173.823 1525.31 173.823 1523.24 173.396 1521.53 172.542 1519.82 171.688 1518.53 170.422 1517.67 168.745 1516.8 167.068 1516.37 165.063 1516.37 162.73 1516.37 161.646 1516.52 160.261 1516.81 158.573 1517.2 156.282 1517.81 154.24 1518.62 152.448 1519.64 150.24 1520.97 148.344 1522.62 146.761 1524.27 145.177 1526.2 143.959 1528.42 143.105 1530.64 142.25 1533.07 141.823 1535.71 141.823ZM1484.5 141.823C1486.22 141.823 1487.6 142.308 1488.64 143.276 1489.67 144.245 1490.18 145.521 1490.18 147.105 1490.18 147.625 1490.12 148.125 1490 148.605L1490.31 148.855C1492.22 146.417 1494.08 144.636 1495.87 143.511 1497.66 142.386 1499.74 141.823 1502.09 141.823 1504.44 141.823 1506.27 142.677 1507.57 144.386 1508.88 146.094 1509.53 148.563 1509.53 151.792 1509.53 154.605 1509.12 157.396 1508.31 160.167 1507.5 162.938 1506.33 165.328 1504.81 167.339 1503.29 169.349 1501.38 170.933 1499.07 172.089 1496.77 173.245 1494.17 173.823 1491.28 173.823 1489.42 173.823 1487.63 173.5 1485.9 172.855L1484.71 178.417C1484.53 179.334 1484.39 180.047 1484.31 180.558 1484.22 181.068 1484.18 181.542 1484.18 181.98 1484.18 182.875 1484.42 183.521 1484.89 183.917 1485.35 184.313 1486.16 184.573 1487.31 184.698L1486.96 186.761 1473.96 186.761 1481.87 151.605C1482.18 150.209 1482.34 149.177 1482.34 148.511 1482.34 147.823 1482.22 147.292 1482 146.917 1481.77 146.542 1481.37 146.355 1480.81 146.355 1480.16 146.355 1479.46 146.646 1478.71 147.23 1477.96 147.813 1477.09 148.677 1476.09 149.823L1473.84 147.573C1475.92 145.448 1477.77 143.959 1479.39 143.105 1481 142.25 1482.7 141.823 1484.5 141.823ZM1447.06 141.823C1448.66 141.823 1449.96 142.058 1450.95 142.526 1451.94 142.995 1452.72 143.641 1453.31 144.464 1453.89 145.287 1454.36 146.334 1454.71 147.605 1455.01 148.605 1455.35 150.365 1455.75 152.886 1456.39 156.99 1456.94 161.021 1457.4 164.98 1459.71 161.667 1461.49 158.438 1462.73 155.292 1463.97 152.146 1464.59 149.334 1464.59 146.855 1464.59 146.063 1464.4 145.464 1464.03 145.058 1463.65 144.651 1463 144.427 1462.06 144.386L1462.5 142.323 1471.31 142.323 1472.4 144.386C1471.99 145.823 1471.34 147.563 1470.46 149.605 1469.17 152.605 1467.43 155.969 1465.25 159.698 1463.27 163.052 1461.11 166.407 1458.78 169.761 1456.05 173.677 1453.67 176.839 1451.65 179.245 1449.63 181.651 1447.88 183.427 1446.4 184.573 1445.24 185.448 1444.12 186.068 1443.06 186.433 1442 186.797 1440.87 186.98 1439.68 186.98 1438.14 186.98 1436.68 186.75 1435.31 186.292L1436.87 179.23 1440.15 179.23C1440.17 180.105 1440.3 180.75 1440.54 181.167 1440.78 181.584 1441.21 181.792 1441.84 181.792 1442.34 181.792 1442.81 181.703 1443.25 181.526 1443.68 181.349 1444.24 181 1444.9 180.48 1445.57 179.959 1446.41 179.11 1447.42 177.933 1448.43 176.756 1449.57 175.334 1450.84 173.667 1450.42 171.125 1449.89 168.131 1449.23 164.683 1448.57 161.235 1447.93 158.099 1447.31 155.276 1446.68 152.453 1446.22 150.542 1445.93 149.542 1445.64 148.542 1445.36 147.828 1445.09 147.401 1444.82 146.974 1444.57 146.693 1444.34 146.558 1444.11 146.422 1443.87 146.355 1443.62 146.355 1443.1 146.355 1442.62 146.568 1442.18 146.995 1441.75 147.422 1441.17 148.323 1440.46 149.698L1437.62 148.386C1438.83 146.198 1440.2 144.558 1441.75 143.464 1443.29 142.37 1445.06 141.823 1447.06 141.823ZM1420.71 134.511 1428.21 134.511 1426.4 142.323 1434 142.323 1433.15 146.23 1425.5 146.23 1422.46 158.73C1421.94 160.875 1421.58 162.506 1421.39 163.62 1421.19 164.735 1421.09 165.677 1421.09 166.448 1421.09 167.427 1421.27 168.141 1421.62 168.589 1421.97 169.037 1422.5 169.261 1423.18 169.261 1424.12 169.261 1425.08 168.927 1426.07 168.261 1427.06 167.594 1428.13 166.563 1429.28 165.167L1431.68 167.636C1429.58 169.948 1427.65 171.558 1425.89 172.464 1424.13 173.37 1422.05 173.823 1419.65 173.823 1417.28 173.823 1415.45 173.214 1414.18 171.995 1412.91 170.776 1412.28 169.094 1412.28 166.948 1412.28 165.969 1412.35 165.037 1412.5 164.151 1412.64 163.266 1412.94 161.813 1413.4 159.792L1416.62 146.23 1411.75 146.23 1412.34 143.698C1413.8 143.698 1414.9 143.563 1415.65 143.292 1416.4 143.021 1417.03 142.615 1417.54 142.073 1418.05 141.532 1418.55 140.709 1419.03 139.605 1419.51 138.5 1420.07 136.802 1420.71 134.511Z" fill="#CFDCE6" fill-rule="evenodd"/><text fill="#000000" fill-opacity="0" font-family="Arial,Arial_MSFontService,sans-serif" font-size="52.4688" x="1411.75" y="180.421">𝒕𝒚𝒑𝒆</text><text fill="#CFDCE6" font-family="Calibri,Calibri_MSFontService,sans-serif" font-weight="700" font-size="64" transform="translate(1747.53 84)">p</text><path d="M1786.52 63.941 1825.02 63.941 1825.02 68.0973 1786.52 68.0973Z" fill="#CFDCE6" fill-rule="evenodd"/><text fill="#000000" fill-opacity="0" font-family="Arial,Arial_MSFontService,sans-serif" font-size="4.15625" x="1786.52" y="67.5777">−</text><path d="M1919.89 57.4098C1918.51 57.4098 1917.11 58.0816 1915.68 59.4254 1914.26 60.7691 1913.12 62.3264 1912.26 64.0973 1911.41 65.8681 1910.63 68.3681 1909.92 71.5973L1909.67 72.7535C1909.34 74.2952 1909.17 75.8056 1909.17 77.2848 1909.17 78.8056 1909.42 79.8993 1909.93 80.566 1910.44 81.2327 1911.3 81.566 1912.51 81.566 1913.55 81.566 1914.5 81.3316 1915.36 80.8629 1916.21 80.3941 1917.02 79.6285 1917.78 78.566 1918.54 77.5035 1919.28 76.1337 1920 74.4566 1920.72 72.7795 1921.34 70.7743 1921.86 68.441 1922.38 66.1077 1922.64 63.941 1922.64 61.941 1922.64 60.3993 1922.41 59.2587 1921.97 58.5191 1921.52 57.7795 1920.83 57.4098 1919.89 57.4098ZM1956.54 56.066C1954.61 56.066 1952.86 57.0243 1951.31 58.941 1949.76 60.8577 1948.48 63.6493 1947.48 67.316 1951.31 67.2118 1954.25 66.4775 1956.28 65.1129 1958.31 63.7483 1959.33 61.816 1959.33 59.316 1959.33 58.2535 1959.08 57.4462 1958.59 56.8941 1958.1 56.342 1957.42 56.066 1956.54 56.066ZM1957.33 52.816C1963.7 52.816 1966.89 55.1181 1966.89 59.7223 1966.89 61.3056 1966.57 62.7014 1965.93 63.9098 1965.3 65.1181 1964.24 66.2118 1962.76 67.191 1961.28 68.1702 1959.19 68.9618 1956.5 69.566 1953.8 70.1702 1950.54 70.5139 1946.73 70.5973 1946.46 71.8264 1946.33 73.0973 1946.33 74.4098 1946.33 76.3473 1946.73 77.8056 1947.54 78.7848 1948.36 79.7639 1949.59 80.2535 1951.23 80.2535 1953.06 80.2535 1954.72 79.8837 1956.2 79.1441 1957.68 78.4045 1959.42 77.0868 1961.42 75.191L1964.04 77.816C1961.94 80.191 1959.67 81.9514 1957.25 83.0973 1954.82 84.2431 1952.19 84.816 1949.36 84.816 1946.92 84.816 1944.85 84.3889 1943.14 83.5348 1941.43 82.6806 1940.14 81.415 1939.28 79.7379 1938.41 78.0608 1937.98 76.0556 1937.98 73.7223 1937.98 72.6389 1938.13 71.2535 1938.42 69.566 1938.81 67.2743 1939.42 65.2327 1940.23 63.441 1941.25 61.2327 1942.59 59.3368 1944.23 57.7535 1945.88 56.1702 1947.81 54.9514 1950.03 54.0973 1952.25 53.2431 1954.68 52.816 1957.33 52.816ZM1906.11 52.816C1907.84 52.816 1909.22 53.3004 1910.25 54.2691 1911.28 55.2379 1911.79 56.5139 1911.79 58.0973 1911.79 58.6181 1911.73 59.1181 1911.61 59.5973L1911.92 59.8473C1913.84 57.4098 1915.69 55.6285 1917.48 54.5035 1919.27 53.3785 1921.35 52.816 1923.7 52.816 1926.05 52.816 1927.88 53.6702 1929.18 55.3785 1930.49 57.0868 1931.14 59.5556 1931.14 62.7848 1931.14 65.5973 1930.73 68.3889 1929.92 71.1598 1929.11 73.9306 1927.94 76.3212 1926.42 78.3316 1924.9 80.342 1922.99 81.9254 1920.68 83.0816 1918.38 84.2379 1915.78 84.816 1912.89 84.816 1911.03 84.816 1909.24 84.4931 1907.51 83.8473L1906.33 89.4098C1906.14 90.3264 1906 91.04 1905.92 91.5504 1905.84 92.0608 1905.79 92.5348 1905.79 92.9723 1905.79 93.8681 1906.03 94.5139 1906.5 94.9098 1906.97 95.3056 1907.77 95.566 1908.92 95.691L1908.58 97.7535 1895.58 97.7535 1903.48 62.5973C1903.79 61.2014 1903.95 60.1702 1903.95 59.5035 1903.95 58.816 1903.84 58.2848 1903.61 57.9098 1903.38 57.5348 1902.98 57.3473 1902.42 57.3473 1901.77 57.3473 1901.08 57.6389 1900.33 58.2223 1899.58 58.8056 1898.7 59.6702 1897.7 60.816L1895.45 58.566C1897.53 56.441 1899.38 54.9514 1901 54.0973 1902.61 53.2431 1904.31 52.816 1906.11 52.816ZM1868.67 52.816C1870.27 52.816 1871.57 53.0504 1872.56 53.5191 1873.55 53.9879 1874.34 54.6337 1874.92 55.4566 1875.5 56.2795 1875.97 57.3264 1876.33 58.5973 1876.62 59.5973 1876.96 61.3577 1877.36 63.8785 1878 67.9827 1878.55 72.0139 1879.01 75.9723 1881.33 72.6598 1883.1 69.4306 1884.34 66.2848 1885.58 63.1389 1886.2 60.3264 1886.2 57.8473 1886.2 57.0556 1886.01 56.4566 1885.64 56.0504 1885.26 55.6441 1884.61 55.4202 1883.67 55.3785L1884.11 53.316 1892.92 53.316 1894.01 55.3785C1893.6 56.816 1892.95 58.5556 1892.08 60.5973 1890.78 63.5973 1889.04 66.9618 1886.86 70.691 1884.88 74.0452 1882.72 77.3993 1880.39 80.7535 1877.66 84.6702 1875.28 87.8316 1873.26 90.2379 1871.24 92.6441 1869.49 94.4202 1868.01 95.566 1866.85 96.441 1865.73 97.0608 1864.67 97.4254 1863.61 97.79 1862.48 97.9723 1861.29 97.9723 1859.75 97.9723 1858.29 97.7431 1856.92 97.2848L1858.48 90.2223 1861.76 90.2223C1861.78 91.0973 1861.91 91.7431 1862.15 92.1598 1862.39 92.5764 1862.83 92.7848 1863.45 92.7848 1863.95 92.7848 1864.42 92.6962 1864.86 92.5191 1865.29 92.342 1865.85 91.9931 1866.51 91.4723 1867.18 90.9514 1868.02 90.1025 1869.03 88.9254 1870.04 87.7483 1871.18 86.3264 1872.45 84.6598 1872.03 82.1181 1871.5 79.1233 1870.84 75.6754 1870.18 72.2275 1869.54 69.0921 1868.92 66.2691 1868.29 63.4462 1867.84 61.5348 1867.54 60.5348 1867.25 59.5348 1866.97 58.8212 1866.7 58.3941 1866.43 57.967 1866.18 57.6858 1865.95 57.5504 1865.72 57.415 1865.48 57.3473 1865.23 57.3473 1864.71 57.3473 1864.23 57.5608 1863.79 57.9879 1863.36 58.415 1862.78 59.316 1862.08 60.691L1859.23 59.3785C1860.44 57.191 1861.81 55.5504 1863.36 54.4566 1864.9 53.3629 1866.67 52.816 1868.67 52.816ZM1842.33 45.5035 1849.83 45.5035 1848.01 53.316 1855.61 53.316 1854.76 57.2223 1847.11 57.2223 1844.08 69.7223C1843.55 71.8681 1843.19 73.4983 1843 74.6129 1842.8 75.7275 1842.7 76.6702 1842.7 77.441 1842.7 78.4202 1842.88 79.1337 1843.23 79.5816 1843.59 80.0295 1844.11 80.2535 1844.79 80.2535 1845.73 80.2535 1846.69 79.9202 1847.68 79.2535 1848.67 78.5868 1849.74 77.5556 1850.89 76.1598L1853.29 78.6285C1851.19 80.941 1849.26 82.5504 1847.5 83.4566 1845.74 84.3629 1843.66 84.816 1841.26 84.816 1838.89 84.816 1837.06 84.2066 1835.79 82.9879 1834.52 81.7691 1833.89 80.0868 1833.89 77.941 1833.89 76.9618 1833.96 76.0295 1834.11 75.1441 1834.25 74.2587 1834.55 72.8056 1835.01 70.7848L1838.23 57.2223 1833.36 57.2223 1833.95 54.691C1835.41 54.691 1836.51 54.5556 1837.26 54.2848 1838.01 54.0139 1838.64 53.6077 1839.15 53.066 1839.66 52.5243 1840.16 51.7014 1840.64 50.5973 1841.12 49.4931 1841.68 47.7952 1842.33 45.5035Z" fill="#CFDCE6" fill-rule="evenodd"/><text fill="#000000" fill-opacity="0" font-family="Arial,Arial_MSFontService,sans-serif" font-size="52.4688" x="1833.36" y="91.4137">𝒕𝒚𝒑𝒆</text><path d="M512.18 27.6474 513.024 30.0537C508.149 31.6578 504.539 34.788 502.196 39.4443 499.852 44.1005 498.68 49.9495 498.68 56.9912 498.68 64.2828 499.852 70.2933 502.196 75.0224 504.539 79.7516 508.118 82.9183 512.93 84.5224L512.18 86.9287C506.076 85.3245 501.399 81.8714 498.149 76.5693 494.899 71.2672 493.274 64.8453 493.274 57.3037 493.274 49.7828 494.904 43.361 498.164 38.038 501.425 32.7151 506.097 29.2516 512.18 27.6474Z" fill="#CFDCE6" fill-rule="evenodd"/><text fill="#000000" fill-opacity="0" font-family="Arial,Arial_MSFontService,sans-serif" font-size="59.2812" x="493.274" y="79.5185">(</text><path d="M536.086 44.5537C534.149 44.5537 532.43 45.5276 530.93 47.4755 529.43 49.4235 528.222 52.0433 527.305 55.3349 526.388 58.6266 525.93 61.5745 525.93 64.1787 525.93 65.6995 526.154 66.8349 526.602 67.5849 527.05 68.3349 527.743 68.7099 528.68 68.7099 530.055 68.7099 531.456 68.038 532.883 66.6943 534.31 65.3505 535.461 63.7724 536.336 61.9599 537.211 60.1474 537.993 57.6683 538.68 54.5224L538.93 53.3662C539.263 51.8245 539.43 50.2828 539.43 48.7412 539.43 47.3662 539.17 46.3245 538.649 45.6162 538.128 44.9078 537.274 44.5537 536.086 44.5537ZM535.711 41.3037C538.815 41.3037 541.461 42.0537 543.649 43.5537L546.68 41.3037 550.18 41.8037 545.118 63.0537C544.805 64.3662 544.649 65.5537 544.649 66.6162 544.649 67.3037 544.763 67.8349 544.993 68.2099 545.222 68.5849 545.618 68.7724 546.18 68.7724 546.826 68.7724 547.524 68.4808 548.274 67.8974 549.024 67.3141 549.899 66.4495 550.899 65.3037L553.149 67.5537C550.961 69.7412 549.076 71.2464 547.493 72.0693 545.909 72.8922 544.243 73.3037 542.493 73.3037 540.743 73.3037 539.357 72.8193 538.336 71.8505 537.315 70.8818 536.805 69.6058 536.805 68.0224 536.805 67.5016 536.868 67.0016 536.993 66.5224L536.555 66.4599C535.034 68.2516 533.727 69.6005 532.633 70.5068 531.539 71.413 530.378 72.1058 529.149 72.5849 527.92 73.0641 526.555 73.3037 525.055 73.3037 522.555 73.3037 520.659 72.4547 519.368 70.7568 518.076 69.0589 517.43 66.5849 517.43 63.3349 517.43 60.5224 517.836 57.7308 518.649 54.9599 519.461 52.1891 520.628 49.7985 522.149 47.788 523.67 45.7776 525.581 44.1943 527.883 43.038 530.185 41.8818 532.795 41.3037 535.711 41.3037Z" fill="#CFDCE6" fill-rule="evenodd"/><text fill="#000000" fill-opacity="0" font-family="Arial,Arial_MSFontService,sans-serif" font-size="32" x="517.43" y="69.3037">𝒂</text><path d="M556.013 27.6474C562.097 29.2516 566.769 32.7151 570.029 38.038 573.289 43.361 574.92 49.7828 574.92 57.3037 574.92 64.8453 573.295 71.2672 570.045 76.5693 566.795 81.8714 562.118 85.3245 556.013 86.9287L555.263 84.5224C560.076 82.9183 563.654 79.7516 565.998 75.0224 568.342 70.2933 569.513 64.2828 569.513 56.9912 569.513 49.9495 568.347 44.1005 566.013 39.4443 563.68 34.788 560.065 31.6578 555.17 30.0537Z" fill="#CFDCE6" fill-rule="evenodd"/><text fill="#000000" fill-opacity="0" font-family="Arial,Arial_MSFontService,sans-serif" font-size="59.2812" x="555.17" y="79.5185">)</text><path d="M1584.1 18.8097 1584.94 21.216C1580.07 22.8202 1576.46 25.9504 1574.11 30.6066 1571.77 35.2629 1570.6 41.1118 1570.6 48.1535 1570.6 55.4452 1571.77 61.4556 1574.11 66.1847 1576.46 70.9139 1580.04 74.0806 1584.85 75.6847L1584.1 78.091C1577.99 76.4868 1573.32 73.0337 1570.07 67.7316 1566.82 62.4295 1565.19 56.0077 1565.19 48.466 1565.19 40.9452 1566.82 34.5233 1570.08 29.2004 1573.34 23.8774 1578.01 20.4139 1584.1 18.8097Z" fill="#CFDCE6" fill-rule="evenodd"/><text fill="#000000" fill-opacity="0" font-family="Arial,Arial_MSFontService,sans-serif" font-size="59.2813" x="1565.19" y="70.6808">(</text><path d="M1610.38 37.0597C1609 37.0597 1607.6 37.7316 1606.18 39.0754 1604.75 40.4191 1603.61 41.9764 1602.75 43.7472 1601.9 45.5181 1601.12 48.0181 1600.41 51.2472L1600.16 52.4035C1599.83 53.9452 1599.66 55.4556 1599.66 56.9347 1599.66 58.4556 1599.92 59.5493 1600.43 60.216 1600.94 60.8827 1601.8 61.216 1603 61.216 1604.05 61.216 1604.99 60.9816 1605.85 60.5129 1606.7 60.0441 1607.51 59.2785 1608.27 58.216 1609.03 57.1535 1609.77 55.7837 1610.49 54.1066 1611.21 52.4295 1611.83 50.4243 1612.35 48.091 1612.87 45.7577 1613.13 43.591 1613.13 41.591 1613.13 40.0493 1612.9 38.9087 1612.46 38.1691 1612.01 37.4295 1611.32 37.0597 1610.38 37.0597ZM1604.07 19.216 1607.72 19.216 1602.94 38.341 1603.35 38.466C1605.16 36.341 1606.86 34.8097 1608.46 33.8722 1610.05 32.9347 1611.95 32.466 1614.16 32.466 1616.54 32.466 1618.37 33.3202 1619.68 35.0285 1620.98 36.7368 1621.63 39.2056 1621.63 42.4347 1621.63 44.2681 1621.41 46.2837 1620.97 48.4816 1620.54 50.6795 1619.92 52.6274 1619.13 54.3254 1618.34 56.0233 1617.39 57.5077 1616.29 58.7785 1615.18 60.0493 1613.95 61.1014 1612.58 61.9347 1611.22 62.7681 1609.74 63.3983 1608.16 63.8254 1606.58 64.2524 1604.88 64.466 1603.07 64.466 1601.69 64.466 1600.38 64.2993 1599.13 63.966 1597.88 63.6327 1596.59 63.0493 1595.25 62.216L1592.35 64.466 1588.94 63.966 1596.85 28.6535C1597.29 26.6952 1597.5 25.2056 1597.5 24.1847 1597.5 23.5389 1597.4 23.0702 1597.21 22.7785 1597.01 22.4868 1596.74 22.2785 1596.41 22.1535 1596.08 22.0285 1595.4 21.8931 1594.38 21.7472L1594.88 19.716Z" fill="#CFDCE6" fill-rule="evenodd"/><text fill="#000000" fill-opacity="0" font-family="Arial,Arial_MSFontService,sans-serif" font-size="45.25" x="1588.94" y="58.8097">𝒃</text><path d="M1626.93 18.8097C1633.01 20.4139 1637.69 23.8774 1640.95 29.2004 1644.21 34.5233 1645.84 40.9452 1645.84 48.466 1645.84 56.0077 1644.21 62.4295 1640.96 67.7316 1637.71 73.0337 1633.04 76.4868 1626.93 78.091L1626.18 75.6847C1630.99 74.0806 1634.57 70.9139 1636.92 66.1847 1639.26 61.4556 1640.43 55.4452 1640.43 48.1535 1640.43 41.1118 1639.26 35.2629 1636.93 30.6066 1634.6 25.9504 1630.98 22.8202 1626.09 21.216Z" fill="#CFDCE6" fill-rule="evenodd"/><text fill="#000000" fill-opacity="0" font-family="Arial,Arial_MSFontService,sans-serif" font-size="59.2813" x="1626.09" y="70.6808">)</text></g></svg>