<svg width="1274" height="526" xmlns="http://www.w3.org/2000/svg" xmlns:xlink="http://www.w3.org/1999/xlink" overflow="hidden"><defs><clipPath id="clip0"><rect x="574" y="71" width="1274" height="526"/></clipPath></defs><g clip-path="url(#clip0)" transform="translate(-574 -71)"><path d="M1101 346C1101 276.964 1158.98 221 1230.5 221 1302.02 221 1360 276.964 1360 346 1360 415.036 1302.02 471 1230.5 471 1158.98 471 1101 415.036 1101 346Z" stroke="#CFDCE6" stroke-width="8" stroke-miterlimit="8" fill="none" fill-rule="evenodd"/><path d="M1183 276 1183 416" stroke="#CFDCE6" stroke-width="8" stroke-miterlimit="8" fill="none" fill-rule="evenodd"/><path d="M0 0 146.861 0.000104987" stroke="#CFDCE6" stroke-width="8" stroke-miterlimit="8" fill="none" fill-rule="evenodd" transform="matrix(-1 0 0 1 1182.86 346)"/><path d="M1.63543-3.65039 101.547 41.1114 98.2762 48.4122-1.63543 3.65039ZM86.9853 19.8438 107.156 48.0076 72.7121 51.7029C70.5155 51.9385 68.5438 50.3489 68.3082 48.1524 68.0725 45.9558 69.6622 43.9841 71.8587 43.7485L99.4851 40.7847 96.6598 47.0909 80.4814 24.502C79.1951 22.706 79.6083 20.2073 81.4043 18.9209 83.2003 17.6346 85.699 18.0478 86.9853 19.8438Z" fill="#CFDCE6" transform="matrix(-1 0 0 1 1290.14 261)"/><path d="M1290.14 424 1183 376" stroke="#CFDCE6" stroke-width="8" stroke-miterlimit="8" fill="none" fill-rule="evenodd"/><path d="M1290 163 1290 261" stroke="#CFDCE6" stroke-width="8" stroke-miterlimit="8" fill="none" fill-rule="evenodd"/><path d="M1290 424 1290 515" stroke="#CFDCE6" stroke-width="8" stroke-miterlimit="8" fill="none" fill-rule="evenodd"/><path d="M983.493 344.734 979.868 361.297C980.743 361.359 982.077 361.39 983.868 361.39 986.452 361.39 988.499 360.911 990.009 359.953 991.52 358.994 992.639 357.651 993.368 355.922 994.098 354.192 994.462 352.422 994.462 350.609 994.462 346.692 992.243 344.734 987.806 344.734ZM991.243 326.047C989.785 326.047 988.556 326.099 987.556 326.203L984.275 341.078 989.15 341.078C990.983 341.078 992.582 340.666 993.947 339.843 995.311 339.02 996.358 337.88 997.087 336.422 997.816 334.963 998.181 333.286 998.181 331.39 998.181 329.599 997.618 328.26 996.493 327.375 995.368 326.489 993.618 326.047 991.243 326.047ZM975.525 322.39 993.462 322.39C997.129 322.39 999.988 322.713 1002.04 323.359 1004.09 324.005 1005.58 324.963 1006.49 326.234 1007.41 327.505 1007.87 329.109 1007.87 331.047 1007.87 333.942 1007.07 336.328 1005.48 338.203 1003.88 340.078 1001.32 341.703 997.775 343.078L997.712 343.422C999.671 344.213 1001.19 345.317 1002.26 346.734 1003.33 348.151 1003.87 349.786 1003.87 351.64 1003.87 354.182 1003.26 356.401 1002.04 358.297 1000.82 360.192 998.879 361.791 996.212 363.093 993.546 364.395 989.441 365.047 983.9 365.047L966.931 365.047 967.368 362.984C968.556 362.651 969.431 362.067 969.993 361.234 970.556 360.401 971.087 358.859 971.587 356.609L977.275 330.828C977.546 329.599 977.681 328.38 977.681 327.172 977.681 326.297 977.478 325.656 977.072 325.25 976.665 324.843 976.004 324.578 975.087 324.453Z" fill="#CFDCE6" fill-rule="evenodd"/><text fill="#000000" fill-opacity="0" font-family="Arial,Arial_MSFontService,sans-serif" font-size="42.6562" x="966.931" y="359.714">𝑩</text><path d="M1279.17 88.5421 1309.52 88.5421 1307.3 98.6046 1303.3 98.6046C1303.2 96.6254 1303.01 95.24 1302.74 94.4483 1302.47 93.6566 1302.05 93.0837 1301.49 92.7296 1300.92 92.3754 1300.13 92.1983 1299.11 92.1983L1291.27 92.1983 1287.96 107.198 1292.3 107.198C1293.13 107.198 1293.84 107.063 1294.41 106.792 1294.98 106.521 1295.51 106.068 1296 105.433 1296.49 104.797 1296.98 103.917 1297.46 102.792L1300.89 102.792 1297.89 115.48 1294.67 115.48C1294.67 114.271 1294.6 113.344 1294.46 112.698 1294.31 112.052 1294.04 111.584 1293.64 111.292 1293.25 111 1292.57 110.855 1291.61 110.855L1287.17 110.855 1283.49 127.542 1290.52 127.542C1291.44 127.542 1292.15 127.48 1292.66 127.355 1293.17 127.23 1293.64 127.032 1294.07 126.761 1294.49 126.49 1294.99 126.058 1295.55 125.464 1296.11 124.87 1296.67 124.12 1297.22 123.214 1297.77 122.308 1298.34 121.219 1298.92 119.948L1303.17 119.948 1300.3 131.198 1270.58 131.198 1271.02 129.136C1272.21 128.802 1273.08 128.219 1273.64 127.386 1274.21 126.552 1274.74 125.011 1275.24 122.761L1280.92 96.9796C1281.2 95.7504 1281.33 94.5316 1281.33 93.3233 1281.33 92.4483 1281.13 91.8077 1280.72 91.4014 1280.32 90.9952 1279.65 90.7296 1278.74 90.6046Z" fill="#CFDCE6" fill-rule="evenodd"/><text fill="#000000" fill-opacity="0" font-family="Arial,Arial_MSFontService,sans-serif" font-size="42.6562" x="1270.58" y="125.866">𝑬</text><path d="M1298.44 535.914C1302 535.914 1305.5 536.424 1308.94 537.445L1306.94 546.57 1302.84 546.57C1302.78 544.716 1302.59 543.32 1302.28 542.382 1301.97 541.445 1301.48 540.742 1300.81 540.273 1300.15 539.804 1299.24 539.57 1298.09 539.57 1296.34 539.57 1294.62 540.257 1292.91 541.632 1291.2 543.007 1289.62 545.085 1288.17 547.867 1286.72 550.648 1285.56 553.934 1284.67 557.726 1283.79 561.518 1283.34 564.934 1283.34 567.976 1283.34 569.726 1283.51 571.174 1283.83 572.32 1284.15 573.466 1284.71 574.351 1285.52 574.976 1286.32 575.601 1287.43 575.914 1288.84 575.914 1291.01 575.914 1292.81 575.372 1294.24 574.289 1295.66 573.205 1296.95 571.341 1298.09 568.695L1302.19 568.695 1300.19 577.914C1298.17 578.497 1296.16 578.919 1294.16 579.179 1292.16 579.44 1290.01 579.57 1287.72 579.57 1283.28 579.57 1279.88 578.356 1277.5 575.929 1275.13 573.502 1273.94 570.007 1273.94 565.445 1273.94 563.716 1274.13 561.726 1274.5 559.476 1275.1 555.914 1276.1 552.622 1277.5 549.601 1278.9 546.58 1280.65 544.044 1282.77 541.992 1284.88 539.94 1287.26 538.414 1289.89 537.414 1292.53 536.414 1295.38 535.914 1298.44 535.914Z" fill="#CFDCE6" fill-rule="evenodd"/><text fill="#000000" fill-opacity="0" font-family="Arial,Arial_MSFontService,sans-serif" font-size="43.6562" x="1273.94" y="574.113">𝑪</text><path d="M575 358C575 344.193 586.417 333 600.5 333 614.583 333 626 344.193 626 358 626 371.807 614.583 383 600.5 383 586.417 383 575 371.807 575 358Z" fill="#03111A" fill-rule="evenodd"/><path d="M1796 353C1796 339.193 1807.42 328 1821.5 328 1835.58 328 1847 339.193 1847 353 1847 366.807 1835.58 378 1821.5 378 1807.42 378 1796 366.807 1796 353Z" fill="#03111A" fill-rule="evenodd"/><path d="M0 0 146.861 0.000104987" stroke="#CFDCE6" stroke-width="8" stroke-miterlimit="8" fill="none" fill-rule="evenodd" transform="matrix(-1 0 0 1 1436.86 201)"/><path d="M980.906 403.562C979.969 403.562 979.057 403.801 978.172 404.28 977.286 404.759 976.563 405.442 976 406.327 975.438 407.213 975.156 408.207 975.156 409.312L975.156 419.905C975.156 422.468 975.599 424.358 976.484 425.577 977.37 426.796 978.74 427.405 980.594 427.405 982.51 427.405 983.974 426.4 984.984 424.39 985.995 422.379 986.5 419.509 986.5 415.78 986.5 411.634 986.047 408.562 985.141 406.562 984.234 404.562 982.823 403.562 980.906 403.562ZM1001.78 399.155 1013.94 399.155 1013.94 416.499C1013.94 418.77 1014.02 420.515 1014.19 421.733 1014.35 422.952 1014.74 423.926 1015.36 424.655 1015.97 425.384 1016.89 425.749 1018.09 425.749 1018.86 425.749 1019.68 425.509 1020.53 425.03 1021.39 424.551 1022.11 423.879 1022.7 423.015 1023.3 422.15 1023.59 421.228 1023.59 420.249L1023.59 408.187C1023.59 406.249 1023.53 404.879 1023.41 404.077 1023.28 403.275 1023.02 402.671 1022.61 402.265 1022.2 401.858 1021.49 401.509 1020.47 401.218L1020.47 399.155 1032.66 399.155 1032.66 421.03C1032.66 422.614 1032.68 423.77 1032.73 424.499 1032.79 425.228 1032.91 425.812 1033.09 426.249 1033.28 426.687 1033.58 427.046 1034 427.327 1034.42 427.608 1035.11 427.853 1036.09 428.062L1036.09 430.155 1027.59 430.437 1023.81 430.437 1024.09 425.937 1023.72 425.843C1021.78 427.634 1020.05 428.884 1018.53 429.593 1017.01 430.301 1015.48 430.655 1013.94 430.655 1010.81 430.655 1008.53 429.796 1007.08 428.077 1005.63 426.358 1004.91 423.541 1004.91 419.624L1004.91 408.187C1004.91 406.187 1004.85 404.822 1004.73 404.093 1004.62 403.364 1004.36 402.77 1003.95 402.312 1003.55 401.853 1002.82 401.489 1001.78 401.218ZM910.656 398.905 914.563 398.905 914.563 421.124C914.563 423.124 914.62 424.494 914.734 425.233 914.849 425.973 915.104 426.567 915.5 427.015 915.896 427.463 916.625 427.822 917.688 428.093L917.688 430.155 902.438 430.155 902.438 428.093C903.458 427.822 904.161 427.468 904.547 427.03 904.932 426.593 905.193 425.999 905.328 425.249 905.464 424.499 905.531 423.134 905.531 421.155L905.531 406.624C905.531 405.166 905.438 404.129 905.25 403.515 905.063 402.9 904.755 402.431 904.328 402.108 903.901 401.785 903.146 401.509 902.063 401.28L902.063 399.155ZM984.875 398.655C988.583 398.655 991.365 399.963 993.219 402.577 995.073 405.192 996 409.103 996 414.312 996 419.749 994.776 423.832 992.328 426.562 989.88 429.291 986.26 430.655 981.469 430.655 979.323 430.655 977.219 430.384 975.156 429.843L975.156 435.749C975.156 437.312 975.24 438.416 975.406 439.062 975.573 439.707 975.87 440.218 976.297 440.593 976.724 440.968 977.479 441.28 978.563 441.53L978.563 443.593 963 443.593 963 441.53C963.979 441.239 964.661 440.916 965.047 440.562 965.432 440.207 965.708 439.713 965.875 439.077 966.042 438.442 966.125 437.332 966.125 435.749L966.125 408.405C966.125 406.801 966.104 405.645 966.063 404.937 966.021 404.228 965.901 403.64 965.703 403.171 965.505 402.702 965.198 402.322 964.781 402.03 964.365 401.739 963.656 401.489 962.656 401.28L962.656 399.155 971.313 398.905 975.156 398.905 974.688 403.437 975.063 403.53C976.854 401.801 978.526 400.556 980.078 399.796 981.63 399.035 983.229 398.655 984.875 398.655ZM945.344 398.655C947.052 398.655 948.469 398.9 949.594 399.39 950.719 399.879 951.63 400.593 952.328 401.53 953.026 402.468 953.526 403.614 953.828 404.968 954.13 406.322 954.281 407.895 954.281 409.687L954.281 421.124C954.281 423.103 954.344 424.468 954.469 425.218 954.594 425.968 954.854 426.567 955.25 427.015 955.646 427.463 956.375 427.822 957.438 428.093L957.438 430.155 942.281 430.155 942.281 428.093C943.24 427.864 943.906 427.525 944.281 427.077 944.656 426.629 944.911 426.025 945.047 425.265 945.182 424.504 945.25 423.134 945.25 421.155L945.25 412.812C945.25 411.291 945.208 409.973 945.125 408.858 945.042 407.744 944.896 406.879 944.688 406.265 944.479 405.65 944.219 405.15 943.906 404.765 943.594 404.379 943.229 404.082 942.813 403.874 942.396 403.666 941.813 403.562 941.063 403.562 940.271 403.562 939.448 403.806 938.594 404.296 937.74 404.785 937.021 405.463 936.438 406.327 935.854 407.192 935.563 408.114 935.563 409.093L935.563 421.124C935.563 423.103 935.625 424.478 935.75 425.249 935.875 426.02 936.13 426.629 936.516 427.077 936.901 427.525 937.583 427.864 938.563 428.093L938.563 430.155 923.469 430.155 923.469 428.093C924.469 427.822 925.161 427.468 925.547 427.03 925.932 426.593 926.193 425.999 926.328 425.249 926.464 424.499 926.531 423.134 926.531 421.155L926.531 408.312C926.531 406.77 926.505 405.629 926.453 404.89 926.401 404.15 926.276 403.556 926.078 403.108 925.88 402.66 925.578 402.296 925.172 402.015 924.766 401.733 924.063 401.489 923.063 401.28L923.063 399.155 931.625 398.905 935.563 398.905 935.094 403.405 935.469 403.499C937.469 401.707 939.224 400.452 940.734 399.733 942.245 399.015 943.781 398.655 945.344 398.655ZM1045.41 391.343 1052.88 391.343 1052.88 399.155 1061.78 399.155 1061.78 403.062 1052.88 403.062 1052.88 417.155C1052.88 419.509 1052.98 421.249 1053.2 422.374 1053.42 423.499 1053.79 424.327 1054.31 424.858 1054.83 425.39 1055.48 425.655 1056.25 425.655 1057.27 425.655 1058.15 425.478 1058.88 425.124 1059.6 424.77 1060.27 424.322 1060.88 423.78L1062.84 426.405C1061.01 427.968 1059.34 429.067 1057.84 429.702 1056.34 430.338 1054.76 430.655 1053.09 430.655 1049.99 430.655 1047.67 429.817 1046.14 428.14 1044.61 426.463 1043.84 423.926 1043.84 420.53L1043.84 403.062 1039.94 403.062 1039.94 400.905C1041.21 400.697 1042.15 400.384 1042.75 399.968 1043.35 399.551 1043.82 398.994 1044.16 398.296 1044.49 397.598 1044.76 396.687 1044.95 395.562 1045.15 394.437 1045.3 393.03 1045.41 391.343ZM905.75 386.687 914.313 386.687 914.313 394.343 905.75 394.343Z" fill="#CFDCE6" fill-rule="evenodd"/><text fill="#000000" fill-opacity="0" font-family="Arial,Arial_MSFontService,sans-serif" font-size="56.9062" x="902.063" y="436.479">𝐢𝐧𝐩𝐮𝐭</text><path d="M1579.7 195.934C1578.76 195.934 1577.85 196.173 1576.96 196.652 1576.08 197.132 1575.35 197.814 1574.79 198.699 1574.23 199.585 1573.95 200.579 1573.95 201.684L1573.95 212.277C1573.95 214.84 1574.39 216.73 1575.27 217.949 1576.16 219.168 1577.53 219.777 1579.38 219.777 1581.3 219.777 1582.76 218.772 1583.77 216.762 1584.78 214.751 1585.29 211.882 1585.29 208.152 1585.29 204.007 1584.84 200.934 1583.93 198.934 1583.02 196.934 1581.61 195.934 1579.7 195.934ZM1476.79 194.277C1474.73 194.277 1473.23 195.262 1472.3 197.23 1471.38 199.199 1470.91 202.309 1470.91 206.559 1470.91 210.975 1471.41 214.283 1472.4 216.48 1473.39 218.678 1474.88 219.777 1476.88 219.777 1478.86 219.777 1480.32 218.814 1481.26 216.887 1482.2 214.96 1482.66 211.882 1482.66 207.652 1482.66 203.173 1482.17 199.824 1481.18 197.605 1480.19 195.387 1478.73 194.277 1476.79 194.277ZM1600.57 191.527 1612.73 191.527 1612.73 208.871C1612.73 211.142 1612.81 212.887 1612.98 214.105 1613.14 215.324 1613.53 216.298 1614.15 217.027 1614.76 217.757 1615.67 218.121 1616.88 218.121 1617.65 218.121 1618.47 217.882 1619.32 217.402 1620.17 216.923 1620.9 216.251 1621.49 215.387 1622.09 214.522 1622.38 213.6 1622.38 212.621L1622.38 200.559C1622.38 198.621 1622.32 197.251 1622.2 196.449 1622.07 195.647 1621.8 195.043 1621.4 194.637 1620.99 194.23 1620.28 193.882 1619.26 193.59L1619.26 191.527 1631.45 191.527 1631.45 213.402C1631.45 214.986 1631.47 216.142 1631.52 216.871 1631.58 217.6 1631.7 218.184 1631.88 218.621 1632.07 219.059 1632.37 219.418 1632.79 219.699 1633.21 219.98 1633.9 220.225 1634.88 220.434L1634.88 222.527 1626.38 222.809 1622.6 222.809 1622.88 218.309 1622.51 218.215C1620.57 220.007 1618.84 221.257 1617.32 221.965 1615.8 222.673 1614.27 223.027 1612.73 223.027 1609.6 223.027 1607.32 222.168 1605.87 220.449 1604.42 218.73 1603.7 215.913 1603.7 211.996L1603.7 200.559C1603.7 198.559 1603.64 197.194 1603.52 196.465 1603.41 195.736 1603.15 195.142 1602.74 194.684 1602.34 194.225 1601.61 193.861 1600.57 193.59ZM1497.57 191.527 1509.73 191.527 1509.73 208.871C1509.73 211.142 1509.81 212.887 1509.98 214.105 1510.14 215.324 1510.53 216.298 1511.15 217.027 1511.76 217.757 1512.67 218.121 1513.88 218.121 1514.65 218.121 1515.47 217.882 1516.32 217.402 1517.17 216.923 1517.9 216.251 1518.49 215.387 1519.09 214.522 1519.38 213.6 1519.38 212.621L1519.38 200.559C1519.38 198.621 1519.32 197.251 1519.2 196.449 1519.07 195.647 1518.8 195.043 1518.4 194.637 1517.99 194.23 1517.28 193.882 1516.26 193.59L1516.26 191.527 1528.45 191.527 1528.45 213.402C1528.45 214.986 1528.47 216.142 1528.52 216.871 1528.58 217.6 1528.7 218.184 1528.88 218.621 1529.07 219.059 1529.37 219.418 1529.79 219.699 1530.21 219.98 1530.9 220.225 1531.88 220.434L1531.88 222.527 1523.38 222.809 1519.6 222.809 1519.88 218.309 1519.51 218.215C1517.57 220.007 1515.84 221.257 1514.32 221.965 1512.8 222.673 1511.27 223.027 1509.73 223.027 1506.6 223.027 1504.32 222.168 1502.87 220.449 1501.42 218.73 1500.7 215.913 1500.7 211.996L1500.7 200.559C1500.7 198.559 1500.64 197.194 1500.52 196.465 1500.41 195.736 1500.15 195.142 1499.74 194.684 1499.34 194.225 1498.61 193.861 1497.57 193.59ZM1583.66 191.027C1587.37 191.027 1590.15 192.335 1592.01 194.949 1593.86 197.564 1594.79 201.475 1594.79 206.684 1594.79 212.121 1593.57 216.204 1591.12 218.934 1588.67 221.663 1585.05 223.027 1580.26 223.027 1578.11 223.027 1576.01 222.757 1573.95 222.215L1573.95 228.121C1573.95 229.684 1574.03 230.788 1574.2 231.434 1574.36 232.079 1574.66 232.59 1575.09 232.965 1575.51 233.34 1576.27 233.652 1577.35 233.902L1577.35 235.965 1561.79 235.965 1561.79 233.902C1562.77 233.611 1563.45 233.288 1563.84 232.934 1564.22 232.579 1564.5 232.085 1564.66 231.449 1564.83 230.814 1564.91 229.704 1564.91 228.121L1564.91 200.777C1564.91 199.173 1564.89 198.017 1564.85 197.309 1564.81 196.6 1564.69 196.012 1564.49 195.543 1564.29 195.074 1563.99 194.694 1563.57 194.402 1563.15 194.111 1562.45 193.861 1561.45 193.652L1561.45 191.527 1570.1 191.277 1573.95 191.277 1573.48 195.809 1573.85 195.902C1575.64 194.173 1577.32 192.928 1578.87 192.168 1580.42 191.408 1582.02 191.027 1583.66 191.027ZM1476.91 191.027C1481.96 191.027 1485.76 192.355 1488.32 195.012 1490.88 197.668 1492.16 201.559 1492.16 206.684 1492.16 211.975 1490.81 216.022 1488.1 218.824 1485.39 221.626 1481.5 223.027 1476.41 223.027 1471.52 223.027 1467.79 221.689 1465.24 219.012 1462.69 216.335 1461.41 212.413 1461.41 207.246 1461.41 203.579 1462.09 200.527 1463.43 198.09 1464.77 195.652 1466.6 193.866 1468.91 192.73 1471.23 191.595 1473.89 191.027 1476.91 191.027ZM1644.2 183.715 1651.66 183.715 1651.66 191.527 1660.57 191.527 1660.57 195.434 1651.66 195.434 1651.66 209.527C1651.66 211.882 1651.77 213.621 1651.99 214.746 1652.21 215.871 1652.58 216.699 1653.1 217.23 1653.62 217.762 1654.27 218.027 1655.04 218.027 1656.06 218.027 1656.94 217.85 1657.66 217.496 1658.39 217.142 1659.06 216.694 1659.66 216.152L1661.63 218.777C1659.8 220.34 1658.13 221.439 1656.63 222.074 1655.13 222.71 1653.55 223.027 1651.88 223.027 1648.78 223.027 1646.46 222.189 1644.93 220.512 1643.4 218.835 1642.63 216.298 1642.63 212.902L1642.63 195.434 1638.73 195.434 1638.73 193.277C1640 193.069 1640.94 192.757 1641.54 192.34 1642.14 191.923 1642.61 191.366 1642.95 190.668 1643.28 189.97 1643.54 189.059 1643.74 187.934 1643.94 186.809 1644.09 185.402 1644.2 183.715ZM1542.2 183.715 1549.66 183.715 1549.66 191.527 1558.57 191.527 1558.57 195.434 1549.66 195.434 1549.66 209.527C1549.66 211.882 1549.77 213.621 1549.99 214.746 1550.21 215.871 1550.58 216.699 1551.1 217.23 1551.62 217.762 1552.27 218.027 1553.04 218.027 1554.06 218.027 1554.94 217.85 1555.66 217.496 1556.39 217.142 1557.06 216.694 1557.66 216.152L1559.63 218.777C1557.8 220.34 1556.13 221.439 1554.63 222.074 1553.13 222.71 1551.55 223.027 1549.88 223.027 1546.78 223.027 1544.46 222.189 1542.93 220.512 1541.4 218.835 1540.63 216.298 1540.63 212.902L1540.63 195.434 1536.73 195.434 1536.73 193.277C1538 193.069 1538.94 192.757 1539.54 192.34 1540.14 191.923 1540.61 191.366 1540.95 190.668 1541.28 189.97 1541.54 189.059 1541.74 187.934 1541.94 186.809 1542.09 185.402 1542.2 183.715Z" fill="#CFDCE6" fill-rule="evenodd"/><text fill="#000000" fill-opacity="0" font-family="Arial,Arial_MSFontService,sans-serif" font-size="52.25" x="1461.41" y="229.434">𝐨𝐮𝐭𝐩𝐮𝐭</text></g></svg>