<svg width="1276" height="498" xmlns="http://www.w3.org/2000/svg" xmlns:xlink="http://www.w3.org/1999/xlink" overflow="hidden"><defs><clipPath id="clip0"><rect x="641" y="137" width="1276" height="498"/></clipPath></defs><g clip-path="url(#clip0)" transform="translate(-641 -137)"><rect x="1036" y="142" width="118" height="117" stroke="#CFDCE6" stroke-width="8" stroke-miterlimit="8" fill="#0A2333"/><rect x="1212" y="253" width="118" height="118" stroke="#CFDCE6" stroke-width="8" stroke-miterlimit="8" fill="#406680"/><rect x="1386" y="142" width="118" height="117" stroke="#CFDCE6" stroke-width="8" stroke-miterlimit="8" fill="#0A2333"/><rect x="1154" y="142" width="237" height="117" stroke="#CFDCE6" stroke-width="8" stroke-miterlimit="8" fill="#406680"/><path d="M983 201 983 575" stroke="#CFDCE6" stroke-width="8" stroke-miterlimit="8" fill="none" fill-rule="evenodd"/><path d="M0 0 52.4 0.000104987" stroke="#CFDCE6" stroke-width="8" stroke-miterlimit="8" fill="none" fill-rule="evenodd" transform="matrix(-1 0 0 1 1035.4 201)"/><path d="M0 0 0.000104987 371" stroke="#CFDCE6" stroke-width="8" stroke-miterlimit="8" fill="none" fill-rule="evenodd" transform="matrix(1 0 0 -1 1556 568)"/><path d="M0 0 263 0.000104987" stroke="#CFDCE6" stroke-width="8" stroke-miterlimit="8" fill="none" fill-rule="evenodd" transform="matrix(-1 0 0 1 1246 571)"/><path d="M0 0 0.000104987 126.4" stroke="#CFDCE6" stroke-width="8" stroke-miterlimit="8" fill="none" fill-rule="evenodd" transform="matrix(1 0 0 -1 1246 634.4)"/><path d="M0 0 0.000104987 68.2967" stroke="#CFDCE6" stroke-width="8" stroke-miterlimit="8" fill="none" fill-rule="evenodd" transform="matrix(1 0 0 -1 1276 606.297)"/><path d="M1185.03 605.422 1202.42 605.422 1202.42 588.025 1206.58 588.025 1206.58 605.422 1223.97 605.422 1223.97 609.578 1206.58 609.578 1206.58 626.975 1202.42 626.975 1202.42 609.578 1185.03 609.578Z" stroke="#CFDCE6" stroke-width="8" stroke-miterlimit="8" fill="#CFDCE6" fill-rule="evenodd"/><path d="M1087.15 178.467C1088.88 178.467 1090.26 178.951 1091.29 179.92 1092.32 180.889 1092.84 182.165 1092.84 183.748 1092.84 184.269 1092.78 184.769 1092.65 185.248L1092.97 185.498C1094.92 183.061 1096.78 181.279 1098.54 180.154 1100.3 179.029 1102.36 178.467 1104.72 178.467 1106.86 178.467 1108.54 179.071 1109.76 180.279 1110.98 181.488 1111.59 183.133 1111.59 185.217 1111.59 185.883 1111.52 186.717 1111.39 187.717 1111.25 188.717 1111.09 189.602 1110.9 190.373L1108.43 200.123C1108.08 201.519 1107.9 202.738 1107.9 203.779 1107.9 204.592 1108.04 205.154 1108.31 205.467 1108.58 205.779 1108.97 205.936 1109.47 205.936 1110.07 205.936 1110.75 205.649 1111.5 205.076 1112.25 204.503 1113.13 203.633 1114.15 202.467L1116.4 204.717C1114.36 206.8 1112.53 208.279 1110.92 209.154 1109.3 210.029 1107.53 210.467 1105.59 210.467 1103.38 210.467 1101.77 209.92 1100.75 208.826 1099.73 207.732 1099.22 206.123 1099.22 203.998 1099.22 202.477 1099.52 200.529 1100.12 198.154L1101.5 192.967C1101.85 191.633 1102.15 190.316 1102.4 189.014 1102.65 187.712 1102.78 186.644 1102.78 185.811 1102.78 184.873 1102.58 184.175 1102.18 183.717 1101.79 183.258 1101.23 183.029 1100.5 183.029 1099.48 183.029 1098.31 183.633 1097 184.842 1095.68 186.05 1094.63 187.326 1093.84 188.67 1093.05 190.014 1092.42 191.769 1091.97 193.936L1088.47 209.967 1079.5 209.967 1084.53 188.248C1084.84 186.894 1085 185.863 1085 185.154 1085 184.467 1084.88 183.936 1084.65 183.561 1084.42 183.186 1084.03 182.998 1083.47 182.998 1082.82 182.998 1082.12 183.29 1081.37 183.873 1080.62 184.456 1079.75 185.321 1078.75 186.467L1076.5 184.217C1078.58 182.092 1080.43 180.602 1082.04 179.748 1083.66 178.894 1085.36 178.467 1087.15 178.467Z" fill="#CFDCE6" fill-rule="evenodd"/><text fill="#000000" fill-opacity="0" font-family="Arial,Arial_MSFontService,sans-serif" font-size="32" x="1076.5" y="206.467">𝒏</text><path d="M0 0 109.06 0.000104987" stroke="#406680" stroke-width="16" stroke-miterlimit="8" fill="none" fill-rule="evenodd" transform="matrix(-1 0 0 1 1325.06 259)"/><path d="M0 0 52.4 0.000104987" stroke="#CFDCE6" stroke-width="8" stroke-miterlimit="8" fill="none" fill-rule="evenodd" transform="matrix(-1 0 0 1 1556.4 198)"/><path d="M0 0 0.000104987 66.1113" stroke="#CFDCE6" stroke-width="8" stroke-miterlimit="8" fill="none" fill-rule="evenodd" transform="matrix(1 0 0 -1 1418 489.111)"/><path d="M0 0 0.000104987 35.7215" stroke="#CFDCE6" stroke-width="8" stroke-miterlimit="8" fill="none" fill-rule="evenodd" transform="matrix(1 0 0 -1 1448 474.721)"/><path d="M1555.8 571 1276 568" stroke="#CFDCE6" stroke-width="8" stroke-miterlimit="8" fill="none" fill-rule="evenodd"/><path d="M1373.04 481.206 1385.71 481.206 1385.71 470.374 1388.29 470.374 1388.29 481.206 1400.96 481.206 1400.96 483.794 1388.29 483.794 1388.29 494.626 1385.71 494.626 1385.71 483.794 1373.04 483.794Z" stroke="#CFDCE6" stroke-width="8" stroke-miterlimit="8" fill="#CFDCE6" fill-rule="evenodd"/><path d="M0 0 149.307 0.000104987" stroke="#CFDCE6" stroke-width="8" stroke-miterlimit="8" fill="none" fill-rule="evenodd" transform="matrix(-1 0 0 1 1418.31 453)"/><path d="M1269 371 1269 453.037" stroke="#CFDCE6" stroke-width="8" stroke-miterlimit="8" fill="none" fill-rule="evenodd"/><path d="M0 0 104.507 0.000104987" stroke="#CFDCE6" stroke-width="8" stroke-miterlimit="8" fill="none" fill-rule="evenodd" transform="matrix(-1 0 0 1 1556.51 453)"/><path d="M1285.29 187.398C1283.92 187.398 1282.52 188.07 1281.09 189.413 1279.66 190.757 1278.52 192.314 1277.67 194.085 1276.81 195.856 1276.03 198.356 1275.32 201.585L1275.07 202.742C1274.74 204.283 1274.57 205.794 1274.57 207.273 1274.57 208.794 1274.83 209.887 1275.34 210.554 1275.85 211.221 1276.71 211.554 1277.92 211.554 1278.96 211.554 1279.91 211.32 1280.76 210.851 1281.62 210.382 1282.42 209.617 1283.18 208.554 1283.94 207.492 1284.68 206.122 1285.4 204.445 1286.12 202.768 1286.74 200.762 1287.26 198.429 1287.78 196.096 1288.04 193.929 1288.04 191.929 1288.04 190.387 1287.82 189.247 1287.37 188.507 1286.92 187.768 1286.23 187.398 1285.29 187.398ZM1271.51 182.804C1273.24 182.804 1274.62 183.288 1275.65 184.257 1276.68 185.226 1277.2 186.502 1277.2 188.085 1277.2 188.606 1277.14 189.106 1277.01 189.585L1277.32 189.835C1279.24 187.398 1281.1 185.617 1282.89 184.492 1284.68 183.367 1286.75 182.804 1289.11 182.804 1291.46 182.804 1293.29 183.658 1294.59 185.367 1295.89 187.075 1296.54 189.544 1296.54 192.773 1296.54 195.585 1296.14 198.377 1295.32 201.148 1294.51 203.919 1293.35 206.309 1291.82 208.32 1290.3 210.33 1288.39 211.913 1286.09 213.07 1283.79 214.226 1281.19 214.804 1278.29 214.804 1276.44 214.804 1274.65 214.481 1272.92 213.835L1271.73 219.398C1271.54 220.314 1271.41 221.028 1271.32 221.538 1271.24 222.049 1271.2 222.523 1271.2 222.96 1271.2 223.856 1271.43 224.502 1271.9 224.898 1272.37 225.294 1273.18 225.554 1274.32 225.679L1273.98 227.742 1260.98 227.742 1268.89 192.585C1269.2 191.189 1269.36 190.158 1269.36 189.492 1269.36 188.804 1269.24 188.273 1269.01 187.898 1268.78 187.523 1268.39 187.335 1267.82 187.335 1267.18 187.335 1266.48 187.627 1265.73 188.21 1264.98 188.794 1264.11 189.658 1263.11 190.804L1260.86 188.554C1262.94 186.429 1264.79 184.939 1266.4 184.085 1268.02 183.231 1269.72 182.804 1271.51 182.804Z" fill="#CFDCE6" fill-rule="evenodd"/><text fill="#000000" fill-opacity="0" font-family="Arial,Arial_MSFontService,sans-serif" font-size="44.9375" x="1260.86" y="222.124">𝒑</text><path d="M1439.3 180.441C1441.03 180.441 1442.41 180.926 1443.44 181.894 1444.47 182.863 1444.99 184.139 1444.99 185.722 1444.99 186.243 1444.93 186.743 1444.8 187.222L1445.11 187.472C1447.07 185.035 1448.93 183.254 1450.69 182.129 1452.45 181.004 1454.51 180.441 1456.86 180.441 1459.01 180.441 1460.69 181.045 1461.91 182.254 1463.13 183.462 1463.74 185.108 1463.74 187.191 1463.74 187.858 1463.67 188.691 1463.54 189.691 1463.4 190.691 1463.24 191.577 1463.05 192.347L1460.58 202.097C1460.23 203.493 1460.05 204.712 1460.05 205.754 1460.05 206.566 1460.19 207.129 1460.46 207.441 1460.73 207.754 1461.11 207.91 1461.61 207.91 1462.22 207.91 1462.9 207.624 1463.65 207.051 1464.4 206.478 1465.28 205.608 1466.3 204.441L1468.55 206.691C1466.51 208.775 1464.68 210.254 1463.07 211.129 1461.45 212.004 1459.68 212.441 1457.74 212.441 1455.53 212.441 1453.92 211.894 1452.9 210.801 1451.87 209.707 1451.36 208.097 1451.36 205.972 1451.36 204.452 1451.67 202.504 1452.27 200.129L1453.65 194.941C1454 193.608 1454.3 192.29 1454.55 190.988 1454.8 189.686 1454.93 188.618 1454.93 187.785 1454.93 186.847 1454.73 186.15 1454.33 185.691 1453.94 185.233 1453.37 185.004 1452.65 185.004 1451.62 185.004 1450.46 185.608 1449.15 186.816 1447.83 188.025 1446.78 189.301 1445.99 190.644 1445.2 191.988 1444.57 193.743 1444.11 195.91L1440.61 211.941 1431.65 211.941 1436.68 190.222C1436.99 188.868 1437.15 187.837 1437.15 187.129 1437.15 186.441 1437.03 185.91 1436.8 185.535 1436.57 185.16 1436.18 184.972 1435.61 184.972 1434.97 184.972 1434.27 185.264 1433.52 185.847 1432.77 186.431 1431.9 187.295 1430.9 188.441L1428.65 186.191C1430.73 184.066 1432.58 182.577 1434.19 181.722 1435.81 180.868 1437.51 180.441 1439.3 180.441Z" fill="#CFDCE6" fill-rule="evenodd"/><text fill="#000000" fill-opacity="0" font-family="Arial,Arial_MSFontService,sans-serif" font-size="32" x="1428.65" y="208.441">𝒏</text><path d="M987 345 987 430.243 979 430.243 979 345ZM1000.46 408.258 983 438.181 965.545 408.258C964.432 406.35 965.076 403.901 966.985 402.788 968.893 401.675 971.342 402.319 972.455 404.227L986.455 428.227 979.545 428.227 993.545 404.227C994.658 402.319 997.107 401.675 999.016 402.788 1000.92 403.901 1001.57 406.35 1000.46 408.258Z" fill="#CFDCE6"/><path d="M1379 565 1464.24 565 1464.24 573 1379 573ZM1442.26 551.545 1472.18 569 1442.26 586.455C1440.35 587.568 1437.9 586.924 1436.79 585.015 1435.67 583.107 1436.32 580.658 1438.23 579.545L1462.23 565.545 1462.23 572.455 1438.23 558.455C1436.32 557.342 1435.67 554.893 1436.79 552.984 1437.9 551.076 1440.35 550.432 1442.26 551.545Z" fill="#CFDCE6"/><path d="M4-4.50767e-06 4.0001 85.2428-3.9999 85.2428-4 4.50767e-06ZM17.4552 63.2583 0.0001051 93.1814-17.455 63.2583C-18.5682 61.3501-17.9236 58.9009-16.0154 57.7877-14.1072 56.6746-11.6579 57.3192-10.5448 59.2274L3.45521 83.2273-3.45502 83.2274 10.545 59.2273C11.6581 57.3191 14.1073 56.6746 16.0155 57.7877 17.9238 58.9008 18.5683 61.3501 17.4552 63.2583Z" fill="#CFDCE6" transform="matrix(1 0 0 -1 1556 352.163)"/><path d="M1307 448 1351.36 448 1351.36 456 1307 456ZM1329.38 434.545 1359.3 452 1329.38 469.455C1327.47 470.568 1325.02 469.924 1323.91 468.016 1322.79 466.107 1323.44 463.658 1325.35 462.545L1349.35 448.545 1349.35 455.455 1325.35 441.455C1323.44 440.342 1322.79 437.893 1323.91 435.985 1325.02 434.076 1327.47 433.432 1329.38 434.545Z" fill="#CFDCE6"/><path d="M1478 448 1522.36 448 1522.36 456 1478 456ZM1500.38 434.545 1530.3 452 1500.38 469.455C1498.47 470.568 1496.02 469.924 1494.91 468.016 1493.79 466.107 1494.44 463.658 1496.35 462.545L1520.35 448.545 1520.35 455.455 1496.35 441.455C1494.44 440.342 1493.79 437.893 1494.91 435.985 1496.02 434.076 1498.47 433.432 1500.38 434.545Z" fill="#CFDCE6"/><path d="M642 342C642 328.193 653.193 317 667 317 680.807 317 692 328.193 692 342 692 355.807 680.807 367 667 367 653.193 367 642 355.807 642 342Z" fill="#03111A" fill-rule="evenodd"/><path d="M1865 317C1865 303.193 1876.42 292 1890.5 292 1904.58 292 1916 303.193 1916 317 1916 330.807 1904.58 342 1890.5 342 1876.42 342 1865 330.807 1865 317Z" fill="#03111A" fill-rule="evenodd"/></g></svg>