<svg width="1483" height="672" xmlns="http://www.w3.org/2000/svg" xmlns:xlink="http://www.w3.org/1999/xlink" overflow="hidden"><defs><clipPath id="clip0"><rect x="474" y="15" width="1483" height="672"/></clipPath></defs><g clip-path="url(#clip0)" transform="translate(-474 -15)"><path d="M1369.73 579.439 1366.11 596.001C1366.98 596.064 1368.32 596.095 1370.11 596.095 1372.69 596.095 1374.74 595.616 1376.25 594.657 1377.76 593.699 1378.88 592.355 1379.61 590.626 1380.34 588.897 1380.7 587.126 1380.7 585.314 1380.7 581.397 1378.48 579.439 1374.05 579.439ZM1377.48 560.751C1376.03 560.751 1374.8 560.803 1373.8 560.907L1370.51 575.782 1375.39 575.782C1377.22 575.782 1378.82 575.371 1380.19 574.548 1381.55 573.725 1382.6 572.584 1383.33 571.126 1384.06 569.668 1384.42 567.991 1384.42 566.095 1384.42 564.303 1383.86 562.965 1382.73 562.079 1381.61 561.194 1379.86 560.751 1377.48 560.751ZM1361.76 557.095 1379.7 557.095C1383.37 557.095 1386.23 557.418 1388.28 558.064 1390.33 558.709 1391.82 559.668 1392.73 560.939 1393.65 562.209 1394.11 563.814 1394.11 565.751 1394.11 568.647 1393.31 571.032 1391.72 572.907 1390.12 574.782 1387.56 576.407 1384.01 577.782L1383.95 578.126C1385.91 578.918 1387.43 580.022 1388.5 581.439 1389.57 582.855 1390.11 584.491 1390.11 586.345 1390.11 588.887 1389.5 591.105 1388.28 593.001 1387.06 594.897 1385.12 596.496 1382.45 597.798 1379.79 599.1 1375.68 599.751 1370.14 599.751L1353.17 599.751 1353.61 597.689C1354.8 597.355 1355.67 596.772 1356.23 595.939 1356.8 595.105 1357.33 593.564 1357.83 591.314L1363.51 565.532C1363.79 564.303 1363.92 563.084 1363.92 561.876 1363.92 561.001 1363.72 560.361 1363.31 559.954 1362.91 559.548 1362.24 559.282 1361.33 559.157Z" fill="#CFDCE6" fill-rule="evenodd"/><text fill="#000000" fill-opacity="0" font-family="Arial,Arial_MSFontService,sans-serif" font-size="42.6562" x="1353.17" y="594.419">𝑩</text><path d="M632.373 216.236 662.717 216.236 660.498 226.298 656.498 226.298C656.394 224.319 656.206 222.934 655.935 222.142 655.665 221.35 655.248 220.777 654.685 220.423 654.123 220.069 653.331 219.892 652.31 219.892L644.467 219.892 641.154 234.892 645.498 234.892C646.331 234.892 647.034 234.757 647.607 234.486 648.18 234.215 648.711 233.762 649.201 233.126 649.691 232.491 650.175 231.611 650.654 230.486L654.092 230.486 651.092 243.173 647.873 243.173C647.873 241.965 647.8 241.038 647.654 240.392 647.508 239.746 647.237 239.277 646.842 238.986 646.446 238.694 645.769 238.548 644.81 238.548L640.373 238.548 636.685 255.236 643.717 255.236C644.633 255.236 645.347 255.173 645.857 255.048 646.368 254.923 646.836 254.725 647.263 254.454 647.691 254.184 648.185 253.751 648.748 253.158 649.31 252.564 649.868 251.814 650.42 250.908 650.972 250.001 651.54 248.913 652.123 247.642L656.373 247.642 653.498 258.892 623.779 258.892 624.217 256.829C625.404 256.496 626.279 255.913 626.842 255.079 627.404 254.246 627.935 252.704 628.435 250.454L634.123 224.673C634.394 223.444 634.529 222.225 634.529 221.017 634.529 220.142 634.326 219.501 633.92 219.095 633.513 218.689 632.852 218.423 631.935 218.298Z" fill="#CFDCE6" fill-rule="evenodd"/><text fill="#000000" fill-opacity="0" font-family="Arial,Arial_MSFontService,sans-serif" font-size="42.6562" x="623.779" y="253.56">𝑬</text><path d="M1739.06 215.736C1742.62 215.736 1746.12 216.246 1749.56 217.267L1747.56 226.392 1743.46 226.392C1743.4 224.538 1743.21 223.142 1742.9 222.204 1742.59 221.267 1742.1 220.564 1741.43 220.095 1740.76 219.626 1739.86 219.392 1738.71 219.392 1736.96 219.392 1735.23 220.079 1733.52 221.454 1731.82 222.829 1730.24 224.908 1728.79 227.689 1727.34 230.47 1726.17 233.757 1725.29 237.548 1724.4 241.34 1723.96 244.757 1723.96 247.798 1723.96 249.548 1724.12 250.996 1724.45 252.142 1724.77 253.288 1725.33 254.173 1726.13 254.798 1726.94 255.423 1728.04 255.736 1729.46 255.736 1731.63 255.736 1733.42 255.194 1734.85 254.111 1736.28 253.027 1737.57 251.163 1738.71 248.517L1742.81 248.517 1740.81 257.736C1738.78 258.319 1736.77 258.741 1734.77 259.001 1732.77 259.262 1730.63 259.392 1728.34 259.392 1723.9 259.392 1720.49 258.178 1718.12 255.751 1715.74 253.324 1714.56 249.829 1714.56 245.267 1714.56 243.538 1714.74 241.548 1715.12 239.298 1715.72 235.736 1716.72 232.444 1718.12 229.423 1719.51 226.402 1721.27 223.866 1723.38 221.814 1725.5 219.762 1727.87 218.236 1730.51 217.236 1733.14 216.236 1735.99 215.736 1739.06 215.736Z" fill="#CFDCE6" fill-rule="evenodd"/><text fill="#000000" fill-opacity="0" font-family="Arial,Arial_MSFontService,sans-serif" font-size="43.6562" x="1714.56" y="253.935">𝑪</text><path d="M475 238C475 224.193 486.193 213 500 213 513.807 213 525 224.193 525 238 525 251.807 513.807 263 500 263 486.193 263 475 251.807 475 238Z" fill="#03111A" fill-rule="evenodd"/><path d="M1905 234C1905 220.193 1916.42 209 1930.5 209 1944.58 209 1956 220.193 1956 234 1956 247.807 1944.58 259 1930.5 259 1916.42 259 1905 247.807 1905 234Z" fill="#03111A" fill-rule="evenodd"/><path d="M760 20 1289.7 23.5443" stroke="#CFDCE6" stroke-width="8" stroke-miterlimit="8" fill="none" fill-rule="evenodd"/><path d="M0 0 3.8106 335.698" stroke="#CFDCE6" stroke-width="8" stroke-miterlimit="8" fill="none" fill-rule="evenodd" transform="matrix(-1 0 0 1 764.811 20)"/><path d="M683 238 759.839 238" stroke="#CFDCE6" stroke-width="8" stroke-miterlimit="8" fill="none" fill-rule="evenodd"/><path d="M1200.82 641.979C1199.88 641.979 1198.97 642.218 1198.08 642.697 1197.2 643.177 1196.47 643.859 1195.91 644.744 1195.35 645.63 1195.07 646.624 1195.07 647.729L1195.07 658.322C1195.07 660.885 1195.51 662.776 1196.4 663.994 1197.28 665.213 1198.65 665.822 1200.51 665.822 1202.42 665.822 1203.89 664.817 1204.9 662.807 1205.91 660.796 1206.41 657.927 1206.41 654.197 1206.41 650.052 1205.96 646.979 1205.05 644.979 1204.15 642.979 1202.73 641.979 1200.82 641.979ZM1221.69 637.572 1233.85 637.572 1233.85 654.916C1233.85 657.187 1233.93 658.932 1234.1 660.151 1234.27 661.369 1234.66 662.343 1235.27 663.072 1235.89 663.802 1236.8 664.166 1238.01 664.166 1238.78 664.166 1239.59 663.927 1240.44 663.447 1241.3 662.968 1242.02 662.296 1242.61 661.432 1243.21 660.567 1243.51 659.645 1243.51 658.666L1243.51 646.604C1243.51 644.666 1243.44 643.296 1243.32 642.494 1243.19 641.692 1242.93 641.088 1242.52 640.682 1242.11 640.276 1241.4 639.927 1240.38 639.635L1240.38 637.572 1252.57 637.572 1252.57 659.447C1252.57 661.031 1252.59 662.187 1252.65 662.916 1252.7 663.645 1252.82 664.229 1253.01 664.666 1253.19 665.104 1253.49 665.463 1253.91 665.744 1254.33 666.026 1255.03 666.27 1256.01 666.479L1256.01 668.572 1247.51 668.854 1243.72 668.854 1244.01 664.354 1243.63 664.26C1241.69 666.052 1239.96 667.302 1238.44 668.01 1236.92 668.718 1235.39 669.072 1233.85 669.072 1230.72 669.072 1228.44 668.213 1226.99 666.494 1225.54 664.776 1224.82 661.958 1224.82 658.041L1224.82 646.604C1224.82 644.604 1224.76 643.239 1224.65 642.51 1224.53 641.781 1224.27 641.187 1223.86 640.729 1223.46 640.27 1222.73 639.906 1221.69 639.635ZM1130.57 637.322 1134.47 637.322 1134.47 659.541C1134.47 661.541 1134.53 662.911 1134.65 663.651 1134.76 664.39 1135.02 664.984 1135.41 665.432 1135.81 665.88 1136.54 666.239 1137.6 666.51L1137.6 668.572 1122.35 668.572 1122.35 666.51C1123.37 666.239 1124.07 665.885 1124.46 665.447 1124.84 665.01 1125.1 664.416 1125.24 663.666 1125.37 662.916 1125.44 661.552 1125.44 659.572L1125.44 645.041C1125.44 643.583 1125.35 642.546 1125.16 641.932 1124.97 641.317 1124.67 640.848 1124.24 640.526 1123.81 640.203 1123.06 639.927 1121.97 639.697L1121.97 637.572ZM1299.04 637.072C1300.56 637.072 1302.05 637.135 1303.51 637.26 1304.96 637.385 1306.85 637.656 1309.16 638.072L1309.16 645.354 1305.04 645.354C1304.56 644.02 1304.03 642.989 1303.46 642.26 1302.89 641.531 1302.26 641.026 1301.57 640.744 1300.88 640.463 1300.06 640.322 1299.1 640.322 1297.72 640.322 1296.63 640.635 1295.82 641.26 1295.01 641.885 1294.6 642.76 1294.6 643.885 1294.6 644.677 1294.74 645.354 1295.04 645.916 1295.33 646.479 1295.85 647.026 1296.6 647.557 1297.35 648.088 1298.8 648.802 1300.94 649.697 1304.05 650.989 1306.25 652.39 1307.55 653.901 1308.85 655.411 1309.51 657.229 1309.51 659.354 1309.51 662.479 1308.39 664.88 1306.16 666.557 1303.93 668.234 1300.78 669.072 1296.69 669.072 1293.26 669.072 1289.43 668.583 1285.22 667.604L1285.22 660.135 1289.41 660.135C1289.91 662.031 1290.7 663.453 1291.79 664.401 1292.87 665.348 1294.32 665.822 1296.13 665.822 1297.69 665.822 1298.87 665.468 1299.68 664.76 1300.48 664.052 1300.88 663.02 1300.88 661.666 1300.88 660.812 1300.7 660.083 1300.33 659.479 1299.97 658.874 1299.36 658.296 1298.52 657.744 1297.68 657.192 1296.23 656.468 1294.19 655.572 1291.28 654.302 1289.16 652.901 1287.85 651.369 1286.54 649.838 1285.88 648.114 1285.88 646.197 1285.88 644.322 1286.42 642.697 1287.51 641.322 1288.59 639.947 1290.14 638.895 1292.15 638.166 1294.16 637.437 1296.45 637.072 1299.04 637.072ZM1204.79 637.072C1208.49 637.072 1211.28 638.38 1213.13 640.994 1214.98 643.609 1215.91 647.52 1215.91 652.729 1215.91 658.166 1214.69 662.249 1212.24 664.979 1209.79 667.708 1206.17 669.072 1201.38 669.072 1199.23 669.072 1197.13 668.802 1195.07 668.26L1195.07 674.166C1195.07 675.729 1195.15 676.833 1195.32 677.479 1195.48 678.124 1195.78 678.635 1196.21 679.01 1196.64 679.385 1197.39 679.697 1198.47 679.947L1198.47 682.01 1182.91 682.01 1182.91 679.947C1183.89 679.656 1184.57 679.333 1184.96 678.979 1185.34 678.624 1185.62 678.13 1185.79 677.494 1185.95 676.859 1186.04 675.749 1186.04 674.166L1186.04 646.822C1186.04 645.218 1186.02 644.062 1185.97 643.354 1185.93 642.645 1185.81 642.057 1185.61 641.588 1185.42 641.119 1185.11 640.739 1184.69 640.447 1184.28 640.156 1183.57 639.906 1182.57 639.697L1182.57 637.572 1191.22 637.322 1195.07 637.322 1194.6 641.854 1194.97 641.947C1196.77 640.218 1198.44 638.973 1199.99 638.213 1201.54 637.453 1203.14 637.072 1204.79 637.072ZM1165.26 637.072C1166.96 637.072 1168.38 637.317 1169.51 637.807 1170.63 638.296 1171.54 639.01 1172.24 639.947 1172.94 640.885 1173.44 642.031 1173.74 643.385 1174.04 644.739 1174.19 646.312 1174.19 648.104L1174.19 659.541C1174.19 661.52 1174.26 662.885 1174.38 663.635 1174.51 664.385 1174.77 664.984 1175.16 665.432 1175.56 665.88 1176.29 666.239 1177.35 666.51L1177.35 668.572 1162.19 668.572 1162.19 666.51C1163.15 666.281 1163.82 665.942 1164.19 665.494 1164.57 665.046 1164.82 664.442 1164.96 663.682 1165.09 662.921 1165.16 661.552 1165.16 659.572L1165.16 651.229C1165.16 649.708 1165.12 648.39 1165.04 647.276 1164.95 646.161 1164.81 645.296 1164.6 644.682 1164.39 644.067 1164.13 643.567 1163.82 643.182 1163.51 642.796 1163.14 642.499 1162.72 642.291 1162.31 642.083 1161.72 641.979 1160.97 641.979 1160.18 641.979 1159.36 642.223 1158.51 642.713 1157.65 643.203 1156.93 643.88 1156.35 644.744 1155.77 645.609 1155.47 646.531 1155.47 647.51L1155.47 659.541C1155.47 661.52 1155.54 662.895 1155.66 663.666 1155.79 664.437 1156.04 665.046 1156.43 665.494 1156.81 665.942 1157.49 666.281 1158.47 666.51L1158.47 668.572 1143.38 668.572 1143.38 666.51C1144.38 666.239 1145.07 665.885 1145.46 665.447 1145.84 665.01 1146.1 664.416 1146.24 663.666 1146.37 662.916 1146.44 661.552 1146.44 659.572L1146.44 646.729C1146.44 645.187 1146.42 644.046 1146.36 643.307 1146.31 642.567 1146.19 641.973 1145.99 641.526 1145.79 641.078 1145.49 640.713 1145.08 640.432 1144.68 640.151 1143.97 639.906 1142.97 639.697L1142.97 637.572 1151.54 637.322 1155.47 637.322 1155.01 641.822 1155.38 641.916C1157.38 640.124 1159.14 638.869 1160.65 638.151 1162.16 637.432 1163.69 637.072 1165.26 637.072ZM1265.32 629.76 1272.79 629.76 1272.79 637.572 1281.69 637.572 1281.69 641.479 1272.79 641.479 1272.79 655.572C1272.79 657.927 1272.9 659.666 1273.11 660.791 1273.33 661.916 1273.7 662.744 1274.22 663.276 1274.74 663.807 1275.39 664.072 1276.16 664.072 1277.18 664.072 1278.06 663.895 1278.79 663.541 1279.52 663.187 1280.18 662.739 1280.79 662.197L1282.76 664.822C1280.92 666.385 1279.26 667.484 1277.76 668.119 1276.26 668.755 1274.67 669.072 1273.01 669.072 1269.9 669.072 1267.58 668.234 1266.05 666.557 1264.52 664.88 1263.76 662.343 1263.76 658.947L1263.76 641.479 1259.85 641.479 1259.85 639.322C1261.12 639.114 1262.06 638.802 1262.66 638.385 1263.27 637.968 1263.73 637.411 1264.07 636.713 1264.4 636.015 1264.67 635.104 1264.86 633.979 1265.06 632.854 1265.21 631.447 1265.32 629.76ZM1125.66 625.104 1134.22 625.104 1134.22 632.76 1125.66 632.76Z" fill="#CFDCE6" fill-rule="evenodd"/><text fill="#000000" fill-opacity="0" font-family="Arial,Arial_MSFontService,sans-serif" font-size="56.9062" x="1121.97" y="674.897">𝐢𝐧𝐩𝐮𝐭𝐬</text><path d="M1785.8 300.097C1784.86 300.097 1783.95 300.336 1783.06 300.815 1782.18 301.295 1781.45 301.977 1780.89 302.862 1780.33 303.748 1780.05 304.742 1780.05 305.847L1780.05 316.44C1780.05 319.003 1780.49 320.894 1781.37 322.112 1782.26 323.331 1783.63 323.94 1785.48 323.94 1787.4 323.94 1788.86 322.935 1789.87 320.925 1790.88 318.914 1791.39 316.045 1791.39 312.315 1791.39 308.17 1790.94 305.097 1790.03 303.097 1789.12 301.097 1787.71 300.097 1785.8 300.097ZM1682.89 298.44C1680.83 298.44 1679.33 299.425 1678.41 301.394 1677.48 303.362 1677.01 306.472 1677.01 310.722 1677.01 315.138 1677.51 318.446 1678.5 320.644 1679.49 322.841 1680.98 323.94 1682.98 323.94 1684.96 323.94 1686.42 322.977 1687.36 321.05 1688.3 319.123 1688.76 316.045 1688.76 311.815 1688.76 307.336 1688.27 303.987 1687.28 301.769 1686.29 299.55 1684.83 298.44 1682.89 298.44ZM1806.67 295.69 1818.83 295.69 1818.83 313.034C1818.83 315.305 1818.91 317.05 1819.08 318.269 1819.24 319.487 1819.63 320.461 1820.25 321.19 1820.86 321.92 1821.77 322.284 1822.98 322.284 1823.75 322.284 1824.57 322.045 1825.42 321.565 1826.27 321.086 1827 320.414 1827.59 319.55 1828.19 318.685 1828.48 317.763 1828.48 316.784L1828.48 304.722C1828.48 302.784 1828.42 301.414 1828.3 300.612 1828.17 299.81 1827.91 299.206 1827.5 298.8 1827.09 298.394 1826.38 298.045 1825.36 297.753L1825.36 295.69 1837.55 295.69 1837.55 317.565C1837.55 319.149 1837.57 320.305 1837.62 321.034 1837.68 321.763 1837.8 322.347 1837.98 322.784 1838.17 323.222 1838.47 323.581 1838.89 323.862 1839.31 324.144 1840 324.388 1840.98 324.597L1840.98 326.69 1832.48 326.972 1828.7 326.972 1828.98 322.472 1828.61 322.378C1826.67 324.17 1824.94 325.42 1823.42 326.128 1821.9 326.836 1820.37 327.19 1818.83 327.19 1815.7 327.19 1813.42 326.331 1811.97 324.612 1810.52 322.894 1809.8 320.076 1809.8 316.159L1809.8 304.722C1809.8 302.722 1809.74 301.357 1809.62 300.628 1809.51 299.899 1809.25 299.305 1808.84 298.847 1808.44 298.388 1807.71 298.024 1806.67 297.753ZM1703.67 295.69 1715.83 295.69 1715.83 313.034C1715.83 315.305 1715.91 317.05 1716.08 318.269 1716.24 319.487 1716.63 320.461 1717.25 321.19 1717.86 321.92 1718.77 322.284 1719.98 322.284 1720.75 322.284 1721.57 322.045 1722.42 321.565 1723.27 321.086 1724 320.414 1724.59 319.55 1725.19 318.685 1725.48 317.763 1725.48 316.784L1725.48 304.722C1725.48 302.784 1725.42 301.414 1725.3 300.612 1725.17 299.81 1724.91 299.206 1724.5 298.8 1724.09 298.394 1723.38 298.045 1722.36 297.753L1722.36 295.69 1734.55 295.69 1734.55 317.565C1734.55 319.149 1734.57 320.305 1734.62 321.034 1734.68 321.763 1734.8 322.347 1734.98 322.784 1735.17 323.222 1735.47 323.581 1735.89 323.862 1736.31 324.144 1737 324.388 1737.98 324.597L1737.98 326.69 1729.48 326.972 1725.7 326.972 1725.98 322.472 1725.61 322.378C1723.67 324.17 1721.94 325.42 1720.42 326.128 1718.9 326.836 1717.37 327.19 1715.83 327.19 1712.7 327.19 1710.42 326.331 1708.97 324.612 1707.52 322.894 1706.8 320.076 1706.8 316.159L1706.8 304.722C1706.8 302.722 1706.74 301.357 1706.62 300.628 1706.51 299.899 1706.25 299.305 1705.84 298.847 1705.44 298.388 1704.71 298.024 1703.67 297.753ZM1789.76 295.19C1793.47 295.19 1796.25 296.498 1798.11 299.112 1799.96 301.727 1800.89 305.638 1800.89 310.847 1800.89 316.284 1799.67 320.367 1797.22 323.097 1794.77 325.826 1791.15 327.19 1786.36 327.19 1784.21 327.19 1782.11 326.92 1780.05 326.378L1780.05 332.284C1780.05 333.847 1780.13 334.951 1780.3 335.597 1780.46 336.242 1780.76 336.753 1781.19 337.128 1781.61 337.503 1782.37 337.815 1783.45 338.065L1783.45 340.128 1767.89 340.128 1767.89 338.065C1768.87 337.774 1769.55 337.451 1769.94 337.097 1770.32 336.742 1770.6 336.248 1770.76 335.612 1770.93 334.977 1771.01 333.867 1771.01 332.284L1771.01 304.94C1771.01 303.336 1770.99 302.18 1770.95 301.472 1770.91 300.763 1770.79 300.175 1770.59 299.706 1770.39 299.237 1770.09 298.857 1769.67 298.565 1769.25 298.274 1768.55 298.024 1767.55 297.815L1767.55 295.69 1776.2 295.44 1780.05 295.44 1779.58 299.972 1779.95 300.065C1781.74 298.336 1783.42 297.091 1784.97 296.331 1786.52 295.571 1788.12 295.19 1789.76 295.19ZM1683.01 295.19C1688.06 295.19 1691.86 296.519 1694.42 299.175 1696.98 301.831 1698.26 305.722 1698.26 310.847 1698.26 316.138 1696.91 320.185 1694.2 322.987 1691.49 325.789 1687.6 327.19 1682.51 327.19 1677.62 327.19 1673.89 325.852 1671.34 323.175 1668.79 320.498 1667.51 316.576 1667.51 311.409 1667.51 307.742 1668.19 304.69 1669.53 302.253 1670.87 299.815 1672.7 298.029 1675.01 296.894 1677.33 295.758 1679.99 295.19 1683.01 295.19ZM1850.3 287.878 1857.76 287.878 1857.76 295.69 1866.67 295.69 1866.67 299.597 1857.76 299.597 1857.76 313.69C1857.76 316.045 1857.87 317.784 1858.09 318.909 1858.31 320.034 1858.68 320.862 1859.2 321.394 1859.72 321.925 1860.37 322.19 1861.14 322.19 1862.16 322.19 1863.04 322.013 1863.76 321.659 1864.49 321.305 1865.16 320.857 1865.76 320.315L1867.73 322.94C1865.9 324.503 1864.23 325.602 1862.73 326.237 1861.23 326.873 1859.65 327.19 1857.98 327.19 1854.88 327.19 1852.56 326.352 1851.03 324.675 1849.5 322.998 1848.73 320.461 1848.73 317.065L1848.73 299.597 1844.83 299.597 1844.83 297.44C1846.1 297.232 1847.04 296.92 1847.64 296.503 1848.24 296.086 1848.71 295.529 1849.05 294.831 1849.38 294.133 1849.64 293.222 1849.84 292.097 1850.04 290.972 1850.19 289.565 1850.3 287.878ZM1748.3 287.878 1755.76 287.878 1755.76 295.69 1764.67 295.69 1764.67 299.597 1755.76 299.597 1755.76 313.69C1755.76 316.045 1755.87 317.784 1756.09 318.909 1756.31 320.034 1756.68 320.862 1757.2 321.394 1757.72 321.925 1758.37 322.19 1759.14 322.19 1760.16 322.19 1761.04 322.013 1761.76 321.659 1762.49 321.305 1763.16 320.857 1763.76 320.315L1765.73 322.94C1763.9 324.503 1762.23 325.602 1760.73 326.237 1759.23 326.873 1757.65 327.19 1755.98 327.19 1752.88 327.19 1750.56 326.352 1749.03 324.675 1747.5 322.998 1746.73 320.461 1746.73 317.065L1746.73 299.597 1742.83 299.597 1742.83 297.44C1744.1 297.232 1745.04 296.92 1745.64 296.503 1746.24 296.086 1746.71 295.529 1747.05 294.831 1747.38 294.133 1747.64 293.222 1747.84 292.097 1748.04 290.972 1748.19 289.565 1748.3 287.878Z" fill="#CFDCE6" fill-rule="evenodd"/><text fill="#000000" fill-opacity="0" font-family="Arial,Arial_MSFontService,sans-serif" font-size="52.25" x="1667.51" y="333.597">𝐨𝐮𝐭𝐩𝐮𝐭</text><path d="M1024.53 567.035 1014.87 585.254 1025.06 585.254 1024.93 577.754C1024.89 575.087 1024.87 572.879 1024.87 571.129 1024.87 569.795 1024.88 568.431 1024.9 567.035ZM1024.09 559.254 1033.09 559.254 1034.43 592.66C1034.48 593.847 1034.56 594.915 1034.68 595.863 1034.81 596.811 1035.01 597.587 1035.28 598.191 1035.55 598.795 1035.89 599.238 1036.29 599.519 1036.7 599.8 1037.22 599.983 1037.84 600.066L1037.37 602.129 1021.22 602.129 1021.68 600.066C1022.6 600.004 1023.33 599.769 1023.86 599.363 1024.39 598.957 1024.76 598.405 1024.97 597.707 1025.17 597.009 1025.28 596.035 1025.28 594.785 1025.28 593.889 1025.26 592.952 1025.22 591.972L1025.15 588.91 1012.93 588.91 1012.5 589.691C1011.33 591.795 1010.55 593.389 1010.17 594.472 1009.78 595.556 1009.59 596.556 1009.59 597.472 1009.59 598.972 1010.48 599.837 1012.25 600.066L1011.78 602.129 998.591 602.129 999.06 600.066C999.789 599.899 1000.43 599.618 1000.98 599.222 1001.53 598.827 1002.06 598.29 1002.56 597.613 1003.06 596.936 1003.77 595.774 1004.68 594.129Z" fill="#CFDCE6" fill-rule="evenodd"/><text fill="#000000" fill-opacity="0" font-family="Arial,Arial_MSFontService,sans-serif" font-size="42.875" x="998.591" y="596.769">𝑨</text><path d="M1636 20 1636 355.698" stroke="#CFDCE6" stroke-width="8" stroke-miterlimit="8" fill="none" fill-rule="evenodd"/><path d="M1637 234 1691.33 234" stroke="#CFDCE6" stroke-width="8" stroke-miterlimit="8" fill="none" fill-rule="evenodd"/><path d="M761 354 945.497 354" stroke="#CFDCE6" stroke-width="8" stroke-miterlimit="8" fill="none" fill-rule="evenodd"/><path d="M960 461 1100 461" stroke="#CFDCE6" stroke-width="8" stroke-miterlimit="8" fill="none" fill-rule="evenodd"/><path d="M1.63543-3.65039 101.547 41.1114 98.2762 48.4122-1.63543 3.65039ZM86.9853 19.8438 107.156 48.0076 72.7121 51.7029C70.5155 51.9385 68.5438 50.3489 68.3082 48.1524 68.0725 45.9558 69.6622 43.9841 71.8587 43.7485L99.4851 40.7847 96.6598 47.0909 80.4814 24.502C79.1951 22.706 79.6083 20.2073 81.4043 18.9209 83.2003 17.6346 85.699 18.0478 86.9853 19.8438Z" fill="#CFDCE6" transform="matrix(1.83697e-16 1 1 -1.83697e-16 945 354)"/><path d="M1108 354 1060 461.14" stroke="#CFDCE6" stroke-width="8" stroke-miterlimit="8" fill="none" fill-rule="evenodd"/><path d="M1305 131 1445 131" stroke="#CFDCE6" stroke-width="8" stroke-miterlimit="8" fill="none" fill-rule="evenodd"/><path d="M1.63543-3.65039 101.547 41.1114 98.2762 48.4122-1.63543 3.65039ZM86.9853 19.8438 107.156 48.0076 72.7121 51.7029C70.5155 51.9385 68.5438 50.3489 68.3082 48.1524 68.0725 45.9558 69.6622 43.9841 71.8587 43.7485L99.4851 40.7847 96.6598 47.0909 80.4814 24.502C79.1951 22.706 79.6083 20.2073 81.4043 18.9209 83.2003 17.6346 85.699 18.0478 86.9853 19.8438Z" fill="#CFDCE6" transform="matrix(1.83697e-16 1 1 -1.83697e-16 1290 23)"/><path d="M1453 23 1405 130.14" stroke="#CFDCE6" stroke-width="8" stroke-miterlimit="8" fill="none" fill-rule="evenodd"/><path d="M1453 23 1636.7 23.0001" stroke="#CFDCE6" stroke-width="8" stroke-miterlimit="8" fill="none" fill-rule="evenodd"/><path d="M1108 354 1311.52 356.177" stroke="#CFDCE6" stroke-width="8" stroke-miterlimit="8" fill="none" fill-rule="evenodd"/><path d="M1312 355.777C1311.83 323.468 1340.13 297.153 1375.2 297.001 1410.27 296.848 1438.83 322.915 1439 355.224 1439 355.316 1439 355.408 1439 355.5" stroke="#CFDCE6" stroke-width="8" stroke-miterlimit="8" fill="none" fill-rule="evenodd"/><path d="M1439 356 1638.78 356" stroke="#CFDCE6" stroke-width="8" stroke-miterlimit="8" fill="none" fill-rule="evenodd"/><path d="M1375 133 1375.26 541.22" stroke="#CFDCE6" stroke-width="8" stroke-miterlimit="8" fill="none" fill-rule="evenodd"/><path d="M1028 461 1028.46 541.048" stroke="#CFDCE6" stroke-width="8" stroke-miterlimit="8" fill="none" fill-rule="evenodd"/></g></svg>