<svg width="1361" height="403" xmlns="http://www.w3.org/2000/svg" xmlns:xlink="http://www.w3.org/1999/xlink" overflow="hidden"><defs><clipPath id="clip0"><rect x="-8" y="86" width="1361" height="403"/></clipPath></defs><g clip-path="url(#clip0)" transform="translate(8 -86)"><path d="M0 0 263.574 0.000104987" stroke="#CFDCE6" stroke-width="8" stroke-miterlimit="8" fill="none" fill-rule="evenodd" transform="matrix(-1 0 0 1 1107.57 478)"/><path d="M844 377 844 477.742" stroke="#CFDCE6" stroke-width="8" stroke-miterlimit="8" fill="none" fill-rule="evenodd"/><path d="M0 0 263.574 0.000104987" stroke="#CFDCE6" stroke-width="8" stroke-miterlimit="8" fill="none" fill-rule="evenodd" transform="matrix(-1 0 0 1 1107.57 220)"/><path d="M844 220 844 337.693" stroke="#CFDCE6" stroke-width="8" stroke-miterlimit="8" fill="none" fill-rule="evenodd"/><path d="M1108 220 1108 296.806" stroke="#CFDCE6" stroke-width="8" stroke-miterlimit="8" fill="none" fill-rule="evenodd"/><path d="M1111 394 1111 477.376" stroke="#CFDCE6" stroke-width="8" stroke-miterlimit="8" fill="none" fill-rule="evenodd"/><path d="M0 0 116.948 0.000104987" stroke="#CFDCE6" stroke-width="8" stroke-miterlimit="8" fill="none" fill-rule="evenodd" transform="matrix(-1 0 0 1 907.948 337)"/><path d="M0 0 68.2129 0.000104987" stroke="#CFDCE6" stroke-width="8" stroke-miterlimit="8" fill="none" fill-rule="evenodd" transform="matrix(-1 0 0 1 878.213 377)"/><path d="M1139.26 337.02 1085 322" stroke="#CFDCE6" stroke-width="8" stroke-miterlimit="8" fill="none" fill-rule="evenodd"/><path d="M0 0 54.2607 15.0204" stroke="#CFDCE6" stroke-width="8" stroke-miterlimit="8" fill="none" fill-rule="evenodd" transform="matrix(-1 0 0 1 1139.26 337)"/><path d="M1139.26 369.02 1085 354" stroke="#CFDCE6" stroke-width="8" stroke-miterlimit="8" fill="none" fill-rule="evenodd"/><path d="M0 0 54.2607 15.0204" stroke="#CFDCE6" stroke-width="8" stroke-miterlimit="8" fill="none" fill-rule="evenodd" transform="matrix(-1 0 0 1 1136.26 370)"/><path d="M0 0 54.2607 15.0204" stroke="#CFDCE6" stroke-width="8" stroke-miterlimit="8" fill="none" fill-rule="evenodd" transform="matrix(-1 0 0 1 1139.26 305)"/><path d="M1138.53 306.398 1104 297" stroke="#CFDCE6" stroke-width="8" stroke-miterlimit="8" fill="none" fill-rule="evenodd"/><path d="M1116.53 394.398 1082 385" stroke="#CFDCE6" stroke-width="8" stroke-miterlimit="8" fill="none" fill-rule="evenodd"/><path d="M861.639 302.128 873.128 302.128 873.128 289.904 875.872 289.904 875.872 302.128 887.361 302.128 887.361 304.872 875.872 304.872 875.872 317.096 873.128 317.096 873.128 304.872 861.639 304.872Z" stroke="#CFDCE6" stroke-width="8" stroke-miterlimit="8" fill="#CFDCE6" fill-rule="evenodd"/><path d="M7.92-3.99999 148.383-3.99989 148.383 4.0001 7.92 4.00001ZM29.9045 17.4551-0.0185392-1.48123e-07 29.9045-17.4551C31.8127-18.5682 34.262-17.9237 35.3751-16.0155 36.4882-14.1073 35.8437-11.658 33.9355-10.5449L9.93548 3.45512 9.93549-3.45511 33.9355 10.5449C35.8437 11.658 36.4882 14.1073 35.3751 16.0155 34.262 17.9237 31.8127 18.5683 29.9045 17.4551Z" fill="#CFDCE6" transform="matrix(-1 0 0 1 997.383 220)"/><path d="M0 0 448.198 5.741" stroke="#CFDCE6" stroke-width="8" stroke-miterlimit="8" fill="none" fill-rule="evenodd" transform="matrix(-1 0 0 1 514.198 478)"/><path d="M66 383 66.0001 483.742" stroke="#CFDCE6" stroke-width="8" stroke-miterlimit="8" fill="none" fill-rule="evenodd"/><path d="M0 0 455.291 0.000104987" stroke="#CFDCE6" stroke-width="8" stroke-miterlimit="8" fill="none" fill-rule="evenodd" transform="matrix(-1 0 0 1 517.291 225)"/><path d="M66 226 66.0001 343.693" stroke="#CFDCE6" stroke-width="8" stroke-miterlimit="8" fill="none" fill-rule="evenodd"/><path d="M330 226 330 302.806" stroke="#CFDCE6" stroke-width="8" stroke-miterlimit="8" fill="none" fill-rule="evenodd"/><path d="M333 400 333 483.376" stroke="#CFDCE6" stroke-width="8" stroke-miterlimit="8" fill="none" fill-rule="evenodd"/><path d="M0 0 116.948 0.000104987" stroke="#CFDCE6" stroke-width="8" stroke-miterlimit="8" fill="none" fill-rule="evenodd" transform="matrix(-1 0 0 1 129.948 343)"/><path d="M0 0 68.2129 0.000104987" stroke="#CFDCE6" stroke-width="8" stroke-miterlimit="8" fill="none" fill-rule="evenodd" transform="matrix(-1 0 0 1 100.213 383)"/><path d="M361.261 343.02 307 328" stroke="#CFDCE6" stroke-width="8" stroke-miterlimit="8" fill="none" fill-rule="evenodd"/><path d="M0 0 54.2607 15.0204" stroke="#CFDCE6" stroke-width="8" stroke-miterlimit="8" fill="none" fill-rule="evenodd" transform="matrix(-1 0 0 1 361.261 343)"/><path d="M361.261 375.02 307 360" stroke="#CFDCE6" stroke-width="8" stroke-miterlimit="8" fill="none" fill-rule="evenodd"/><path d="M0 0 54.2607 15.0204" stroke="#CFDCE6" stroke-width="8" stroke-miterlimit="8" fill="none" fill-rule="evenodd" transform="matrix(-1 0 0 1 358.261 375)"/><path d="M0 0 54.2607 15.0204" stroke="#CFDCE6" stroke-width="8" stroke-miterlimit="8" fill="none" fill-rule="evenodd" transform="matrix(-1 0 0 1 361.261 311)"/><path d="M360.535 311.398 326 302" stroke="#CFDCE6" stroke-width="8" stroke-miterlimit="8" fill="none" fill-rule="evenodd"/><path d="M338.535 400.398 304 391" stroke="#CFDCE6" stroke-width="8" stroke-miterlimit="8" fill="none" fill-rule="evenodd"/><path d="M83.6393 308.128 95.1278 308.128 95.1278 295.904 97.8722 295.904 97.8722 308.128 109.361 308.128 109.361 310.872 97.8722 310.872 97.8722 323.096 95.1278 323.096 95.1278 310.872 83.6393 310.872Z" stroke="#CFDCE6" stroke-width="8" stroke-miterlimit="8" fill="#CFDCE6" fill-rule="evenodd"/><path d="M7.92-3.99999 148.383-3.99989 148.383 4.0001 7.92 4.00001ZM29.9045 17.4551-0.0185392-1.48123e-07 29.9045-17.4551C31.8127-18.5682 34.262-17.9237 35.3751-16.0155 36.4882-14.1073 35.8437-11.658 33.9355-10.5449L9.93548 3.45512 9.93549-3.45511 33.9355 10.5449C35.8437 11.658 36.4882 14.1073 35.3751 16.0155 34.262 17.9237 31.8127 18.5683 29.9045 17.4551Z" fill="#CFDCE6" transform="matrix(-1 0 0 1 219.383 226)"/><path d="M515 225 515 301.806" stroke="#CFDCE6" stroke-width="8" stroke-miterlimit="8" fill="none" fill-rule="evenodd"/><path d="M517 400 517 483.376" stroke="#CFDCE6" stroke-width="8" stroke-miterlimit="8" fill="none" fill-rule="evenodd"/><path d="M545.261 342.02 491 327" stroke="#CFDCE6" stroke-width="8" stroke-miterlimit="8" fill="none" fill-rule="evenodd"/><path d="M0 0 54.2607 15.0204" stroke="#CFDCE6" stroke-width="8" stroke-miterlimit="8" fill="none" fill-rule="evenodd" transform="matrix(-1 0 0 1 545.261 342)"/><path d="M545.261 375.02 491 360" stroke="#CFDCE6" stroke-width="8" stroke-miterlimit="8" fill="none" fill-rule="evenodd"/><path d="M0 0 54.2607 15.0204" stroke="#CFDCE6" stroke-width="8" stroke-miterlimit="8" fill="none" fill-rule="evenodd" transform="matrix(-1 0 0 1 543.261 375)"/><path d="M0 0 54.2607 15.0204" stroke="#CFDCE6" stroke-width="8" stroke-miterlimit="8" fill="none" fill-rule="evenodd" transform="matrix(-1 0 0 1 545.261 311)"/><path d="M545.535 311.398 511 302" stroke="#CFDCE6" stroke-width="8" stroke-miterlimit="8" fill="none" fill-rule="evenodd"/><path d="M523.535 399.398 489 390" stroke="#CFDCE6" stroke-width="8" stroke-miterlimit="8" fill="none" fill-rule="evenodd"/><text fill="#CFDCE6" font-family="Arial,Arial_MSFontService,sans-serif" font-weight="700" font-size="64" transform="translate(372.948 384)">2 Ω<tspan font-size="64" x="184.403" y="0">3 Ω</tspan></text><path d="M7.96811-3.90328 106.548-2.70301 106.45 5.2964 7.87071 4.09613ZM29.6898 17.8179-0.0185392-0.000225865 30.1148-17.0897C32.0364-18.1795 34.4777-17.5052 35.5675-15.5836 36.6573-13.662 35.983-11.2208 34.0614-10.1309L9.89268 3.57582 9.97681-3.3339 33.8046 10.9573C35.6991 12.0935 36.3138 14.5505 35.1775 16.445 34.0412 18.3395 31.5843 18.9542 29.6898 17.8179Z" fill="#CFDCE6" transform="matrix(-1 0 0 1 779.499 360)"/><text fill="#CFDCE6" font-family="Arial,Arial_MSFontService,sans-serif" font-weight="700" font-size="64" transform="translate(1154.93 382)">1.2<tspan font-size="64" x="107" y="0">Ω</tspan><tspan font-size="64" x="-1123.42" y="-211">(a)</tspan><tspan font-size="64" x="-337.516" y="-214">(b)</tspan></text></g></svg>