<svg width="1007" height="590" xmlns="http://www.w3.org/2000/svg" xmlns:xlink="http://www.w3.org/1999/xlink" overflow="hidden"><defs><clipPath id="clip0"><rect x="46" y="53" width="1007" height="590"/></clipPath></defs><g clip-path="url(#clip0)" transform="translate(-46 -53)"><path d="M0 0 390.052 0.000104987" stroke="#CFDCE6" stroke-width="8" stroke-miterlimit="8" fill="none" fill-rule="evenodd" transform="matrix(-1 0 0 1 1048.05 472)"/><path d="M0 0 110.753 0.000104987" stroke="#CFDCE6" stroke-width="8" stroke-miterlimit="8" fill="none" fill-rule="evenodd" transform="matrix(-1 0 0 1 519.753 215)"/><path d="M1048 214 1048 472.087" stroke="#CFDCE6" stroke-width="8" stroke-miterlimit="8" fill="none" fill-rule="evenodd"/><path d="M164 314.92 164 389.823 156 389.823 156 314.92ZM142.545 336.905 160 306.981 177.455 336.904C178.568 338.813 177.924 341.262 176.016 342.375 174.107 343.488 171.658 342.844 170.545 340.935L156.545 316.935 163.455 316.935 149.455 340.935C148.342 342.844 145.893 343.488 143.985 342.375 142.076 341.262 141.432 338.813 142.545 336.905Z" fill="#CFDCE6"/><text fill="#CFDCE6" font-family="Arial,Arial_MSFontService,sans-serif" font-weight="700" font-size="64" transform="translate(583.981 589)">V<tspan font-size="64" x="-498.667" y="-225">I</tspan></text><path d="M554 472.5C554 445.714 577.281 424 606 424 634.719 424 658 445.714 658 472.5 658 499.286 634.719 521 606 521 577.281 521 554 499.286 554 472.5Z" stroke="#CFDCE6" stroke-width="8" stroke-miterlimit="8" fill="none" fill-rule="evenodd"/><path d="M570 470.975C574.8 457.696 579.6 444.418 588 448.881 596.4 453.345 611.4 494.408 620.4 497.756 629.4 501.103 642 468.967 642 468.967" stroke="#CFDCE6" stroke-width="8" stroke-miterlimit="8" fill="none" fill-rule="evenodd"/><path d="M0 0 393.968 0.000104987" stroke="#CFDCE6" stroke-width="8" stroke-miterlimit="8" fill="none" fill-rule="evenodd" transform="matrix(-1 0 0 1 553.968 472)"/><path d="M160 213 160 471.087" stroke="#CFDCE6" stroke-width="8" stroke-miterlimit="8" fill="none" fill-rule="evenodd"/><path d="M1048.72 213 927 213" stroke="#CFDCE6" stroke-width="8" stroke-miterlimit="8" fill="none" fill-rule="evenodd"/><text fill="#CFDCE6" font-family="Arial,Arial_MSFontService,sans-serif" font-weight="700" font-size="64" transform="translate(872.864 137)">C</text><path d="M873 168 873 260.018" stroke="#CFDCE6" stroke-width="8" stroke-miterlimit="8" fill="none" fill-rule="evenodd"/><path d="M930 168 930 260.018" stroke="#CFDCE6" stroke-width="8" stroke-miterlimit="8" fill="none" fill-rule="evenodd"/><path d="M520.001 215.252C519.889 191.504 535.244 172.14 554.298 172.001 573.351 171.861 588.888 191 588.999 214.748 589 214.832 589 214.916 589 215" stroke="#CFDCE6" stroke-width="8" stroke-miterlimit="8" fill="none" fill-rule="evenodd"/><path d="M561.001 214.252C560.889 190.504 576.244 171.14 595.298 171.001 614.351 170.861 629.888 190 629.999 213.748 630 213.832 630 213.916 630 214" stroke="#CFDCE6" stroke-width="8" stroke-miterlimit="8" fill="none" fill-rule="evenodd"/><path d="M589 214.898C589.032 228.705 582.789 239.943 575.057 240 567.325 240.056 561.032 228.909 561 215.102 560.999 214.718 561.003 214.333 561.012 213.949" stroke="#CFDCE6" stroke-width="8" stroke-miterlimit="8" fill="none" fill-rule="evenodd"/><path d="M603.001 213.752C602.888 190.281 618.242 171.14 637.295 171.001 656.349 170.861 671.886 189.776 672 213.248 672 213.332 672 213.416 672 213.5" stroke="#CFDCE6" stroke-width="8" stroke-miterlimit="8" fill="none" fill-rule="evenodd"/><path d="M631 213.898C631.032 227.705 624.789 238.943 617.057 239 609.325 239.056 603.032 227.909 603 214.102 602.999 213.718 603.003 213.333 603.012 212.949" stroke="#CFDCE6" stroke-width="8" stroke-miterlimit="8" fill="none" fill-rule="evenodd"/><path d="M645.001 212.749C644.891 189.277 660.024 170.138 678.801 170.001 697.578 169.863 712.89 188.78 712.999 212.251 713 212.334 713 212.417 713 212.5" stroke="#CFDCE6" stroke-width="8" stroke-miterlimit="8" fill="none" fill-rule="evenodd"/><path d="M672 213.401C672.029 227.484 666.008 238.945 658.552 239 651.096 239.054 645.029 227.682 645 213.599 644.999 213.228 645.003 212.857 645.011 212.487" stroke="#CFDCE6" stroke-width="8" stroke-miterlimit="8" fill="none" fill-rule="evenodd"/><path d="M870.485 215.177 711 213" stroke="#CFDCE6" stroke-width="8" stroke-miterlimit="8" fill="none" fill-rule="evenodd"/><path d="M369 244.261 384.02 190" stroke="#CFDCE6" stroke-width="8" stroke-miterlimit="8" fill="none" fill-rule="evenodd"/><path d="M0 0 54.2607 15.0204" stroke="#CFDCE6" stroke-width="8" stroke-miterlimit="8" fill="none" fill-rule="evenodd" transform="matrix(-6.12323e-17 -1 -1 6.12323e-17 369.02 244.261)"/><path d="M336 244.261 351.02 190" stroke="#CFDCE6" stroke-width="8" stroke-miterlimit="8" fill="none" fill-rule="evenodd"/><path d="M0 0 54.2607 15.0204" stroke="#CFDCE6" stroke-width="8" stroke-miterlimit="8" fill="none" fill-rule="evenodd" transform="matrix(-6.12323e-17 -1 -1 6.12323e-17 336.02 241.261)"/><path d="M0 0 54.2607 15.0204" stroke="#CFDCE6" stroke-width="8" stroke-miterlimit="8" fill="none" fill-rule="evenodd" transform="matrix(-6.12323e-17 -1 -1 6.12323e-17 400.02 244.261)"/><path d="M399 243.535 408.398 209" stroke="#CFDCE6" stroke-width="8" stroke-miterlimit="8" fill="none" fill-rule="evenodd"/><path d="M311 221.535 320.398 187" stroke="#CFDCE6" stroke-width="8" stroke-miterlimit="8" fill="none" fill-rule="evenodd"/><path d="M314.932 217.197 160 216" stroke="#CFDCE6" stroke-width="8" stroke-miterlimit="8" fill="none" fill-rule="evenodd"/><text fill="#CFDCE6" font-family="Arial,Arial_MSFontService,sans-serif" font-weight="700" font-size="64" transform="translate(333.785 137)">R<tspan font-size="64" x="259.696" y="-2">L</tspan></text></g></svg>