<svg width="1276" height="747" xmlns="http://www.w3.org/2000/svg" xmlns:xlink="http://www.w3.org/1999/xlink" overflow="hidden"><defs><clipPath id="clip0"><rect x="1" y="-26" width="1276" height="747"/></clipPath></defs><g clip-path="url(#clip0)" transform="translate(-1 26)"><rect x="387" y="434" width="459" height="207" stroke="#CFDCE6" stroke-width="8" stroke-miterlimit="8" fill="#406680"/><rect x="387" y="73" width="459" height="303" stroke="#CFDCE6" stroke-width="8" stroke-miterlimit="8" fill="#406680"/><path d="M327 637 891.126 637 891.126 645 327 645ZM869.143 623.545 899.066 641 869.143 658.455C867.234 659.568 864.785 658.924 863.672 657.016 862.559 655.107 863.203 652.658 865.112 651.545L889.112 637.545 889.112 644.455 865.112 630.455C863.203 629.342 862.559 626.893 863.672 624.985 864.785 623.076 867.234 622.432 869.143 623.545Z" fill="#CFDCE6"/><path d="M4-6.11936e-07 4.0001 678.34-3.9999 678.34-4 6.11936e-07ZM17.4552 656.356 0.000104597 686.279-17.455 656.356C-18.5681 654.448-17.9236 651.999-16.0154 650.886-14.1072 649.773-11.6579 650.417-10.5448 652.325L3.45522 676.325-3.45501 676.325 10.545 652.325C11.6581 650.417 14.1074 649.773 16.0156 650.886 17.9238 651.999 18.5683 654.448 17.4552 656.356Z" fill="#CFDCE6" transform="matrix(1 0 0 -1 387 697.261)"/><path d="M333.352 13.0917 363.696 13.0917 361.477 23.1542 357.477 23.1542C357.373 21.175 357.185 19.7896 356.915 18.9979 356.644 18.2063 356.227 17.6333 355.665 17.2792 355.102 16.925 354.31 16.7479 353.29 16.7479L345.446 16.7479 342.133 31.7479 346.477 31.7479C347.31 31.7479 348.013 31.6125 348.586 31.3417 349.159 31.0708 349.691 30.6177 350.18 29.9823 350.67 29.3469 351.154 28.4667 351.633 27.3417L355.071 27.3417 352.071 40.0292 348.852 40.0292C348.852 38.8208 348.779 37.8938 348.633 37.2479 348.487 36.6021 348.217 36.1333 347.821 35.8417 347.425 35.55 346.748 35.4042 345.79 35.4042L341.352 35.4042 337.665 52.0917 344.696 52.0917C345.612 52.0917 346.326 52.0292 346.836 51.9042 347.347 51.7792 347.816 51.5813 348.243 51.3104 348.67 51.0396 349.165 50.6073 349.727 50.0136 350.29 49.4198 350.847 48.6698 351.399 47.7636 351.951 46.8573 352.519 45.7688 353.102 44.4979L357.352 44.4979 354.477 55.7479 324.758 55.7479 325.196 53.6854C326.383 53.3521 327.258 52.7688 327.821 51.9354 328.383 51.1021 328.915 49.5604 329.415 47.3104L335.102 21.5292C335.373 20.3 335.508 19.0813 335.508 17.8729 335.508 16.9979 335.305 16.3573 334.899 15.9511 334.493 15.5448 333.831 15.2792 332.915 15.1542Z" fill="#CFDCE6" fill-rule="evenodd"/><text fill="#000000" fill-opacity="0" font-family="Arial,Arial_MSFontService,sans-serif" font-size="42.6562" x="324.758" y="50.4159">𝑬</text><path d="M343.935 662.794C342.456 662.794 341.289 663.445 340.435 664.747 339.581 666.049 338.967 667.986 338.592 670.559 338.217 673.132 338.029 676.481 338.029 680.606 338.029 685.19 338.232 688.835 338.638 691.544 339.045 694.252 339.685 696.247 340.56 697.528 341.435 698.809 342.602 699.45 344.06 699.45 344.852 699.45 345.545 699.257 346.138 698.872 346.732 698.486 347.263 697.882 347.732 697.059 348.201 696.236 348.602 695.143 348.935 693.778 349.269 692.414 349.508 690.716 349.654 688.684 349.8 686.653 349.873 684.387 349.873 681.887 349.873 678.158 349.732 675.023 349.451 672.481 349.17 669.94 348.769 667.981 348.248 666.606 347.727 665.231 347.112 664.252 346.404 663.669 345.696 663.085 344.873 662.794 343.935 662.794ZM344.123 659.294C349.248 659.294 353.071 661.039 355.592 664.528 358.112 668.018 359.373 673.356 359.373 680.544 359.373 687.919 358.034 693.497 355.357 697.278 352.68 701.059 348.748 702.95 343.56 702.95 338.435 702.95 334.649 701.174 332.201 697.622 329.753 694.07 328.529 688.7 328.529 681.512 328.529 674.304 329.894 668.799 332.623 664.997 335.352 661.195 339.185 659.294 344.123 659.294Z" fill="#CFDCE6" fill-rule="evenodd"/><text fill="#000000" fill-opacity="0" font-family="Arial,Arial_MSFontService,sans-serif" font-size="43.6562" x="328.529" y="697.493">𝟎</text><path d="M422 622 477.297 622" stroke="#CFDCE6" stroke-width="8" stroke-miterlimit="8" fill="none" fill-rule="evenodd"/><path d="M505 622 560.297 622" stroke="#CFDCE6" stroke-width="8" stroke-miterlimit="8" fill="none" fill-rule="evenodd"/><path d="M588 622 643.297 622" stroke="#CFDCE6" stroke-width="8" stroke-miterlimit="8" fill="none" fill-rule="evenodd"/><path d="M671 622 726.297 622" stroke="#CFDCE6" stroke-width="8" stroke-miterlimit="8" fill="none" fill-rule="evenodd"/><path d="M754 622 809.297 622" stroke="#CFDCE6" stroke-width="8" stroke-miterlimit="8" fill="none" fill-rule="evenodd"/><path d="M434 606C434 597.716 441.163 591 450 591 458.837 591 466 597.716 466 606 466 614.284 458.837 621 450 621 441.163 621 434 614.284 434 606Z" stroke="#CFDCE6" stroke-width="8" stroke-miterlimit="8" fill="#8FACBF" fill-rule="evenodd"/><path d="M515 605.5C515 597.492 522.163 591 531 591 539.837 591 547 597.492 547 605.5 547 613.508 539.837 620 531 620 522.163 620 515 613.508 515 605.5Z" stroke="#CFDCE6" stroke-width="8" stroke-miterlimit="8" fill="#8FACBF" fill-rule="evenodd"/><path d="M600 605.5C600 597.492 607.163 591 616 591 624.837 591 632 597.492 632 605.5 632 613.508 624.837 620 616 620 607.163 620 600 613.508 600 605.5Z" stroke="#CFDCE6" stroke-width="8" stroke-miterlimit="8" fill="#8FACBF" fill-rule="evenodd"/><path d="M683 605.5C683 597.492 690.163 591 699 591 707.837 591 715 597.492 715 605.5 715 613.508 707.837 620 699 620 690.163 620 683 613.508 683 605.5Z" stroke="#CFDCE6" stroke-width="8" stroke-miterlimit="8" fill="#8FACBF" fill-rule="evenodd"/><path d="M766 605.5C766 597.492 772.94 591 781.5 591 790.06 591 797 597.492 797 605.5 797 613.508 790.06 620 781.5 620 772.94 620 766 613.508 766 605.5Z" stroke="#CFDCE6" stroke-width="8" stroke-miterlimit="8" fill="#8FACBF" fill-rule="evenodd"/><path d="M423 577 478.297 577" stroke="#CFDCE6" stroke-width="8" stroke-miterlimit="8" fill="none" fill-rule="evenodd"/><path d="M506 577 561.297 577" stroke="#CFDCE6" stroke-width="8" stroke-miterlimit="8" fill="none" fill-rule="evenodd"/><path d="M589 577 644.297 577" stroke="#CFDCE6" stroke-width="8" stroke-miterlimit="8" fill="none" fill-rule="evenodd"/><path d="M672 577 727.297 577" stroke="#CFDCE6" stroke-width="8" stroke-miterlimit="8" fill="none" fill-rule="evenodd"/><path d="M755 577 810.297 577" stroke="#CFDCE6" stroke-width="8" stroke-miterlimit="8" fill="none" fill-rule="evenodd"/><path d="M435 560.5C435 552.492 441.94 546 450.5 546 459.06 546 466 552.492 466 560.5 466 568.508 459.06 575 450.5 575 441.94 575 435 568.508 435 560.5Z" stroke="#CFDCE6" stroke-width="8" stroke-miterlimit="8" fill="#8FACBF" fill-rule="evenodd"/><path d="M516 560.5C516 552.492 522.94 546 531.5 546 540.06 546 547 552.492 547 560.5 547 568.508 540.06 575 531.5 575 522.94 575 516 568.508 516 560.5Z" stroke="#CFDCE6" stroke-width="8" stroke-miterlimit="8" fill="#8FACBF" fill-rule="evenodd"/><path d="M601 560.5C601 552.492 607.94 546 616.5 546 625.06 546 632 552.492 632 560.5 632 568.508 625.06 575 616.5 575 607.94 575 601 568.508 601 560.5Z" stroke="#CFDCE6" stroke-width="8" stroke-miterlimit="8" fill="#8FACBF" fill-rule="evenodd"/><path d="M684 560.5C684 552.492 690.94 546 699.5 546 708.06 546 715 552.492 715 560.5 715 568.508 708.06 575 699.5 575 690.94 575 684 568.508 684 560.5Z" stroke="#CFDCE6" stroke-width="8" stroke-miterlimit="8" fill="#8FACBF" fill-rule="evenodd"/><path d="M766 560.5C766 552.492 773.163 546 782 546 790.837 546 798 552.492 798 560.5 798 568.508 790.837 575 782 575 773.163 575 766 568.508 766 560.5Z" stroke="#CFDCE6" stroke-width="8" stroke-miterlimit="8" fill="#8FACBF" fill-rule="evenodd"/><path d="M424 531 479.297 531" stroke="#CFDCE6" stroke-width="8" stroke-miterlimit="8" fill="none" fill-rule="evenodd"/><path d="M507 531 562.297 531" stroke="#CFDCE6" stroke-width="8" stroke-miterlimit="8" fill="none" fill-rule="evenodd"/><path d="M590 531 645.297 531" stroke="#CFDCE6" stroke-width="8" stroke-miterlimit="8" fill="none" fill-rule="evenodd"/><path d="M673 531 728.297 531" stroke="#CFDCE6" stroke-width="8" stroke-miterlimit="8" fill="none" fill-rule="evenodd"/><path d="M756 531 811.297 531" stroke="#CFDCE6" stroke-width="8" stroke-miterlimit="8" fill="none" fill-rule="evenodd"/><path d="M436 515C436 506.716 442.94 500 451.5 500 460.06 500 467 506.716 467 515 467 523.284 460.06 530 451.5 530 442.94 530 436 523.284 436 515Z" stroke="#CFDCE6" stroke-width="8" stroke-miterlimit="8" fill="#8FACBF" fill-rule="evenodd"/><path d="M516 515C516 506.716 523.163 500 532 500 540.837 500 548 506.716 548 515 548 523.284 540.837 530 532 530 523.163 530 516 523.284 516 515Z" stroke="#CFDCE6" stroke-width="8" stroke-miterlimit="8" fill="#8FACBF" fill-rule="evenodd"/><path d="M602 515C602 506.716 608.94 500 617.5 500 626.06 500 633 506.716 633 515 633 523.284 626.06 530 617.5 530 608.94 530 602 523.284 602 515Z" stroke="#CFDCE6" stroke-width="8" stroke-miterlimit="8" fill="#8FACBF" fill-rule="evenodd"/><path d="M685 515C685 506.716 691.94 500 700.5 500 709.06 500 716 506.716 716 515 716 523.284 709.06 530 700.5 530 691.94 530 685 523.284 685 515Z" stroke="#CFDCE6" stroke-width="8" stroke-miterlimit="8" fill="#8FACBF" fill-rule="evenodd"/><path d="M767 515C767 506.716 774.163 500 783 500 791.837 500 799 506.716 799 515 799 523.284 791.837 530 783 530 774.163 530 767 523.284 767 515Z" stroke="#CFDCE6" stroke-width="8" stroke-miterlimit="8" fill="#8FACBF" fill-rule="evenodd"/><path d="M424 486 479.297 486" stroke="#CFDCE6" stroke-width="8" stroke-miterlimit="8" fill="none" fill-rule="evenodd"/><path d="M507 486 562.297 486" stroke="#CFDCE6" stroke-width="8" stroke-miterlimit="8" fill="none" fill-rule="evenodd"/><path d="M590 486 645.297 486" stroke="#CFDCE6" stroke-width="8" stroke-miterlimit="8" fill="none" fill-rule="evenodd"/><path d="M673 486 728.297 486" stroke="#CFDCE6" stroke-width="8" stroke-miterlimit="8" fill="none" fill-rule="evenodd"/><path d="M756 486 811.297 486" stroke="#CFDCE6" stroke-width="8" stroke-miterlimit="8" fill="none" fill-rule="evenodd"/><path d="M436 469.5C436 461.492 443.163 455 452 455 460.837 455 468 461.492 468 469.5 468 477.508 460.837 484 452 484 443.163 484 436 477.508 436 469.5Z" stroke="#CFDCE6" stroke-width="8" stroke-miterlimit="8" fill="#8FACBF" fill-rule="evenodd"/><path d="M517 469.5C517 461.492 524.163 455 533 455 541.837 455 549 461.492 549 469.5 549 477.508 541.837 484 533 484 524.163 484 517 477.508 517 469.5Z" stroke="#CFDCE6" stroke-width="8" stroke-miterlimit="8" fill="#8FACBF" fill-rule="evenodd"/><path d="M601 330.5C601 322.492 607.94 316 616.5 316 625.06 316 632 322.492 632 330.5 632 338.508 625.06 345 616.5 345 607.94 345 601 338.508 601 330.5Z" stroke="#CFDCE6" stroke-width="8" stroke-miterlimit="8" fill="#8FACBF" fill-rule="evenodd"/><path d="M685 469.5C685 461.492 692.163 455 701 455 709.837 455 717 461.492 717 469.5 717 477.508 709.837 484 701 484 692.163 484 685 477.508 685 469.5Z" stroke="#CFDCE6" stroke-width="8" stroke-miterlimit="8" fill="#8FACBF" fill-rule="evenodd"/><path d="M768 469.5C768 461.492 774.94 455 783.5 455 792.06 455 799 461.492 799 469.5 799 477.508 792.06 484 783.5 484 774.94 484 768 477.508 768 469.5Z" stroke="#CFDCE6" stroke-width="8" stroke-miterlimit="8" fill="#8FACBF" fill-rule="evenodd"/><path d="M423 348 478.297 348" stroke="#CFDCE6" stroke-width="8" stroke-miterlimit="8" fill="none" fill-rule="evenodd"/><path d="M506 348 561.297 348" stroke="#CFDCE6" stroke-width="8" stroke-miterlimit="8" fill="none" fill-rule="evenodd"/><path d="M589 348 644.297 348" stroke="#CFDCE6" stroke-width="8" stroke-miterlimit="8" fill="none" fill-rule="evenodd"/><path d="M672 348 727.297 348" stroke="#CFDCE6" stroke-width="8" stroke-miterlimit="8" fill="none" fill-rule="evenodd"/><path d="M755 348 810.297 348" stroke="#CFDCE6" stroke-width="8" stroke-miterlimit="8" fill="none" fill-rule="evenodd"/><path d="M424 303 479.297 303" stroke="#CFDCE6" stroke-width="8" stroke-miterlimit="8" fill="none" fill-rule="evenodd"/><path d="M507 303 562.297 303" stroke="#CFDCE6" stroke-width="8" stroke-miterlimit="8" fill="none" fill-rule="evenodd"/><path d="M590 303 645.297 303" stroke="#CFDCE6" stroke-width="8" stroke-miterlimit="8" fill="none" fill-rule="evenodd"/><path d="M673 303 728.297 303" stroke="#CFDCE6" stroke-width="8" stroke-miterlimit="8" fill="none" fill-rule="evenodd"/><path d="M756 303 811.297 303" stroke="#CFDCE6" stroke-width="8" stroke-miterlimit="8" fill="none" fill-rule="evenodd"/><path d="M424 257 479.297 257" stroke="#CFDCE6" stroke-width="8" stroke-miterlimit="8" fill="none" fill-rule="evenodd"/><path d="M507 257 562.297 257" stroke="#CFDCE6" stroke-width="8" stroke-miterlimit="8" fill="none" fill-rule="evenodd"/><path d="M590 257 645.297 257" stroke="#CFDCE6" stroke-width="8" stroke-miterlimit="8" fill="none" fill-rule="evenodd"/><path d="M673 257 728.297 257" stroke="#CFDCE6" stroke-width="8" stroke-miterlimit="8" fill="none" fill-rule="evenodd"/><path d="M756 257 811.297 257" stroke="#CFDCE6" stroke-width="8" stroke-miterlimit="8" fill="none" fill-rule="evenodd"/><path d="M425 212 480.297 212" stroke="#CFDCE6" stroke-width="8" stroke-miterlimit="8" fill="none" fill-rule="evenodd"/><path d="M508 212 563.297 212" stroke="#CFDCE6" stroke-width="8" stroke-miterlimit="8" fill="none" fill-rule="evenodd"/><path d="M591 212 646.297 212" stroke="#CFDCE6" stroke-width="8" stroke-miterlimit="8" fill="none" fill-rule="evenodd"/><path d="M674 212 729.297 212" stroke="#CFDCE6" stroke-width="8" stroke-miterlimit="8" fill="none" fill-rule="evenodd"/><path d="M757 212 812.297 212" stroke="#CFDCE6" stroke-width="8" stroke-miterlimit="8" fill="none" fill-rule="evenodd"/><path d="M2 342C2 328.193 13.1929 317 27 317 40.8071 317 52 328.193 52 342 52 355.807 40.8071 367 27 367 13.1929 367 2 355.807 2 342Z" fill="#03111A" fill-rule="evenodd"/><path d="M1225 317C1225 303.193 1236.42 292 1250.5 292 1264.58 292 1276 303.193 1276 317 1276 330.807 1264.58 342 1250.5 342 1236.42 342 1225 330.807 1225 317Z" fill="#03111A" fill-rule="evenodd"/><path d="M424 166 479.297 166" stroke="#CFDCE6" stroke-width="8" stroke-miterlimit="8" fill="none" fill-rule="evenodd"/><path d="M507 166 562.297 166" stroke="#CFDCE6" stroke-width="8" stroke-miterlimit="8" fill="none" fill-rule="evenodd"/><path d="M590 166 645.297 166" stroke="#CFDCE6" stroke-width="8" stroke-miterlimit="8" fill="none" fill-rule="evenodd"/><path d="M673 166 728.297 166" stroke="#CFDCE6" stroke-width="8" stroke-miterlimit="8" fill="none" fill-rule="evenodd"/><path d="M756 166 811.297 166" stroke="#CFDCE6" stroke-width="8" stroke-miterlimit="8" fill="none" fill-rule="evenodd"/><path d="M424 121 479.297 121" stroke="#CFDCE6" stroke-width="8" stroke-miterlimit="8" fill="none" fill-rule="evenodd"/><path d="M507 121 562.297 121" stroke="#CFDCE6" stroke-width="8" stroke-miterlimit="8" fill="none" fill-rule="evenodd"/><path d="M590 121 645.297 121" stroke="#CFDCE6" stroke-width="8" stroke-miterlimit="8" fill="none" fill-rule="evenodd"/><path d="M673 121 728.297 121" stroke="#CFDCE6" stroke-width="8" stroke-miterlimit="8" fill="none" fill-rule="evenodd"/><path d="M756 121 811.297 121" stroke="#CFDCE6" stroke-width="8" stroke-miterlimit="8" fill="none" fill-rule="evenodd"/><path d="M4-3.06923e-06 4.0001 128.905-3.9999 128.905-4 3.06923e-06ZM17.4552 106.92 0.000105209 136.843-17.455 106.92C-18.5682 105.012-17.9236 102.563-16.0154 101.45-14.1072 100.337-11.6579 100.981-10.5448 102.889L3.45521 126.889-3.45502 126.889 10.545 102.889C11.6581 100.981 14.1074 100.337 16.0156 101.45 17.9238 102.563 18.5683 105.012 17.4552 106.92Z" fill="#CFDCE6" transform="matrix(1 0 0 -1 618 464.825)"/></g></svg>