<svg width="1127" height="538" xmlns="http://www.w3.org/2000/svg" xmlns:xlink="http://www.w3.org/1999/xlink" overflow="hidden"><defs><clipPath id="clip0"><rect x="8" y="86" width="1127" height="538"/></clipPath></defs><g clip-path="url(#clip0)" transform="translate(-8 -86)"><path d="M0 0 263.574 0.000104987" stroke="#CFDCE6" stroke-width="8" stroke-miterlimit="8" fill="none" fill-rule="evenodd" transform="matrix(-1 0 0 1 943.574 547)"/><path d="M680 447 680 547.742" stroke="#CFDCE6" stroke-width="8" stroke-miterlimit="8" fill="none" fill-rule="evenodd"/><path d="M0 0 263.574 0.000104987" stroke="#CFDCE6" stroke-width="8" stroke-miterlimit="8" fill="none" fill-rule="evenodd" transform="matrix(-1 0 0 1 943.574 289)"/><path d="M680 289 680 406.693" stroke="#CFDCE6" stroke-width="8" stroke-miterlimit="8" fill="none" fill-rule="evenodd"/><path d="M944 289 944 365.806" stroke="#CFDCE6" stroke-width="8" stroke-miterlimit="8" fill="none" fill-rule="evenodd"/><path d="M946 464 946 547.376" stroke="#CFDCE6" stroke-width="8" stroke-miterlimit="8" fill="none" fill-rule="evenodd"/><path d="M0 0 116.948 0.000104987" stroke="#CFDCE6" stroke-width="8" stroke-miterlimit="8" fill="none" fill-rule="evenodd" transform="matrix(-1 0 0 1 742.948 407)"/><path d="M0 0 68.2129 0.000104987" stroke="#CFDCE6" stroke-width="8" stroke-miterlimit="8" fill="none" fill-rule="evenodd" transform="matrix(-1 0 0 1 714.213 447)"/><path d="M974.261 406.02 920 391" stroke="#CFDCE6" stroke-width="8" stroke-miterlimit="8" fill="none" fill-rule="evenodd"/><path d="M0 0 54.2607 15.0204" stroke="#CFDCE6" stroke-width="8" stroke-miterlimit="8" fill="none" fill-rule="evenodd" transform="matrix(-1 0 0 1 974.261 406)"/><path d="M974.261 439.02 920 424" stroke="#CFDCE6" stroke-width="8" stroke-miterlimit="8" fill="none" fill-rule="evenodd"/><path d="M0 0 54.2607 15.0204" stroke="#CFDCE6" stroke-width="8" stroke-miterlimit="8" fill="none" fill-rule="evenodd" transform="matrix(-1 0 0 1 972.261 439)"/><path d="M0 0 54.2607 15.0204" stroke="#CFDCE6" stroke-width="8" stroke-miterlimit="8" fill="none" fill-rule="evenodd" transform="matrix(-1 0 0 1 974.261 375)"/><path d="M974.535 375.398 940 366" stroke="#CFDCE6" stroke-width="8" stroke-miterlimit="8" fill="none" fill-rule="evenodd"/><path d="M952.535 464.398 918 455" stroke="#CFDCE6" stroke-width="8" stroke-miterlimit="8" fill="none" fill-rule="evenodd"/><path d="M697.507 371.667 708.667 371.667 708.667 359.772 711.333 359.772 711.333 371.667 722.493 371.667 722.493 374.333 711.333 374.333 711.333 386.228 708.667 386.228 708.667 374.333 697.507 374.333Z" stroke="#CFDCE6" stroke-width="8" stroke-miterlimit="8" fill="#CFDCE6" fill-rule="evenodd"/><path d="M7.92-3.99999 148.383-3.99989 148.383 4.0001 7.92 4.00001ZM29.9045 17.4551-0.0185392-1.48123e-07 29.9045-17.4551C31.8127-18.5682 34.262-17.9237 35.3751-16.0155 36.4882-14.1073 35.8437-11.658 33.9355-10.5449L9.93548 3.45512 9.93549-3.45511 33.9355 10.5449C35.8437 11.658 36.4882 14.1073 35.3751 16.0155 34.262 17.9237 31.8127 18.5683 29.9045 17.4551Z" fill="#CFDCE6" transform="matrix(-1 0 0 1 833.383 289)"/><path d="M0 0 275.652 1.09627" stroke="#CFDCE6" stroke-width="8" stroke-miterlimit="8" fill="none" fill-rule="evenodd" transform="matrix(-1 0 0 1 336.652 618)"/><path d="M0 0 4.38835 233.04" stroke="#CFDCE6" stroke-width="8" stroke-miterlimit="8" fill="none" fill-rule="evenodd" transform="matrix(-1 0 0 1 66.3883 383)"/><path d="M331.506 225.624 62 225" stroke="#CFDCE6" stroke-width="8" stroke-miterlimit="8" fill="none" fill-rule="evenodd"/><path d="M66 226 66.0001 343.693" stroke="#CFDCE6" stroke-width="8" stroke-miterlimit="8" fill="none" fill-rule="evenodd"/><path d="M330 226 330 302.806" stroke="#CFDCE6" stroke-width="8" stroke-miterlimit="8" fill="none" fill-rule="evenodd"/><path d="M334 400 334 448.824" stroke="#CFDCE6" stroke-width="8" stroke-miterlimit="8" fill="none" fill-rule="evenodd"/><path d="M0 0 116.948 0.000104987" stroke="#CFDCE6" stroke-width="8" stroke-miterlimit="8" fill="none" fill-rule="evenodd" transform="matrix(-1 0 0 1 129.948 343)"/><path d="M0 0 68.2129 0.000104987" stroke="#CFDCE6" stroke-width="8" stroke-miterlimit="8" fill="none" fill-rule="evenodd" transform="matrix(-1 0 0 1 100.213 383)"/><path d="M361.261 343.02 307 328" stroke="#CFDCE6" stroke-width="8" stroke-miterlimit="8" fill="none" fill-rule="evenodd"/><path d="M0 0 54.2607 15.0204" stroke="#CFDCE6" stroke-width="8" stroke-miterlimit="8" fill="none" fill-rule="evenodd" transform="matrix(-1 0 0 1 361.261 343)"/><path d="M361.261 375.02 307 360" stroke="#CFDCE6" stroke-width="8" stroke-miterlimit="8" fill="none" fill-rule="evenodd"/><path d="M0 0 54.2607 15.0204" stroke="#CFDCE6" stroke-width="8" stroke-miterlimit="8" fill="none" fill-rule="evenodd" transform="matrix(-1 0 0 1 358.261 375)"/><path d="M0 0 54.2607 15.0204" stroke="#CFDCE6" stroke-width="8" stroke-miterlimit="8" fill="none" fill-rule="evenodd" transform="matrix(-1 0 0 1 361.261 311)"/><path d="M360.535 311.398 326 302" stroke="#CFDCE6" stroke-width="8" stroke-miterlimit="8" fill="none" fill-rule="evenodd"/><path d="M338.535 400.398 304 391" stroke="#CFDCE6" stroke-width="8" stroke-miterlimit="8" fill="none" fill-rule="evenodd"/><path d="M83.6393 308.128 95.1278 308.128 95.1278 295.904 97.8722 295.904 97.8722 308.128 109.361 308.128 109.361 310.872 97.8722 310.872 97.8722 323.096 95.1278 323.096 95.1278 310.872 83.6393 310.872Z" stroke="#CFDCE6" stroke-width="8" stroke-miterlimit="8" fill="#CFDCE6" fill-rule="evenodd"/><path d="M7.92-3.99999 148.383-3.99989 148.383 4.0001 7.92 4.00001ZM29.9045 17.4551-0.0185392-1.48123e-07 29.9045-17.4551C31.8127-18.5682 34.262-17.9237 35.3751-16.0155 36.4882-14.1073 35.8437-11.658 33.9355-10.5449L9.93548 3.45512 9.93549-3.45511 33.9355 10.5449C35.8437 11.658 36.4882 14.1073 35.3751 16.0155 34.262 17.9237 31.8127 18.5683 29.9045 17.4551Z" fill="#CFDCE6" transform="matrix(-1 0 0 1 219.383 226)"/><path d="M363.261 488.02 309 473" stroke="#CFDCE6" stroke-width="8" stroke-miterlimit="8" fill="none" fill-rule="evenodd"/><path d="M0 0 54.2607 15.0204" stroke="#CFDCE6" stroke-width="8" stroke-miterlimit="8" fill="none" fill-rule="evenodd" transform="matrix(-1 0 0 1 363.261 488)"/><path d="M363.261 521.02 309 506" stroke="#CFDCE6" stroke-width="8" stroke-miterlimit="8" fill="none" fill-rule="evenodd"/><path d="M0 0 54.2607 15.0204" stroke="#CFDCE6" stroke-width="8" stroke-miterlimit="8" fill="none" fill-rule="evenodd" transform="matrix(-1 0 0 1 361.261 521)"/><path d="M0 0 54.2607 15.0204" stroke="#CFDCE6" stroke-width="8" stroke-miterlimit="8" fill="none" fill-rule="evenodd" transform="matrix(-1 0 0 1 363.261 457)"/><path d="M363.535 457.398 329 448" stroke="#CFDCE6" stroke-width="8" stroke-miterlimit="8" fill="none" fill-rule="evenodd"/><path d="M341.535 545.398 307 536" stroke="#CFDCE6" stroke-width="8" stroke-miterlimit="8" fill="none" fill-rule="evenodd"/><text fill="#CFDCE6" font-family="Arial,Arial_MSFontService,sans-serif" font-weight="700" font-size="64" transform="translate(372.948 384)">2 Ω<tspan font-size="64" x="0.403564" y="132">3</tspan><tspan font-size="64" x="53.9036" y="132">Ω</tspan></text><path d="M7.96811-3.90328 106.548-2.70301 106.45 5.2964 7.87071 4.09613ZM29.6898 17.8179-0.0185392-0.000225865 30.1148-17.0897C32.0364-18.1795 34.4777-17.5052 35.5675-15.5836 36.6573-13.662 35.983-11.2208 34.0614-10.1309L9.89268 3.57582 9.97681-3.3339 33.8046 10.9573C35.6991 12.0935 36.3138 14.5505 35.1775 16.445 34.0412 18.3395 31.5843 18.9542 29.6898 17.8179Z" fill="#CFDCE6" transform="matrix(-1 0 0 1 615.499 429)"/><text fill="#CFDCE6" font-family="Arial,Arial_MSFontService,sans-serif" font-weight="700" font-size="64" transform="translate(990.628 452)">5<tspan font-size="64" x="53.5" y="0">Ω</tspan><tspan font-size="64" x="-831.271" y="-284">(a)</tspan><tspan font-size="64" x="-217.555" y="-284">(b)</tspan></text><path d="M336 541 336 617.806" stroke="#CFDCE6" stroke-width="8" stroke-miterlimit="8" fill="none" fill-rule="evenodd"/></g></svg>