<svg width="1196" height="386" xmlns="http://www.w3.org/2000/svg" xmlns:xlink="http://www.w3.org/1999/xlink" overflow="hidden"><defs><clipPath id="clip0"><rect x="6" y="91" width="1196" height="386"/></clipPath></defs><g clip-path="url(#clip0)" transform="translate(-6 -91)"><path d="M0 0 891.907 0.000104987" stroke="#CFDCE6" stroke-width="8" stroke-miterlimit="8" fill="none" fill-rule="evenodd" transform="matrix(-1 0 0 1 1051.91 466)"/><path d="M160 365 160 465.742" stroke="#CFDCE6" stroke-width="8" stroke-miterlimit="8" fill="none" fill-rule="evenodd"/><path d="M1050.82 214.302 160 213" stroke="#CFDCE6" stroke-width="8" stroke-miterlimit="8" fill="none" fill-rule="evenodd"/><path d="M160 208 160 325.693" stroke="#CFDCE6" stroke-width="8" stroke-miterlimit="8" fill="none" fill-rule="evenodd"/><path d="M1048 214 1048 290.806" stroke="#CFDCE6" stroke-width="8" stroke-miterlimit="8" fill="none" fill-rule="evenodd"/><path d="M1051 389 1051 472.376" stroke="#CFDCE6" stroke-width="8" stroke-miterlimit="8" fill="none" fill-rule="evenodd"/><path d="M0 0 116.948 0.000104987" stroke="#CFDCE6" stroke-width="8" stroke-miterlimit="8" fill="none" fill-rule="evenodd" transform="matrix(-1 0 0 1 222.948 326)"/><path d="M0 0 68.2129 0.000104987" stroke="#CFDCE6" stroke-width="8" stroke-miterlimit="8" fill="none" fill-rule="evenodd" transform="matrix(-1 0 0 1 194.213 365)"/><path d="M1079.26 331.02 1025 316" stroke="#CFDCE6" stroke-width="8" stroke-miterlimit="8" fill="none" fill-rule="evenodd"/><path d="M0 0 54.2607 15.0204" stroke="#CFDCE6" stroke-width="8" stroke-miterlimit="8" fill="none" fill-rule="evenodd" transform="matrix(-1 0 0 1 1079.26 331)"/><path d="M1079.26 364.02 1025 349" stroke="#CFDCE6" stroke-width="8" stroke-miterlimit="8" fill="none" fill-rule="evenodd"/><path d="M0 0 54.2607 15.0204" stroke="#CFDCE6" stroke-width="8" stroke-miterlimit="8" fill="none" fill-rule="evenodd" transform="matrix(-1 0 0 1 1077.26 364)"/><path d="M0 0 54.2607 15.0204" stroke="#CFDCE6" stroke-width="8" stroke-miterlimit="8" fill="none" fill-rule="evenodd" transform="matrix(-1 0 0 1 1079.26 300)"/><path d="M1079.53 300.398 1045 291" stroke="#CFDCE6" stroke-width="8" stroke-miterlimit="8" fill="none" fill-rule="evenodd"/><path d="M1057.53 389.398 1023 380" stroke="#CFDCE6" stroke-width="8" stroke-miterlimit="8" fill="none" fill-rule="evenodd"/><path d="M177.507 290.667 188.667 290.667 188.667 278.772 191.333 278.772 191.333 290.667 202.493 290.667 202.493 293.333 191.333 293.333 191.333 305.228 188.667 305.228 188.667 293.333 177.507 293.333Z" stroke="#CFDCE6" stroke-width="8" stroke-miterlimit="8" fill="#CFDCE6" fill-rule="evenodd"/><path d="M7.92-3.99999 148.383-3.99989 148.383 4.0001 7.92 4.00001ZM29.9045 17.4551-0.0185392-1.48123e-07 29.9045-17.4551C31.8127-18.5682 34.262-17.9237 35.3751-16.0155 36.4882-14.1073 35.8437-11.658 33.9355-10.5449L9.93548 3.45512 9.93549-3.45511 33.9355 10.5449C35.8437 11.658 36.4882 14.1073 35.3751 16.0155 34.262 17.9237 31.8127 18.5683 29.9045 17.4551Z" fill="#CFDCE6" transform="matrix(-1 0 0 1 666.383 213)"/><text fill="#CFDCE6" font-family="Arial,Arial_MSFontService,sans-serif" font-weight="700" font-size="64" transform="translate(45.1412 373)">V<tspan font-size="64" x="1071.63" y="-13">R</tspan><tspan font-size="64" x="533.286" y="-200">I</tspan></text></g></svg>