<svg width="1024" height="628" xmlns="http://www.w3.org/2000/svg" xmlns:xlink="http://www.w3.org/1999/xlink" overflow="hidden"><defs><clipPath id="clip0"><rect x="71" y="-9" width="1024" height="628"/></clipPath></defs><g clip-path="url(#clip0)" transform="translate(-71 9)"><path d="M372.751 141.559 236 141" stroke="#CFDCE6" stroke-width="8" stroke-miterlimit="8" fill="none" fill-rule="evenodd"/><path d="M237.167 271.996C184.152 272.369 140.652 247.824 140.007 217.175 139.362 186.525 181.817 161.377 234.833 161.004 235.251 161.001 235.67 161 236.089 161" stroke="#CFDCE6" stroke-width="8" stroke-miterlimit="8" fill="none" fill-rule="evenodd"/><path d="M237.588 291.993C171.32 292.545 116.888 259.193 116.011 217.499 115.133 175.805 168.144 141.559 234.412 141.007 234.982 141.002 235.552 141 236.122 141" stroke="#CFDCE6" stroke-width="8" stroke-miterlimit="8" fill="none" fill-rule="evenodd"/><path d="M235.484 223C288.503 222.928 331.714 233.838 331.998 247.369 332.283 260.899 289.534 271.927 236.515 272 236.33 272 236.145 272 235.96 272" stroke="#CFDCE6" stroke-width="8" stroke-miterlimit="8" fill="none" fill-rule="evenodd"/><path d="M235.585 205.001C302.133 204.819 356.491 224.146 356.996 248.17 357.502 272.193 303.963 291.816 237.415 291.999 237.087 292 236.758 292 236.43 292" stroke="#CFDCE6" stroke-width="8" stroke-miterlimit="8" fill="none" fill-rule="evenodd"/><path d="M158.063 245.887C176.12 231.503 205.164 222.984 236.089 223" stroke="#CFDCE6" stroke-width="8" stroke-miterlimit="8" fill="none" fill-rule="evenodd"/><path d="M146.04 229.914C168.917 214.029 201.475 204.972 235.622 204.994" stroke="#CFDCE6" stroke-width="8" stroke-miterlimit="8" fill="none" fill-rule="evenodd"/><path d="M238.588 355.993C172.32 356.545 117.888 323.193 117.011 281.499 116.777 270.396 120.439 259.397 127.736 249.286" stroke="#CFDCE6" stroke-width="8" stroke-miterlimit="8" fill="none" fill-rule="evenodd"/><path d="M237.719 332.999C184.701 333.226 141.4 308.786 141.003 278.412 140.946 274.092 141.778 269.783 143.482 265.575" stroke="#CFDCE6" stroke-width="8" stroke-miterlimit="8" fill="none" fill-rule="evenodd"/><path d="M320.06 280.761C368.416 297.19 370.877 324.718 325.556 342.247 302.853 351.028 271.129 356.007 237.93 356" stroke="#CFDCE6" stroke-width="8" stroke-miterlimit="8" fill="none" fill-rule="evenodd"/><path d="M291.197 288.316C335.105 295.985 346.21 311.24 316.001 322.387 297.988 329.034 268.24 333.003 236.46 333" stroke="#CFDCE6" stroke-width="8" stroke-miterlimit="8" fill="none" fill-rule="evenodd"/><path d="M238.761 269.005C248.39 269.056 257.967 269.527 267.285 270.408" stroke="#CFDCE6" stroke-width="8" stroke-miterlimit="8" fill="none" fill-rule="evenodd"/><path d="M214.677 270.7C223.038 269.565 231.568 268.995 240.122 269" stroke="#CFDCE6" stroke-width="8" stroke-miterlimit="8" fill="none" fill-rule="evenodd"/><path d="M143.19 298.304C150.863 292.089 160.038 286.662 170.383 282.22" stroke="#CFDCE6" stroke-width="8" stroke-miterlimit="8" fill="none" fill-rule="evenodd"/><path d="M160.567 309.769C172.446 300.414 189.118 293.43 208.245 289.798" stroke="#CFDCE6" stroke-width="8" stroke-miterlimit="8" fill="none" fill-rule="evenodd"/><path d="M237.759 399C184.74 398.923 141.867 374.012 142 343.36 142.022 338.279 143.251 333.224 145.653 328.336" stroke="#CFDCE6" stroke-width="8" stroke-miterlimit="8" fill="none" fill-rule="evenodd"/><path d="M239.591 421C173.041 421.032 119.05 387.031 119 345.057 118.989 335.446 121.868 325.921 127.485 316.986" stroke="#CFDCE6" stroke-width="8" stroke-miterlimit="8" fill="none" fill-rule="evenodd"/><path d="M320.389 345.258C369.716 361.385 373.489 388.893 328.815 406.701 305.956 415.812 273.484 421.007 239.43 421" stroke="#CFDCE6" stroke-width="8" stroke-miterlimit="8" fill="none" fill-rule="evenodd"/><path d="M289.728 352.861C334.392 360.152 347.44 375.303 318.872 386.701 301.221 393.744 270.718 398.003 237.961 398" stroke="#CFDCE6" stroke-width="8" stroke-miterlimit="8" fill="none" fill-rule="evenodd"/><path d="M159.063 371.887C169.828 363.311 184.675 356.693 201.83 352.824" stroke="#CFDCE6" stroke-width="8" stroke-miterlimit="8" fill="none" fill-rule="evenodd"/><path d="M146.04 356.913C152.882 352.163 160.66 347.976 169.187 344.455" stroke="#CFDCE6" stroke-width="8" stroke-miterlimit="8" fill="none" fill-rule="evenodd"/><path d="M237.157 460.996C184.141 461.362 140.646 437.036 140.007 406.663 139.871 400.181 141.736 393.736 145.516 387.626" stroke="#CFDCE6" stroke-width="8" stroke-miterlimit="8" fill="none" fill-rule="evenodd"/><path d="M241.088 480.993C174.544 481.543 119.888 448.188 119.011 406.492 118.79 395.996 122.064 385.586 128.626 375.927" stroke="#CFDCE6" stroke-width="8" stroke-miterlimit="8" fill="none" fill-rule="evenodd"/><path d="M372.952 163.576 234 162" stroke="#CFDCE6" stroke-width="8" stroke-miterlimit="8" fill="none" fill-rule="evenodd"/><path d="M242.761 329.005C252.39 329.056 261.967 329.527 271.285 330.408" stroke="#CFDCE6" stroke-width="8" stroke-miterlimit="8" fill="none" fill-rule="evenodd"/><path d="M218.012 330.72C226.427 329.571 235.013 328.995 243.623 329" stroke="#CFDCE6" stroke-width="8" stroke-miterlimit="8" fill="none" fill-rule="evenodd"/><path d="M401.748 148.912 423.412 148.912 423.412 126.881 428.588 126.881 428.588 148.912 450.252 148.912 450.252 154.088 428.588 154.088 428.588 176.119 423.412 176.119 423.412 154.088 401.748 154.088Z" stroke="#CFDCE6" stroke-width="8" stroke-miterlimit="8" fill="#CFDCE6" fill-rule="evenodd"/><rect x="397.086" y="467.914" width="44.8289" height="9.17276" stroke="#CFDCE6" stroke-width="8" stroke-miterlimit="8" fill="#CFDCE6"/><path d="M374.744 461.35 237 461" stroke="#CFDCE6" stroke-width="8" stroke-miterlimit="8" fill="none" fill-rule="evenodd"/><path d="M374.952 483.576 236 482" stroke="#CFDCE6" stroke-width="8" stroke-miterlimit="8" fill="none" fill-rule="evenodd"/><path d="M237.833 272.803 237.833 65.8334 251.167 65.8334 251.167 272.803ZM224.5 72.5001 244.5 32.5001 264.5 72.5Z" fill="#CFDCE6"/><path d="M0 0 0.605249 39.5192" stroke="#CFDCE6" stroke-width="13.3333" stroke-miterlimit="8" fill="none" fill-rule="evenodd" transform="matrix(1 0 0 -1 244.5 330.019)"/><path d="M243.531 397.967 243.5 355.5" stroke="#CFDCE6" stroke-width="13.3333" stroke-miterlimit="8" fill="none" fill-rule="evenodd"/><path d="M0 0 0.000104987 42.3495" stroke="#CFDCE6" stroke-width="13.3333" stroke-miterlimit="8" fill="none" fill-rule="evenodd" transform="matrix(1 0 0 -1 243.5 462.85)"/><path d="M243.707 617.491 241.5 483.5" stroke="#CFDCE6" stroke-width="13.3333" stroke-miterlimit="8" fill="none" fill-rule="evenodd"/><path d="M272.874 266.762 276.132 237.504 278.095 222.755 280.571 208.087 283.568 193.487 287.348 179.007 291.976 164.673 297.654 150.477 304.484 136.559 312.304 122.907 320.917 109.572 330.247 96.4338 340.061 83.4538 350.119 71.0291 360.482 79.4181 350.494 91.7571 350.63 91.5833 340.943 104.396 341.061 104.235 331.873 117.173 332.038 116.93 323.6 129.992 323.785 129.688 316.16 143.001 316.36 142.625 309.735 156.125 309.94 155.663 304.44 169.413 304.594 168.986 300.094 182.923 300.201 182.559 296.513 196.684 296.593 196.34 293.656 210.653 293.699 210.422 291.261 224.86 291.296 224.629 289.358 239.192 289.376 239.05 286.126 268.238ZM335.627 67.6487 376.5 49.5001 366.495 93.0879Z" fill="#CFDCE6"/><path d="M-6.62572 217.262-3.36783 188.004-1.40555 173.255 1.07088 158.587 4.06744 143.987 7.84748 129.507 12.4757 115.173 18.1539 100.977 24.9841 87.0591 32.8035 73.4072 41.4171 60.0721 50.7472 46.9338 60.5613 33.9538 70.619 21.529 80.9824 29.9181 70.9942 42.257 71.1302 42.0832 61.4427 54.8957 61.5605 54.735 52.373 67.6725 52.5375 67.4297 44.1 80.4922 44.2849 80.1884 36.6599 93.5009 36.8598 93.1245 30.2348 106.625 30.4398 106.163 24.9398 119.913 25.0942 119.486 20.5942 133.423 20.7005 133.059 17.013 147.184 17.093 146.84 14.1555 161.153 14.1986 160.922 11.7611 175.36 11.7959 175.129 9.85843 189.692 9.87572 189.55 6.62572 218.738ZM56.1267 18.1487 97 0 86.995 43.5878Z" fill="#CFDCE6" transform="matrix(-1 0 0 1 209.5 54.5001)"/><path d="M0 0 0.605249 39.5192" stroke="#CFDCE6" stroke-width="13.3333" stroke-miterlimit="8" fill="none" fill-rule="evenodd" transform="matrix(1 0 0 -1 209.5 329.019)"/><path d="M0 0 0.605249 39.5192" stroke="#CFDCE6" stroke-width="13.3333" stroke-miterlimit="8" fill="none" fill-rule="evenodd" transform="matrix(1 0 0 -1 279.5 329.019)"/><path d="M0 0 0.605249 39.5192" stroke="#CFDCE6" stroke-width="13.3333" stroke-miterlimit="8" fill="none" fill-rule="evenodd" transform="matrix(1 0 0 -1 209.5 394.019)"/><path d="M0 0 0.605249 39.5192" stroke="#CFDCE6" stroke-width="13.3333" stroke-miterlimit="8" fill="none" fill-rule="evenodd" transform="matrix(1 0 0 -1 278.5 396.019)"/><path d="M0 0 0.605249 39.5192" stroke="#CFDCE6" stroke-width="13.3333" stroke-miterlimit="8" fill="none" fill-rule="evenodd" transform="matrix(1 0 0 -1 208.5 455.019)"/><path d="M0 0 0.605249 39.5192" stroke="#CFDCE6" stroke-width="13.3333" stroke-miterlimit="8" fill="none" fill-rule="evenodd" transform="matrix(1 0 0 -1 279.5 457.019)"/><path d="M279.5 484.5C283.558 505.375 287.616 526.251 299.283 547.417 310.949 568.584 323.123 608.005 349.5 611.5" stroke="#CFDCE6" stroke-width="13.3333" stroke-miterlimit="8" fill="none" fill-rule="evenodd"/><path d="M0 0C4.058 21.0397 8.11599 42.0795 19.7826 63.4128 31.4493 84.7461 43.6232 124.477 70 128" stroke="#CFDCE6" stroke-width="13.3333" stroke-miterlimit="8" fill="none" fill-rule="evenodd" transform="matrix(-1 0 0 1 207.5 480.5)"/><path d="M515 306 615 306 615 275 677 337 615 399 615 368 515 368Z" stroke="#CFDCE6" stroke-width="8" stroke-miterlimit="8" fill="none" fill-rule="evenodd"/><path d="M772 109.615C772 95.4683 783.468 84 797.615 84L1064.38 84C1078.53 84 1090 95.4683 1090 109.615L1090 585.385C1090 599.532 1078.53 611 1064.38 611L797.615 611C783.468 611 772 599.532 772 585.385Z" stroke="#CFDCE6" stroke-width="8" stroke-miterlimit="8" fill="none" fill-rule="evenodd"/><path d="M791 128.554C791 116.098 801.098 106 813.554 106L1048.45 106C1060.9 106 1071 116.098 1071 128.554L1071 499.446C1071 511.902 1060.9 522 1048.45 522L813.554 522C801.098 522 791 511.902 791 499.446Z" stroke="#CFDCE6" stroke-width="8" stroke-miterlimit="8" fill="none" fill-rule="evenodd"/><path d="M902 569.5C902 555.417 914.76 544 930.5 544 946.24 544 959 555.417 959 569.5 959 583.583 946.24 595 930.5 595 914.76 595 902 583.583 902 569.5Z" stroke="#CFDCE6" stroke-width="8" stroke-miterlimit="8" fill="none" fill-rule="evenodd"/><path d="M0 0 137.632 0.000104987" stroke="#CFDCE6" stroke-width="8" stroke-miterlimit="8" fill="none" fill-rule="evenodd" transform="matrix(-1 0 0 1 1004.63 340)"/><path d="M843 228 870.553 340.543" stroke="#CFDCE6" stroke-width="8" stroke-miterlimit="8" fill="none" fill-rule="evenodd"/><path d="M0 0 19.6157 79.2556" stroke="#CFDCE6" stroke-width="8" stroke-miterlimit="8" fill="none" fill-rule="evenodd" transform="matrix(1 0 0 -1 1000 340.256)"/><path d="M0 0 170.107 0.000104987" stroke="#CFDCE6" stroke-width="8" stroke-miterlimit="8" fill="none" fill-rule="evenodd" transform="matrix(-1 0 0 1 1021.11 261)"/><path d="M955 375C955 366.163 962.163 359 971 359 979.837 359 987 366.163 987 375 987 383.837 979.837 391 971 391 962.163 391 955 383.837 955 375Z" stroke="#CFDCE6" stroke-width="8" stroke-miterlimit="8" fill="none" fill-rule="evenodd"/><path d="M0 0 26.4729 0.000104987" stroke="#CFDCE6" stroke-width="8" stroke-miterlimit="8" fill="none" fill-rule="evenodd" transform="matrix(-1 0 0 1 842.473 229)"/><path d="M885 375C885 366.163 892.387 359 901.5 359 910.613 359 918 366.163 918 375 918 383.837 910.613 391 901.5 391 892.387 391 885 383.837 885 375Z" stroke="#CFDCE6" stroke-width="8" stroke-miterlimit="8" fill="none" fill-rule="evenodd"/><path d="M0 0 143.863 0.000104987" stroke="#CFDCE6" stroke-width="8" stroke-miterlimit="8" fill="none" fill-rule="evenodd" transform="matrix(-1 0 0 1 1004.86 303)"/><path d="M910 264 910.172 343.256" stroke="#CFDCE6" stroke-width="8" stroke-miterlimit="8" fill="none" fill-rule="evenodd"/><path d="M955 261 955.172 340.256" stroke="#CFDCE6" stroke-width="8" stroke-miterlimit="8" fill="none" fill-rule="evenodd"/></g></svg>